<?xml version="1.0" standalone="no"?>
<!DOCTYPE svg PUBLIC "-//W3C//DTD SVG 20010904//EN"
 "http://www.w3.org/TR/2001/REC-SVG-20010904/DTD/svg10.dtd">
<svg version="1.0" xmlns="http://www.w3.org/2000/svg"
 width="700.000000pt" height="700.000000pt" viewBox="0 0 700.000000 700.000000"
 preserveAspectRatio="xMidYMid meet">
<metadata>
Created by potrace 1.11, written by Peter Selinger 2001-2013
</metadata>
<g transform="translate(0.000000,700.000000) scale(0.100000,-0.100000)"
fill="#000000" stroke="none">
<path d="M3279 6626 c-2 -2 -40 -7 -84 -10 -95 -7 -305 -41 -390 -63 -33 -8
-69 -17 -80 -19 -11 -2 -51 -13 -90 -24 -38 -12 -77 -23 -85 -25 -185 -52
-517 -207 -723 -339 -97 -62 -258 -176 -277 -196 -3 -3 -32 -27 -65 -55 -86
-71 -126 -108 -224 -209 -108 -112 -107 -111 -161 -176 -25 -30 -47 -57 -50
-60 -3 -3 -31 -39 -61 -80 -201 -270 -382 -624 -478 -935 -29 -95 -74 -275
-86 -340 -2 -16 -7 -40 -9 -51 -6 -32 -14 -82 -22 -149 -3 -33 -9 -69 -11 -80
-9 -37 -11 -519 -3 -585 4 -36 11 -94 14 -129 4 -36 8 -67 10 -70 2 -3 7 -28
10 -56 4 -27 11 -68 16 -90 5 -22 11 -52 14 -66 9 -51 57 -225 87 -314 158
-466 399 -854 749 -1205 154 -155 174 -174 260 -240 25 -19 47 -37 50 -40 15
-18 219 -157 305 -207 363 -215 696 -334 1130 -408 17 -2 55 -7 85 -11 30 -3
84 -10 120 -14 69 -9 512 -6 570 3 19 3 62 8 95 12 382 39 859 204 1220 424
90 54 295 197 331 229 10 10 33 28 49 40 84 65 274 250 367 357 104 119 251
320 306 416 11 19 36 63 57 99 96 168 180 356 245 550 37 109 93 319 103 385
3 17 10 57 16 90 27 154 36 281 36 515 0 242 -6 332 -35 499 -24 141 -28 160
-64 306 -60 244 -209 592 -349 820 -47 75 -121 187 -139 210 -4 6 -38 48 -75
95 -143 184 -346 390 -493 503 -30 23 -64 50 -75 60 -26 24 -261 182 -317 213
-47 26 -341 172 -373 185 -177 71 -369 132 -520 165 -52 12 -123 25 -155 30
-19 3 -46 7 -60 9 -14 3 -47 7 -75 11 -27 3 -61 8 -75 11 -29 6 -535 14 -541
9z m401 -760 c14 -3 46 -7 71 -10 25 -3 66 -10 90 -15 24 -5 60 -12 79 -15 74
-11 262 -70 380 -118 344 -142 641 -374 894 -698 17 -22 109 -161 122 -185 6
-11 27 -47 45 -80 31 -54 59 -112 117 -245 36 -81 72 -191 72 -217 0 -48 -29
-91 -78 -115 -45 -22 -57 -23 -262 -23 -283 2 -268 -6 -370 199 -183 368 -438
605 -815 757 -73 29 -239 72 -325 84 -25 3 -58 9 -75 12 -62 11 -321 9 -410
-3 -283 -39 -539 -147 -770 -323 -71 -53 -238 -219 -280 -276 -17 -22 -33 -42
-36 -45 -32 -26 -170 -263 -209 -360 -12 -30 -28 -68 -35 -85 -12 -27 -33 -99
-35 -117 0 -4 -7 -26 -15 -48 -15 -41 -31 -121 -40 -200 -4 -25 -8 -58 -10
-75 -6 -38 -6 -288 0 -339 2 -22 7 -55 10 -75 3 -20 8 -49 10 -66 28 -171 129
-436 228 -596 26 -41 112 -163 142 -199 91 -111 280 -277 404 -355 146 -91
376 -184 521 -210 131 -24 222 -32 340 -29 189 3 289 18 468 70 434 126 806
458 994 888 69 159 76 162 359 161 235 -1 254 -5 297 -64 33 -46 28 -95 -24
-234 -213 -562 -604 -1008 -1101 -1256 -135 -67 -154 -75 -268 -114 -177 -61
-294 -86 -530 -116 -70 -9 -428 -7 -475 3 -14 2 -56 9 -95 15 -340 52 -695
200 -975 408 -407 303 -712 741 -865 1245 -19 62 -36 125 -39 141 -3 15 -7 35
-10 45 -11 37 -34 180 -44 277 -14 144 -6 474 15 583 3 15 6 36 8 47 61 393
251 817 512 1140 109 135 223 250 337 340 21 17 43 35 50 41 25 23 196 134
273 178 260 146 557 241 850 272 32 4 60 8 61 10 6 4 415 -4 442 -10z"/>
</g>
</svg>
