<svg width="167" height="30" viewBox="0 0 167 30" fill="none" xmlns="http://www.w3.org/2000/svg">
<path d="M0 24.2809L8.20699 5.0408H13.357L21.564 24.2809H15.8356L14.4311 20.8696H6.99522L5.61821 24.2809H0ZM8.56502 16.7486H12.8888L10.7407 11.3177L8.56502 16.7486Z" fill="white"/>
<path d="M22.0576 24.2809V5.17726H27.7033L32.3026 12.5731L36.9018 5.17726H42.5475V24.2809H37.2323V13.31L32.3026 20.7877H32.1924L27.2902 13.3645V24.2809H22.0576Z" fill="white"/>
<path d="M44.59 24.2809V5.17726H54.477C56.8271 5.17726 58.5805 5.75037 59.7372 6.89659C60.5634 7.71532 60.9765 8.76147 60.9765 10.0351C60.9765 12.0182 59.985 13.4373 58.0021 14.2924C59.2506 14.6927 60.1962 15.2658 60.8388 16.0118C61.4997 16.7577 61.8302 17.7584 61.8302 19.0138C61.8302 20.6512 61.1876 21.943 59.9024 22.8891C58.6172 23.817 56.8271 24.2809 54.5321 24.2809H44.59ZM49.7951 20.0235H53.9262C55.6337 20.0235 56.4874 19.4231 56.4874 18.2223C56.4874 17.0761 55.6153 16.503 53.8711 16.503H49.7951V20.0235ZM49.7951 12.7914H53.155C54.8442 12.7914 55.6887 12.2183 55.6887 11.0721C55.6887 9.98047 54.8809 9.43465 53.2652 9.43465H49.7951V12.7914Z" fill="white"/>
<path d="M72.0266 15.1254C72.0266 17.3833 72.7813 19.26 74.2906 20.7557C75.2822 21.7195 76.4181 22.3698 77.6985 22.7065V24.2308H79.0464V22.9404C79.3203 22.9652 79.5999 22.9776 79.8852 22.9776C79.995 22.9776 80.1035 22.9762 80.2108 22.9733V24.2308H81.5777V22.8495C82.4344 22.7105 83.1909 22.4584 83.8472 22.0931C84.9066 21.4891 85.8354 20.6478 86.6336 19.5692L83.4553 17.3258C82.9474 17.9298 82.4322 18.39 81.9097 18.7064C81.3873 19.0084 80.756 19.1594 80.0159 19.1594C78.9564 19.1594 78.0857 18.7783 77.4036 18.0161C76.7215 17.2395 76.3804 16.2759 76.3804 15.1254C76.3804 13.9893 76.7215 13.0329 77.4036 12.2564C78.0857 11.4798 78.9564 11.0915 80.0159 11.0915C81.3075 11.0915 82.4249 11.6739 83.3683 12.8388L86.4595 10.4659C85.2088 8.75161 83.5815 7.72769 81.5777 7.39413V5.91973H80.2108V7.27436C80.1605 7.27361 80.11 7.27324 80.0594 7.27324C79.7131 7.27324 79.3754 7.29046 79.0464 7.3249V5.91973H77.6985V7.57525C76.4177 7.9253 75.289 8.57965 74.3124 9.53829C72.7886 11.0483 72.0266 12.9107 72.0266 15.1254Z" fill="white"/>
<path fill-rule="evenodd" clip-rule="evenodd" d="M158.432 20.691C156.865 22.2154 154.913 22.9776 152.577 22.9776C150.24 22.9776 148.288 22.2226 146.721 20.7125C145.168 19.1881 144.391 17.3258 144.391 15.1254C144.391 12.9395 145.175 11.0843 146.742 9.55987C148.324 8.03545 150.284 7.27324 152.62 7.27324C154.957 7.27324 156.901 8.03545 158.454 9.55987C160.021 11.0699 160.805 12.9251 160.805 15.1254C160.805 17.3114 160.014 19.1666 158.432 20.691ZM152.62 19.2025C153.767 19.2025 154.695 18.807 155.406 18.0161C156.132 17.2251 156.495 16.2615 156.495 15.1254C156.495 14.0037 156.125 13.0473 155.385 12.2564C154.645 11.451 153.709 11.0483 152.577 11.0483C151.445 11.0483 150.516 11.4438 149.79 12.2348C149.079 13.0258 148.723 13.9893 148.723 15.1254C148.723 16.2472 149.086 17.2107 149.812 18.0161C150.552 18.807 151.488 19.2025 152.62 19.2025Z" fill="white"/>
<path fill-rule="evenodd" clip-rule="evenodd" d="M95.1119 7.57525H87.9064V22.6756H92.1296V18.1023H93.98L97.0494 22.6756H101.926L98.2902 17.412C100.38 16.5348 101.425 14.9888 101.425 12.7741C101.425 11.2784 100.975 10.0848 100.075 9.19314C98.9868 8.11455 97.3324 7.57525 95.1119 7.57525ZM94.916 14.8234H92.1296V11.1993H94.8942C95.6199 11.1993 96.1786 11.3503 96.5705 11.6523C96.9768 11.9543 97.18 12.4002 97.18 12.9898C97.18 13.5651 96.9768 14.0181 96.5705 14.3488C96.1786 14.6652 95.6271 14.8234 94.916 14.8234Z" fill="white"/>
<path d="M106.853 17.0237V22.6756H111.098V16.959L116.889 7.57525H112.165L109.008 13.0761L105.874 7.57525H101.063L106.853 17.0237Z" fill="white"/>
<path fill-rule="evenodd" clip-rule="evenodd" d="M121.866 22.6756H117.643V7.57525H124.174C126.119 7.57525 127.657 8.04983 128.789 8.999C129.935 9.93378 130.509 11.2425 130.509 12.9251C130.509 14.6508 129.906 15.9883 128.702 16.9375C127.497 17.8866 125.915 18.3612 123.956 18.3612H121.866V22.6756ZM121.866 15.0823H123.869C124.624 15.0823 125.211 14.9025 125.632 14.543C126.068 14.1834 126.285 13.6945 126.285 13.0761C126.285 12.4289 126.068 11.94 125.632 11.6092C125.211 11.264 124.616 11.0915 123.847 11.0915H121.866V15.0823Z" fill="white"/>
<path d="M130.897 11.2425H135.469V22.6756H139.692V11.2425H144.263V7.57525H130.897V11.2425Z" fill="white"/>
<path fill-rule="evenodd" clip-rule="evenodd" d="M151.863 0H81.2911C72.9312 0 66.1541 6.71573 66.1541 15C66.1541 23.2843 72.9312 30 81.2911 30H151.863C160.223 30 167 23.2843 167 15C167 6.71573 160.223 0 151.863 0ZM66.6604 15C66.6604 6.99279 73.2108 0.501672 81.2911 0.501672H151.863C159.943 0.501672 166.494 6.99279 166.494 15C166.494 23.0072 159.943 29.4983 151.863 29.4983H81.2911C73.2108 29.4983 66.6604 23.0072 66.6604 15Z" fill="white"/>
</svg>
