<svg width="152" height="38" viewBox="0 0 152 38" fill="none" xmlns="http://www.w3.org/2000/svg">
<path d="M40.542 28.7974C38.0242 28.7974 35.9205 27.9383 34.2309 26.22C32.5413 24.4852 31.6965 22.3539 31.6965 19.8261C31.6965 17.3148 32.5413 15.1917 34.2309 13.457C35.9205 11.7222 38.0656 10.8548 40.6662 10.8548C42.1736 10.8548 43.4491 11.0861 44.4927 11.5487C45.5528 12.0113 46.5467 12.6804 47.4743 13.5561L45.5114 15.8113C43.9543 14.3739 42.331 13.6552 40.6414 13.6552C38.9849 13.6552 37.6101 14.25 36.5168 15.4396C35.4401 16.6291 34.9017 18.0913 34.9017 19.8261C34.9017 21.5443 35.4484 23.0065 36.5416 24.2126C37.6349 25.4022 39.0015 25.997 40.6414 25.997C41.6353 25.997 42.5132 25.8152 43.2752 25.4517C44.0372 25.0717 44.824 24.5017 45.6356 23.7417L47.5986 25.7243C46.6212 26.7487 45.586 27.517 44.4927 28.0291C43.3994 28.5413 42.0825 28.7974 40.542 28.7974Z" fill="white"/>
<path d="M56.4569 28.7974C54.4691 28.7974 52.8127 28.1365 51.4875 26.8148C50.1623 25.493 49.4997 23.8822 49.4997 21.9822C49.4997 20.0822 50.1706 18.4713 51.5123 17.1496C52.8541 15.8113 54.5188 15.1422 56.5066 15.1422C58.4944 15.1422 60.1508 15.803 61.476 17.1248C62.8177 18.4465 63.4886 20.0657 63.4886 21.9822C63.4886 23.8657 62.8177 25.4765 61.476 26.8148C60.1343 28.1365 58.4612 28.7974 56.4569 28.7974ZM56.5066 26.1952C57.6993 26.1952 58.66 25.7904 59.3888 24.9809C60.1177 24.1713 60.4821 23.1717 60.4821 21.9822C60.4821 20.8091 60.1011 19.8178 59.3392 19.0083C58.5772 18.1822 57.6164 17.7691 56.4569 17.7691C55.2808 17.7691 54.3283 18.1739 53.5995 18.9835C52.8707 19.793 52.5062 20.7926 52.5062 21.9822C52.5062 23.1387 52.8872 24.13 53.6492 24.9561C54.4112 25.7822 55.3636 26.1952 56.5066 26.1952Z" fill="white"/>
<path d="M66.6001 13.4074V10.5574H69.8302V13.4074H66.6001ZM66.7243 28.5V15.4148H69.7308V28.5H66.7243Z" fill="white"/>
<path d="M73.66 28.5V15.4148H76.6664V17.447C77.71 15.9104 79.0766 15.1422 80.7662 15.1422C82.2239 15.1422 83.3668 15.5965 84.1951 16.5052C85.0233 17.4139 85.4374 18.6365 85.4374 20.173V28.5H82.4309V21.0652C82.4309 20.0409 82.1825 19.2561 81.6855 18.7109C81.2052 18.1491 80.5177 17.8683 79.6232 17.8683C78.7453 17.8683 78.033 18.1574 77.4864 18.7357C76.9398 19.3139 76.6664 20.107 76.6664 21.1148V28.5H73.66Z" fill="white"/>
<path d="M97.6651 28.7974C94.9816 28.7974 92.8033 27.9548 91.1303 26.2696C89.4738 24.5678 88.6456 22.42 88.6456 19.8261C88.6456 17.3478 89.4904 15.233 91.18 13.4817C92.8862 11.7304 95.0313 10.8548 97.6154 10.8548C99.0731 10.8548 100.315 11.053 101.342 11.4496C102.369 11.8296 103.355 12.4161 104.299 13.2091L102.361 15.5139C101.632 14.8861 100.895 14.4235 100.15 14.1261C99.4209 13.8122 98.5347 13.6552 97.4911 13.6552C95.9009 13.6552 94.5592 14.2583 93.4659 15.4643C92.3892 16.6704 91.8509 18.1243 91.8509 19.8261C91.8509 21.627 92.3975 23.1139 93.4908 24.287C94.584 25.4435 96.0086 26.0217 97.7644 26.0217C99.3878 26.0217 100.787 25.5839 101.964 24.7083V21.4617H97.516V18.81H104.92V26.0961C102.817 27.897 100.398 28.7974 97.6651 28.7974Z" fill="white"/>
<path d="M119.802 28.5H116.821V26.8891C115.761 28.1448 114.344 28.7726 112.572 28.7726C111.263 28.7726 110.153 28.4174 109.242 27.707C108.348 26.98 107.901 25.9722 107.901 24.6835C107.901 23.2791 108.389 22.2135 109.367 21.4865C110.344 20.7596 111.628 20.3961 113.218 20.3961C114.493 20.3961 115.703 20.5778 116.846 20.9413V20.6935C116.846 19.7848 116.564 19.0909 116.001 18.6117C115.454 18.1326 114.659 17.893 113.615 17.893C112.423 17.893 111.172 18.1657 109.864 18.7109L109.044 16.307C110.667 15.58 112.332 15.2165 114.038 15.2165C115.943 15.2165 117.376 15.6957 118.336 16.6539C119.314 17.6122 119.802 18.9752 119.802 20.743V28.5ZM116.895 23.7665V23.023C116.001 22.6761 114.999 22.5026 113.889 22.5026C112.945 22.5026 112.207 22.6843 111.677 23.0478C111.147 23.4113 110.882 23.9235 110.882 24.5843C110.882 25.1791 111.122 25.65 111.603 25.997C112.083 26.3439 112.688 26.5174 113.417 26.5174C114.427 26.5174 115.255 26.2613 115.901 25.7491C116.564 25.237 116.895 24.5761 116.895 23.7665Z" fill="white"/>
<path d="M123.378 32.4652V15.4148H126.385V17.5957C127.544 15.96 129.027 15.1422 130.832 15.1422C132.489 15.1422 133.922 15.7617 135.131 17.0009C136.34 18.2235 136.945 19.8839 136.945 21.9822C136.945 24.0474 136.34 25.6996 135.131 26.9387C133.922 28.1613 132.489 28.7726 130.832 28.7726C129.027 28.7726 127.544 28.0043 126.385 26.4678V32.4652H123.378ZM130.137 26.1704C131.197 26.1704 132.083 25.7822 132.795 25.0057C133.524 24.2291 133.888 23.2048 133.888 21.9326C133.888 20.6935 133.524 19.6857 132.795 18.9091C132.066 18.1326 131.18 17.7443 130.137 17.7443C129.093 17.7443 128.19 18.1409 127.428 18.9339C126.683 19.727 126.31 20.743 126.31 21.9822C126.31 23.2048 126.683 24.2126 127.428 25.0057C128.19 25.7822 129.093 26.1704 130.137 26.1704Z" fill="white"/>
<path d="M146.037 28.7974C144.115 28.7974 142.508 28.1613 141.216 26.8891C139.941 25.617 139.303 23.973 139.303 21.9574C139.303 20.0574 139.908 18.4465 141.117 17.1248C142.326 15.803 143.858 15.1422 145.714 15.1422C147.701 15.1422 149.242 15.8196 150.335 17.1743C151.445 18.5126 152 20.1813 152 22.1804C152 22.5439 151.983 22.8248 151.95 23.023H142.31C142.475 24.0639 142.898 24.8817 143.577 25.4765C144.256 26.0548 145.093 26.3439 146.086 26.3439C147.378 26.3439 148.563 25.8235 149.64 24.7826L151.404 26.3439C150.045 27.9796 148.256 28.7974 146.037 28.7974ZM142.285 21.0404H149.018C148.919 20.0326 148.579 19.2065 148 18.5622C147.42 17.9178 146.65 17.5957 145.689 17.5957C144.778 17.5957 144.016 17.9178 143.403 18.5622C142.79 19.19 142.417 20.0161 142.285 21.0404Z" fill="white"/>
<path d="M3.31293 19.2065C3.31293 25.2516 8.1335 30.1522 14.08 30.1522C16.4853 30.1522 18.7064 29.3504 20.4988 27.9953V31.893C19.2798 32.526 17.9577 32.9843 16.5647 33.2353V38H14.08V33.4565C13.4482 33.4565 12.8262 33.4144 12.2164 33.3328V38H9.9388V32.8302C4.18368 31.0404 0 25.618 0 19.2065C0 12.7951 4.18368 7.3726 9.9388 5.58285V0H12.2164V5.08023C12.8262 4.99863 13.4482 4.95652 14.08 4.95652V0H16.5647V5.1777C17.9577 5.42873 19.2798 5.88706 20.4988 6.52007V10.4177C18.7064 9.06268 16.4853 8.26087 14.08 8.26087C8.1335 8.26087 3.31293 13.1614 3.31293 19.2065Z" fill="white"/>
<path d="M13.9082 27.1105C11.5378 27.1105 9.61368 26.3662 8.13583 24.8776C6.67262 23.3744 5.94101 21.4772 5.94101 19.1859C5.94101 16.9967 6.68725 15.1287 8.17973 13.5817C9.68684 12.0347 11.5817 11.2612 13.8643 11.2612C15.1519 11.2612 16.2493 11.4363 17.1565 11.7866C18.0637 12.1223 18.9343 12.6404 19.7684 13.3409L18.0564 15.3768C17.4126 14.8222 16.7615 14.4136 16.103 14.1509C15.4592 13.8736 14.6764 13.7349 13.7546 13.7349C12.3499 13.7349 11.1647 14.2676 10.199 15.333C9.24787 16.3984 8.77233 17.6827 8.77233 19.1859C8.77233 20.7766 9.25519 22.0901 10.2209 23.1263C11.1866 24.1479 12.445 24.6587 13.996 24.6587C15.4299 24.6587 16.6664 24.272 17.7052 23.4985V20.6307H13.7765V18.2883H20.3171V24.7244C18.4588 26.3151 16.3225 27.1105 13.9082 27.1105Z" fill="white"/>
</svg>
