<svg width="155" height="30" viewBox="0 0 155 30" fill="none" xmlns="http://www.w3.org/2000/svg">
<path fill-rule="evenodd" clip-rule="evenodd" d="M13.8727 0L13.5113 5.37742H10.8573L10.6146 2.03207H6.39355V10.0374H8.20332C8.33818 9.44021 8.44606 8.84302 8.68611 8.24449H10.6146V13.7408H8.80748L8.32469 11.9479H6.51492V20.4315H10.7359L11.0973 16.7268L13.9914 16.8604L14.2341 22.477H0.364112V20.5665L2.29256 20.2084V2.26987L0 1.91183V0.00133782H13.87L13.8727 0ZM62.8256 29.9906C62.8256 29.3935 62.9604 28.9152 62.9604 28.4369L64.4075 28.0788V8.97395C63.8046 8.84035 63.3219 8.84035 62.7191 8.73347V7.17969L67.3042 6.5825C67.439 7.17969 67.6656 7.77689 67.787 8.25518C67.9218 8.25518 67.9218 8.12158 68.0297 8.12158C69.1153 6.80695 70.5623 6.4489 72.2507 6.5678C74.3005 6.80828 75.5075 8.12158 75.9903 9.91316C76.233 10.7495 76.4731 11.5858 76.4731 12.4222C76.6079 14.2151 76.6079 16.0067 76.3382 17.6794C76.2034 18.2766 75.9768 18.994 75.7354 19.5898C74.8912 21.3828 73.4428 22.4569 71.5144 22.5772C70.4288 22.7108 69.4646 22.5772 68.499 22.0989H68.2563V28.0882L69.8246 28.4462C69.8246 28.9245 69.6898 29.4015 69.6898 30H62.8148L62.8256 29.9906ZM68.2536 20.0735C69.4592 20.5518 70.681 20.6707 71.8718 20.2071C72.0873 20.1129 72.2595 19.9423 72.3546 19.7288C72.4894 19.1316 72.716 18.5344 72.716 17.9359C72.9587 16.143 72.9587 14.2311 72.8508 12.4395C72.8479 11.7859 72.7255 11.1381 72.4894 10.5277C72.128 9.21309 71.1624 8.7348 69.8354 8.97395H69.5927C68.7485 9.10755 68.2657 9.69138 68.2657 10.5277V20.0721L68.2536 20.0735ZM114.087 20.4342L115.656 20.7923C115.656 21.3894 115.656 21.8677 115.521 22.4649H110.214V11.7101C110.214 11.2318 110.079 10.7548 109.971 10.2766C109.837 9.67936 109.369 9.44022 108.766 9.32131C108.163 9.20241 107.68 9.18771 107.197 9.45491C106.715 9.72211 106.353 9.9332 106.353 10.5304V20.4476L107.922 20.8056C107.922 21.2839 107.787 21.8811 107.787 22.4783H101.033V20.8083L102.602 20.4502V9.0982C101.999 8.9646 101.516 8.9646 100.913 8.85772V7.16633L105.363 6.56914L105.725 8.00267C106.086 7.76219 106.449 7.40548 106.81 7.16633C108.257 6.21109 109.946 6.09085 111.514 6.68804C112.841 7.16633 113.564 8.24182 113.807 9.67535C113.942 10.0334 113.942 10.5117 113.942 10.8697V19.8317C114.029 20.0183 114.071 20.2231 114.063 20.4289L114.087 20.4342ZM20.7342 20.5678L22.3026 20.9259C22.3026 21.523 22.1677 22.0013 22.1677 22.5985H15.2927C15.2927 22.1202 15.2927 21.523 15.4276 20.9259L16.8746 20.5678C17.0094 20.2098 17.0094 9.81296 16.8746 9.21577C16.3918 9.08216 15.789 9.08216 15.1862 8.97528V7.28657L19.6365 6.68938L19.9979 8.12292L20.3593 7.76486C21.8063 6.57047 23.4947 6.21109 25.3045 6.68938C26.8729 7.04743 27.7319 8.12291 28.0785 9.67669C28.2133 10.0347 28.2133 10.513 28.2133 10.8711V20.4302L29.7817 20.7882V22.477H24.4751V12.0828C24.4751 11.7248 24.4751 11.2465 24.3402 10.8884C24.2054 9.9332 23.6161 9.45491 22.7719 9.33467C22.0477 9.20107 21.4449 9.33467 20.9621 9.93186C20.7194 10.1723 20.7194 10.4102 20.7194 10.7682V20.5665L20.7342 20.5678ZM138.464 8.72278C137.861 8.72278 137.378 8.58918 136.775 8.58918V7.15565L141.962 6.55845C142.205 7.15564 142.445 7.75284 142.445 8.46894V20.5371L144.013 20.8951C144.013 21.4923 143.878 21.9706 143.878 22.5678H139.428C139.293 22.2098 139.185 21.7315 139.067 21.2532C138.932 21.3868 138.824 21.4937 138.705 21.4937C136.896 23.1663 134.484 22.9272 132.916 22.2111C131.71 21.6139 131.106 20.6573 130.866 19.344C130.731 18.8657 130.731 18.5077 130.731 18.0294V8.82833C130.128 8.69473 129.526 8.69473 129.043 8.58784V7.16633L134.108 6.56914C134.243 7.16634 134.469 7.64462 134.469 8.24182V17.3226C134.469 17.6807 134.469 18.159 134.604 18.517C134.739 19.5925 135.449 20.31 136.533 20.31C136.894 20.31 137.377 20.1764 137.738 20.1764C138.1 20.0428 138.703 19.34 138.703 18.982V9.06346C138.46 8.92986 138.46 8.82298 138.46 8.70541L138.464 8.72278ZM54.2905 15.5324C54.2905 16.847 54.5333 17.9372 55.1347 18.998C55.7375 19.8343 56.5817 20.3126 57.6673 20.4315C58.7529 20.4315 59.7172 20.1911 60.6827 19.8343C60.8176 19.8343 60.9255 19.7007 61.1655 19.7007C61.4082 20.179 61.5269 20.656 61.7683 21.1343C61.5256 21.3748 61.1655 21.4923 60.9241 21.7315C58.9957 22.8069 56.9459 23.165 54.8933 22.4489C53.0836 21.9706 51.9993 20.7762 51.1538 19.1035C50.3096 17.3106 50.0682 15.3988 50.3096 13.487C50.4444 12.2926 50.671 11.0822 51.1538 10.0214C51.998 8.22846 53.3115 7.03407 55.2534 6.67602C57.1953 6.31797 58.8716 6.54242 60.3186 7.87041C61.1628 8.70675 61.6456 9.7809 62.007 10.8577C62.3684 12.0521 62.4898 13.1289 62.4898 14.3233C62.4898 14.6814 62.2471 15.0408 62.1284 15.5177H54.2892L54.2905 15.5324ZM58.9943 13.5017C58.9943 13.0234 58.8595 12.6653 58.8595 12.3073C58.7246 11.352 58.6167 10.5144 58.1353 9.67802C57.6525 8.72278 56.8083 8.48363 55.8427 8.84168C55.4813 8.97528 55.2399 9.19973 54.9985 9.55912C54.5157 10.8737 54.2743 12.1884 54.1543 13.5003V13.8584L58.9781 13.5003L58.9943 13.5017ZM128.108 15.5324L120.269 15.666C120.134 16.2632 120.269 16.7415 120.404 17.2198C120.528 18.0046 120.86 18.7426 121.368 19.3574C121.971 20.0748 122.695 20.4329 123.661 20.4329C124.626 20.4329 125.589 20.2993 126.555 19.9546C126.797 19.821 126.916 19.821 127.158 19.7141C127.4 20.1924 127.519 20.6693 127.76 21.1476C127.625 21.1476 127.625 21.2812 127.518 21.2812C125.829 22.4756 124.019 22.835 121.97 22.7148C119.542 22.4743 117.87 21.0421 117.024 18.7735C115.819 15.9065 115.939 13.0381 117.159 10.1697C117.883 8.37676 119.209 7.06346 121.259 6.70408C122.827 6.34603 124.394 6.46359 125.709 7.42151C126.673 8.13894 127.278 9.09419 127.759 10.0508C128.242 11.3654 128.483 12.9178 128.483 14.3527C128.483 14.7108 128.24 15.0701 128.122 15.5471L128.108 15.5324ZM125.093 13.5017C125.093 12.4262 124.958 11.4709 124.61 10.5144C124.475 10.0361 124.249 9.55912 123.886 9.19973C123.283 8.3634 121.353 8.60254 121.112 9.67802C120.869 10.5144 120.629 11.3507 120.509 12.3073C120.374 12.7856 120.374 13.2625 120.374 13.8611L125.078 13.503L125.093 13.5017ZM100.366 15.5324L92.5264 15.666C92.5264 17.0995 92.7691 18.2953 93.612 19.3707C94.2148 20.0882 94.939 20.4462 95.7697 20.4462C96.7339 20.4462 97.8195 20.3126 98.6637 19.9679C98.9064 19.8343 99.0251 19.8343 99.2665 19.7275C99.5092 20.2057 99.6279 20.6827 99.8693 21.161C99.6266 21.2946 99.5079 21.4015 99.3865 21.519C97.6592 22.5792 95.5948 22.9627 93.5971 22.5945C91.6687 22.2365 90.3404 21.0407 89.4975 19.3681C88.6533 17.5751 88.4119 15.7836 88.5333 13.8717C88.6681 12.5571 88.8947 11.3627 89.3775 10.167C89.9803 8.73347 90.9459 7.65798 92.3929 7.06079C94.0813 6.34336 95.7697 6.34335 97.4581 7.19439C98.5437 7.79158 99.2679 8.74816 99.7506 9.82365C100.353 11.2572 100.595 12.811 100.595 14.3661C100.73 14.7241 100.46 15.0835 100.352 15.5605L100.366 15.5324ZM97.3502 13.5017C97.3502 13.0234 97.2153 12.5464 97.2153 12.0681C97.0805 11.2318 96.9726 10.3955 96.4912 9.66333C95.8884 8.70809 95.0442 8.3487 94.0637 8.82699C93.821 8.96059 93.581 9.06747 93.4609 9.42418C92.9781 10.3794 92.7367 11.4549 92.6167 12.5304C92.6167 12.8884 92.4819 13.2478 92.4819 13.7248C94.0503 13.7248 95.6173 13.5912 97.3057 13.4843L97.3502 13.5017ZM44.0239 6.69072L44.3853 8.12425C44.6281 7.99065 44.7467 7.88377 44.9881 7.7662C46.0737 7.16901 47.2807 6.81096 48.4863 6.69072C49.0891 6.55712 49.5719 6.82432 49.9333 7.28791L49.4505 11.4696C48.6063 11.4696 47.7621 11.336 46.9179 11.336C46.7831 10.6186 46.6752 9.90247 46.6752 9.0648C46.0724 9.0648 45.5896 9.30528 45.1068 9.66199V20.4168L46.6752 20.7749C46.6752 21.2532 46.6752 21.8504 46.5403 22.3287H39.8029V20.7749L41.2499 20.4168V9.07682C40.6471 8.94322 40.1643 8.94322 39.5615 8.83634V7.16633C41.0085 7.16633 42.4555 6.92585 44.0118 6.68804L44.0239 6.69072ZM144.735 22.477C144.735 21.8798 144.735 21.4015 144.87 20.9232L146.317 20.5651V9.21309C145.834 9.07949 145.231 9.07949 144.628 8.97261V7.28657L149.213 6.68938L149.575 8.00401L151.503 7.16767C152.227 6.92719 152.83 6.80962 153.553 6.68938C154.156 6.55578 154.639 6.68938 155 7.28657L154.517 11.4683C153.673 11.4683 152.829 11.3347 151.985 11.3347C151.85 10.6172 151.742 9.7809 151.742 9.06346L150.173 9.66066V20.5357L151.742 20.8938C151.742 21.3721 151.607 21.9693 151.607 22.4476H144.732L144.735 22.477ZM84.7775 9.08083L83.2092 9.67802V20.5531L84.7775 20.9112C84.7775 21.5084 84.6427 21.9866 84.6427 22.4649H77.8891V20.9112L79.3361 20.5531V9.20107C78.7333 9.06747 78.2505 9.06747 77.6477 8.96059V7.28657L82.2328 6.68938L82.5942 8.00401L83.9212 7.28657C84.7654 6.92852 85.6096 6.68938 86.5752 6.56914C87.2993 6.56914 87.7808 6.80962 88.1435 7.28657L87.6608 11.4683C86.8166 11.4683 85.9724 11.3347 85.1282 11.3347L84.7667 9.06346L84.7775 9.08083ZM35.3284 3.70341V6.92986H38.1172C37.9823 7.64729 37.9823 8.24449 37.9823 8.96059C37.1381 8.96059 36.2939 9.09419 35.4497 9.20107V19.3574C35.5846 19.9546 35.9325 20.4329 36.6553 20.4329H38.2237C38.2237 21.0301 38.3586 21.5083 38.3586 22.1055C37.9972 22.346 37.5144 22.4636 37.0316 22.5838C36.0674 22.8243 35.1031 22.8243 34.1376 22.7174C32.6906 22.477 31.7102 21.523 31.4836 19.9693V9.21443C30.8808 9.08083 30.278 8.97395 29.6738 8.97395C29.6738 8.37675 29.6738 7.65932 29.8087 7.06346C30.5329 7.06346 31.1357 6.92986 31.8585 6.92986L32.7027 3.94255L35.3567 3.70207L35.3284 3.70341Z" fill="white"/>
</svg>
