<svg width="107" height="29" viewBox="0 0 107 29" fill="none" xmlns="http://www.w3.org/2000/svg">
<g clip-path="url(#clip0)">
<path d="M26.5852 28.9205C24.7199 28.6391 23.0885 27.8212 21.8427 26.5428C20.8035 25.4765 20.1298 24.3038 19.6331 22.697C18.8577 20.1883 18.8574 16.963 19.6324 14.5055C20.3835 12.1239 22.0746 10.0508 24.1443 8.97448C27.0105 7.48392 31.0446 7.57755 33.6992 9.19625C36.0883 10.653 37.5355 13.2415 37.9381 16.778C38.061 17.8578 37.9812 20.1386 37.7876 21.08C36.9952 24.9333 34.6872 27.6251 31.3059 28.6396C30.9416 28.749 30.3766 28.8769 30.0503 28.9239C29.36 29.0233 27.2533 29.0213 26.5852 28.9205ZM30.6222 28.623C31.9872 28.2929 33.0753 27.789 34.0479 27.0364C36.4137 25.206 37.71 22.3994 37.8297 18.8487C37.9477 15.3483 36.9287 12.3644 34.9582 10.4405C33.3587 8.87876 31.3431 8.13016 28.7376 8.13016C25.9756 8.13016 23.7513 9.01732 22.04 10.8015C20.2069 12.7126 19.2373 15.3786 19.2373 18.5077C19.2373 21.7537 20.1133 24.3741 21.8122 26.21C22.7489 27.2222 23.6607 27.8293 24.9682 28.3112C25.4305 28.4815 25.7707 28.5633 27.0067 28.8014C27.1125 28.8218 27.8222 28.8255 28.5837 28.8098C29.6147 28.7884 30.1354 28.7407 30.6222 28.623ZM27.7035 27.4905C26.4399 26.8966 25.5439 25.0917 25.0948 22.2356C24.8102 20.425 24.7833 16.3987 25.0427 14.4258C25.407 11.6553 26.1765 10.0185 27.3747 9.46557C28.1959 9.08658 29.3341 9.3108 30.066 9.99575C31.6913 11.5169 32.5117 15.8426 32.1577 21.0253C31.9037 24.7443 31.1246 26.7613 29.6714 27.4623C29.1446 27.7164 28.2127 27.7298 27.7035 27.4905ZM29.3757 27.3731C29.9207 27.2055 30.5927 26.5526 30.9511 25.8427C31.6909 24.3772 32.0213 22.2101 32.0294 18.769C32.0397 14.4564 31.3871 11.7121 30.0097 10.2753C29.4312 9.67186 29.0211 9.48446 28.2815 9.48569C26.6402 9.48843 25.5985 11.2635 25.1869 14.7589C24.9977 16.3655 24.9967 20.1932 25.1851 21.598C25.7682 25.9454 27.2735 28.0199 29.3757 27.3731ZM59.6229 28.9195C58.8598 28.8393 56.5277 28.4373 55.7131 28.2454L55.1495 28.1127L55.1935 24.9948C55.2993 17.4882 55.3126 13.3904 55.2441 9.40522C55.177 5.50131 55.1575 5.08854 55.0121 4.51106C54.828 3.77935 54.5622 3.26895 54.2426 3.03315C54.1184 2.94155 53.781 2.81174 53.4929 2.74467C52.535 2.52177 52.587 2.55751 52.5615 2.10483C52.5467 1.84407 52.574 1.6718 52.6384 1.61894C52.7247 1.54808 60.5809 -0.004351 60.8311 9.16709e-06C60.903 0.00126192 60.9132 1.04191 60.8764 4.62373C60.8502 7.16589 60.8469 9.24584 60.8689 9.24584C60.891 9.24584 61.178 9.11707 61.5068 8.95968C62.498 8.48526 63.4116 8.27941 64.7384 8.2315C65.6219 8.1996 66.0311 8.21958 66.4843 8.31673C69.4477 8.95189 71.6406 11.4647 72.407 15.1032C72.6069 16.0523 72.6813 18.4112 72.5486 19.5928C72.4354 20.5999 72.1127 21.9567 71.7768 22.8373C70.5094 26.16 67.79 28.3277 64.1826 28.891C63.3517 29.0207 60.7423 29.0371 59.6229 28.9195ZM63.9692 28.7295C66.306 28.3664 68.02 27.5351 69.4716 26.0608C71.5699 23.9296 72.5805 20.9219 72.4439 17.215C72.3736 15.3065 72.0727 14.0598 71.3092 12.5132C70.2748 10.4179 68.5056 8.94822 66.4969 8.51543C64.9901 8.19078 63.0513 8.44506 61.5773 9.16067C61.2099 9.339 60.8583 9.48492 60.7958 9.48492C60.6967 9.48492 60.686 8.89479 60.7113 4.83667L60.7402 0.188421L60.4316 0.25251C60.2618 0.287759 58.5306 0.621933 56.5844 0.995118C54.6382 1.3683 52.9699 1.69208 52.8771 1.71461C52.7361 1.74887 52.7114 1.80455 52.7265 2.05406C52.7434 2.33212 52.7654 2.35727 53.0491 2.42193C54.0242 2.64423 54.1979 2.72344 54.5604 3.11146C55.0046 3.5868 55.2052 4.19378 55.3369 5.46049C55.4418 6.46988 55.465 23.8604 55.3649 26.4273L55.3056 27.9493L56.0988 28.1251C59.1026 28.7905 62.0966 29.0204 63.9692 28.7295ZM61.225 27.5172C61.0695 27.5002 60.9032 27.4375 60.8554 27.3777C60.7235 27.2132 60.5807 16.3953 60.6686 13.2304L60.7383 10.7201L61.3537 10.5363C62.2617 10.2652 63.2391 10.3073 63.9321 10.6475C65.3237 11.3307 66.2379 13.0184 66.7127 15.7805C66.8673 16.6803 66.8445 19.8053 66.6751 20.9173C66.3215 23.2392 65.678 25.0313 64.7822 26.1891C64.3479 26.7503 63.6267 27.2812 63.0628 27.4547C62.699 27.5666 61.9193 27.5931 61.225 27.5172ZM62.706 27.3346C63.2648 27.2248 63.699 26.9944 64.1651 26.5603C65.3333 25.4722 66.2116 23.2257 66.5571 20.4425C66.6978 19.3089 66.6788 16.7258 66.5229 15.7796C66.1011 13.2206 65.1947 11.5387 63.8724 10.8615C63.3239 10.5806 63.2393 10.5608 62.5887 10.5608C62.1234 10.5608 61.7231 10.6124 61.3828 10.7162L60.8733 10.8717L60.8357 13.7844C60.7875 17.5154 60.9047 26.8562 61.003 27.1242C61.0658 27.2952 61.1349 27.3315 61.4463 27.3568C62.1794 27.4164 62.3007 27.4143 62.706 27.3346ZM81.7389 28.88C77.9226 28.1669 75.1933 25.3633 74.3015 21.24C74.1868 20.7097 74.1361 20.1163 74.1073 18.9682C74.0618 17.1519 74.2044 16.0245 74.6568 14.6238C75.5256 11.9342 77.0826 10.0283 79.3443 8.88597C81.7315 7.68028 84.9953 7.60131 87.108 8.69812C89.4866 9.93303 90.8862 12.3988 91.2413 15.9798C91.2891 16.4619 91.3168 17.0357 91.3029 17.2548L91.2775 17.6533L85.5851 17.6737L79.8927 17.6941L79.9144 18.3909C79.9646 20.005 80.2996 21.4326 80.9192 22.6739C81.2009 23.238 81.425 23.5456 81.9696 24.1152C83.1999 25.402 84.4237 25.9002 86.3543 25.9002C87.7542 25.9002 88.7609 25.6108 89.8136 24.9057C90.1085 24.7082 90.4073 24.5466 90.4776 24.5466C90.6383 24.5466 91.0083 25.0401 91.0083 25.2544C91.0083 25.6056 89.9046 26.738 88.8281 27.4913C87.9465 28.1083 86.5482 28.667 85.3358 28.8867C84.4866 29.0406 82.5791 29.0371 81.7389 28.88ZM85.1599 28.7269C86.9423 28.4274 88.6975 27.5412 89.959 26.3037C90.65 25.6258 90.8791 25.2987 90.7831 25.1273C90.5266 24.67 90.5377 24.6705 89.883 25.0872C88.8405 25.7506 88.318 25.9335 87.0932 26.0637C85.6625 26.2158 84.3429 25.9681 83.1235 25.3186C82.3146 24.8877 81.3452 23.8966 80.8607 23.0052C80.1995 21.7887 79.8408 20.3677 79.7338 18.5416C79.6889 17.7748 79.6986 17.5838 79.7856 17.5268C79.8448 17.4879 82.4098 17.456 85.5274 17.4553L91.1622 17.4541V17.2234C91.1622 16.6993 90.9961 15.2904 90.8472 14.5518C90.2487 11.5818 88.6684 9.46395 86.4151 8.61202C85.5183 8.27293 84.6698 8.13016 83.5516 8.13016C80.9022 8.13016 78.7383 9.03048 77.0645 10.8293C75.7299 12.2635 74.9381 13.8746 74.4548 16.1392C74.3092 16.8217 74.2847 17.1763 74.2847 18.6096C74.2847 20.0322 74.3097 20.3992 74.4509 21.0572C75.3479 25.237 78.0022 27.9896 81.8158 28.6947C82.7822 28.8734 84.2064 28.8871 85.1599 28.7269ZM79.75 16.1182C79.6922 16.0212 79.8358 14.6027 79.9778 13.868C80.3203 12.097 80.8685 10.8182 81.623 10.0307C82.0288 9.60712 82.214 9.47507 82.545 9.37325C82.7727 9.30318 83.0307 9.24604 83.1182 9.24629C83.4712 9.24727 83.8877 9.43386 84.1977 9.72987C85.0297 10.5244 85.5058 12.2305 85.6001 14.756L85.6467 16.0026L84.8466 16.0488C83.2408 16.1415 79.792 16.1885 79.75 16.1182ZM84.1542 15.8904L85.4926 15.8421L85.4444 14.8573C85.2745 11.3843 84.4541 9.48646 83.1235 9.48798C81.6774 9.48963 80.5217 11.4157 80.0413 14.625C79.9822 15.0195 79.9332 15.4873 79.9325 15.6645L79.9311 15.9869L81.3734 15.9627C82.1667 15.9495 83.4181 15.9169 84.1542 15.8904ZM97.1238 28.9573C95.7533 28.8051 93.5722 28.3104 92.846 27.9871L92.4913 27.8291L92.4429 26.0086C92.4163 25.0073 92.3856 23.6685 92.3747 23.0335L92.3549 21.8789L92.5675 21.7733C92.6844 21.7153 92.9204 21.6611 93.0919 21.6528L93.4037 21.6379L93.6693 22.3152C94.7057 24.9578 95.9212 26.3827 97.5088 26.816C98.1144 26.9813 99.25 26.9828 99.6983 26.8188C100.954 26.3595 101.643 25.3744 101.649 24.0286C101.656 22.4348 100.81 21.669 97.6156 20.3762C95.6363 19.5753 94.9459 19.163 94.1238 18.2912C93.2369 17.3509 92.8113 16.2804 92.7314 14.7896C92.6348 12.988 93.1791 11.4693 94.3851 10.1751C95.5988 8.8727 97.1744 8.16682 99.3207 7.96391C101.211 7.78523 104.112 8.20052 105.632 8.86733L105.909 8.98898L105.959 10.6116C105.986 11.5041 106.014 12.7004 106.021 13.2702L106.034 14.3061L105.662 14.4494C105.073 14.6759 105.035 14.6475 104.707 13.7484C103.789 11.2283 102.722 10.0358 101.06 9.67156C100.047 9.44956 99.2008 9.68822 98.5858 10.3694C98.1059 10.9008 97.9187 11.3727 97.8734 12.1652C97.8242 13.0238 97.9724 13.4879 98.4788 14.0619C99.1029 14.7694 100.125 15.3801 102.162 16.2619C104.657 17.342 105.848 18.2589 106.495 19.5991C106.915 20.4694 107.034 21.1646 106.992 22.5026C106.96 23.5067 106.929 23.7131 106.709 24.3872C105.99 26.5852 104.367 28.0322 101.86 28.7106C101.011 28.9404 100.889 28.9523 99.2008 28.9714C98.2277 28.9825 97.2931 28.9761 97.1238 28.9573ZM100.778 28.734C104.046 28.2198 106.156 26.4042 106.71 23.6302C106.977 22.2906 106.852 20.8011 106.389 19.805C105.741 18.4104 104.646 17.5685 101.932 16.3798C99.916 15.4969 98.7077 14.7486 98.2128 14.0765C97.804 13.5212 97.6712 13.0943 97.6766 12.3538C97.6848 11.2369 98.0935 10.3815 98.8737 9.8481C99.5269 9.40154 100.345 9.29259 101.298 9.52537C102.45 9.80668 103.316 10.539 104.098 11.8928C104.347 12.3237 104.859 13.5331 105.108 14.2794C105.147 14.3952 105.191 14.4001 105.46 14.3179C105.629 14.2662 105.791 14.1992 105.82 14.1691C105.85 14.139 105.848 12.9974 105.816 11.6322L105.759 9.14992L105.48 9.02749C105.009 8.82089 103.78 8.47445 102.97 8.32015C102.361 8.20403 101.825 8.17397 100.393 8.1756C98.6842 8.17754 98.5446 8.18912 97.8388 8.3875C95.7885 8.96374 94.2685 10.1624 93.4741 11.8292C93.0519 12.7151 92.9061 13.3979 92.9109 14.4656C92.9176 15.9816 93.3165 17.1007 94.1983 18.0784C94.9571 18.9197 95.9435 19.5199 97.6239 20.1627C98.9461 20.6685 100.311 21.3748 100.828 21.8208C101.132 22.0829 101.371 22.3816 101.55 22.7222C101.803 23.2067 101.816 23.2708 101.816 24.0286C101.816 24.7587 101.796 24.8703 101.572 25.3595C100.988 26.6377 99.8182 27.2723 98.2866 27.1426C96.2055 26.9663 94.7404 25.5406 93.5475 22.5307C93.2363 21.7456 93.215 21.7294 92.742 21.9157L92.5249 22.0012L92.5792 24.808C92.6274 27.299 92.648 27.6263 92.7625 27.7172C93.1045 27.989 95.3186 28.5334 96.8546 28.7234C98.0469 28.8709 99.8762 28.8759 100.778 28.734ZM0.102247 28.4784C0.0382898 28.4517 0.00609092 28.2531 0.00609092 27.8853C0.00609092 27.225 -0.0345336 27.2546 1.19843 27.0176C2.14408 26.8358 2.4824 26.65 2.89999 26.0828C3.70965 24.9831 3.88465 22.8656 3.88646 14.1469C3.88817 5.95893 3.7359 4.23648 2.89854 2.97099C2.52702 2.40954 1.90093 2.10467 0.852265 1.97458L0.0445534 1.87438L0.0222767 1.22112L0 0.567872L0.253052 0.521158C0.39223 0.495466 5.28218 0.484609 11.1196 0.497032L21.7331 0.519621L21.7829 0.838387C21.8103 1.01371 21.8552 2.81202 21.8827 4.83464L21.9328 8.51212L21.3856 8.68432C20.5618 8.94352 20.5668 8.94667 20.1963 7.93093C19.2861 5.43596 18.2423 3.99832 16.8142 3.27236C15.8292 2.77168 15.3738 2.71114 12.5921 2.71114H10.1713L10.1295 3.12952C10.0513 3.91408 9.9277 8.96099 9.92856 11.3377L9.92941 13.7086L10.641 13.7043C11.0323 13.702 11.804 13.6722 12.3559 13.638C13.1854 13.5867 13.4319 13.5411 13.779 13.3746C14.6317 12.9657 15.2118 12.0656 15.5673 10.6001L15.7507 9.84353L16.3786 9.82038L17.0065 9.79724V14.5852V19.3731L16.3784 19.35L15.7503 19.3268L15.572 18.5697C15.237 17.1473 14.5923 16.1289 13.7957 15.7639C13.4278 15.5953 12.5174 15.4995 10.7564 15.444L9.92941 15.4179V17.2167C9.92941 19.1768 10.0334 21.8285 10.1668 23.2677C10.3526 25.2739 10.8475 26.3825 11.7363 26.7837C11.906 26.8603 12.4429 26.9847 12.9295 27.0602C13.416 27.1356 13.8747 27.2298 13.9487 27.2694C14.1365 27.3699 14.1476 28.4089 13.9617 28.4828C13.8162 28.5407 0.240827 28.5363 0.102247 28.4784ZM13.9295 27.8538C13.9295 27.6127 13.9087 27.4155 13.8833 27.4155C13.5168 27.4155 11.8088 27.034 11.5342 26.8907C10.5574 26.3812 10.1059 25.1702 9.93066 22.5899C9.80611 20.7558 9.68217 15.3673 9.76262 15.2839C9.83556 15.2084 13.0879 15.3426 13.468 15.4369C14.5189 15.6975 15.329 16.7685 15.7346 18.4336L15.9134 19.1674L16.383 19.1912L16.8527 19.2149V14.589V9.96307H16.3526C15.8852 9.96307 15.8526 9.97476 15.8526 10.1426C15.8526 10.4446 15.5608 11.4001 15.2846 12.0026C14.852 12.9463 14.2427 13.516 13.468 13.7011C13.2776 13.7465 12.3789 13.8194 11.4708 13.863C10.1901 13.9244 9.80586 13.9204 9.75756 13.8453C9.66828 13.7064 9.87178 3.21411 9.9732 2.72658L10.0114 2.54279L12.8359 2.56719L15.6603 2.5916L16.3176 2.83545C17.84 3.40027 18.9354 4.55367 19.8506 6.55541C20.0562 7.00514 20.3198 7.65998 20.4363 8.01062C20.5528 8.36127 20.6559 8.6593 20.6654 8.67293C20.6749 8.68656 20.9275 8.62065 21.2269 8.52646L21.7711 8.35521L21.7328 5.75232C21.7118 4.32074 21.6746 2.60256 21.6502 1.93415L21.6058 0.71885H10.8792H0.152599L0.175501 1.21657L0.198403 1.71429L0.890728 1.804C1.81429 1.92367 2.15293 2.0279 2.52483 2.307C3.08858 2.73006 3.43529 3.35156 3.65361 4.33044C3.9928 5.85122 4.11487 9.28088 4.05834 15.7009C3.9986 22.4844 3.91601 23.8953 3.49856 25.2638C3.15523 26.3894 2.51622 26.9861 1.46073 27.1667C1.17024 27.2164 0.758724 27.2957 0.546252 27.3429L0.159941 27.4287V27.8604V28.2921H7.04472H13.9295V27.8538ZM38.0224 28.4634C37.9523 28.417 37.9294 28.2333 37.9455 27.8467L37.9686 27.296L38.2378 27.2366C38.3859 27.2039 38.7039 27.1391 38.9446 27.0925C39.6894 26.9483 40.1175 26.5295 40.3583 25.7092C40.5545 25.0409 40.641 22.9029 40.6456 18.6096C40.6511 13.3587 40.5455 12.1187 40.033 11.4158C39.7552 11.0348 39.555 10.9265 38.881 10.7925C38.5484 10.7263 38.1984 10.6554 38.1032 10.6349C37.949 10.6016 37.9301 10.5496 37.9301 10.1591C37.9301 9.77931 37.9533 9.7107 38.1032 9.64684C38.3334 9.54876 45.954 7.97078 46.1974 7.97078H46.3873L46.3501 9.14623C46.3296 9.79273 46.2968 10.7341 46.2773 11.2381L46.2418 12.1546L46.5179 11.6388C47.4016 9.98773 48.3928 8.96281 49.7107 8.33709C50.4342 7.9936 50.9169 7.89109 51.8107 7.89109C52.8708 7.89109 53.9305 8.24941 53.9305 8.60784C53.9305 8.84885 52.0628 13.9612 51.9598 14.0021C51.9096 14.0221 51.5449 13.8776 51.1494 13.681C50.3247 13.271 49.5509 13.0705 48.7998 13.0722C47.8644 13.0743 46.8196 13.4312 46.407 13.8896C46.2306 14.0856 46.2297 14.0974 46.1859 17.0254C46.1425 19.9249 46.2357 23.4618 46.3931 24.8843C46.5272 26.0961 46.8381 26.6928 47.48 26.9706C47.6942 27.0633 49.0491 27.2556 49.4913 27.2561C49.5248 27.2561 49.5421 27.534 49.5298 27.8737L49.5073 28.4913L43.8148 28.5103C40.684 28.5208 38.0774 28.4996 38.0224 28.4634ZM49.3919 27.8606V27.4291L48.7957 27.377C47.4207 27.2567 47.044 27.1137 46.6829 26.5749C46.1596 25.7942 46.0457 24.3536 46.0457 18.5164V13.9605L46.2364 13.7502C46.477 13.4849 47.2292 13.1146 47.761 12.9997C48.8411 12.7664 50.2218 12.968 51.3016 13.5166C51.6115 13.674 51.878 13.7894 51.8939 13.773C51.9257 13.74 53.6993 8.88465 53.7543 8.67986C53.7793 8.58692 53.6771 8.50594 53.3788 8.38227C52.7403 8.11758 52.1865 8.02681 51.4723 8.06974C49.5618 8.18459 47.8663 9.49947 46.6451 11.8133C46.4423 12.1974 46.2323 12.512 46.1784 12.5125C46.1001 12.513 46.091 12.0718 46.1331 10.3169L46.1858 8.1207L46.0003 8.16599C45.8983 8.1909 44.361 8.51355 42.584 8.88299C38.7729 9.67534 38.2432 9.79081 38.1523 9.849C38.1147 9.87308 38.0839 10.0155 38.0839 10.1655C38.0839 10.4664 38.05 10.449 38.916 10.5932C40.1064 10.7916 40.5268 11.3929 40.7044 13.1507C40.9358 15.4427 40.8433 24.3775 40.5755 25.5973C40.4386 26.221 40.0848 26.8217 39.7286 27.0351C39.5966 27.1143 39.1812 27.2412 38.8055 27.3172L38.1224 27.4554L38.0992 27.8737L38.0759 28.2921H43.7339H49.3919V27.8606Z" fill="white"/>
<path d="M13.9295 27.8538C13.9295 27.6127 13.9087 27.4155 13.8833 27.4155C13.5168 27.4155 11.8088 27.034 11.5342 26.8907C10.5574 26.3812 10.1059 25.1702 9.93066 22.5899C9.80611 20.7558 9.68217 15.3673 9.76262 15.2839C9.83556 15.2084 13.0879 15.3426 13.468 15.4369C14.5189 15.6975 15.329 16.7685 15.7346 18.4336L15.9134 19.1674L16.383 19.1912L16.8527 19.2149V14.589V9.96307H16.3526C15.8852 9.96307 15.8526 9.97476 15.8526 10.1426C15.8526 10.4446 15.5608 11.4001 15.2846 12.0026C14.852 12.9463 14.2427 13.516 13.468 13.7011C13.2776 13.7465 12.3789 13.8194 11.4708 13.863C10.1901 13.9244 9.80586 13.9204 9.75756 13.8453C9.66828 13.7064 9.87178 3.21411 9.9732 2.72658L10.0114 2.54279L12.8359 2.56719L15.6603 2.5916L16.3176 2.83545C17.84 3.40027 18.9354 4.55367 19.8506 6.55541C20.0562 7.00514 20.3198 7.65998 20.4363 8.01062C20.5528 8.36127 20.6559 8.6593 20.6654 8.67293C20.6749 8.68656 20.9275 8.62065 21.2269 8.52646L21.7711 8.35521L21.7328 5.75232C21.7118 4.32074 21.6746 2.60256 21.6502 1.93415L21.6058 0.71885H10.8792H0.152599L0.175501 1.21657L0.198403 1.71429L0.890728 1.804C1.81429 1.92367 2.15293 2.0279 2.52483 2.307C3.08858 2.73006 3.43529 3.35156 3.65361 4.33044C3.9928 5.85122 4.11487 9.28088 4.05834 15.7009C3.9986 22.4844 3.91601 23.8953 3.49856 25.2638C3.15523 26.3894 2.51622 26.9861 1.46073 27.1667C1.17024 27.2164 0.758724 27.2957 0.546252 27.3429L0.159941 27.4287V27.8604V28.2921H7.04472H13.9295V27.8538Z" fill="white"/>
<path fill-rule="evenodd" clip-rule="evenodd" d="M30.6222 28.623C31.9872 28.2929 33.0753 27.789 34.0479 27.0364C36.4137 25.206 37.71 22.3994 37.8297 18.8487C37.9477 15.3483 36.9287 12.3644 34.9582 10.4405C33.3587 8.87876 31.3431 8.13016 28.7376 8.13016C25.9756 8.13016 23.7513 9.01732 22.04 10.8015C20.2069 12.7126 19.2373 15.3786 19.2373 18.5077C19.2373 21.7537 20.1133 24.3741 21.8122 26.21C22.7489 27.2222 23.6607 27.8293 24.9682 28.3112C25.4305 28.4815 25.7707 28.5633 27.0067 28.8014C27.1125 28.8218 27.8222 28.8255 28.5837 28.8098C29.6147 28.7884 30.1354 28.7407 30.6222 28.623ZM25.0948 22.2356C25.5439 25.0917 26.4399 26.8966 27.7035 27.4905C28.2127 27.7298 29.1446 27.7164 29.6714 27.4623C31.1246 26.7613 31.9037 24.7443 32.1577 21.0253C32.5117 15.8426 31.6913 11.5169 30.066 9.99575C29.3341 9.3108 28.1959 9.08658 27.3747 9.46557C26.1765 10.0185 25.407 11.6553 25.0427 14.4258C24.7833 16.3987 24.8102 20.425 25.0948 22.2356Z" fill="white"/>
<path d="M49.3919 27.8606V27.4291L48.7957 27.377C47.4207 27.2567 47.044 27.1137 46.6829 26.5749C46.1596 25.7942 46.0457 24.3536 46.0457 18.5164V13.9605L46.2364 13.7502C46.477 13.4849 47.2292 13.1146 47.761 12.9997C48.8411 12.7664 50.2218 12.968 51.3016 13.5166C51.6115 13.674 51.878 13.7894 51.8939 13.773C51.9257 13.74 53.6993 8.88465 53.7543 8.67986C53.7793 8.58692 53.6771 8.50594 53.3788 8.38227C52.7403 8.11758 52.1865 8.02681 51.4723 8.06974C49.5618 8.18459 47.8663 9.49947 46.6451 11.8133C46.4423 12.1974 46.2323 12.512 46.1784 12.5125C46.1001 12.513 46.091 12.0718 46.1331 10.3169L46.1858 8.1207L46.0003 8.16599C45.8983 8.1909 44.361 8.51355 42.584 8.88299C38.7729 9.67534 38.2432 9.79081 38.1523 9.849C38.1147 9.87308 38.0839 10.0155 38.0839 10.1655C38.0839 10.4664 38.05 10.449 38.916 10.5932C40.1064 10.7916 40.5268 11.3929 40.7044 13.1507C40.9358 15.4427 40.8433 24.3775 40.5755 25.5973C40.4386 26.221 40.0848 26.8217 39.7286 27.0351C39.5966 27.1143 39.1812 27.2412 38.8055 27.3172L38.1224 27.4554L38.0992 27.8737L38.0759 28.2921H43.7339H49.3919V27.8606Z" fill="white"/>
<path fill-rule="evenodd" clip-rule="evenodd" d="M63.9692 28.7295C66.306 28.3664 68.02 27.5351 69.4716 26.0608C71.5699 23.9296 72.5805 20.9219 72.4439 17.215C72.3736 15.3065 72.0727 14.0598 71.3092 12.5132C70.2748 10.4179 68.5056 8.94822 66.4969 8.51543C64.9901 8.19078 63.0513 8.44506 61.5773 9.16067C61.2099 9.339 60.8583 9.48492 60.7958 9.48492C60.6967 9.48492 60.686 8.89479 60.7113 4.83667L60.7402 0.188421L60.4316 0.25251C60.2618 0.287759 58.5306 0.621933 56.5844 0.995118C54.6382 1.3683 52.9699 1.69208 52.8771 1.71461C52.7361 1.74887 52.7114 1.80455 52.7265 2.05406C52.7434 2.33212 52.7654 2.35727 53.0491 2.42193C54.0242 2.64423 54.1979 2.72344 54.5604 3.11146C55.0046 3.5868 55.2052 4.19378 55.3369 5.46049C55.4418 6.46988 55.465 23.8604 55.3649 26.4273L55.3056 27.9493L56.0988 28.1251C59.1026 28.7905 62.0966 29.0204 63.9692 28.7295ZM60.8554 27.3777C60.9032 27.4375 61.0695 27.5002 61.225 27.5172C61.9193 27.5931 62.699 27.5666 63.0628 27.4547C63.6267 27.2812 64.3479 26.7503 64.7822 26.1891C65.678 25.0313 66.3215 23.2392 66.6751 20.9173C66.8445 19.8053 66.8673 16.6803 66.7127 15.7805C66.2379 13.0184 65.3237 11.3307 63.9321 10.6475C63.2391 10.3073 62.2617 10.2652 61.3537 10.5363L60.7383 10.7201L60.6686 13.2304C60.5807 16.3953 60.7235 27.2132 60.8554 27.3777Z" fill="white"/>
<path fill-rule="evenodd" clip-rule="evenodd" d="M85.1599 28.7269C86.9423 28.4274 88.6975 27.5412 89.959 26.3037C90.65 25.6258 90.8791 25.2987 90.7831 25.1273C90.5266 24.67 90.5377 24.6705 89.883 25.0872C88.8405 25.7506 88.318 25.9335 87.0932 26.0637C85.6625 26.2158 84.3429 25.9681 83.1235 25.3186C82.3146 24.8877 81.3452 23.8966 80.8607 23.0052C80.1995 21.7887 79.8408 20.3677 79.7338 18.5416C79.6889 17.7748 79.6986 17.5838 79.7856 17.5268C79.8448 17.4879 82.4098 17.456 85.5274 17.4553L91.1622 17.4541V17.2234C91.1622 16.6993 90.9961 15.2904 90.8472 14.5518C90.2487 11.5818 88.6684 9.46395 86.4151 8.61202C85.5183 8.27293 84.6698 8.13016 83.5516 8.13016C80.9022 8.13016 78.7383 9.03048 77.0645 10.8293C75.7299 12.2635 74.9381 13.8746 74.4548 16.1392C74.3092 16.8217 74.2847 17.1763 74.2847 18.6096C74.2847 20.0322 74.3097 20.3992 74.4509 21.0572C75.3479 25.237 78.0022 27.9896 81.8158 28.6947C82.7822 28.8734 84.2064 28.8871 85.1599 28.7269ZM79.9778 13.868C79.8358 14.6027 79.6922 16.0212 79.75 16.1182C79.792 16.1885 83.2408 16.1415 84.8466 16.0488L85.6467 16.0026L85.6001 14.756C85.5058 12.2305 85.0297 10.5244 84.1977 9.72987C83.8877 9.43386 83.4712 9.24727 83.1182 9.24629C83.0307 9.24604 82.7727 9.30318 82.545 9.37325C82.214 9.47507 82.0288 9.60712 81.623 10.0307C80.8685 10.8182 80.3203 12.097 79.9778 13.868Z" fill="white"/>
<path d="M100.778 28.734C104.046 28.2198 106.156 26.4042 106.71 23.6302C106.977 22.2906 106.852 20.8011 106.389 19.805C105.741 18.4104 104.646 17.5685 101.932 16.3798C99.916 15.4969 98.7077 14.7486 98.2128 14.0765C97.804 13.5212 97.6712 13.0943 97.6766 12.3538C97.6848 11.2369 98.0935 10.3815 98.8737 9.8481C99.5269 9.40154 100.345 9.29259 101.298 9.52537C102.45 9.80668 103.316 10.539 104.098 11.8928C104.347 12.3237 104.859 13.5331 105.108 14.2794C105.147 14.3952 105.191 14.4001 105.46 14.3179C105.629 14.2662 105.791 14.1992 105.82 14.1691C105.85 14.139 105.848 12.9974 105.816 11.6322L105.759 9.14992L105.48 9.02749C105.009 8.82089 103.78 8.47445 102.97 8.32015C102.361 8.20403 101.825 8.17397 100.393 8.1756C98.6842 8.17754 98.5446 8.18912 97.8388 8.3875C95.7885 8.96374 94.2685 10.1624 93.4741 11.8292C93.0519 12.7151 92.9061 13.3979 92.9109 14.4656C92.9176 15.9816 93.3165 17.1007 94.1983 18.0784C94.9571 18.9197 95.9435 19.5199 97.6239 20.1627C98.9461 20.6685 100.311 21.3748 100.828 21.8208C101.132 22.0829 101.371 22.3816 101.55 22.7222C101.803 23.2067 101.816 23.2708 101.816 24.0286C101.816 24.7587 101.796 24.8703 101.572 25.3595C100.988 26.6377 99.8182 27.2723 98.2866 27.1426C96.2055 26.9663 94.7404 25.5406 93.5475 22.5307C93.2363 21.7456 93.215 21.7294 92.742 21.9157L92.5249 22.0012L92.5792 24.808C92.6274 27.299 92.648 27.6263 92.7625 27.7172C93.1045 27.989 95.3186 28.5334 96.8546 28.7234C98.0469 28.8709 99.8762 28.8759 100.778 28.734Z" fill="white"/>
</g>
<defs>
<clipPath id="clip0">
<rect width="107" height="29" fill="white"/>
</clipPath>
</defs>
</svg>
