<svg width="143" height="28" viewBox="0 0 143 28" fill="none" xmlns="http://www.w3.org/2000/svg">
<path d="M108.47 20.6086V18.1699H110.978V20.6086H108.47Z" fill="white"/>
<path d="M119.881 17.3931C119.821 17.9109 119.671 18.3806 119.43 18.8021C119.201 19.2236 118.907 19.5849 118.546 19.886C118.185 20.1871 117.77 20.4219 117.301 20.5905C116.844 20.7591 116.345 20.8434 115.804 20.8434C115.202 20.8434 114.649 20.7471 114.144 20.5544C113.651 20.3497 113.224 20.0486 112.863 19.6512C112.502 19.2417 112.22 18.7419 112.015 18.1518C111.823 17.5496 111.727 16.8511 111.727 16.0563C111.727 15.2615 111.823 14.575 112.015 13.9969C112.22 13.4189 112.502 12.9492 112.863 12.5879C113.224 12.2146 113.657 11.9376 114.162 11.7569C114.679 11.5763 115.251 11.486 115.876 11.486C116.453 11.486 116.976 11.5642 117.446 11.7208C117.927 11.8774 118.342 12.1062 118.69 12.4073C119.051 12.7083 119.334 13.0696 119.538 13.4911C119.743 13.9126 119.863 14.3823 119.899 14.9002H117.536C117.476 14.4425 117.289 14.0873 116.976 13.8344C116.676 13.5694 116.303 13.4369 115.858 13.4369C115.605 13.4369 115.371 13.4791 115.154 13.5634C114.938 13.6477 114.745 13.7922 114.577 13.9969C114.421 14.1896 114.294 14.4546 114.198 14.7918C114.102 15.1169 114.054 15.5204 114.054 16.0021C114.054 16.9776 114.228 17.7002 114.577 18.1699C114.926 18.6395 115.329 18.8744 115.786 18.8744C116.243 18.8744 116.634 18.7479 116.958 18.495C117.283 18.2421 117.47 17.8748 117.518 17.3931H119.881Z" fill="white"/>
<path d="M124.94 18.8744C126.372 18.8744 127.087 17.9711 127.087 16.1647C127.087 14.3703 126.372 13.4731 124.94 13.4731C123.509 13.4731 122.794 14.3703 122.794 16.1647C122.794 17.9711 123.509 18.8744 124.94 18.8744ZM124.94 20.8434C124.219 20.8434 123.575 20.729 123.01 20.5002C122.445 20.2714 121.964 19.9522 121.567 19.5428C121.182 19.1333 120.887 18.6395 120.683 18.0615C120.478 17.4834 120.376 16.8511 120.376 16.1647C120.376 15.4662 120.478 14.8279 120.683 14.2498C120.899 13.6718 121.206 13.178 121.603 12.7685C122 12.3591 122.475 12.046 123.028 11.8292C123.593 11.6004 124.231 11.486 124.94 11.486C125.638 11.486 126.263 11.6004 126.817 11.8292C127.37 12.046 127.839 12.3591 128.224 12.7685C128.621 13.166 128.921 13.6537 129.126 14.2318C129.342 14.8098 129.45 15.4542 129.45 16.1647C129.45 16.8752 129.342 17.5195 129.126 18.0976C128.921 18.6636 128.621 19.1514 128.224 19.5608C127.839 19.9703 127.364 20.2894 126.799 20.5183C126.245 20.735 125.626 20.8434 124.94 20.8434Z" fill="white"/>
<path d="M140.709 20.6086V15.2253C140.709 14.6834 140.583 14.2438 140.33 13.9066C140.077 13.5694 139.741 13.4008 139.32 13.4008C138.887 13.4008 138.526 13.5815 138.237 13.9427C137.961 14.304 137.822 14.7557 137.822 15.2976V20.6086H135.477V15.2615C135.477 14.9002 135.453 14.6051 135.405 14.3763C135.357 14.1475 135.273 13.9668 135.152 13.8344C135.044 13.7019 134.9 13.6116 134.719 13.5634C134.539 13.5032 134.323 13.4731 134.07 13.4731C133.12 13.4731 132.645 14.0511 132.645 15.2073V20.6086H130.299V11.7208H132.5V13.0215C132.801 12.4313 133.162 12.0279 133.583 11.8111C134.004 11.5944 134.509 11.486 135.098 11.486C135.399 11.486 135.664 11.51 135.892 11.5582C136.133 11.6064 136.343 11.6907 136.523 11.8111C136.716 11.9195 136.896 12.064 137.065 12.2447C137.233 12.4253 137.401 12.6421 137.57 12.895C137.81 12.4012 138.129 12.046 138.526 11.8292C138.923 11.6004 139.404 11.486 139.969 11.486C140.414 11.486 140.823 11.5642 141.196 11.7208C141.569 11.8653 141.887 12.0761 142.152 12.3531C142.417 12.618 142.621 12.9311 142.765 13.2924C142.922 13.6537 143 14.0391 143 14.4486V20.6086H140.709Z" fill="white"/>
<path fill-rule="evenodd" clip-rule="evenodd" d="M36.9686 14.8056C37.1849 15.9102 37.6271 16.7498 38.295 17.3244C38.9829 17.8962 39.8032 18.1148 40.7559 17.9803C41.391 17.8906 41.8821 17.7345 42.4704 17.3244C43.0052 16.9515 43.5979 16.0925 43.5979 16.0925L46.4167 17.6672C46.1103 18.2543 45.7194 18.7758 45.244 19.2316C44.2274 20.2062 42.9351 20.8043 41.367 21.0257C36.4843 21.7153 33.6678 19.3968 32.9176 14.0703C32.758 12.9374 32.7726 11.8914 32.9614 10.9323C33.1503 9.97321 33.4962 9.12367 33.9993 8.3837C34.5222 7.64093 35.1965 7.03894 36.0223 6.57773C36.8452 6.09664 37.8224 5.77621 38.9538 5.61644C41.2165 5.29689 43.0257 5.78126 44.3812 7.06956C45.7566 8.35506 46.6501 10.4586 47.0616 13.3803L36.9686 14.8056ZM42.2326 10.1399C42.4673 10.5122 42.6323 10.9652 42.7277 11.499L36.7434 12.3442C36.68 11.3193 36.887 10.4894 37.3644 9.85443C37.8588 9.19676 38.4931 8.81327 39.2672 8.70395C39.6443 8.65069 40.0213 8.6684 40.3982 8.75707C40.7722 8.82586 41.1178 8.97977 41.4349 9.21877C41.7491 9.43791 42.0151 9.74495 42.2326 10.1399Z" fill="white"/>
<path d="M0 20.9849V2.54395L3.55551 0.993408V20.9849H0Z" fill="white"/>
<path d="M14.5459 20.9849V12.0128C14.5459 10.8687 14.3555 10.096 13.9746 9.69452C13.5937 9.29308 12.9423 9.09236 12.0202 9.09236C9.99567 9.09236 8.9834 10.2264 8.9834 12.4945V20.9849H5.07463V7.04504L8.80299 5.78052V8.33967C9.26403 7.49666 9.8754 6.8644 10.6371 6.44289C11.3988 6.00131 12.381 5.78052 13.5837 5.78052C14.2853 5.78052 14.9368 5.89092 15.5381 6.11171C16.1395 6.31242 16.6506 6.62354 17.0715 7.04504C17.5125 7.46655 17.8533 7.98842 18.0938 8.61064C18.3544 9.21279 18.4847 9.91531 18.4847 10.7182V20.9849H14.5459Z" fill="white"/>
<path d="M23.6223 20.9849L18.3304 6.17192H22.6902L25.7871 15.9569L28.9141 6.17192H33.0334L27.7114 20.9849H23.6223Z" fill="white"/>
<path d="M57.0791 10.658C56.9789 9.93538 56.7183 9.43358 56.2974 9.15258C55.8764 8.8515 55.215 8.70096 54.3129 8.70096C53.5713 8.70096 53 8.80132 52.5991 9.00204C52.1982 9.18269 51.9977 9.4938 51.9977 9.93538C51.9977 10.377 52.1982 10.7182 52.5991 10.959C53 11.1798 53.6013 11.4006 54.4031 11.6214C55.245 11.8623 56.0468 12.0831 56.8085 12.2838C57.5703 12.4644 58.2418 12.6651 58.8231 12.8859C59.6048 13.2071 60.2062 13.6487 60.6271 14.2107C61.0481 14.7526 61.2585 15.5053 61.2585 16.4687C61.2585 18.0143 60.7073 19.2186 59.6048 20.0816C58.5224 20.9447 56.9188 21.3763 54.794 21.3763C52.5089 21.3763 50.755 20.8946 49.5322 19.9311C48.3295 18.9677 47.7081 17.7333 47.668 16.2279H51.6971C51.6971 16.9304 51.9677 17.4723 52.5089 17.8537C53.0501 18.235 53.8018 18.4257 54.764 18.4257C55.4655 18.4257 56.0769 18.3153 56.5981 18.0945C57.1192 17.8537 57.3798 17.4523 57.3798 16.8902C57.3798 16.3684 57.1393 15.997 56.6582 15.7763C56.1972 15.5555 55.6459 15.3648 55.0045 15.2042C53.7617 14.9031 52.7595 14.6322 51.9977 14.3913C51.236 14.1504 50.5946 13.8594 50.0734 13.5182C49.3719 13.0766 48.8807 12.5748 48.6001 12.0128C48.3395 11.4508 48.2092 10.8386 48.2092 10.1762C48.2092 9.55401 48.3195 8.97193 48.54 8.42999C48.7605 7.88806 49.1213 7.42641 49.6224 7.04504C50.1235 6.64361 50.765 6.3325 51.5467 6.11171C52.3485 5.89092 53.3107 5.78052 54.4332 5.78052C56.578 5.78052 58.1516 6.19199 59.1538 7.01494C60.1761 7.83788 60.7374 9.05222 60.8376 10.658H57.0791Z" fill="white"/>
<path d="M71.0138 20.9849V6.17192L74.9226 5.41923V20.9849H71.0138Z" fill="white"/>
<path d="M86.1793 20.9849V12.0128C86.1793 10.8687 85.9889 10.096 85.608 9.69452C85.2272 9.29308 84.5757 9.09236 83.6536 9.09236C81.6291 9.09236 80.6168 10.2264 80.6168 12.4945V20.9849H76.708V6.92461L80.4364 6.17192V8.33967C80.8975 7.49666 81.5088 6.8644 82.2705 6.44289C83.0322 6.00131 84.0144 5.78052 85.2171 5.78052C85.9187 5.78052 86.5702 5.89092 87.1715 6.11171C87.7729 6.31242 88.284 6.62354 88.705 7.04504C89.146 7.46655 89.4867 7.98842 89.7273 8.61064C89.9879 9.21279 90.1181 9.91531 90.1181 10.7182V20.9849H86.1793Z" fill="white"/>
<path d="M98.9258 18.0343C99.888 18.0343 100.68 17.673 101.301 16.9505C101.943 16.2078 102.263 15.2042 102.263 13.9397C102.263 10.7684 101.151 9.18269 98.9258 9.18269C96.7008 9.18269 95.5883 10.6881 95.5883 13.6988C95.5883 15.0236 95.899 16.0773 96.5204 16.8601C97.1618 17.6429 97.9636 18.0343 98.9258 18.0343ZM102.143 18.9978C101.862 19.6601 101.351 20.182 100.61 20.5634C99.888 20.9247 99.0461 21.1053 98.0839 21.1053C96.8612 21.1053 95.8289 20.8946 94.987 20.473C94.1651 20.0315 93.4936 19.4594 92.9724 18.7569C92.4713 18.0544 92.1005 17.2415 91.8599 16.3182C91.6395 15.3949 91.5292 14.4515 91.5292 13.4881C91.5292 12.344 91.6996 11.3003 92.0403 10.3569C92.3811 9.39344 92.8421 8.58053 93.4235 7.91817C94.0048 7.23573 94.6863 6.71386 95.468 6.35257C96.2498 5.9712 97.0917 5.78052 97.9937 5.78052C99.8379 5.78052 101.221 6.52318 102.143 8.00849V6.17192H106.052V21.1354C106.052 22.2594 105.861 23.243 105.481 24.086C105.1 24.9491 104.578 25.6616 103.917 26.2236C103.256 26.8057 102.474 27.2473 101.572 27.5483C100.67 27.8494 99.7076 28 98.6853 28C97.663 28 96.7108 27.8494 95.8288 27.5483C94.9469 27.2673 94.1852 26.8559 93.5437 26.3139C92.9223 25.7921 92.4312 25.1498 92.0704 24.387C91.7096 23.6243 91.5292 22.7612 91.5292 21.7978H95.1674C95.1674 22.701 95.458 23.3935 96.0393 23.8752C96.6407 24.377 97.4324 24.6279 98.4147 24.6279C99.457 24.6279 100.339 24.3369 101.061 23.7548C101.782 23.1928 102.143 22.42 102.143 21.4365V18.9978Z" fill="white"/>
<path d="M69.3431 20.6085C69.3431 20.6085 66.1678 20.8737 65.3968 20.6085C64.6257 20.3434 64.1489 20.173 63.5683 19.5999C62.9657 19.005 62.7365 18.4257 62.516 17.7031C62.2955 16.9806 62.1852 16.2178 62.1852 15.415V3.48482L66.0339 2.16761V6.17192H70.2827L69.3431 9.50635H66.0339V15.0236C66.0339 15.9669 66.1819 16.3247 66.7122 16.8902C67.2426 17.4557 70.0028 17.2214 70.0028 17.2214L69.3431 20.6085Z" fill="white"/>
<path d="M71.0137 0.752691V4.39572L74.9224 3.64303V0L71.0137 0.752691Z" fill="white"/>
</svg>
