<svg width="99" height="20" viewBox="0 0 99 20" fill="none" xmlns="http://www.w3.org/2000/svg">
<path d="M50.0024 17.7677C50.0024 18.1197 50.0024 18.1997 50.2343 18.4157L51.5329 19.7276V19.7836H45.7744V17.2637C45.1948 18.9245 43.662 20.0228 41.956 19.9996C38.9955 19.9996 36.8467 17.5997 36.8467 13.1838C36.8467 9.04784 39.1656 6.28789 42.4197 6.28789C43.8622 6.19391 45.2045 7.05376 45.7666 8.43185V2.87195C45.8094 2.61448 45.7076 2.35415 45.5038 2.19996L44.2671 0.967983V0.911984L50.0024 0.215996V17.7677ZM45.7744 16.9677V8.67184C45.357 8.13535 44.7238 7.82832 44.0584 7.83986C42.6594 7.83986 41.3067 9.15184 41.3067 13.0478C41.3067 16.6957 42.4738 17.9837 43.927 17.9837C44.6638 17.9681 45.3495 17.5909 45.7744 16.9677ZM53.8208 19.7836V8.58385C53.8577 8.33374 53.7705 8.08122 53.5889 7.91186L52.3136 6.55188V6.49588H58.0721V17.8557C58.0721 18.2077 58.0721 18.2877 58.304 18.5037L59.5716 19.7356V19.7916L53.8208 19.7836ZM53.6121 2.39996C53.6121 1.0745 54.6503 0 55.931 0C57.2117 0 58.2498 1.0745 58.2498 2.39996C58.2498 3.72542 57.2117 4.79991 55.931 4.79991C54.6503 4.79991 53.6121 3.72542 53.6121 2.39996ZM73.6085 17.7437C73.6085 18.0957 73.6085 18.1997 73.8403 18.4157L75.1389 19.7276V19.7836H69.3495V16.9117C68.8223 18.7276 67.2162 19.9784 65.3842 19.9996C62.818 19.9996 61.4421 18.0637 61.4421 14.3997C61.4421 12.6318 61.4421 10.6958 61.4963 8.51985C61.5387 8.27627 61.4498 8.02808 61.2644 7.87186L59.989 6.55188V6.49588H65.7011C65.7011 6.57588 65.7011 13.4478 65.7011 13.7998C65.7011 16.1997 66.0412 17.7997 67.4944 17.7997C68.2748 17.7492 68.9781 17.295 69.3649 16.5917V8.59185C69.4018 8.34174 69.3146 8.08922 69.133 7.91986L67.8499 6.55188V6.49588H73.6085V17.7437ZM93.2106 19.7836C93.2106 19.3517 93.2879 13.8478 93.2879 12.5838C93.2879 10.1838 92.9246 8.52785 91.2936 8.52785C90.473 8.55404 89.713 8.98146 89.2453 9.67983C89.4089 10.4277 89.4867 11.193 89.4772 11.9598C89.4772 13.6238 89.4231 15.7437 89.3999 17.8637C89.3575 18.1073 89.4463 18.3554 89.6318 18.5117L90.9304 19.7436V19.7996H85.1177C85.1177 19.3997 85.195 13.8638 85.195 12.5998C85.195 10.1598 84.8317 8.54385 83.224 8.54385C82.4314 8.57328 81.7084 9.01987 81.3071 9.72783V17.8877C81.3071 18.2397 81.3071 18.3197 81.539 18.5357L82.8066 19.7676V19.8236H77.0558V8.62384C77.0927 8.37374 77.0055 8.12122 76.8239 7.95186L75.5486 6.55188V6.49588H81.3071V9.34383C81.841 7.46352 83.5426 6.20038 85.4347 6.27989C87.3516 6.27989 88.6501 7.38387 89.1989 9.47983C89.8085 7.54678 91.563 6.24968 93.5275 6.27989C96.0937 6.27989 97.5469 8.23985 97.5469 11.9438C97.5469 13.7118 97.4927 15.7277 97.4696 17.8477C97.4245 18.0986 97.5278 18.3532 97.7324 18.4957L99 19.7276V19.7836H93.2106ZM20.8698 18.0397L22.578 19.7276V19.7836H13.9132V19.7276L15.6523 18.0397C15.8378 17.8835 15.9266 17.6353 15.8842 17.3917V6.59988C15.8842 6.14389 15.8842 5.5279 15.9615 4.99991L10.118 19.9996H10.0484L3.99617 6.19989C3.86477 5.8559 3.82612 5.8319 3.7411 5.5999V14.6477C3.66864 15.2533 3.76801 15.8676 4.02709 16.4157L6.4619 19.7276V19.7836H0V19.7276L2.43481 16.4077C2.69197 15.8618 2.79129 15.2507 2.7208 14.6477V4.64792C2.76039 4.15555 2.61659 3.66615 2.31886 3.27994L0.595175 0.967983V0.911984H6.77881L11.9576 12.5998L16.518 0.911984H22.5703V0.967983L20.8698 2.92795C20.666 3.08213 20.5642 3.34247 20.607 3.59994V17.3917C20.5619 17.6426 20.6652 17.8972 20.8698 18.0397ZM27.6486 12.6318V12.6878C27.6486 16.1117 29.3568 17.4877 31.3588 17.4877C33.0304 17.5468 34.5775 16.5766 35.3008 15.0157H35.3549C34.6593 18.3997 32.6341 19.9996 29.6042 19.9996C26.3346 19.9996 23.2505 17.9597 23.2505 13.2318C23.2505 8.26385 26.3423 6.27989 29.7587 6.27989C32.5105 6.27989 35.44 7.62386 35.44 11.9438C35.44 12.0238 35.44 12.3118 35.44 12.6318H27.6486ZM27.6486 11.9438H31.4592C31.4592 11.5918 31.4592 11.3518 31.4592 11.2478C31.4592 7.72786 30.7559 6.79188 29.6969 6.79188C28.4138 6.79188 27.6331 8.19185 27.6331 11.9438H27.6486Z" fill="white"/>
</svg>
