<svg width="138" height="29" viewBox="0 0 138 29" fill="none" xmlns="http://www.w3.org/2000/svg">
<g clip-path="url(#clip0)">
<path d="M19.5803 20.5719L13.0132 13.9865V0.725008C13.0132 0.362508 12.7105 0.0604248 12.3474 0.0604248H5.56842C5.20526 0.0604248 4.90263 0.362508 4.90263 0.725008V8.91147L1.96711 11.8417C1.69474 12.1136 1.69474 12.5063 1.96711 12.7781C2.08816 12.899 2.23948 12.9896 2.42105 12.9896C2.60263 12.9896 2.75395 12.9292 2.90526 12.8083L4.90263 10.8146V14.0167L1.54342 17.3396C1.45263 17.3094 1.33158 17.3094 1.21053 17.3094C0.484212 17.3094 -0.0907879 17.8833 -0.0907879 18.6083C-0.0907879 19.3333 0.484212 19.9073 1.21053 19.9073C1.93684 19.9073 2.51184 19.3333 2.51184 18.6083C2.51184 18.4875 2.51184 18.3969 2.48158 18.2761L6.02237 14.7417C6.14342 14.6208 6.20395 14.4396 6.20395 14.2583V1.38959H11.6513V14.2583C11.6513 14.4396 11.7118 14.5906 11.8329 14.7417L18.6118 21.5083C18.7329 21.6292 18.9145 21.6896 19.0961 21.6896C19.2776 21.6896 19.4289 21.6292 19.5803 21.5083C19.8526 21.2365 19.8526 20.8136 19.5803 20.5719ZM26.3895 27.3386L23.1816 24.1365V19.9073C23.1816 19.7261 23.1211 19.575 23 19.424L17.0079 13.4729C17.0382 13.3823 17.0382 13.2615 17.0382 13.1406C17.0382 12.4156 16.4632 11.8417 15.7368 11.8417C15.0105 11.8417 14.4355 12.4156 14.4355 13.1406C14.4355 13.8656 15.0105 14.4396 15.7368 14.4396C15.8579 14.4396 15.9487 14.4396 16.0697 14.4094L21.85 20.1792V24.4083C21.85 24.5896 21.9105 24.7708 22.0316 24.8917L25.4211 28.275C25.5421 28.3958 25.7237 28.4563 25.9053 28.4563C26.0868 28.4563 26.2382 28.3958 26.3895 28.275C26.6316 28.0031 26.6316 27.5802 26.3895 27.3386ZM8.9579 19.7261C8.23158 19.7261 7.65658 20.3 7.65658 21.025C7.65658 21.5083 7.92895 21.9313 8.29211 22.1427V27.1271H6.23421V19.6052L9.44211 16.4031C9.56316 16.2823 9.62368 16.1011 9.62368 15.9198V5.22605C10.0171 4.98438 10.2592 4.59168 10.2592 4.10834C10.2592 3.38334 9.68421 2.80938 8.9579 2.80938C8.23158 2.80938 7.65658 3.38334 7.65658 4.10834C7.65658 4.59168 7.89868 5.01459 8.29211 5.22605V15.6781L5.08421 18.8802C4.96316 19.0011 4.90263 19.1823 4.90263 19.3635V27.8219C4.90263 28.1844 5.20526 28.4865 5.56842 28.4865H8.9579C9.32105 28.4865 9.62368 28.1844 9.62368 27.8219V22.1427C10.0171 21.9011 10.2592 21.5083 10.2592 21.025C10.2592 20.3 9.65395 19.7261 8.9579 19.7261ZM13.0132 26.674V19.424C13.0132 19.3938 13.0132 19.3938 13.0132 19.3635C13.0132 19.2125 12.9526 19.0615 12.8618 18.9406L12.8316 18.9104C12.7711 18.85 12.7408 18.8198 12.6803 18.7896C12.65 18.7896 12.65 18.7594 12.6197 18.7594C12.5895 18.7594 12.5592 18.7292 12.5289 18.7292C12.5289 18.7292 12.5289 18.7292 12.4987 18.7292C12.4684 18.7292 12.4684 18.7292 12.4382 18.7292C12.4079 18.7292 12.3776 18.7292 12.3474 18.7292C12.3171 18.7292 12.2868 18.7292 12.2566 18.7292C12.2263 18.7292 12.2263 18.7292 12.1961 18.7292C12.1658 18.7292 12.1658 18.7292 12.1355 18.7292C12.1053 18.7292 12.1053 18.7292 12.075 18.7594C12.0447 18.7896 12.0447 18.7896 12.0145 18.7896C12.0145 18.7896 11.9842 18.7896 11.9842 18.8198C11.9539 18.85 11.9237 18.85 11.9237 18.8802C11.8934 18.9104 11.8632 18.9104 11.8632 18.9406C11.8329 19.0011 11.8026 19.0313 11.7724 19.0917V19.1219C11.7724 19.1521 11.7421 19.1521 11.7421 19.1823C11.7421 19.2125 11.7421 19.2125 11.7421 19.2427C11.7421 19.2729 11.7421 19.2729 11.7421 19.3031C11.7421 19.3333 11.7421 19.3635 11.7421 19.3938V26.7344C11.3487 26.9458 11.1066 27.3688 11.1066 27.8521C11.1066 28.5771 11.6816 29.1511 12.4079 29.1511C13.1342 29.1511 13.7092 28.5771 13.7092 27.8521C13.6487 27.3386 13.3763 26.9156 13.0132 26.674ZM29.2947 3.44376C28.9316 3.44376 28.6289 3.74584 28.6289 4.10834V17.6417C28.6289 18.0042 28.9316 18.3063 29.2947 18.3063C29.6579 18.3063 29.9605 18.0042 29.9605 17.6417V4.10834C29.9605 3.74584 29.6579 3.44376 29.2947 3.44376ZM29.9605 26.674V22.1427C29.9605 21.9615 29.9 21.8104 29.7789 21.6594L26.3895 18.3063L16.4026 8.33751V5.70938L25.4211 14.7417C25.6026 14.9229 25.9053 14.9833 26.1474 14.8927C26.3895 14.8021 26.5711 14.5302 26.5711 14.2885V5.22605C26.9645 5.01459 27.2066 4.59168 27.2066 4.10834C27.2066 3.38334 26.6316 2.80938 25.9053 2.80938C25.1789 2.80938 24.6039 3.38334 24.6039 4.10834C24.6039 4.59168 24.8461 5.01459 25.2395 5.22605V12.6573L16.1908 3.62501C16.0092 3.44376 15.7066 3.38334 15.4645 3.47397C15.2224 3.56459 15.0408 3.83647 15.0408 4.07813V8.57917C15.0408 8.76042 15.1013 8.91147 15.2224 9.06251L25.2092 19.0313V23.2906C25.2092 23.6531 25.5118 23.9552 25.875 23.9552C26.2382 23.9552 26.5408 23.6531 26.5408 23.2906V20.3604L28.5987 22.4146V26.674C28.2053 26.8854 27.9632 27.3083 27.9632 27.7917C27.9632 28.5167 28.5382 29.0906 29.2645 29.0906C29.9908 29.0906 30.5658 28.5167 30.5658 27.7917C30.5961 27.3386 30.3539 26.9156 29.9605 26.674ZM37.0118 8.63959C36.2855 8.63959 35.7105 9.21355 35.7105 9.93855C35.7105 10.0594 35.7105 10.15 35.7408 10.2708L32.2 13.8052C32.0789 13.9261 32.0184 14.1073 32.0184 14.2885V27.7917C32.0184 28.1542 32.3211 28.4563 32.6842 28.4563C33.0474 28.4563 33.35 28.1542 33.35 27.7917V19.6052L36.2855 16.675C36.5579 16.4031 36.5579 15.9802 36.2855 15.7385C36.0132 15.4667 35.6197 15.4667 35.3474 15.7385L33.35 17.7323V14.5302L36.7092 11.1771C36.8 11.2073 36.9211 11.2073 37.0421 11.2073C37.7684 11.2073 38.3434 10.6333 38.3434 9.90834C38.3434 9.18334 37.7382 8.63959 37.0118 8.63959ZM32.6842 0.0604248H25.2697C24.9066 0.0604248 24.6039 0.362508 24.6039 0.725008C24.6039 1.08751 24.9066 1.38959 25.2697 1.38959H32.0184V9.18334C32.0184 9.54584 32.3211 9.84792 32.6842 9.84792C33.0474 9.84792 33.35 9.54584 33.35 9.18334V0.725008C33.35 0.362508 33.0474 0.0604248 32.6842 0.0604248Z" fill="white"/>
<path d="M59.8303 22.8376C59.5882 22.8376 59.3461 22.7771 59.1342 22.6563C58.8921 22.5355 58.7408 22.3844 58.6197 22.173L52.6579 11.4792V21.6292C52.6579 21.9615 52.5368 22.2334 52.2947 22.4751C52.0526 22.7167 51.75 22.8376 51.3868 22.8376C51.0237 22.8376 50.7513 22.7167 50.5092 22.4751C50.2671 22.2334 50.146 21.9615 50.146 21.6292V7.58235C50.146 7.21985 50.2671 6.91777 50.5092 6.6761C50.7513 6.43443 51.0842 6.3136 51.4776 6.3136C51.75 6.3136 51.9921 6.37402 52.2039 6.49485C52.4461 6.61568 52.5974 6.79693 52.7184 7.00839C52.9 7.31047 53.1118 7.73339 53.4447 8.27714C53.7474 8.8511 54.1105 9.45527 54.4737 10.1501C54.8671 10.8448 55.2605 11.5698 55.6842 12.3251C56.1079 13.0803 56.5013 13.8053 56.8947 14.5303C57.2882 15.2251 57.6211 15.8594 57.9237 16.4334C58.2263 17.0074 58.4987 17.4303 58.6803 17.7324V7.52193C58.6803 7.18964 58.8013 6.88756 59.0434 6.6761C59.2855 6.46464 59.5882 6.3136 59.9513 6.3136C60.3145 6.3136 60.5868 6.43443 60.829 6.6761C61.0711 6.91777 61.1921 7.18964 61.1921 7.52193V21.5688C61.1921 21.9313 61.0711 22.2334 60.829 22.4751C60.5566 22.7167 60.2237 22.8376 59.8303 22.8376Z" fill="white"/>
<path d="M73.4184 21.4177C73.4184 21.7802 73.2974 22.0521 73.0553 22.2938C72.8132 22.5354 72.5105 22.6261 72.1776 22.6261H66.125C65.6408 22.6261 65.2474 22.5354 64.8842 22.3542C64.5211 22.1729 64.3395 21.8104 64.3395 21.2969V7.8844C64.3395 7.55211 64.4605 7.25002 64.7329 6.94794C65.0053 6.67607 65.3382 6.52502 65.7618 6.52502H71.9658C72.329 6.52502 72.6013 6.64586 72.8434 6.88752C73.0855 7.12919 73.2066 7.40107 73.2066 7.73336C73.2066 8.06565 73.0855 8.33752 72.8434 8.54898C72.6013 8.76044 72.2987 8.88127 71.9658 8.88127H66.8513V13.3823H71.5118C71.8145 13.3823 72.0868 13.5031 72.3592 13.7146C72.6316 13.9261 72.7526 14.2281 72.7526 14.5604C72.7526 14.8927 72.6316 15.1646 72.3895 15.4063C72.1474 15.6479 71.8447 15.7386 71.5118 15.7386H66.8513V20.3H72.1776C72.5105 20.3 72.8132 20.4209 73.0553 20.6323C73.2974 20.8438 73.4184 21.1157 73.4184 21.4177Z" fill="white"/>
<path d="M92.454 21.2365C92.4237 21.1156 92.3632 20.9948 92.3026 20.9344C91.7579 20.0281 91.1829 19.1219 90.6079 18.2458C90.0329 17.3698 89.4882 16.4636 88.9132 15.5573C89.9421 15.2854 90.7592 14.8021 91.3645 14.0771C91.9697 13.3521 92.2724 12.3854 92.2724 11.2073C92.2724 10.6333 92.1816 10.0594 92 9.48543C91.8184 8.91147 91.5158 8.42814 91.0921 7.97502C90.6684 7.52189 90.1237 7.1896 89.4579 6.88752C88.7618 6.61564 87.9447 6.4646 86.9158 6.4646H82.921C82.5276 6.4646 82.225 6.61564 81.9224 6.88752C81.65 7.15939 81.5289 7.49168 81.5289 7.85418V21.5688C81.5289 21.9011 81.65 22.2031 81.8921 22.4146C82.1342 22.6563 82.4368 22.7771 82.7697 22.7771C83.1329 22.7771 83.4355 22.6563 83.6776 22.4146C83.9197 22.1729 84.0408 21.9011 84.0408 21.5688V15.799H86.1289L90.0934 22.2333C90.3355 22.5958 90.6684 22.7771 91.1526 22.7771C91.4553 22.7771 91.7579 22.6563 92.0303 22.4146C92.3026 22.1729 92.454 21.8709 92.454 21.5386C92.4842 21.4781 92.4842 21.3875 92.454 21.2365ZM84.1013 13.5031V8.88127H86.8855C87.4908 8.88127 87.975 8.94168 88.3382 9.09272C88.7013 9.24377 89.0039 9.39481 89.2158 9.63647C89.4276 9.84793 89.5789 10.1198 89.6697 10.3917C89.7605 10.6636 89.7908 10.9656 89.7908 11.2375C89.7908 11.9927 89.5487 12.5365 89.0947 12.9292C88.6105 13.3219 87.9447 13.5031 87.0368 13.5031H84.1013V13.5031Z" fill="white"/>
<path d="M105.376 9.9386C105.164 9.2136 104.832 8.60943 104.408 8.06568C103.954 7.52193 103.379 7.09902 102.683 6.79693C101.987 6.49485 101.109 6.3136 100.111 6.3136C99.1118 6.3136 98.2342 6.46464 97.5381 6.79693C96.8421 7.09902 96.2368 7.52193 95.8131 8.06568C95.3592 8.60943 95.0263 9.24381 94.8447 9.9386C94.6329 10.6636 94.5421 11.4188 94.5421 12.2042V16.9167C94.5421 17.7323 94.6631 18.5178 94.9052 19.2428C95.1474 19.9678 95.4802 20.6021 95.9645 21.1157C96.4184 21.6594 97.0237 22.0521 97.7197 22.3844C98.4158 22.6865 99.2329 22.8678 100.171 22.8678C101.109 22.8678 101.926 22.7167 102.622 22.3844C103.318 22.0823 103.924 21.6594 104.378 21.1157C104.832 20.5719 105.195 19.9678 105.437 19.2428C105.679 18.5178 105.8 17.7626 105.8 16.9167V12.2042C105.679 11.4188 105.588 10.6636 105.376 9.9386ZM103.167 16.9167C103.167 17.974 102.925 18.8501 102.411 19.5146C101.896 20.1792 101.139 20.5115 100.08 20.5115C99.021 20.5115 98.2342 20.1792 97.7197 19.5146C97.2355 18.8501 96.9631 17.974 96.9631 16.9167V12.2042C96.9631 11.1469 97.2052 10.2709 97.6592 9.63652C98.1131 8.97193 98.9302 8.66985 100.05 8.66985C101.17 8.66985 101.957 9.00214 102.441 9.63652C102.895 10.3011 103.137 11.1469 103.137 12.2042V16.9167H103.167Z" fill="white"/>
<path d="M117.966 22.8376C117.724 22.8376 117.482 22.7771 117.27 22.6563C117.028 22.5355 116.876 22.3844 116.755 22.173L110.793 11.4792V21.6292C110.793 21.9615 110.672 22.2334 110.43 22.4751C110.188 22.7167 109.886 22.8376 109.522 22.8376C109.159 22.8376 108.887 22.7167 108.645 22.4751C108.403 22.2334 108.282 21.9615 108.282 21.6292V7.58235C108.282 7.21985 108.403 6.91777 108.645 6.6761C108.887 6.43443 109.22 6.3136 109.613 6.3136C109.886 6.3136 110.128 6.37402 110.339 6.49485C110.582 6.61568 110.733 6.79693 110.854 7.00839C111.036 7.31047 111.247 7.73339 111.58 8.27714C111.883 8.8511 112.246 9.45527 112.609 10.1501C113.003 10.8448 113.396 11.5698 113.82 12.3251C114.243 13.0803 114.637 13.8053 115.03 14.5303C115.424 15.2251 115.757 15.8594 116.059 16.4334C116.362 17.0074 116.634 17.4303 116.816 17.7324V7.52193C116.816 7.18964 116.937 6.88756 117.179 6.6761C117.421 6.43443 117.724 6.3136 118.087 6.3136C118.45 6.3136 118.722 6.43443 118.964 6.6761C119.207 6.91777 119.328 7.18964 119.328 7.52193V21.5688C119.328 21.9313 119.207 22.2334 118.964 22.4751C118.692 22.7167 118.359 22.8376 117.966 22.8376Z" fill="white"/>
<path d="M122.203 7.49166C122.203 7.15937 122.324 6.88749 122.566 6.64583C122.808 6.40416 123.111 6.28333 123.443 6.28333C123.807 6.28333 124.079 6.40416 124.321 6.64583C124.563 6.88749 124.684 7.15937 124.684 7.49166V21.6594C124.684 21.9615 124.563 22.2333 124.321 22.475C124.079 22.7167 123.776 22.8375 123.443 22.8375C123.08 22.8375 122.808 22.7167 122.566 22.475C122.324 22.2333 122.203 21.9615 122.203 21.6594V7.49166Z" fill="white"/>
<path d="M76.1724 7.49166C76.1724 7.15937 76.2934 6.88749 76.5355 6.64583C76.7776 6.40416 77.0803 6.28333 77.4132 6.28333C77.7763 6.28333 78.0487 6.40416 78.2908 6.64583C78.5329 6.88749 78.6539 7.15937 78.6539 7.49166V21.6594C78.6539 21.9615 78.5329 22.2333 78.2908 22.475C78.0487 22.7167 77.7461 22.8375 77.4132 22.8375C77.05 22.8375 76.7776 22.7167 76.5355 22.475C76.2934 22.2333 76.1724 21.9615 76.1724 21.6594V7.49166Z" fill="white"/>
<path d="M130.676 19.1823C130.132 20.149 129.557 21.0855 128.982 22.0521C128.861 22.2334 128.739 22.3844 128.558 22.5657C128.376 22.7469 128.134 22.8376 127.832 22.8376C127.499 22.8376 127.226 22.7167 126.984 22.4751C126.742 22.2334 126.621 21.9615 126.621 21.6594C126.621 21.5386 126.651 21.4178 126.682 21.2969C126.712 21.1761 126.772 21.0855 126.803 21.0251C127.499 19.8771 128.164 18.7594 128.83 17.6417C129.496 16.524 130.192 15.4063 130.858 14.2886L127.136 8.15631C127.014 7.94485 126.984 7.73339 126.984 7.52193C126.984 7.21985 127.105 6.94797 127.347 6.70631C127.589 6.46464 127.862 6.34381 128.195 6.34381C128.497 6.34381 128.739 6.43443 128.951 6.61568C129.163 6.79693 129.345 7.00839 129.466 7.25006L132.341 12.2344L135.216 7.25006C135.337 7.0386 135.518 6.85735 135.73 6.64589C135.942 6.43443 136.214 6.34381 136.517 6.3136C136.82 6.3136 137.092 6.43443 137.334 6.64589C137.576 6.88756 137.697 7.15943 137.697 7.49172C137.697 7.67297 137.637 7.85422 137.546 8.09589L133.854 14.2282L137.909 20.9646C137.97 21.0553 138 21.1459 138.03 21.2365C138.061 21.3574 138.091 21.4782 138.091 21.599C138.091 21.9011 137.97 22.173 137.728 22.4146C137.486 22.6563 137.213 22.7771 136.911 22.7771C136.608 22.7771 136.366 22.6865 136.184 22.5355C136.003 22.3844 135.851 22.2032 135.73 21.9917L132.401 16.2521C131.766 17.249 131.221 18.2157 130.676 19.1823Z" fill="white"/>
</g>
<defs>
<clipPath id="clip0">
<rect width="138" height="29" fill="white"/>
</clipPath>
</defs>
</svg>
