<svg width="114" height="35" viewBox="0 0 114 35" fill="none" xmlns="http://www.w3.org/2000/svg">
<path d="M8.81348 10.8646C11.2127 10.8646 13.2202 11.6545 14.836 13.2344C16.4518 14.8142 17.2597 16.8073 17.2597 19.2135C17.2597 21.5226 16.4151 23.467 14.7259 25.0469C13.0611 26.6024 10.9924 27.3802 8.5197 27.3802C6.12047 27.3802 4.10072 26.5781 2.46043 24.974C0.820143 23.3698 0 21.3767 0 18.9948C0 16.7101 0.844625 14.7899 2.53388 13.2344C4.24761 11.6545 6.34081 10.8646 8.81348 10.8646ZM8.37281 11.9948C5.6798 11.9948 4.33329 14.0972 4.33329 18.3021C4.33329 20.6354 4.74949 22.5434 5.58187 24.026C6.43874 25.4844 7.54042 26.2135 8.88693 26.2135C10.1845 26.2135 11.1882 25.6788 11.8982 24.6094C12.6082 23.5399 12.9632 22.0208 12.9632 20.0521C12.9632 19.2743 12.8775 18.3872 12.7061 17.3906C12.5347 16.3698 12.192 15.2153 11.6779 13.9271C11.1882 12.6389 10.0865 11.9948 8.37281 11.9948Z" fill="white"/>
<path d="M31.7641 26.9427V25.2292C29.5118 26.6389 27.7123 27.3437 26.3658 27.3437C24.6276 27.3437 23.122 26.6267 21.8489 25.1927C20.5759 23.7587 19.9393 22.0573 19.9393 20.0885C19.9393 17.6337 20.7962 15.4705 22.5099 13.599C24.2237 11.7274 26.219 10.7917 28.4958 10.7917C29.0099 10.7917 29.475 10.8403 29.8912 10.9375C30.3074 11.0347 30.9317 11.2413 31.7641 11.5573V4.22917C31.7641 3.71875 31.7274 3.41493 31.6539 3.31771C31.5805 3.19618 31.3234 3.0625 30.8828 2.91667L30.0014 2.625V1.89583C30.7848 1.67708 31.605 1.40972 32.4618 1.09375C33.3187 0.753473 34.1756 0.38889 35.0324 0L35.5833 0.109376V24.8281C35.5833 25.1684 35.7302 25.3385 36.024 25.3385H36.3177L37.603 25.2292V26.0677C36.0362 26.3351 34.2857 26.7604 32.3517 27.3437L31.7641 26.9427ZM31.7641 23.7708V14.5469C31.7641 14.0122 31.3601 13.4896 30.5522 12.9792C29.7443 12.4688 28.912 12.2135 28.0551 12.2135C26.782 12.2135 25.7171 12.7604 24.8602 13.8542C24.0033 14.9479 23.5749 16.3333 23.5749 18.0104C23.5749 19.9062 24.1013 21.5469 25.154 22.9323C26.2067 24.2934 27.4675 24.974 28.9364 24.974C29.9402 24.974 30.8828 24.5729 31.7641 23.7708Z" fill="white"/>
<path d="M47.775 22.0573L50.8597 14.7292C51.08 14.2188 51.1902 13.7448 51.1902 13.3073C51.1902 12.8698 51.0433 12.566 50.7495 12.3958C50.4557 12.2014 49.9171 12.1042 49.1337 12.1042V11.2292L52.1083 11.3021L54.8992 11.2292V12.1042C54.3116 12.1042 53.8465 12.2622 53.5037 12.5781C53.161 12.8941 52.806 13.4896 52.4388 14.3646L45.0208 32.3021C44.629 33.2743 44.2251 33.967 43.8089 34.3802C43.3927 34.7934 42.8908 35 42.3033 35C41.7891 35 41.2995 34.7812 40.8344 34.3437C40.3692 33.9062 40.1366 33.4323 40.1366 32.9219C40.1366 32.4115 40.308 31.9618 40.6507 31.5729C41.018 31.2083 41.4342 31.026 41.8993 31.026C42.291 31.026 42.5848 31.1476 42.7807 31.3906C43.001 31.658 43.1479 31.8038 43.2213 31.8281C43.2948 31.8767 43.356 31.9132 43.405 31.9375C43.6253 31.9375 43.8456 31.658 44.066 31.099L45.7919 27.2344L40.357 14.3646C39.9163 13.3437 39.598 12.7361 39.4022 12.5417C39.2063 12.3472 38.7779 12.2014 38.1169 12.1042V11.2292L41.9728 11.3021L45.9388 11.2292V12.1042C45.1554 12.1042 44.6658 12.1406 44.4699 12.2135C44.2741 12.2865 44.1761 12.4809 44.1761 12.7969C44.1761 12.8941 44.2129 13.0642 44.2863 13.3073C44.3597 13.526 44.4577 13.8177 44.5801 14.1823L47.775 22.0573Z" fill="white"/>
<path d="M56.1636 26.0677V22.6042L56.8246 22.5677C57.3142 25.1198 58.5383 26.3958 60.4968 26.3958C61.3292 26.3958 62.0147 26.1649 62.5533 25.7031C63.0919 25.2413 63.3612 24.6337 63.3612 23.8802C63.3612 23.2969 63.1654 22.8108 62.7737 22.4219C62.4064 22.033 61.5251 21.4618 60.1296 20.7083C58.7341 19.9306 57.7304 19.1649 57.1183 18.4115C56.5063 17.6337 56.2003 16.7222 56.2003 15.6771C56.2003 14.1944 56.7389 12.9913 57.8161 12.0677C58.8933 11.1441 60.2765 10.6823 61.9658 10.6823C63.043 10.6823 64.3283 10.9861 65.8217 11.5938L65.9318 15.0573L65.3075 15.1302C64.9158 13.842 64.4874 12.9792 64.0222 12.5417C63.5571 12.0799 62.8471 11.849 61.8923 11.849C61.1089 11.849 60.4601 12.0556 59.946 12.4688C59.4319 12.8819 59.1748 13.4167 59.1748 14.0729C59.1748 14.7292 59.4808 15.3368 60.0929 15.8958C60.7049 16.4549 61.7332 17.1233 63.1776 17.901C64.622 18.6788 65.5646 19.3715 66.0053 19.9792C66.4704 20.5625 66.703 21.316 66.703 22.2396C66.703 23.8194 66.1522 25.0955 65.0505 26.0677C63.9488 27.0399 62.4799 27.526 60.6437 27.526C59.7869 27.526 59.0524 27.4288 58.4404 27.2344C57.8283 27.0399 57.0694 26.651 56.1636 26.0677Z" fill="white"/>
<path d="M69.3967 26.0677V22.6042L70.0577 22.5677C70.5473 25.1198 71.7714 26.3958 73.73 26.3958C74.5624 26.3958 75.2478 26.1649 75.7864 25.7031C76.3251 25.2413 76.5944 24.6337 76.5944 23.8802C76.5944 23.2969 76.3985 22.8108 76.0068 22.4219C75.6396 22.033 74.7582 21.4618 73.3627 20.7083C71.9673 19.9306 70.9635 19.1649 70.3515 18.4115C69.7394 17.6337 69.4334 16.7222 69.4334 15.6771C69.4334 14.1944 69.972 12.9913 71.0492 12.0677C72.1264 11.1441 73.5096 10.6823 75.1989 10.6823C76.2761 10.6823 77.5614 10.9861 79.0548 11.5938L79.1649 15.0573L78.5407 15.1302C78.149 13.842 77.7205 12.9792 77.2554 12.5417C76.7902 12.0799 76.0802 11.849 75.1254 11.849C74.342 11.849 73.6932 12.0556 73.1791 12.4688C72.665 12.8819 72.4079 13.4167 72.4079 14.0729C72.4079 14.7292 72.714 15.3368 73.326 15.8958C73.9381 16.4549 74.9663 17.1233 76.4107 17.901C77.8552 18.6788 78.7977 19.3715 79.2384 19.9792C79.7036 20.5625 79.9361 21.316 79.9361 22.2396C79.9361 23.8194 79.3853 25.0955 78.2836 26.0677C77.1819 27.0399 75.713 27.526 73.8769 27.526C73.02 27.526 72.2855 27.4288 71.6735 27.2344C71.0614 27.0399 70.3025 26.651 69.3967 26.0677Z" fill="white"/>
<path d="M85.788 16.9896V17.5365C85.788 19.5052 86.3633 21.1337 87.5139 22.4219C88.6646 23.7101 90.109 24.3542 91.8472 24.3542C93.2182 24.3542 94.5402 23.8437 95.8133 22.8229L96.3274 23.2969C95.1278 24.8038 94.0261 25.8611 93.0224 26.4688C92.0186 27.0764 90.868 27.3802 89.5704 27.3802C87.5874 27.3802 85.9104 26.6267 84.5394 25.1198C83.1684 23.6128 82.4829 21.7535 82.4829 19.5417C82.4829 17.1354 83.2541 15.0938 84.7965 13.4167C86.3388 11.7396 88.2117 10.901 90.4151 10.901C91.9574 10.901 93.3039 11.3993 94.4546 12.3958C95.6052 13.3924 96.1805 14.5712 96.1805 15.9323C96.1805 16.3455 96.0581 16.625 95.8133 16.7708C95.5685 16.9167 95.0911 16.9896 94.3811 16.9896H85.788ZM85.8614 15.9687H91.1495C92.1777 15.9687 92.6919 15.5799 92.6919 14.8021C92.6919 14.0729 92.4226 13.4531 91.884 12.9427C91.3454 12.4323 90.6721 12.1771 89.8642 12.1771C88.9339 12.1771 88.1015 12.5295 87.3671 13.2344C86.6326 13.9392 86.1307 14.8507 85.8614 15.9687Z" fill="white"/>
<path d="M106.876 22.0573L109.96 14.7292C110.181 14.2188 110.291 13.7448 110.291 13.3073C110.291 12.8698 110.144 12.566 109.85 12.3958C109.557 12.2014 109.018 12.1042 108.235 12.1042V11.2292L111.209 11.3021L114 11.2292V12.1042C113.412 12.1042 112.947 12.2622 112.605 12.5781C112.262 12.8941 111.907 13.4896 111.54 14.3646L104.122 32.3021C103.73 33.2743 103.326 33.967 102.91 34.3802C102.494 34.7934 101.992 35 101.404 35C100.89 35 100.4 34.7812 99.9352 34.3437C99.47 33.9062 99.2374 33.4323 99.2374 32.9219C99.2374 32.4115 99.4088 31.9618 99.7515 31.5729C100.119 31.2083 100.535 31.026 101 31.026C101.392 31.026 101.686 31.1476 101.881 31.3906C102.102 31.658 102.249 31.8038 102.322 31.8281C102.396 31.8767 102.457 31.9132 102.506 31.9375C102.726 31.9375 102.946 31.658 103.167 31.099L104.893 27.2344L99.4578 14.3646C99.0171 13.3437 98.6988 12.7361 98.503 12.5417C98.3071 12.3472 97.8787 12.2014 97.2177 12.1042V11.2292L101.074 11.3021L105.04 11.2292V12.1042C104.256 12.1042 103.767 12.1406 103.571 12.2135C103.375 12.2865 103.277 12.4809 103.277 12.7969C103.277 12.8941 103.314 13.0642 103.387 13.3073C103.461 13.526 103.558 13.8177 103.681 14.1823L106.876 22.0573Z" fill="white"/>
</svg>
