<svg width="94" height="31" viewBox="0 0 94 31" fill="none" xmlns="http://www.w3.org/2000/svg">
<path d="M69.6607 14.8618C69.2625 13.7569 69.0612 12.4273 69.0612 10.9102C69.0612 9.39447 69.2625 8.06426 69.6607 6.95934C70.0595 5.85181 70.614 4.93505 71.3269 4.21298C71.7543 3.77804 72.2267 3.41277 72.7409 3.11391C73.0869 2.91337 73.4492 2.74213 73.8343 2.60214C74.7921 2.25445 75.8236 2.07996 76.9249 2.07996C78.0463 2.07996 79.0856 2.25445 80.0461 2.60214C81.004 2.95048 81.84 3.48764 82.5535 4.21298C83.2664 4.93635 83.8209 5.85441 84.2203 6.96324C84.6198 8.07338 84.8185 9.38991 84.8185 10.9122C84.8185 12.4345 84.6198 13.7491 84.2203 14.8598C83.8209 15.97 83.2664 16.8867 82.5535 17.6114C82.0733 18.1004 81.5344 18.5015 80.9421 18.8192C80.6567 18.9716 80.3589 19.1077 80.0461 19.2203C79.0856 19.5693 78.0463 19.7438 76.9249 19.7438C75.8236 19.7438 74.7921 19.5693 73.8343 19.2203C72.8731 18.8726 72.0384 18.3367 71.3269 17.6114C71.1483 17.4304 70.9802 17.2377 70.8218 17.0332C70.3468 16.4173 69.9578 15.6894 69.6607 14.8618ZM84.681 3.64912C83.9734 3.01494 83.1536 2.4895 82.2349 2.08061C81.9279 1.94387 81.61 1.82082 81.2802 1.71013C79.9633 1.26738 78.5109 1.0447 76.9249 1.0447C75.3623 1.0447 73.9203 1.26738 72.6021 1.71013C72.4326 1.76677 72.2658 1.82668 72.1029 1.89113C70.9971 2.32282 70.0321 2.90816 69.2085 3.64651C68.2623 4.49621 67.5279 5.53407 67.0027 6.7614C66.4775 7.98743 66.2156 9.38601 66.2156 10.9539C66.2156 12.5217 66.4775 13.9197 67.0027 15.1463C67.5279 16.3737 68.2623 17.4115 69.2085 18.2599C70.1533 19.109 71.2845 19.7412 72.6021 20.1559C73.9203 20.5713 75.3623 20.779 76.9249 20.779C78.5109 20.779 79.9633 20.5713 81.2802 20.1559C81.3832 20.1234 81.4842 20.0856 81.5859 20.0518C82.4792 19.7399 83.2833 19.3251 83.9981 18.8055C84.2366 18.633 84.4647 18.4494 84.681 18.2547C85.6206 17.4122 86.3609 16.3659 86.8854 15.1431C87.4067 13.9223 87.6732 12.512 87.6732 10.9526C87.6732 9.39317 87.4067 7.98287 86.8854 6.7614C86.3615 5.53993 85.6206 4.49295 84.681 3.64912Z" fill="#FEFEFE"/>
<path d="M62.3644 10.9437C62.3644 12.2941 62.2015 13.4615 61.8757 14.446C61.5472 15.4305 61.0931 16.2444 60.5099 16.887C59.9273 17.5296 59.2425 18.0062 58.4573 18.3155C57.6721 18.6248 56.8198 18.7785 55.9036 18.7785C55.0005 18.7785 54.1573 18.6248 53.3727 18.3155C52.5863 18.0062 51.9034 17.5296 51.3208 16.887C50.737 16.2444 50.2815 15.4305 49.9557 14.446C49.6292 13.4615 49.4657 12.2941 49.4657 10.9437C49.4657 9.59332 49.6292 8.42523 49.9557 7.44011C50.2815 6.45564 50.737 5.64176 51.3208 4.99977C51.9034 4.35648 52.5863 3.88052 53.3727 3.5719C54.1573 3.26262 55.0005 3.10766 55.9036 3.10766C56.8198 3.10766 57.6721 3.26262 58.4573 3.5719C59.2425 3.88052 59.9273 4.35648 60.5099 4.99977C61.0931 5.64176 61.5472 6.45564 61.8757 7.44011C62.2015 8.42523 62.3644 9.59332 62.3644 10.9437ZM65.1806 10.7314C65.1578 9.41492 64.9389 8.23251 64.5082 7.19074C64.0631 6.11642 63.4408 5.20617 62.6491 4.45545C62.6322 4.44047 62.6185 4.42159 62.6009 4.40596L62.5996 4.40466C61.7812 3.64547 60.8018 3.06664 59.6628 2.67142C58.5224 2.2749 57.2648 2.07631 55.8951 2.07631C54.5385 2.07631 53.2919 2.2749 52.1516 2.67142C51.0113 3.06664 50.0319 3.64547 49.2142 4.40466C48.3964 5.16385 47.7591 6.09298 47.3056 7.19074C46.8514 8.28981 46.624 9.53928 46.624 10.9437C46.624 12.3455 46.8514 13.597 47.3056 14.6947C47.7591 15.7938 48.3964 16.7229 49.2142 17.4815C50.0319 18.2406 51.0113 18.8065 52.1516 19.1776C53.2919 19.5507 54.5385 19.7362 55.8951 19.7362C57.2648 19.7362 58.5224 19.5507 59.6628 19.1776C60.8018 18.8065 61.7812 18.2406 62.5996 17.4815C63.4167 16.7229 64.0533 15.7938 64.5082 14.6947C64.9617 13.597 65.1898 12.3455 65.1898 10.9437V10.9424C65.1898 10.8708 65.1819 10.8024 65.1806 10.7314Z" fill="#FEFEFE"/>
<path d="M13.0746 6.81772C13.6865 5.75512 14.5727 4.28362 15.1077 3.37207C15.7971 2.19943 16.364 1.30612 16.6552 0.869225C16.8827 0.525442 17.0429 0.285835 17.2241 0.000651122C17.1791 0.0136732 17.1198 0.0266953 17.0645 0.0403685C16.9074 0.0781326 16.7458 0.110037 16.581 0.134128C16.5138 0.144545 16.4409 0.152359 16.3685 0.159521C16.2187 0.175147 16.0707 0.184263 15.9228 0.187518C15.8785 0.188821 15.8388 0.193378 15.7945 0.193378C15.294 0.193378 14.8066 0.125663 14.3616 0.000651122C13.1013 2.26715 8.83132 9.19491 8.61237 9.59794C8.39213 9.19491 4.12276 2.27105 2.86254 0.00390662C2.81432 0.0169287 2.74655 0.0358108 2.66901 0.0540417C2.54846 0.0833415 2.42596 0.10613 2.3028 0.126966C2.19463 0.144545 2.07604 0.159521 1.94507 0.172543C1.9203 0.174496 1.89554 0.175147 1.87078 0.176449C1.73394 0.187518 1.58863 0.195332 1.42899 0.195332C1.34754 0.195332 1.27325 0.190123 1.19636 0.187518C1.07647 0.181658 0.95722 0.175798 0.836672 0.160823C0.781285 0.155614 0.723291 0.151056 0.669859 0.143243C0.486755 0.116548 0.308213 0.0768304 0.134884 0.0345086C0.0899227 0.0221376 0.0436581 0.012371 0 0C0.181149 0.284533 0.341445 0.526093 0.568207 0.869225C0.858175 1.30612 1.42703 2.19943 2.11579 3.37142C2.65142 4.28362 3.53565 5.75512 4.14882 6.81707C4.76134 7.87902 5.40644 8.99892 6.02156 10.0765C6.79242 11.4308 7.25376 12.246 7.40103 12.5058L7.40168 13.3307C7.40168 14.4409 7.38083 15.6363 7.33847 16.7119C7.29677 17.783 7.2492 20.7501 7.19837 21.8049C7.64343 21.6792 8.1178 21.6121 8.60977 21.6121C9.10174 21.6121 9.58263 21.6792 10.0264 21.8049C9.97685 20.7501 9.93124 17.7875 9.88758 16.7165C9.84588 15.6402 9.82568 14.4441 9.82568 13.3346L9.82438 12.5051C10.2772 11.7049 10.7379 10.891 11.2025 10.0765C11.817 8.99958 12.4621 7.87902 13.0746 6.81772Z" fill="#FEFEFE"/>
<path d="M21.4572 13.3465C20.8903 13.3465 18.9198 13.2951 18.3816 13.2697C19.7747 9.75636 21.2715 5.93176 21.4572 5.18755C21.6422 5.93176 23.1318 9.7557 24.5256 13.2697C23.988 13.2938 22.0228 13.3465 21.4572 13.3465ZM22.6125 2.68275C22.5525 2.53039 22.4965 2.3904 22.4568 2.28167C22.4496 2.28427 22.4444 2.28688 22.4379 2.29013C22.1335 2.40928 21.8084 2.46919 21.4513 2.46919C21.1275 2.46919 20.8192 2.4171 20.5325 2.31422C20.5117 2.30641 20.4706 2.29013 20.4511 2.28232C20.412 2.39105 20.354 2.53039 20.2947 2.68275C19.1557 5.58538 15.1932 15.4412 13.3289 19.0138C13.2488 19.1687 13.1081 19.4435 13.0631 19.5288C13.514 19.4018 13.9949 19.338 14.4999 19.338C14.9945 19.338 15.4649 19.4018 15.9113 19.5288C16.0651 19.1205 16.9219 16.9856 17.9196 14.4756L17.9209 14.4749C18.3483 14.4625 18.8357 14.445 19.2612 14.4391C19.8197 14.4306 20.8838 14.4274 21.4409 14.4274H21.478C22.0208 14.4274 23.0934 14.4313 23.6525 14.4391C24.078 14.4456 24.5595 14.4632 24.9863 14.4749C25.9833 16.9849 26.8428 19.1218 26.9965 19.5288H26.9978C27.0031 19.5262 27.007 19.5216 27.0115 19.5184H27.0128C27.0083 19.5216 27.0031 19.5255 26.9978 19.5288C27.4436 19.4018 27.9179 19.338 28.4125 19.338C28.9162 19.338 29.3912 19.4018 29.8415 19.5288C29.7991 19.4435 29.659 19.17 29.5789 19.0151C27.7153 15.4418 23.7515 5.58603 22.6125 2.68275Z" fill="#FEFEFE"/>
<path d="M45.5751 13.1208V8.83393C45.5751 7.73747 45.5953 6.6625 45.6377 5.60771C45.6788 4.55357 45.7166 3.37572 45.7661 2.27991C45.3158 2.40818 44.8447 2.47264 44.3397 2.47264C43.8399 2.47264 43.3571 2.40818 42.9068 2.27796L42.9074 2.29619C42.9583 3.44474 43.013 4.60305 43.0541 5.62398C43.0945 6.6651 43.1166 7.74529 43.1166 8.83393L43.1199 10.3217H43.1147C42.3614 10.336 41.6368 10.3497 40.9259 10.364C40.0899 10.3803 39.2245 10.3888 38.3259 10.3888C37.4287 10.3888 36.562 10.3803 35.7273 10.364C35.0158 10.3497 34.2814 10.336 33.5281 10.3217L33.5333 8.83393C33.5333 7.74529 33.5542 6.6651 33.5952 5.62398C33.635 4.60305 33.6904 3.42585 33.7418 2.27731C33.2942 2.40687 32.8179 2.47264 32.3187 2.47264C31.8124 2.47264 31.3335 2.40883 30.8832 2.28121C30.9321 3.37572 30.9692 4.55357 31.0109 5.60771C31.0526 6.6625 31.0728 7.73747 31.0728 8.83393V13.1208C31.0728 14.2179 31.0526 15.2975 31.0109 16.3614C30.9692 17.4227 30.9236 18.4924 30.8741 19.5225C31.3244 19.3955 31.8059 19.3291 32.3122 19.3291C32.8113 19.3291 33.2844 19.3942 33.7353 19.5238C33.6839 18.4722 33.6376 17.3725 33.5978 16.3444C33.5574 15.2949 33.5359 14.2108 33.5359 13.1208L33.5333 11.5067C34.2846 11.4937 35.0236 11.4826 35.7312 11.4761C36.5744 11.4677 37.4463 11.4631 38.3259 11.4631C39.2056 11.4631 40.0768 11.4677 40.9213 11.4761C41.6296 11.4826 42.3588 11.493 43.1101 11.5061H43.1166V13.1208C43.1166 14.2108 43.0945 15.2949 43.0541 16.3444C43.013 17.3725 42.9641 18.4722 42.914 19.5238C43.3642 19.3942 43.8464 19.3291 44.3442 19.3291C44.8512 19.3291 45.3243 19.3955 45.7752 19.5238C45.725 18.4937 45.6788 17.4227 45.6377 16.3614C45.5953 15.2975 45.5751 14.2179 45.5751 13.1208Z" fill="#FEFEFE"/>
<path d="M93.9638 1.24706L93.9625 1.24315L93.9612 1.23795C93.9449 1.17088 93.9201 1.10838 93.8941 1.04652C93.8875 1.03089 93.8836 1.01266 93.8758 0.996386C93.8465 0.935182 93.8087 0.878536 93.7689 0.823843C93.7592 0.809519 93.7526 0.793892 93.7422 0.780219L93.7409 0.779568L93.7396 0.776963C93.6354 0.644138 93.5005 0.53345 93.3376 0.446853C93.2072 0.379138 93.0574 0.331607 92.899 0.297099C92.8808 0.293192 92.8665 0.283426 92.8476 0.279519C92.8267 0.275612 92.8059 0.272357 92.7844 0.267799H92.7824C92.5752 0.234593 92.3804 0.234593 92.1986 0.267799C92.0174 0.300354 91.8551 0.364163 91.7137 0.459224C91.646 0.50415 91.586 0.556239 91.5293 0.614838C91.5267 0.618094 91.5228 0.620047 91.5196 0.623302C91.4961 0.648044 91.4779 0.679298 91.4557 0.706644C91.4238 0.746361 91.3886 0.784777 91.3599 0.830354L91.3586 0.833609L91.3573 0.834912C91.2635 0.989875 91.1983 1.17349 91.1644 1.38575C91.1631 1.39616 91.1553 1.45021 91.1534 1.46844C91.1468 1.52378 91.1292 1.67093 91.1266 1.69632C90.9501 3.78377 90.6679 7.12849 90.5565 8.44373C90.1727 13.1506 89.6866 16.1404 89.5993 16.9869C89.7667 16.9628 89.9433 16.9654 90.1316 16.9947L90.1329 16.9953C90.3206 17.0246 90.4907 17.0767 90.6418 17.1516C90.8204 16.3188 91.2824 13.3257 92.3725 8.73152C92.6742 7.44623 93.9436 1.99844 93.9488 1.97825C93.9573 1.94635 93.9651 1.89947 93.9768 1.83045C94.012 1.61819 94.0068 1.42351 93.9638 1.24706Z" fill="#FEFEFE"/>
<path d="M90.7592 19.6268C90.6523 19.4933 90.5174 19.3807 90.3532 19.2934C90.1916 19.2062 90.004 19.145 89.7968 19.1124C89.6951 19.0968 89.5948 19.089 89.4983 19.089C89.4019 19.089 89.3061 19.0968 89.2162 19.1131C89.0344 19.1456 88.8708 19.2107 88.7294 19.3051C88.588 19.4002 88.4675 19.5278 88.3736 19.6815C88.2785 19.8364 88.214 20.022 88.1801 20.2349C88.1456 20.4472 88.1501 20.6438 88.1931 20.8196C88.2348 20.9961 88.3091 21.1536 88.4147 21.2878C88.5203 21.4212 88.6551 21.5319 88.818 21.6146C88.9809 21.6986 89.1686 21.7565 89.3745 21.7885C89.4827 21.8067 89.5922 21.8145 89.6951 21.8145C89.785 21.8145 89.875 21.8093 89.9584 21.795C90.1389 21.7663 90.3018 21.7032 90.4451 21.6087C90.5846 21.5137 90.7038 21.388 90.7996 21.2318C90.8947 21.0781 90.9599 20.8919 90.9931 20.6796C91.0264 20.4674 91.0224 20.2701 90.9807 20.0949C90.9377 19.9178 90.8635 19.7603 90.7592 19.6268Z" fill="#FEFEFE"/>
<path d="M43.8777 24.8184V25.3322H40.7632V27.3275H43.5074V27.8454H40.7632V30.8639H39.1484V24.8184H43.8777Z" fill="#FEFEFE"/>
<path d="M45.289 30.8639H46.9039V24.8183H45.289V30.8639Z" fill="#FEFEFE"/>
<path d="M48.5929 24.8184H49.6249L53.3821 28.6648V24.8184H54.3957V30.9571H53.6968L49.6156 26.7119V30.8639H48.5929V24.8184Z" fill="#FEFEFE"/>
<path d="M57.4773 28.6478H59.4625L58.4861 26.695L57.4773 28.6478ZM59.1246 24.6867L62.2112 30.8641H60.5591L59.7351 29.2123H57.1764L56.3113 30.8641H55.2099L58.426 24.6867H59.1246Z" fill="#FEFEFE"/>
<path d="M63.0254 24.8184H64.0574L67.8149 28.6648V24.8184H68.8285V30.9571H68.1296L64.0484 26.7119V30.8639H63.0254V24.8184Z" fill="#FEFEFE"/>
<path d="M71.9654 27.837C71.9654 28.2275 72.03 28.5729 72.1599 28.8728C72.2895 29.1728 72.4615 29.4247 72.6756 29.6285C72.8903 29.8323 73.1372 29.9866 73.4166 30.0913C73.6953 30.196 73.9846 30.2485 74.2836 30.2485C74.5154 30.2485 74.7308 30.2116 74.9292 30.1382C75.1282 30.0644 75.3153 29.9662 75.4892 29.8429C75.6637 29.7199 75.8264 29.5769 75.9775 29.4144C76.1283 29.2515 76.2733 29.0796 76.4122 28.8985L77.0879 29.3527C76.9426 29.5677 76.7681 29.7742 76.5629 29.9724C76.3575 30.1706 76.127 30.3461 75.8708 30.4986C75.6149 30.6517 75.3358 30.7735 75.0333 30.864C74.7314 30.9543 74.4116 31 74.0756 31C73.5082 31 72.9858 30.9242 72.509 30.7726C72.0326 30.6213 71.6208 30.4069 71.2739 30.1293C70.927 29.8521 70.656 29.5197 70.4615 29.1318C70.2673 28.7439 70.1702 28.3124 70.1702 27.837C70.1702 27.5314 70.2117 27.2406 70.2953 26.9645C70.3783 26.6884 70.4982 26.433 70.6538 26.1982C70.8094 25.9632 70.9997 25.752 71.225 25.5635C71.4501 25.3753 71.7044 25.2146 71.986 25.0816C72.2686 24.9485 72.5775 24.8468 72.9141 24.776C73.2501 24.7052 73.6066 24.6698 73.9827 24.6698C74.3627 24.6698 74.7099 24.7099 75.0263 24.791C75.3429 24.8716 75.6297 24.9848 75.8872 25.1305C76.1447 25.2762 76.3745 25.4497 76.5768 25.6505C76.779 25.8517 76.9564 26.0708 77.1111 26.3085L76.426 26.746C76.2871 26.5649 76.1373 26.3941 75.9753 26.2342C75.8132 26.0744 75.64 25.9343 75.4548 25.8142C75.2693 25.6936 75.0754 25.5983 74.8713 25.5275C74.6678 25.4567 74.455 25.4213 74.2328 25.4213C73.9306 25.4213 73.6419 25.4735 73.3674 25.5785C73.0932 25.683 72.8514 25.8375 72.6434 26.041C72.4351 26.2451 72.2699 26.4967 72.148 26.797C72.0262 27.0966 71.9654 27.4435 71.9654 27.837Z" fill="#FEFEFE"/>
<path d="M83.3485 24.8184V25.3322H80.0447V27.3275H82.7892V27.8454H80.0447V30.2443H83.3485V30.8639H78.4295V24.8184H83.3485Z" fill="#FEFEFE"/>
</svg>
