<svg width="138" height="33" viewBox="0 0 138 33" fill="none" xmlns="http://www.w3.org/2000/svg">
<path d="M54.8255 10.7685H57.2794V24.4362H54.8255V10.7685ZM79.6787 16.4807C82.2584 17.0831 83.7475 17.9347 84.104 19.6172C84.1669 19.8872 84.1879 20.178 84.1879 20.4688C84.1879 23.0237 82.3842 24.6439 79.448 24.6439C77.2039 24.6231 75.0436 23.8338 73.3448 22.3798L74.8339 20.6558C76.1762 21.7982 77.7701 22.5252 79.5109 22.5252C81.2517 22.5252 81.7341 21.7567 81.7341 20.6973C81.7341 19.638 81.1678 19.181 78.5671 18.5994C75.5889 17.9139 73.8691 16.9377 73.8691 14.4036C73.8691 11.8694 75.6518 10.5401 78.4203 10.5401C80.3498 10.5193 82.2374 11.1424 83.7685 12.2849L82.4471 14.092C81.1888 13.178 79.7626 12.5549 78.4832 12.5549C77.2039 12.5549 76.323 13.2819 76.323 14.1958C76.323 15.1098 77.0151 15.8576 79.6787 16.4807ZM103.19 10.7685L99.8129 20.8427L96.3523 10.7685H94.276L90.8154 20.8427L87.4388 10.7685H84.7752L89.6829 24.4362H91.8222L95.2827 14.6944L98.7433 24.4362H100.862L105.769 10.7685H103.19ZM125.484 12.9496H122.003V17.7478H125.484C127.351 17.7478 128.504 17.0415 128.504 15.276C128.504 13.5104 127.33 12.9496 125.484 12.9496V12.9496ZM125.4 19.8872H122.003V24.4362H119.549V10.7685H125.694C128.945 10.7685 131 12.4095 131 15.1721C131 18.2463 128.714 19.8872 125.4 19.8872V19.8872ZM66.6544 12.9496H63.0889V17.727H66.6753C68.4371 17.727 69.5696 16.7092 69.5696 15.3175C69.5696 13.9258 68.479 12.9496 66.6544 12.9496V12.9496ZM69.2131 24.4362L66.151 19.8457H63.0889V24.4362H60.6141V10.7685H66.8641C70.073 10.7685 72.0654 12.6588 72.0654 15.3175C72.0654 17.5608 70.6812 18.911 68.7097 19.451L72.1284 24.4362H69.2131ZM45.6602 13.6142L47.6527 18.8071C46.1426 18.8071 44.6326 19.1395 43.2693 19.7626L45.6602 13.6142ZM38.5713 24.4362H41.151C41.151 24.4362 43.0176 20.5104 48.4916 20.9466L49.9597 24.4362H52.5394L46.8347 10.7685H44.4228L38.5713 24.4362ZM113.362 19.7626C111.998 19.1395 110.488 18.8071 108.978 18.8071L110.971 13.6142L113.362 19.7626ZM112.208 10.7685H109.796L104.07 24.4362H106.65L108.139 20.9466C113.592 20.5104 115.459 24.4362 115.459 24.4362H118.06L112.208 10.7685ZM27.2039 23.9585L20.094 31L16.5705 27.5104C20.3666 27.2819 24.0369 26.0564 27.2039 23.9585V23.9585ZM33.9572 16.73L33.0763 15.8576L20.094 3L7.11158 15.8576L6 16.9585L6.39849 17.3116C6.8599 17.6855 7.32131 18.0386 7.80369 18.3709C15.0185 23.3769 24.5822 23.5015 31.9228 18.7033C32.4262 18.3709 32.9295 17.997 33.4119 17.6231C33.8943 17.2493 33.9362 17.1869 34.1879 16.9585L33.9572 16.73ZM23.5126 19.9496C19.6326 17.6024 15.1862 16.3561 10.6351 16.3769C16.5705 13.822 23.8272 13.4688 30.4966 17.27C28.3574 18.5994 25.9874 19.5134 23.5126 19.9496Z" fill="white"/>
</svg>
