<svg width="173" height="65" viewBox="0 0 173 65" fill="none" xmlns="http://www.w3.org/2000/svg">
<g clip-path="url(#clip0)">
<path fill-rule="evenodd" clip-rule="evenodd" d="M101.927 42.9352C94.7213 48.1942 84.2769 51 75.2844 51C62.6755 51 51.3243 46.3824 42.7367 38.7023C42.0619 38.0984 42.6665 37.2754 43.4761 37.7457C52.7439 43.0848 64.2031 46.2969 76.0401 46.2969C84.0232 46.2969 92.8052 44.6614 100.88 41.2677C102.1 40.7546 103.12 42.0587 101.927 42.9352" fill="white"/>
<path fill-rule="evenodd" clip-rule="evenodd" d="M104.923 39.5413C104.005 38.3762 98.8343 38.9908 96.5133 39.2634C95.8062 39.3489 95.6983 38.7396 96.3352 38.3014C100.454 35.4314 107.211 36.2598 107.999 37.2218C108.788 38.1891 107.794 44.8965 103.924 48.0978C103.331 48.5895 102.764 48.3276 103.028 47.6756C103.897 45.5271 105.846 40.7117 104.923 39.5413" fill="white"/>
<path fill-rule="evenodd" clip-rule="evenodd" d="M96.6753 18.0405V15.2506C96.6753 14.8284 96.9991 14.5452 97.3878 14.5452H110.002C110.407 14.5452 110.731 14.8338 110.731 15.2506V17.6396C110.725 18.0405 110.385 18.5642 109.781 19.3926L103.244 28.6333C105.673 28.5745 108.237 28.9326 110.439 30.1618C110.936 30.4397 111.071 30.8459 111.109 31.2467V34.2236C111.109 34.6298 110.655 35.1055 110.18 34.8596C106.299 32.8447 101.145 32.6256 96.8534 34.881C96.4162 35.1161 95.9574 34.6458 95.9574 34.2396V31.4124C95.9574 30.9581 95.9628 30.1832 96.4216 29.4937L103.994 18.7406H97.404C96.9991 18.7406 96.6753 18.4573 96.6753 18.0405" fill="white"/>
<path fill-rule="evenodd" clip-rule="evenodd" d="M50.6603 35.4474H46.8226C46.4555 35.4207 46.1641 35.1481 46.1371 34.8007V15.2987C46.1371 14.9085 46.4663 14.5985 46.8766 14.5985H50.4552C50.8276 14.6146 51.1245 14.8978 51.1515 15.2506V17.7999H51.2217C52.1555 15.3361 53.9097 14.187 56.2739 14.187C58.6758 14.187 60.1763 15.3361 61.2559 17.7999C62.1843 15.3361 64.2947 14.187 66.5564 14.187C68.1649 14.187 69.9245 14.8444 70.9986 16.3195C72.2131 17.9602 71.9648 20.3439 71.9648 22.4336L71.9594 34.742C71.9594 35.1321 71.6301 35.4474 71.2199 35.4474H67.3876C67.0044 35.4207 66.6967 35.1161 66.6967 34.742V24.4057C66.6967 23.5826 66.7723 21.5304 66.5888 20.7501C66.3027 19.4407 65.4445 19.0719 64.3325 19.0719C63.4041 19.0719 62.4326 19.6865 62.0385 20.6699C61.6445 21.6533 61.6823 23.2994 61.6823 24.4057V34.742C61.6823 35.1321 61.353 35.4474 60.9428 35.4474H57.1105C56.7219 35.4207 56.4196 35.1161 56.4196 34.742L56.4142 24.4057C56.4142 22.2305 56.7758 19.0291 54.05 19.0291C51.2918 19.0291 51.3998 22.1503 51.3998 24.4057V34.742C51.3998 35.1321 51.0705 35.4474 50.6603 35.4474" fill="white"/>
<path fill-rule="evenodd" clip-rule="evenodd" d="M121.591 14.187C127.285 14.187 130.367 19.0291 130.367 25.186C130.367 31.1344 126.961 35.8536 121.591 35.8536C115.999 35.8536 112.954 31.0115 112.954 24.9776C112.954 18.9062 116.037 14.187 121.591 14.187V14.187ZM121.623 18.1687C118.795 18.1687 118.617 21.9846 118.617 24.3629C118.617 26.7466 118.579 31.8346 121.591 31.8346C124.565 31.8346 124.705 27.73 124.705 25.2287C124.705 23.5826 124.635 21.6159 124.133 20.0553C123.701 18.6978 122.843 18.1687 121.623 18.1687" fill="white"/>
<path fill-rule="evenodd" clip-rule="evenodd" d="M137.751 35.4474H133.93C133.547 35.4207 133.239 35.1161 133.239 34.742L133.234 15.2345C133.266 14.8765 133.584 14.5985 133.973 14.5985H137.53C137.865 14.6146 138.14 14.839 138.216 15.1437V18.1259H138.286C139.36 15.459 140.866 14.187 143.516 14.187C145.238 14.187 146.917 14.8016 147.996 16.4851C149 18.0457 149 20.6699 149 22.5565V34.8328C148.957 35.1749 148.638 35.4474 148.261 35.4474H144.412C144.061 35.4207 143.77 35.1642 143.732 34.8328V24.24C143.732 22.1076 143.98 18.9864 141.33 18.9864C140.396 18.9864 139.538 19.6063 139.112 20.547C138.572 21.7388 138.502 22.9253 138.502 24.24V34.742C138.496 35.1321 138.162 35.4474 137.751 35.4474" fill="white"/>
<path fill-rule="evenodd" clip-rule="evenodd" d="M86.6195 26.132C86.6195 27.6124 86.6572 28.847 85.9016 30.1618C85.2916 31.2307 84.3201 31.888 83.2459 31.888C81.7724 31.888 80.9088 30.7764 80.9088 29.1356C80.9088 25.8969 83.8397 25.309 86.6195 25.309V26.132V26.132ZM90.4896 35.394C90.2359 35.6185 89.8688 35.6345 89.5828 35.4849C88.3089 34.4374 88.0768 33.951 87.3805 32.9516C85.2755 35.0787 83.7803 35.7147 81.0545 35.7147C77.8213 35.7147 75.3114 33.7426 75.3114 29.793C75.3114 26.7092 76.9955 24.6088 79.4028 23.5827C81.4863 22.6741 84.3956 22.5138 86.6195 22.2626V21.7709C86.6195 20.8677 86.6896 19.7988 86.1499 19.0185C85.6857 18.3184 84.7897 18.0298 83.9962 18.0298C82.5334 18.0298 81.2326 18.7726 80.9142 20.3119C80.8494 20.6539 80.5957 20.9906 80.2448 21.0066L76.5259 20.6111C76.2128 20.5417 75.862 20.2905 75.9537 19.8148C76.8065 15.3468 80.8872 14 84.536 14C86.4036 14 88.8433 14.4917 90.3169 15.892C92.1844 17.6182 92.0063 19.9217 92.0063 22.4283V28.35C92.0063 30.1297 92.7512 30.91 93.4529 31.872C93.6958 32.2141 93.7498 32.6256 93.4367 32.8821C92.654 33.5288 91.2614 34.7313 90.495 35.4047L90.4896 35.394" fill="white"/>
<path fill-rule="evenodd" clip-rule="evenodd" d="M36.3081 26.1323C36.3081 27.6127 36.3458 28.8473 35.5902 30.162C34.9802 31.2309 34.0141 31.8883 32.9345 31.8883C31.461 31.8883 30.6028 30.7766 30.6028 29.1359C30.6028 25.8971 33.5337 25.3092 36.3081 25.3092V26.1323V26.1323ZM40.1782 35.3943C39.9245 35.6187 39.5574 35.6348 39.2714 35.4851C37.9975 34.4376 37.7708 33.9513 37.0691 32.9518C34.964 35.079 33.4743 35.7149 30.7431 35.7149C27.5153 35.7149 25 33.7428 25 29.7932C25 26.7095 26.6895 24.6091 29.0914 23.5829C31.1749 22.6744 34.0842 22.514 36.3081 22.2628V21.7711C36.3081 20.8679 36.3782 19.799 35.8439 19.0187C35.3743 18.3186 34.4783 18.03 33.6902 18.03C32.2274 18.03 30.9212 18.7729 30.6028 20.3121C30.538 20.6541 30.2843 20.9909 29.9388 21.0069L26.2145 20.6114C25.9014 20.5419 25.556 20.2907 25.6423 19.8151C26.5005 15.3471 30.5758 14.0002 34.2246 14.0002C36.0921 14.0002 38.5319 14.4919 40.0054 15.8922C41.873 17.6185 41.6949 19.922 41.6949 22.4285V28.3502C41.6949 30.1299 42.4398 30.9102 43.1415 31.8723C43.3898 32.2143 43.4437 32.6258 43.1307 32.8824C42.348 33.5291 40.9554 34.7316 40.189 35.405L40.1782 35.3943" fill="white"/>
</g>
<defs>
<clipPath id="clip0">
<rect width="124" height="37" fill="white" transform="translate(25 14)"/>
</clipPath>
</defs>
</svg>
