<svg width="166" height="166" viewBox="0 0 166 166" fill="none" xmlns="http://www.w3.org/2000/svg">
<path fill-rule="evenodd" clip-rule="evenodd" d="M83 2C83 1.44771 83.4522 0.999396 84.0044 1.00603C128.495 1.54005 164.46 37.5054 164.994 81.9956C165.001 82.5478 164.552 83 164 83H84C83.4477 83 83 82.5523 83 82V2Z" fill="#AB59B8" stroke="#0C0C11" stroke-width="2"/>
<path fill-rule="evenodd" clip-rule="evenodd" d="M164 83C164.552 83 165.001 83.451 164.994 84.0033C164.566 119.693 141.338 149.896 109.199 160.725C108.676 160.902 108.111 160.613 107.941 160.088L83.4231 84.3078C83.2142 83.6619 83.6957 83 84.3746 83H164Z" fill="#EE4F44" stroke="#0C0C11" stroke-width="2"/>
<path d="M82.9998 165C91.4584 165 99.6179 163.719 107.295 161.341C107.822 161.178 108.111 160.613 107.94 160.088L83.607 84.8768C83.3549 84.0976 82.3243 83.9352 81.8449 84.5991L35.5706 148.67C35.2474 149.118 35.3475 149.743 35.7986 150.061C49.1453 159.472 65.427 165 82.9998 165Z" fill="#B5EB28" stroke="#0C0C11" stroke-width="2"/>
<path d="M34.7208 17.9555C34.3914 17.5117 33.764 17.4189 33.3246 17.754C13.6783 32.7347 1 56.3868 1 83.0002C1 109.997 14.0464 133.947 34.1783 148.889C34.6221 149.218 35.2483 149.117 35.5718 148.669L82.5713 83.5938C82.8265 83.2404 82.8234 82.7623 82.5636 82.4123L34.7208 17.9555Z" fill="#6611F2" stroke="#0C0C11" stroke-width="2"/>
<path d="M76.901 74.7829C77.6218 75.754 79.1263 74.8499 78.6072 73.7576L48.2205 9.82616C47.9833 9.32711 47.386 9.11445 46.8901 9.35809C42.6882 11.4223 38.6889 13.8356 34.9297 16.5601C34.4828 16.8841 34.3908 17.5106 34.7198 17.9538L76.901 74.7829Z" fill="#5DD0F9" stroke="#0C0C11" stroke-width="2"/>
<path d="M78.686 73.9234C79.2042 75.0138 80.8524 74.4223 80.5592 73.2513L63.3218 4.40585C63.1878 3.87039 62.645 3.54421 62.1111 3.68443C57.4655 4.90462 52.9809 6.52213 48.6959 8.49846C48.1946 8.72966 47.983 9.32652 48.22 9.82508L78.686 73.9234Z" fill="#EA9A56" stroke="#0C0C11" stroke-width="2"/>
<path d="M83 2C83 1.44771 82.5521 0.999373 81.9999 1.00597C75.8292 1.07972 69.8224 1.83507 64.0515 3.20023C63.5137 3.32744 63.188 3.87133 63.3222 4.40737L81.0299 75.1317C81.3163 76.2754 83 76.0678 83 74.8888V2Z" fill="#1275F9" stroke="#0C0C11" stroke-width="2"/>
<circle cx="82.5" cy="83.5" r="58.5" fill="#0B080E"/>
</svg>
