<svg width="166" height="166" viewBox="0 0 166 166" fill="none" xmlns="http://www.w3.org/2000/svg">
<path fill-rule="evenodd" clip-rule="evenodd" d="M165 83C165 110.223 151.735 134.347 131.315 149.261C130.869 149.587 130.244 149.481 129.924 149.031L83.1849 83.2601C83.0646 83.0909 83 82.8885 83 82.6809V2C83 1.44771 83.4522 0.999396 84.0044 1.00603C128.829 1.54406 165 38.0479 165 83Z" fill="#21B7AE" stroke="#062426" stroke-width="2"/>
<path d="M83 165C100.347 165 116.437 159.613 129.686 150.421C130.14 150.107 130.244 149.482 129.925 149.032L83.8152 84.1471C83.4165 83.5861 82.5835 83.5861 82.1849 84.1471L36.0754 149.032C35.7556 149.482 35.8605 150.107 36.314 150.421C49.5635 159.613 65.6527 165 83 165Z" fill="#FF8D41" stroke="#062426" stroke-width="2"/>
<path d="M34.6849 149.261C35.1311 149.587 35.7564 149.481 36.0765 149.031L81.201 85.5318C81.7638 84.7399 80.9809 83.6917 80.0619 84.0065L6.34978 109.255C5.82732 109.434 5.54838 110.003 5.7337 110.524C11.31 126.177 21.5078 139.637 34.6849 149.261Z" fill="#A9A9A9" stroke="#062426" stroke-width="2"/>
<path d="M1 83.0001C1 91.9513 2.43424 100.567 5.08544 108.631C5.25795 109.156 5.8272 109.434 6.34971 109.255L81.7333 83.434C82.3656 83.2174 82.6115 82.4535 82.2244 81.9087L36.0763 16.9692C35.7562 16.5187 35.1308 16.4129 34.6845 16.7389C14.2653 31.6533 1 55.7776 1 83.0001Z" fill="#FFC42F" stroke="#062426" stroke-width="2"/>
<path d="M83 2C83 1.44771 82.5514 0.999378 81.9991 1.00598C65.034 1.2089 49.3083 6.56378 36.314 15.5788C35.8605 15.8934 35.7556 16.5178 36.0754 16.9677L81.1849 80.4457C81.7491 81.2397 83 80.8406 83 79.8665V2Z" fill="#3475FB" stroke="#062426" stroke-width="2"/>
<circle cx="83.5" cy="83.5" r="58.5" fill="#062426"/>
</svg>
