<svg width="138" height="33" viewBox="0 0 138 33" fill="none" xmlns="http://www.w3.org/2000/svg">
<path d="M1.7507 4.49832L0 0L5.25211 4.83153L9.33709 4.66492C10.8933 4.19288 14.6059 3.63197 17.0068 5.16473C19.4078 3.63197 23.1204 4.19288 24.6766 4.66492L28.7616 4.83153L34.0137 0L32.263 4.49832L29.2618 6.83078L25.9271 8.99663L28.0113 9.82966L29.762 11.1625L29.2618 11.9122L25.5103 13.5783L24.093 12.9118V19.2428L24.9267 23.0747L17.0068 31.8214L9.08699 23.0747L9.92066 19.2428V12.9118L8.50342 13.5783L4.75191 11.9122L4.25171 11.1625L6.00242 9.82966L8.08659 8.99663L4.75191 6.83078L1.7507 4.49832Z" fill="white"/>
<path d="M52.1609 10.5472C52.7405 10.5472 53.2093 11.0424 53.0745 11.6061C52.838 12.5955 52.3644 13.4085 51.6538 14.0451C50.7101 14.8959 49.4638 15.3213 47.9151 15.3213C46.2213 15.3213 44.8873 14.7289 43.9133 13.544C42.9454 12.3528 42.4614 10.7205 42.4614 8.64695V7.80557C42.4614 6.48204 42.6853 5.31607 43.1329 4.30767C43.5806 3.29927 44.2188 2.52721 45.0476 1.99149C45.8825 1.44948 46.8504 1.17847 47.9514 1.17847C49.4759 1.17847 50.704 1.60389 51.6357 2.45473C52.3358 3.09413 52.8138 3.92751 53.0698 4.95487C53.2123 5.5268 52.7415 6.03771 52.152 6.03771H51.4565C50.9332 6.03771 50.5189 5.62731 50.376 5.12389C50.2534 4.6922 50.0653 4.35395 49.8117 4.10914C49.4064 3.70578 48.7863 3.5041 47.9514 3.5041C47.044 3.5041 46.3634 3.84443 45.9097 4.52511C45.462 5.19948 45.2321 6.24885 45.22 7.67321V8.71313C45.22 10.2005 45.4348 11.2877 45.8643 11.9747C46.2999 12.6617 46.9835 13.0051 47.9151 13.0051C48.756 13.0051 49.3822 12.8066 49.7936 12.4096C50.0414 12.1701 50.2263 11.854 50.3483 11.4613C50.5039 10.9606 50.9165 10.5472 51.4409 10.5472H52.1609Z" fill="white"/>
<path d="M65.7805 8.56187C65.7805 9.91691 65.5506 11.1049 65.0908 12.1259C64.6311 13.147 63.9717 13.9348 63.1126 14.4894C62.2596 15.044 61.2796 15.3213 60.1725 15.3213C59.0775 15.3213 58.1005 15.0472 57.2415 14.4988C56.3824 13.9505 55.717 13.169 55.2451 12.1543C54.7732 11.1333 54.5343 9.96103 54.5282 8.6375V7.95683C54.5282 6.60179 54.7611 5.41061 55.2269 4.3833C55.6988 3.34969 56.3613 2.55872 57.2142 2.0104C58.0733 1.45578 59.0533 1.17847 60.1544 1.17847C61.2554 1.17847 62.2324 1.45578 63.0854 2.0104C63.9444 2.55872 64.6069 3.34969 65.0727 4.3833C65.5446 5.41061 65.7805 6.59863 65.7805 7.94737V8.56187ZM63.0219 7.93792C63.0219 6.49464 62.7738 5.398 62.2778 4.648C61.7817 3.898 61.0739 3.523 60.1544 3.523C59.2409 3.523 58.5361 3.89485 58.04 4.63855C57.5439 5.37595 57.2929 6.45998 57.2868 7.89065V8.56187C57.2868 9.96733 57.5349 11.0577 58.0309 11.8329C58.527 12.6081 59.2409 12.9957 60.1725 12.9957C61.086 12.9957 61.7878 12.6238 62.2778 11.8801C62.7678 11.1301 63.0158 10.0398 63.0219 8.60914V7.93792Z" fill="white"/>
<path d="M70.5605 14.1322C70.5605 14.6845 70.1128 15.1322 69.5605 15.1322H68.8382C68.2859 15.1322 67.8382 14.6845 67.8382 14.1322V2.36754C67.8382 1.81526 68.2859 1.36754 68.8382 1.36754H69.5605C70.1128 1.36754 70.5605 1.81526 70.5605 2.36754V14.1322Z" fill="white"/>
<path d="M83.7435 14.1322C83.7435 14.6845 83.2958 15.1322 82.7435 15.1322H81.5946C81.2394 15.1322 80.9109 14.9438 80.7315 14.6373L77.5848 9.25955C77.0696 8.37917 75.7217 8.74456 75.7217 9.76458V14.1322C75.7217 14.6845 75.274 15.1322 74.7217 15.1322H73.9994C73.4471 15.1322 72.9994 14.6845 72.9994 14.1322V2.36754C72.9994 1.81526 73.4471 1.36754 73.9994 1.36754H75.1481C75.5034 1.36754 75.8319 1.55601 76.0113 1.86265L79.167 7.25782C79.6821 8.13836 81.0302 7.77303 81.0302 6.75293V2.36754C81.0302 1.81526 81.4779 1.36754 82.0302 1.36754H82.7435C83.2958 1.36754 83.7435 1.81526 83.7435 2.36754V14.1322Z" fill="white"/>
<path d="M50.5411 25.8456C50.5411 26.3979 50.0934 26.8456 49.5411 26.8456H46.2284C45.6761 26.8456 45.2284 27.2933 45.2284 27.8456V29.5326C45.2284 30.0849 45.6761 30.5326 46.2284 30.5326H50.4634C51.0157 30.5326 51.4634 30.9803 51.4634 31.5326V31.811C51.4634 32.3632 51.0157 32.811 50.4634 32.811H43.4614C42.9091 32.811 42.4614 32.3632 42.4614 31.811V20.0463C42.4614 19.494 42.9091 19.0463 43.4614 19.0463H50.445C50.9973 19.0463 51.445 19.494 51.445 20.0463V20.3435C51.445 20.8958 50.9973 21.3435 50.445 21.3435H46.2284C45.6761 21.3435 45.2284 21.7912 45.2284 22.3435V23.624C45.2284 24.1763 45.6761 24.624 46.2284 24.624H49.5411C50.0934 24.624 50.5411 25.0717 50.5411 25.624V25.8456Z" fill="#2E7CFF"/>
<path d="M56.9143 22.1271C57.2902 22.8355 58.3052 22.8355 58.681 22.1271L60.0337 19.5776C60.2072 19.2506 60.547 19.0463 60.9171 19.0463H61.7722C62.5406 19.0463 63.0219 19.8767 62.6399 20.5434L59.8731 25.3725C59.696 25.6816 59.6967 26.0617 59.8751 26.3702L62.7315 31.3104C63.117 31.9771 62.6359 32.811 61.8658 32.811H60.979C60.6103 32.811 60.2715 32.6081 60.0975 32.2831L58.6792 29.6352C58.3022 28.9315 57.2931 28.9315 56.9161 29.6352L55.4978 32.2831C55.3238 32.6081 54.985 32.811 54.6163 32.811H53.7295C52.9594 32.811 52.4783 31.9771 52.8638 31.3104L55.7202 26.3702C55.8986 26.0617 55.8993 25.6816 55.7222 25.3725L52.9554 20.5434C52.5734 19.8767 53.0547 19.0463 53.8231 19.0463H54.6782C55.0483 19.0463 55.3881 19.2506 55.5616 19.5776L56.9143 22.1271Z" fill="#2E7CFF"/>
<path d="M74.1361 28.2259C74.7161 28.2259 75.1851 28.722 75.0481 29.2856C74.8076 30.2746 74.3264 31.0874 73.6043 31.7238C72.645 32.5746 71.3784 33 69.8042 33C68.0826 33 66.7267 32.4076 65.7367 31.2227C64.7529 30.0315 64.261 28.3992 64.261 26.3257V25.4843C64.261 24.1607 64.4885 22.9948 64.9435 21.9864C65.3986 20.978 66.0473 20.2059 66.8897 19.6702C67.7382 19.1282 68.722 18.8572 69.8411 18.8572C71.3907 18.8572 72.6389 19.2826 73.5858 20.1334C74.2972 20.7726 74.783 21.6056 75.0432 22.6325C75.1882 23.2044 74.7171 23.7164 74.127 23.7164H73.3874C72.8645 23.7164 72.4506 23.3066 72.3059 22.8041C72.1814 22.3717 71.99 22.033 71.7319 21.7879C71.32 21.3845 70.6897 21.1828 69.8411 21.1828C68.9188 21.1828 68.2271 21.5231 67.7659 22.2038C67.3109 22.8782 67.0772 23.9276 67.0649 25.3519V26.3918C67.0649 27.8792 67.2832 28.9664 67.7198 29.6534C68.1625 30.3404 68.8573 30.6839 69.8042 30.6839C70.6589 30.6839 71.2954 30.4853 71.7135 30.0883C71.9657 29.8485 72.1538 29.5319 72.2778 29.1385C72.4353 28.6388 72.8476 28.2259 73.3715 28.2259H74.1361Z" fill="#2E7CFF"/>
<path d="M87.8614 31.811C87.8614 32.3632 87.4136 32.811 86.8614 32.811H86.0944C85.5421 32.811 85.0944 32.3632 85.0944 31.811V27.9118C85.0944 27.3595 84.6466 26.9118 84.0944 26.9118H80.6987C80.1464 26.9118 79.6987 27.3595 79.6987 27.9118V31.811C79.6987 32.3632 79.251 32.811 78.6987 32.811H77.9317C77.3794 32.811 76.9317 32.3632 76.9317 31.811V20.0463C76.9317 19.494 77.3794 19.0463 77.9317 19.0463H78.6987C79.251 19.0463 79.6987 19.494 79.6987 20.0463V23.624C79.6987 24.1763 80.1464 24.624 80.6987 24.624H84.0944C84.6466 24.624 85.0944 24.1763 85.0944 23.624V20.0463C85.0944 19.494 85.5421 19.0463 86.0944 19.0463H86.8614C87.4136 19.0463 87.8614 19.494 87.8614 20.0463V31.811Z" fill="#2E7CFF"/>
<path d="M98.1662 30.6628C98.0314 30.2523 97.6482 29.9748 97.2162 29.9748H93.8151C93.382 29.9748 92.9981 30.2537 92.8642 30.6656L92.3911 32.1202C92.2571 32.5321 91.8732 32.811 91.4401 32.811H90.6513C89.9575 32.811 89.4745 32.1217 89.7114 31.4696L93.9841 19.7049C94.1277 19.3095 94.5033 19.0463 94.924 19.0463H96.088C96.508 19.0463 96.8832 19.3087 97.0273 19.7032L101.324 31.4679C101.562 32.1203 101.079 32.811 100.384 32.811H99.5959C99.1639 32.811 98.7807 32.5335 98.6459 32.123L98.1662 30.6628ZM94.2598 26.3693C94.0505 27.0153 94.5321 27.6776 95.2111 27.6776H95.8133C96.4937 27.6776 96.9754 27.0128 96.7636 26.3662L96.4608 25.442C96.1595 24.5222 94.8576 24.5243 94.5592 25.4451L94.2598 26.3693Z" fill="#2E7CFF"/>
<path d="M113.894 31.811C113.894 32.3632 113.447 32.811 112.894 32.811H111.696C111.344 32.811 111.017 32.6252 110.837 32.3221L107.601 26.8808C107.081 26.0073 105.741 26.3757 105.741 27.3919V31.811C105.741 32.3632 105.293 32.811 104.741 32.811H103.974C103.422 32.811 102.974 32.3632 102.974 31.811V20.0463C102.974 19.494 103.422 19.0463 103.974 19.0463H105.172C105.525 19.0463 105.851 19.2321 106.032 19.5352L109.277 24.9941C109.797 25.8677 111.137 25.4994 111.137 24.483V20.0463C111.137 19.494 111.584 19.0463 112.137 19.0463H112.894C113.447 19.0463 113.894 19.494 113.894 20.0463V31.811Z" fill="#2E7CFF"/>
<path d="M126.842 30.7157C126.842 30.9458 126.766 31.1722 126.605 31.3365C126.129 31.822 125.504 32.2095 124.73 32.499C123.82 32.833 122.811 33 121.704 33C120.542 33 119.522 32.7416 118.642 32.2248C117.769 31.7017 117.093 30.9454 116.613 29.9559C116.14 28.9664 115.897 27.8036 115.884 26.4675V25.5315C115.884 24.1576 116.109 22.9696 116.558 21.9675C117.013 20.9591 117.665 20.1902 118.513 19.6607C119.368 19.125 120.367 18.8572 121.511 18.8572C123.103 18.8572 124.348 19.2479 125.246 20.0294C125.908 20.6012 126.371 21.3666 126.635 22.3257C126.794 22.9005 126.32 23.4234 125.724 23.4234H125.005C124.512 23.4234 124.113 23.0555 123.935 22.5959C123.789 22.2168 123.586 21.9159 123.328 21.6933C122.91 21.3278 122.332 21.145 121.594 21.145C120.653 21.145 119.937 21.5074 119.445 22.2322C118.953 22.957 118.704 24.0347 118.698 25.4654V26.3446C118.698 27.7879 118.965 28.8782 119.5 29.6156C120.035 30.353 120.819 30.7217 121.852 30.7217C122.674 30.7217 123.31 30.5796 123.759 30.2956C123.979 30.156 124.075 29.8949 124.075 29.634V28.6681C124.075 28.1158 123.627 27.6681 123.075 27.6681H122.557C122.005 27.6681 121.557 27.2204 121.557 26.6681V26.5788C121.557 26.0265 122.005 25.5788 122.557 25.5788H125.842C126.394 25.5788 126.842 26.0265 126.842 26.5788V30.7157Z" fill="#2E7CFF"/>
<path d="M137.078 25.8456C137.078 26.3979 136.63 26.8456 136.078 26.8456H132.765C132.213 26.8456 131.765 27.2933 131.765 27.8456V29.5326C131.765 30.0849 132.213 30.5326 132.765 30.5326H137C137.552 30.5326 138 30.9803 138 31.5326V31.811C138 32.3632 137.552 32.811 137 32.811H129.998C129.446 32.811 128.998 32.3632 128.998 31.811V20.0463C128.998 19.494 129.446 19.0463 129.998 19.0463H136.981C137.534 19.0463 137.981 19.494 137.981 20.0463V20.3435C137.981 20.8958 137.534 21.3435 136.981 21.3435H132.765C132.213 21.3435 131.765 21.7912 131.765 22.3435V23.624C131.765 24.1763 132.213 24.624 132.765 24.624H136.078C136.63 24.624 137.078 25.0717 137.078 25.624V25.8456Z" fill="#2E7CFF"/>
</svg>
