<svg width="138" height="33" viewBox="0 0 138 33" fill="none" xmlns="http://www.w3.org/2000/svg">
<g clip-path="url(#clip0)">
<path fill-rule="evenodd" clip-rule="evenodd" d="M53.53 23.2399L59.52 9.09991H63.27L69.25 23.2499H65.08L64.05 20.7499H58.63L57.63 23.2499H53.53V23.2399ZM59.77 17.6999L61.37 13.6999L62.93 17.6999H59.77V17.6999ZM1 9.19991H12.21V12.4799H4.82V14.5799H11.51V17.6399H4.82V19.8399H12.31V23.1399H1V9.17991V9.19991ZM70.61 23.2399V9.19991H77.24C79.28 9.19991 80.8 9.69991 81.81 10.7199C82.232 11.1658 82.5594 11.6924 82.7725 12.2681C82.9856 12.8439 83.08 13.4567 83.05 14.0699C83.05 15.0999 82.8 15.9699 82.29 16.6899C81.7575 17.429 81.0257 18.0013 80.18 18.3399L83.53 23.2499H79.04L76.21 18.9799H74.51V23.2499H70.61V23.2399ZM74.51 15.9399V12.6099H77.05C77.72 12.6099 78.24 12.7499 78.6 13.0299C78.97 13.3099 79.16 13.7199 79.16 14.2499C79.16 14.7799 78.98 15.1899 78.61 15.4899C78.24 15.7899 77.73 15.9399 77.07 15.9399H74.5H74.51ZM37.25 23.2399V9.19991H41.36L44.71 14.6399L48.06 9.19991H52.19V23.2499H48.29V15.1799L44.71 20.6799H44.63L41.06 15.2199V23.2399H37.25V23.2399ZM85.04 23.2399V9.19991H88.93V14.8999L93.77 9.19991H98.38L93.06 15.2499L98.56 23.2499H93.9L90.37 18.0399L88.94 19.6199V23.2499H85.04V23.2399ZM99.69 23.2399V9.19991H110.99V12.4999H103.54V14.6299H110.28V17.6999H103.54V19.9299H111.08V23.2399H99.68H99.69ZM112.29 12.6099V9.18991H124.62V12.5999H120.39V23.2299H116.5V12.6099H112.29V12.6099ZM124.64 21.1999L126.8 18.6299C128.065 19.7001 129.663 20.2944 131.32 20.3099C131.83 20.3099 132.22 20.2199 132.5 20.0499C132.77 19.8799 132.9 19.6299 132.9 19.2999C132.9 18.9999 132.74 18.7599 132.42 18.5699C131.828 18.2909 131.203 18.0892 130.56 17.9699C130.09 17.8699 129.68 17.7599 129.33 17.6699C128.98 17.5699 128.61 17.4499 128.23 17.3099C127.573 17.094 126.965 16.7508 126.44 16.2999C125.937 15.8848 125.586 15.3153 125.44 14.6799C125.34 14.3399 125.3 13.9599 125.3 13.5599C125.3 12.2399 125.79 11.1599 126.76 10.3399C127.878 9.45932 129.279 9.01509 130.7 9.08991C132.98 9.08991 134.9 9.70991 136.43 10.9399L134.5 13.6699C133.375 12.8172 132.011 12.3382 130.6 12.2999C130.14 12.2999 129.8 12.3899 129.56 12.5599C129.449 12.6329 129.358 12.7324 129.295 12.8494C129.232 12.9664 129.2 13.0971 129.2 13.2299C129.2 13.5599 129.36 13.8099 129.68 13.9899C130 14.1699 130.64 14.3699 131.61 14.5899C132.47 14.7699 133.19 14.9799 133.79 15.1999C134.39 15.4299 134.92 15.6999 135.39 16.0499C135.88 16.3799 136.23 16.7899 136.46 17.2799C136.7 17.7599 136.81 18.3199 136.81 18.9799C136.81 20.3799 136.31 21.4799 135.28 22.2999C134.093 23.1626 132.646 23.5931 131.18 23.5199C129.91 23.5199 128.72 23.3199 127.59 22.9199C126.501 22.55 125.498 21.9651 124.64 21.1999V21.1999ZM22.2 16.3199L16.3 21.1899C15.0683 18.5137 14.4206 15.6059 14.4 12.6599C14.4 12.5599 14.43 12.4599 14.5 12.3999C14.94 11.9699 15.39 11.5599 15.86 11.1799L22.2 16.3199V16.3199ZM32.6 11.1499C34.267 14.2014 35.1404 17.6228 35.14 21.0999C34.48 21.7699 33.77 22.3799 33.04 22.9399L27.04 16.4999L32.6 11.1499V11.1499Z" fill="white"/>
<path fill-rule="evenodd" clip-rule="evenodd" d="M18.52 24.6301C19.13 25.4701 19.82 26.2601 20.56 27.0101C24.53 27.0101 28.39 25.8701 31.69 23.7701L25.02 18.3701L18.52 24.6301V24.6301Z" fill="#F85371"/>
<path fill-rule="evenodd" clip-rule="evenodd" d="M30.98 8.48C30.35 7.6 29.6401 6.78 28.8701 6C25.6001 6 22.41 6.77 19.55 8.21L24.65 13.71L30.98 8.48V8.48Z" fill="#00CE7D"/>
</g>
<defs>
<clipPath id="clip0">
<rect width="136" height="21" fill="white" transform="translate(1 6)"/>
</clipPath>
</defs>
</svg>
