<svg width="173" height="65" viewBox="0 0 173 65" fill="none" xmlns="http://www.w3.org/2000/svg">
<g clip-path="url(#clip0)">
<path fill-rule="evenodd" clip-rule="evenodd" d="M111.864 44.3536C111.864 53.5452 104.335 61.0019 95.0541 61.0019C92.3804 61.0019 89.8606 60.3936 87.5866 59.2671C85.3428 60.3631 82.7922 61.0019 80.1498 61.0019C70.8685 61.0019 63.3394 53.5452 63.3394 44.3536C63.3394 35.1621 70.8685 27.7053 80.1493 27.7053C82.823 27.7053 85.3428 28.3141 87.5861 29.4097C89.8298 28.3141 92.3804 27.7053 95.0541 27.7053C104.335 27.7053 111.864 35.1621 111.864 44.3536V44.3536ZM108.545 44.3536C108.545 36.9884 102.491 30.9926 95.0541 30.9926C93.6406 30.9926 92.2578 31.2055 90.9976 31.6013C93.579 33.7316 95.4538 36.5925 96.3754 39.8798H92.9028C91.9273 37.1356 90.0708 34.7836 87.6173 33.1838C85.1894 34.7662 83.3454 37.1103 82.3622 39.8798H78.8896C79.799 36.6381 81.673 33.7428 84.2674 31.5709C82.9434 31.1666 81.5656 30.9614 80.1801 30.9621C72.7433 30.9621 66.6893 36.9579 66.6893 44.3232C66.6893 51.6884 72.7433 57.6847 80.1801 57.6847C81.5937 57.6847 82.9457 57.4717 84.2058 57.0759C80.8563 54.3064 78.6746 50.2279 78.3365 45.6626H86.3264V48.9189L82.4234 48.9799C83.4377 51.6584 85.251 53.911 87.6173 55.463C89.9833 53.9106 91.7965 51.6584 92.8109 48.9799L88.9078 48.9189V45.6626H96.8982C96.5293 50.2279 94.3168 54.2759 90.9668 57.0454C92.2578 57.4412 93.6406 57.6847 95.0541 57.6847C102.522 57.7151 108.545 51.7494 108.545 44.3536V44.3536Z" fill="white"/>
<path d="M109.073 7.38911L108.97 7.42318C108.568 6.55919 107.994 5.87137 107.248 5.35973C106.514 4.84839 105.59 4.59272 104.477 4.59272C103.857 4.59272 103.266 4.72347 102.703 4.98497C102.141 5.23481 101.647 5.59284 101.223 6.05905C100.809 6.51361 100.476 7.065 100.224 7.71322C99.9716 8.36084 99.8453 9.0769 99.8453 9.86139C99.8453 10.6456 99.9716 11.3616 100.224 12.0096C100.477 12.6575 100.81 13.2145 101.223 13.6808C101.647 14.1353 102.141 14.4877 102.703 14.7378C103.266 14.9879 103.857 15.113 104.477 15.113C105.578 15.113 106.474 14.9425 107.162 14.6015C107.862 14.2489 108.453 13.7145 108.936 12.9985L109.039 13.0325L109.004 14.1237C108.74 14.3965 108.436 14.641 108.092 14.857C107.748 15.0618 107.375 15.2381 106.973 15.386C106.583 15.522 106.175 15.6242 105.751 15.6926C105.326 15.7721 104.901 15.8119 104.477 15.8119C103.593 15.8119 102.749 15.6699 101.946 15.386C101.142 15.1015 100.436 14.7036 99.8281 14.1922C99.2197 13.6692 98.7377 13.044 98.3819 12.3166C98.0261 11.5779 97.8483 10.7594 97.8483 9.86139C97.8483 8.96333 98.0263 8.15044 98.3824 7.42273C98.7378 6.68396 99.2197 6.05323 99.8281 5.53053C100.436 5.00753 101.142 4.60961 101.946 4.33676C102.749 4.05284 103.593 3.91089 104.476 3.91089C104.901 3.91089 105.326 3.94481 105.751 4.01265C106.175 4.08109 106.583 4.18912 106.973 4.33676C107.375 4.47333 107.748 4.64966 108.092 4.86573C108.436 5.07015 108.74 5.30878 109.004 5.58164L109.073 7.38911Z" fill="white"/>
<path d="M71.1351 10.6459C71.009 10.7027 70.8886 10.7765 70.7739 10.8673C70.6592 10.9582 70.6019 11.0833 70.6019 11.2425V13.3401C70.0506 14.1243 69.3445 14.7324 68.4836 15.1646C67.6229 15.5964 66.6704 15.8123 65.6261 15.8123C64.7422 15.8123 63.8985 15.6702 63.0949 15.386C62.2917 15.1018 61.5858 14.7039 60.9775 14.1922C60.3692 13.6692 59.8871 13.0442 59.5313 12.3171C59.1756 11.578 58.9977 10.7594 58.9977 9.86139C58.9977 8.96363 59.1757 8.15089 59.5318 7.42318C59.8873 6.68441 60.3692 6.05353 60.9775 5.53053C61.5858 5.00753 62.2917 4.60976 63.0949 4.33721C63.8985 4.053 64.7422 3.91089 65.6261 3.91089C66.0506 3.91089 66.4752 3.94496 66.8998 4.0131C67.3247 4.08123 67.732 4.18927 68.1219 4.33721C68.5238 4.47348 68.897 4.64966 69.2413 4.86573C69.5856 5.07045 69.8897 5.30908 70.1538 5.58164L70.223 7.38911L70.1194 7.42318C69.718 6.55949 69.1442 5.87183 68.398 5.36019C67.6632 4.84855 66.7392 4.59272 65.6261 4.59272C65.0063 4.59272 64.4151 4.72347 63.8526 4.98497C63.2905 5.23511 62.7971 5.59314 62.3725 6.05905C61.9591 6.51391 61.6261 7.0653 61.3736 7.71322C61.121 8.36113 60.9947 9.07719 60.9947 9.86139C60.9947 10.6342 61.1154 11.3446 61.3568 11.9925C61.6091 12.6407 61.9418 13.1978 62.3549 13.6637C62.7797 14.1183 63.2733 14.4763 63.8354 14.7378C64.3979 14.9879 64.9948 15.113 65.6261 15.113C66.8198 15.113 67.8413 14.8857 68.6904 14.4312V11.2425C68.6904 11.0836 68.6273 10.9585 68.5012 10.8673C68.3865 10.7765 68.2719 10.7025 68.1572 10.6454L68.1726 10.5603C68.2299 10.5707 68.3333 10.5821 68.4826 10.5943C68.632 10.6048 68.787 10.6161 68.9475 10.6284H70.4281C70.566 10.6179 70.698 10.6066 70.8241 10.5943C70.9503 10.5839 71.0477 10.5725 71.1165 10.5603L71.1351 10.6459Z" fill="white"/>
<path d="M83.6052 4.26852C83.4905 4.32531 83.3759 4.39927 83.2612 4.49042C83.1462 4.58127 83.083 4.75177 83.0716 5.00191C83.061 5.27476 83.0495 5.62144 83.0372 6.04193C83.0372 6.45136 83.032 6.91757 83.0218 7.44057C83.0218 7.96326 83.0165 8.53154 83.0059 9.14539V11.0551C82.9954 11.7938 82.9035 12.4247 82.7303 12.9477C82.5583 13.4707 82.3288 13.9082 82.0418 14.2603C81.7663 14.6129 81.4564 14.8915 81.1121 15.0959C80.7793 15.3006 80.4464 15.4541 80.1136 15.5563C79.7922 15.6698 79.488 15.7381 79.2011 15.7611C78.9141 15.7952 78.6902 15.8122 78.5294 15.8122C77.8752 15.8122 77.2439 15.7271 76.6355 15.5567C76.0272 15.3974 75.4935 15.1359 75.0346 14.7722C74.5756 14.4082 74.2084 13.9365 73.9329 13.357C73.6574 12.7772 73.5196 12.0724 73.5196 11.2424V9.31573V7.54233C73.5196 6.99692 73.5143 6.50829 73.5038 6.07644C73.5038 5.63294 73.4985 5.27476 73.4879 5.00191C73.4777 4.75177 73.4146 4.58142 73.2987 4.49087C73.184 4.39972 73.0694 4.32561 72.9547 4.26852L72.9701 4.18335C73.0274 4.19381 73.1195 4.20516 73.2462 4.21741C73.3838 4.22787 73.5214 4.23923 73.659 4.25149C73.8084 4.25149 73.9517 4.25672 74.089 4.26718H74.7091C74.847 4.25672 74.9905 4.25149 75.1396 4.25149C75.289 4.24103 75.4267 4.22967 75.5528 4.21741C75.6904 4.20695 75.7879 4.1956 75.8452 4.18335L75.8611 4.26852C75.7349 4.32531 75.6144 4.39927 75.4994 4.49042C75.3962 4.58127 75.3389 4.75177 75.3274 5.00191C75.3169 5.27476 75.3054 5.6328 75.293 6.076V11.2424C75.293 12.4815 75.5857 13.3966 76.1711 13.9877C76.7565 14.5789 77.623 14.8744 78.7706 14.8744C79.1035 14.8744 79.4822 14.8345 79.9067 14.7547C80.3316 14.6639 80.7277 14.482 81.0949 14.2092C81.4736 13.9363 81.7892 13.5499 82.0418 13.0499C82.3058 12.5496 82.4379 11.8847 82.4379 11.0551C82.4379 10.157 82.4326 9.3897 82.422 8.75314C82.422 8.10522 82.4167 7.55383 82.4062 7.09898C82.4062 6.63276 82.4009 6.23499 82.3903 5.90565C82.3801 5.57601 82.3686 5.27476 82.3559 5.00191C82.3457 4.75177 82.2826 4.58127 82.1667 4.49042C82.0521 4.39957 81.9374 4.32561 81.8227 4.26852L81.8381 4.18335C81.9646 4.20606 82.108 4.22892 82.2686 4.25194C82.4294 4.2621 82.5788 4.26718 82.7167 4.26718C82.8425 4.26718 82.9859 4.2621 83.1467 4.25194C83.3187 4.22922 83.4679 4.20636 83.5944 4.18335L83.6052 4.26852Z" fill="white"/>
<path d="M96.0979 7.38911L95.9947 7.42318C95.5928 6.55919 95.0188 5.87137 94.2729 5.35973C93.5384 4.84839 92.6144 4.59272 91.5009 4.59272C90.8814 4.59272 90.2904 4.72347 89.728 4.98497C89.1655 5.23481 88.672 5.59284 88.2474 6.05905C87.834 6.51361 87.5012 7.065 87.2489 7.71322C86.9963 8.36084 86.87 9.0769 86.87 9.86139C86.87 10.6456 86.9963 11.3616 87.2489 12.0096C87.5012 12.6575 87.834 13.2145 88.2474 13.6808C88.672 14.1353 89.1653 14.4877 89.7275 14.7378C90.2903 14.9879 90.8814 15.113 91.5009 15.113C92.603 15.113 93.4983 14.9425 94.1869 14.6015C94.887 14.2489 95.4781 13.7145 95.9603 12.9985L96.0635 13.0325L96.0291 14.1237C95.7651 14.3965 95.4609 14.641 95.1166 14.857C94.7726 15.0618 94.3996 15.2381 93.9977 15.386C93.6075 15.522 93.2001 15.6242 92.7756 15.6926C92.3507 15.7721 91.926 15.8119 91.5014 15.8119C90.6173 15.8119 89.7735 15.6699 88.9703 15.386C88.167 15.1015 87.4612 14.7036 86.8528 14.1922C86.2445 13.6692 85.7624 13.044 85.4067 12.3166C85.0506 11.5779 84.8726 10.7594 84.8726 9.86139C84.8726 8.96333 85.0506 8.15044 85.4067 7.42273C85.7627 6.68396 86.2448 6.05323 86.8528 5.53053C87.4612 5.00753 88.167 4.60961 88.9703 4.33676C89.7738 4.05284 90.6176 3.91089 91.5014 3.91089C91.926 3.91089 92.3505 3.94481 92.7751 4.01265C93.2 4.08109 93.6074 4.18912 93.9972 4.33676C94.3992 4.47333 94.7723 4.64966 95.1166 4.86573C95.4609 5.07015 95.7651 5.30878 96.0291 5.58164L96.0979 7.38911Z" fill="white"/>
<path d="M114.262 15.5219C114.205 15.5117 114.107 15.5005 113.97 15.4883C113.844 15.4883 113.706 15.483 113.556 15.4726C113.407 15.4726 113.264 15.4675 113.126 15.4573H112.094C111.956 15.4675 111.818 15.4787 111.68 15.4909C111.554 15.5014 111.456 15.5128 111.387 15.525L111.372 15.4569C111.486 15.4001 111.601 15.3261 111.716 15.235C111.831 15.1441 111.894 14.9736 111.905 14.7235C111.916 14.4506 111.921 14.1664 111.921 13.8709C111.932 13.5753 111.937 13.24 111.937 12.8649V11.586V9.86411V8.14181V6.84627C111.937 6.47091 111.932 6.14112 111.921 5.85691C111.921 5.56135 111.916 5.27728 111.905 5.00473C111.895 4.75459 111.832 4.58409 111.716 4.49323C111.601 4.39073 111.487 4.31108 111.372 4.2543L111.387 4.18616C111.456 4.20887 111.554 4.22591 111.68 4.23727C111.818 4.23727 111.955 4.2425 112.093 4.25296C112.242 4.26342 112.386 4.26865 112.524 4.26865H113.126C113.264 4.25819 113.407 4.25296 113.556 4.25296C113.706 4.2425 113.844 4.23114 113.97 4.21889C114.107 4.20843 114.205 4.19707 114.262 4.18481L114.278 4.2534C114.152 4.31018 114.031 4.38969 113.916 4.49189C113.813 4.58275 113.756 4.75309 113.744 5.00294C113.734 5.27609 113.722 5.56045 113.71 5.85602V13.87C113.72 14.1652 113.732 14.4493 113.744 14.7221C113.755 14.9723 113.812 15.1428 113.916 15.2336C114.031 15.3245 114.152 15.3984 114.278 15.4555L114.262 15.5219Z" fill="white"/>
</g>
<defs>
<clipPath id="clip0">
<rect width="56" height="57" fill="white" transform="translate(59 4)"/>
</clipPath>
</defs>
</svg>
