<svg width="24" height="24" viewBox="0 0 24 24" fill="none" xmlns="http://www.w3.org/2000/svg">
<path d="M16.4805 2H7.51913C4.47588 2 2 4.476 2 7.51924V16.4806C2 19.524 4.47588 21.9999 7.51913 21.9999H16.4805C19.524 21.9999 21.9999 19.5239 21.9999 16.4806V7.51924C22 4.476 19.524 2 16.4805 2ZM20.2255 16.4806C20.2255 18.5455 18.5455 20.2254 16.4806 20.2254H7.51913C5.45433 20.2255 3.77449 18.5455 3.77449 16.4806V7.51924C3.77449 5.45445 5.45433 3.77449 7.51913 3.77449H16.4805C18.5454 3.77449 20.2254 5.45445 20.2254 7.51924V16.4806H20.2255Z" fill="#2DE58D"/>
<path d="M11.9999 6.84668C9.15828 6.84668 6.84648 9.15848 6.84648 12.0001C6.84648 14.8417 9.15828 17.1534 11.9999 17.1534C14.8416 17.1534 17.1534 14.8417 17.1534 12.0001C17.1534 9.15848 14.8416 6.84668 11.9999 6.84668ZM11.9999 15.3788C10.1369 15.3788 8.62097 13.8631 8.62097 12C8.62097 10.1368 10.1367 8.62105 11.9999 8.62105C13.8632 8.62105 15.3789 10.1368 15.3789 12C15.3789 13.8631 13.863 15.3788 11.9999 15.3788Z" fill="#2DE58D"/>
<path d="M17.3695 5.34204C17.0276 5.34204 16.6918 5.48045 16.4503 5.72296C16.2077 5.96429 16.0682 6.30026 16.0682 6.64333C16.0682 6.98533 16.2078 7.32119 16.4503 7.5637C16.6917 7.80503 17.0276 7.94462 17.3695 7.94462C17.7126 7.94462 18.0474 7.80503 18.2899 7.5637C18.5324 7.32119 18.6708 6.98522 18.6708 6.64333C18.6708 6.30026 18.5324 5.96429 18.2899 5.72296C18.0486 5.48045 17.7126 5.34204 17.3695 5.34204Z" fill="#2DE58D"/>
</svg>
