<?xml version="1.0" encoding="UTF-8"?>
<svg fill="none" viewBox="0 0 503 819" xmlns="http://www.w3.org/2000/svg">
<path d="m360.44 174.17c3.632 2.906-2.15 3.763-4.838 3.226-1.613-7.258-20.965 2.419-16.933 12.901 3.225-0.645 7.794 3.494 9.676 5.645-4.516-1.291-12.364 0.537-16.127 1.612-3.226-16.127 16.127-33.06 28.222-23.384z" fill="#03191A"/>
<path d="m179.35 239.4c-1.286-2.831-1.386-6.605-1.223-8.8 0.027-0.367-0.331-0.671-0.693-0.602-2.819 0.542-10.444 1.09-15.049 1.363-0.432 0.025-0.678 0.593-0.476 0.975 1.027 1.951 1.61 5.62 1.748 8.366 0.023 0.445 0.658 0.775 1.075 0.618 2.831-1.063 9.74-1.435 14.08-1.117 0.413 0.03 0.709-0.426 0.538-0.803z" fill="#03191A"/>
<path d="m166.11 204.01c1.935-7.096 24.728 4.301 36.286 11.289-13.708-1.613-37.898 0-43.543 4.838-3.87-17.417 0.806-18.546 7.257-16.127z" fill="#03191A"/>
<path d="m182.24 182.24c2.652-6.191-12.095-8.064-11.289-3.226 0.367 2.197 6.774 0.484 4.839 2.419-2.419 2.42 4.031 6.451 6.45 0.807z" fill="#03191A"/>
<path d="m257.23 153.21c7.741-17.417 33.867-11.02 45.962-5.644l-13.708-13.708s-51.338-22.695-49.187-12.096c11.289 55.639-41.124 43.543-28.222 45.962 12.901 2.419 37.414 2.903 45.155-14.514z" fill="#03191A"/>
<path d="m350.76 219.33c-4.515 5.16-5.644 45.155-5.644 64.508 39.511-19.353 76.872-57.789 88.698-71.765 6.989-9.945 18.385-32.738 8.064-44.35 4.032-4.569 12.256-17.739 12.901-33.866 0.807-20.159-2.419-44.349-29.834-77.41-27.416-33.06-50.8-33.867-60.477-35.479-7.74-1.2901-16.127-2.1502-19.352-2.419-17.74-17.74-21.734-18.546-56.444-18.546-39.511 4.1287e-5 -63.164 12.364-72.572 20.965-2.956 3.2254-9.192 12.418-10.482 23.384s3.225 9.9449 5.644 8.0634c1.075-1.3439 4.516-5.1605 9.677-9.6761 5.16-4.5155 13.439-0.8063 16.933 1.6127l8.063 6.4508c18.546 13.708 20.159 54.685 66.927 88.698 7.096 5.161 2.957 32.254 0 45.156 10.483-14.515 45.156-33.061 54.025-8.87 8.87 24.19-10.482 37.092-16.127 43.543z" fill="#021112"/>
<path d="m350.76 219.33c-4.515 5.16-5.644 45.155-5.644 64.508l-7.257 70.152c-11.02 4.032-34.512 12.579-40.318 14.514-7.257 2.419-12.095 0-8.063-5.644l34.673-72.572c17.739-37.898-19.353-48.918-37.092-10.482-9.676 20.965-26.61 41.124-33.06 47.574-5.161 5.161-11.289 7.526-13.708 8.064h-12.096c-3.225-37.092-8.063-50.8-23.384-55.638-12.256-3.871-1.881-5.376 4.838-5.645 16.934 2.419 55.638-14.044 74.184-21.771 9.677-4.032 16.934-13.708 17.74-18.546s3.225-12.095 3.225-4.032c4.032 18.546 16.934 9.676 20.965 4.032 3.226-4.516 18.009-11.558 24.997-14.514z" fill="#03191A"/>
<path d="m345.12 283.83l-7.257 70.153v8.87c0 7.741-4.3 12.364-6.45 13.707-4.516 1.936-28.76 39.512-40.318 58.058-31.447 51.068-95.31 155.46-99.18 164.5-4.839 11.288-10.483 20.158-12.902 5.644-1.935-11.611-8.332-62.358-11.289-86.279-1.935-21.288 5.107-44.887 8.87-54.026 11.02-26.609 35.479-82.892 45.155-95.149 9.677-12.256 8.332-27.684 6.451-33.866-1.638-18.836-3.692-31.641-7.323-40.318-26.588 2.419-85.085 13.87-106.37 40.318-5.645 5.644-0.807 7.257 1.612 8.87l21.772 14.514c4.031 3.225 5.644 6.451 0 8.87-4.516 1.935-25.535 8.869-35.48 12.095-22.577 8.87-30.995 15.667-45.962 31.447-21.03 22.174-25.699 40.94-34.673 70.153-12.973 42.229-8.8698 73.377-7.2571 112.89 1.2902 31.609-5.3756 76.604-8.8698 95.149-4.0317 27.416-5.6444 90.311-5.6444 108.05v20.965h481.39s28.225-111.28 20.161-224.16c-8.063-112.89-34.675-183.04-92.732-226.58-2.688-1.613-6.452-4.838 0-4.838h20.965c-5.376-24.728-29.836-75.152-84.667-79.023z" fill="url(#a)"/>
<path d="m213.23 383.55c31.474 8.503 74.748 7.669 110.11 2.303-4.175 5.679-9.385 13.339-14.606 21.256-35.547 3.89-75.926 3.035-103.83-6.78 2.931-6.155 5.757-11.874 8.333-16.779z" fill="#2DE58D"/>
<path d="m197.1 417.15c26.591 10.118 63.961 13.139 97.631 11.681-1.308 2.072-2.528 4.018-3.633 5.791-2.615 4.246-5.454 8.862-8.464 13.761-33.365 0.636-68.886-3.215-93.2-14.017 2.476-5.653 5.063-11.474 7.666-17.216z" fill="#2DE58D"/>
<path d="m182.7 449.94c23.931 10.611 57.275 15.728 88.682 16.771-3.718 6.065-7.571 12.357-11.485 18.758-30.722-1.63-62.321-7.212-84.439-18.075 0.4-1.095 0.781-2.077 1.133-2.933 1.739-4.198 3.812-9.135 6.109-14.521z" fill="#2DE58D"/>
<path d="m171.31 481.22c21.229 10.874 49.881 18.05 77.846 21.843-3.661 6.001-7.317 12.004-10.911 17.915-25.381-3.81-50.836-10.412-70.35-20.06 0.673-7.009 1.957-13.775 3.415-19.698z" fill="#2DE58D"/>
<path d="m167.69 518.1c16.502 9.16 37.654 16.2 59.483 21.123-3.684 6.086-7.223 11.949-10.544 17.471-16.509-3.945-32.449-9.116-46.071-15.519-1.083-8.592-2.072-16.531-2.834-22.691-0.011-0.128-0.023-0.256-0.034-0.384z" fill="#2DE58D"/>
<path d="m172.74 558.41c10.887 4.748 23.03 8.769 35.63 12.062-4.049 6.792-7.537 12.7-10.258 17.396-7.781-2.145-15.344-4.575-22.496-7.288-0.906-6.859-1.893-14.486-2.876-22.17z" fill="#2DE58D"/>
<path d="m424.95 56.444c-27.416-33.06-50.8-33.867-60.477-35.479-3.255-0.5425-6.624-1.009-9.676-1.3875 4.838 40.092 46.146 147.82 87.994 175.56 3.699-9.732 5.207-20.536-0.908-27.416 4.032-4.569 12.256-17.739 12.901-33.866 0.807-20.159-2.419-44.349-29.834-77.41z" fill="#010D0E"/>
<path d="m254.81 110.47c4.515 2.58 67.733 36.823 98.374 53.219-3.225-0.645-12.095 0.806-14.514 2.419-25.803-12.096-79.022-37.092-85.473-40.318-8.063-4.031-8.063 12.096-10.482 26.61s-19.353 16.933-41.124 16.127c-21.771-0.807-20.965-28.222-20.965-30.641 0-1.936-3.763-0.269-5.645 0.806l-4.838 6.451c2.581-5.161 0.538-13.977-0.806-17.74-6.451-6.451-23.115 4.838-24.19 11.289-0.807 4.838-1.613 20.159-0.807 30.641 0.594 7.718 5.376 8.601 8.064 8.064l0.806 2.419c-1.075 0.268-4.354 0.645-8.87 0-4.515-0.645-3.494-29.298-2.419-43.543-0.269-1.882 1.452-7.096 10.483-12.902 4.3-2.419 14.514-6.612 20.965-4.032l13.708-3.225c4.838-8.063 31.447-11.289 41.93-12.095 10.482-0.806 20.158 3.225 25.803 6.451zm-39.511 52.412c23.384 0.807 23.653-21.771 22.578-33.06-1.613-28.222-24.191-17.74-35.48-14.514-11.289 3.225-18.546 12.095-16.933 24.997 4.032 22.862 6.451 21.771 29.835 22.577z" clip-rule="evenodd" fill="#2DE68D" fill-rule="evenodd"/>
<path d="m237.88 129.82c1.075 11.289 0.806 33.867-22.578 33.06-23.384-0.806-25.803 0.285-29.835-22.577-1.613-12.902 5.644-21.772 16.933-24.997 11.289-3.226 33.867-13.708 35.48 14.514z" fill="#000" fill-opacity=".85"/>
<path d="m152.4 177.4c-2.688 0.537-7.47-0.346-8.064-8.064-0.806-10.482 0-25.803 0.807-30.641 1.075-6.451 17.739-17.74 24.19-11.289 1.344 3.763 3.387 12.579 0.806 17.74-2.688 5.107-9.515 16.288-15.32 20.158-5.806 3.871-4.032 9.677-2.419 12.096z" fill="#000" fill-opacity=".85"/>
<path d="m326.59 244.32c3.245-7.66-6.988-14.514-10.482-18.546-3.225 5.107-12.821 11.007-9.676 18.546 1.893 4.54 4.761 7.872 9.676 8.064 5.161 0.201 8.468-3.308 10.482-8.064z" fill="#2DE58D"/>
<defs>
<linearGradient id="a" x1="251.5" x2="251.5" y1="283.83" y2="818.44" gradientUnits="userSpaceOnUse">
<stop stop-color="#00191B" offset="0"/>
<stop stop-color="#001F21" offset="1"/>
</linearGradient>
</defs>
</svg>
