<svg width="16" height="16" viewBox="0 0 16 16" fill="none" xmlns="http://www.w3.org/2000/svg">
<circle cx="8" cy="8" r="8" fill="#031C1E"/>
<path d="M7.98127 1.36597C6.16344 1.36597 4.51427 2.11978 3.31488 3.2505C2.11548 4.40007 1.36586 6.02077 1.36586 7.81108C1.36586 10.4751 2.88815 12.643 5.23595 13.6634C5.79363 13.9057 6.36958 13.4585 6.36958 12.8505V12.8505C6.36958 12.4514 6.11111 12.1045 5.75343 11.9275C4.14859 11.1334 3.23992 9.59205 3.23992 7.81108C3.23992 6.54844 3.78339 5.39887 4.64546 4.56968C5.50752 3.74048 6.66943 3.21281 7.98127 3.21281C9.33059 3.21281 10.4925 3.74048 11.3546 4.56968C12.2166 5.39887 12.7601 6.54844 12.7601 7.81108C12.7601 9.53858 11.9734 11.0123 10.4132 11.8072C10.0564 11.989 9.7991 12.3378 9.7991 12.7382V12.7382C9.7991 13.3551 10.3844 13.8088 10.948 13.5583C13.2365 12.5412 14.6342 10.4151 14.6342 7.81108C14.6342 6.02077 13.8658 4.40007 12.6851 3.2505C11.4857 2.11978 9.83658 1.36597 7.98127 1.36597Z" fill="white"/>
</svg>
