<svg width="16" height="16" viewBox="0 0 16 16" fill="none" xmlns="http://www.w3.org/2000/svg">
<g clip-path="url(#clip0)">
<path d="M2.56059 8.75H11.2498C11.664 8.75 11.9998 8.4142 11.9998 8C11.9998 7.58581 11.664 7.25001 11.2498 7.25001H2.56059L3.53028 6.28032C3.82318 5.98742 3.82318 5.51257 3.53028 5.21967C3.23743 4.92678 2.76254 4.92678 2.46964 5.21967L0.219749 7.46961C0.202199 7.48716 0.185599 7.50556 0.169899 7.52476C0.163049 7.53311 0.157099 7.54196 0.150649 7.55051C0.142399 7.56151 0.133899 7.57226 0.126249 7.58371C0.119249 7.59416 0.113199 7.60501 0.106799 7.61571C0.100649 7.62601 0.0941995 7.63606 0.0885495 7.64666C0.0826496 7.65766 0.0776996 7.66896 0.0723996 7.68016C0.0671997 7.69111 0.0617497 7.7019 0.0570997 7.7131C0.0525997 7.72405 0.0488998 7.7352 0.0449498 7.7463C0.0405998 7.7583 0.0359998 7.77015 0.0322998 7.7824C0.0289499 7.7935 0.0264999 7.80475 0.0236999 7.816C0.0205499 7.82845 0.0170499 7.84085 0.0145499 7.85355C0.0119999 7.8665 0.0104499 7.8796 0.00859996 7.89265C0.00699996 7.9038 0.00484998 7.9148 0.00374998 7.9261C0.00134999 7.9503 9.99995e-05 7.97465 4.99997e-05 7.99895C4.99997e-05 7.9993 0 7.9997 0 8.00005C0 8.0004 4.99997e-05 8.0008 4.99997e-05 8.00115C9.99995e-05 8.0255 0.00134999 8.0498 0.00374998 8.07405C0.00484998 8.0852 0.00694997 8.09605 0.00849996 8.1071C0.0103999 8.1203 0.0119499 8.1335 0.0145499 8.1466C0.0170499 8.1592 0.0204999 8.1714 0.0236499 8.18375C0.0264999 8.1951 0.0289999 8.20655 0.0323998 8.2178C0.0360498 8.22985 0.0405998 8.2415 0.0447998 8.2533C0.0488498 8.2646 0.0525497 8.27595 0.0571497 8.28705C0.0616997 8.29805 0.0670497 8.3086 0.0721496 8.31935C0.0775496 8.3308 0.0826496 8.34235 0.0886496 8.3536C0.0941495 8.36385 0.100399 8.3736 0.106349 8.38355C0.112899 8.3946 0.119149 8.40575 0.126349 8.4165C0.133649 8.42745 0.141799 8.4377 0.149649 8.44825C0.156449 8.4573 0.162749 8.46665 0.169999 8.47545C0.184949 8.49365 0.200799 8.5111 0.217349 8.52785C0.218149 8.52865 0.218799 8.52955 0.219599 8.53035L2.46959 10.7804C2.61609 10.9268 2.80799 11.0001 2.99993 11.0001C3.19183 11 3.38383 10.9268 3.53023 10.7804C3.82313 10.4875 3.82313 10.0127 3.53028 9.71979L2.56059 8.75Z" fill="#588f92"/>
<path d="M15.2499 1.25H5.74999C5.3358 1.25 5 1.5858 5 2V4.99998C5 5.41417 5.3358 5.74997 5.74999 5.74997C6.16419 5.74997 6.49999 5.41417 6.49999 4.99998V2.74999H14.4999V13.25H6.49999V10.9999C6.49999 10.5857 6.16419 10.2499 5.74999 10.2499C5.3358 10.2499 5 10.5857 5 10.9999V14C5 14.4142 5.3358 14.75 5.74999 14.75H15.2499C15.6641 14.75 15.9999 14.4142 15.9999 14V2C15.9999 1.5858 15.6641 1.25 15.2499 1.25Z" fill="#588f92"/>
</g>
<defs>
<clipPath id="clip0">
<rect width="16" height="16" fill="white"/>
</clipPath>
</defs>
</svg>
