<svg width="173" height="65" viewBox="0 0 173 65" fill="none" xmlns="http://www.w3.org/2000/svg">
<path d="M99.6929 0.860027C104.236 0.860027 108.779 0.859373 113.321 0.860681C113.324 1.87044 113.316 2.88085 113.326 3.89126C112.172 3.94096 110.992 4.06849 109.929 4.54525C108.851 5.02331 107.947 5.89312 107.482 6.97023C101.958 19.7871 96.4384 32.6052 90.9204 45.4247C90.825 45.6353 90.7481 45.8531 90.6368 46.0565C88.661 46.0336 86.6846 46.0532 84.7088 46.046C83.8368 44.3358 82.9788 42.6185 82.0995 40.9122C81.0917 43.5779 80.078 46.2409 79.0702 48.9059C85.588 48.9065 92.1058 48.9059 98.6235 48.9065C99.8168 48.9222 101.046 48.8732 102.162 48.4128C104.018 47.677 105.494 46.2553 106.696 44.7138C108.147 42.846 109.249 40.7435 110.23 38.6069C111.33 38.5977 112.43 38.6102 113.53 38.6082C111.444 43.0056 109.348 47.3991 107.244 51.788C92.2244 51.7887 77.2057 51.788 62.1864 51.788C62.5522 50.8456 62.9 49.8954 63.2923 48.9628C63.3161 48.8666 63.4374 48.8908 63.5109 48.8817C65.386 48.868 67.2737 48.796 69.1137 48.4108C70.0711 48.1891 71.0617 47.8935 71.7984 47.2186C72.188 46.8517 72.3093 46.3161 72.4385 45.8217C74.2122 41.1365 75.9886 36.452 77.7636 31.7675C74.0121 23.8778 70.248 15.9926 66.4945 8.10359C66.1924 7.41364 65.7935 6.73022 65.1661 6.28093C63.8674 5.32088 62.1798 5.19924 60.6161 5.13776C60.6148 4.00702 60.6161 2.87693 60.6155 1.74618C65.8889 1.74422 71.1617 1.74487 76.4352 1.74553C76.4358 2.87627 76.4365 4.00702 76.4345 5.13776C75.7474 5.18092 75.0179 5.16981 74.3957 5.5053C74.087 5.64918 73.9054 6.01149 73.985 6.3411C74.0824 6.88064 74.5144 7.26584 74.733 7.75306C76.9599 12.4873 79.1868 17.2221 81.4204 21.9544C82.5395 18.8656 83.6586 15.7775 84.7823 12.6907C84.9473 12.2616 85.0056 11.7659 84.8174 11.3343C84.6697 10.9936 84.3344 10.783 84.0038 10.6411C83.3611 10.3795 82.6548 10.3821 81.9736 10.3337C82.3215 9.37953 82.6713 8.42536 83.0318 7.47642C83.1153 7.42345 83.2312 7.464 83.3273 7.45092C88.6776 7.45419 94.0286 7.45092 99.3795 7.45288C99.0098 8.41162 98.6421 9.37037 98.2763 10.3304C96.9876 10.3893 95.6592 10.4213 94.4506 10.9184C93.8967 11.1473 93.3726 11.4971 93.0453 12.0033C92.818 12.3741 92.6769 12.7881 92.5245 13.1923C90.289 19.2103 88.0329 25.2204 85.8225 31.2476C87.047 33.9793 88.3231 36.6874 89.5721 39.408C94.1074 28.837 98.6414 18.2646 103.182 7.69551C103.488 7.05983 103.986 6.47974 104.026 5.74858C104.063 5.17635 103.633 4.68259 103.135 4.4478C102.061 3.95862 100.854 3.93442 99.6929 3.89322C99.6916 2.88216 99.6916 1.87109 99.6929 0.860027Z" fill="white"/>
<path d="M107.94 57.7793C109.372 59.2429 110.792 60.7164 112.21 62.1924C112.208 60.8203 112.216 59.4476 112.215 58.0756C112.46 58.0762 112.705 58.0736 112.951 58.0703C112.952 60.029 112.952 61.9884 112.951 63.947C111.518 62.4906 110.106 61.0146 108.68 59.5509C108.682 60.9315 108.677 62.3127 108.676 63.694C108.43 63.6959 108.185 63.6953 107.94 63.6953C107.939 61.7228 107.939 59.7511 107.94 57.7793Z" fill="white"/>
<path d="M66.258 57.9805C67.8356 57.7412 69.5046 58.9602 69.6451 60.5481C69.7776 61.4565 69.4205 62.4034 68.7466 63.0293C67.6388 64.0992 65.6464 64.0796 64.5711 62.9718C63.99 62.4159 63.6587 61.6147 63.6938 60.8149C63.7097 59.4232 64.8752 58.18 66.258 57.9805ZM66.2587 58.6999C65.3403 58.8477 64.5929 59.6436 64.4644 60.5455C64.2895 61.5703 64.9302 62.6729 65.9327 63.0077C66.8099 63.3347 67.8773 63.0267 68.4405 62.2877C69.1687 61.3858 69.0455 59.9307 68.1496 59.1819C67.6461 58.73 66.9179 58.5809 66.2587 58.6999Z" fill="white"/>
<path d="M77.6503 58.2835C78.4586 57.6845 79.7791 57.9323 80.2456 58.8374C80.0508 58.946 79.856 59.0552 79.6612 59.1638C79.3107 58.6229 78.4566 58.4908 77.9856 58.9499C77.7861 59.0938 77.808 59.3574 77.8292 59.5738C77.8862 59.8564 78.191 59.976 78.4156 60.1088C78.9947 60.4096 79.6904 60.5829 80.0972 61.1284C80.551 61.7372 80.4762 62.6437 79.9812 63.2074C79.4638 63.8254 78.5176 63.9758 77.7941 63.6521C77.2388 63.3814 76.8956 62.8091 76.7843 62.2225C77.0328 62.1643 77.2826 62.1107 77.5317 62.0557C77.5569 62.5907 77.9776 63.1315 78.5501 63.1413C79.3226 63.2244 79.9368 62.2329 79.4869 61.6005C79.0066 60.9551 78.0803 60.9459 77.5277 60.3881C76.8771 59.8629 76.9427 58.7308 77.6503 58.2835Z" fill="white"/>
<path d="M104.026 57.9768C105.059 57.8492 106.127 58.3201 106.762 59.1271C107.677 60.2572 107.531 62.0603 106.445 63.0321C105.824 63.637 104.913 63.8862 104.057 63.7966C103.211 63.7417 102.419 63.2734 101.931 62.5959C101.404 61.8732 101.268 60.9073 101.517 60.0578C101.842 58.9571 102.88 58.1206 104.026 57.9768ZM103.899 58.7099C102.759 58.9015 101.944 60.0996 102.145 61.214C102.271 62.2859 103.301 63.1583 104.391 63.138C105.135 63.1505 105.844 62.7345 106.245 62.1263C106.853 61.2552 106.693 59.9682 105.909 59.2514C105.395 58.738 104.602 58.5647 103.899 58.7099Z" fill="white"/>
<path d="M61.2079 58.0715C61.4431 58.0702 61.6783 58.0702 61.9135 58.0715C61.9142 59.732 61.9129 61.3931 61.9142 63.0536C62.4986 63.0549 63.0823 63.0536 63.6667 63.0543C63.668 63.2675 63.668 63.4807 63.6674 63.6945C62.8471 63.6952 62.0275 63.6958 61.2079 63.6945C61.2085 61.8202 61.2085 59.9459 61.2079 58.0715Z" fill="white"/>
<path d="M70.2156 58.0761C70.4647 58.0742 70.7138 58.0748 70.9636 58.0755C70.9656 59.182 70.9603 60.2892 70.9663 61.3958C70.9776 61.8823 71.0385 62.4173 71.387 62.792C71.9416 63.3289 73.0309 63.2524 73.4178 62.5566C73.6133 62.2296 73.6703 61.8424 73.665 61.4683C73.6603 60.3376 73.6603 59.2069 73.661 58.0755C73.9101 58.0742 74.1592 58.0748 74.4084 58.0755C74.4084 59.2297 74.411 60.384 74.4077 61.5383C74.409 62.0622 74.3169 62.6161 73.9777 63.0373C73.2482 64.0346 71.5573 64.0915 70.7582 63.1491C70.3786 62.7567 70.2222 62.2034 70.2169 61.6711C70.2136 60.473 70.2163 59.2742 70.2156 58.0761Z" fill="white"/>
<path d="M75.3287 58.0721C75.5738 58.0695 75.8196 58.0701 76.0655 58.0715C76.0655 59.9458 76.0661 61.8201 76.0648 63.6951C75.8196 63.6951 75.5738 63.6957 75.328 63.6938C75.3293 61.8201 75.3293 59.9458 75.3287 58.0721Z" fill="white"/>
<path d="M82.7064 58.0769C82.9761 58.0697 83.2471 58.0697 83.5174 58.071C84.0833 59.4378 84.6405 60.8079 85.1964 62.1787C85.751 60.8125 86.3214 59.4529 86.8634 58.0821C87.141 58.0592 87.4193 58.0749 87.6976 58.071C86.8701 60.0598 86.0392 62.0472 85.2043 64.0327C84.3549 62.0544 83.536 60.063 82.7064 58.0769Z" fill="white"/>
<path d="M88.0349 58.0703C88.2801 58.0736 88.5253 58.0762 88.7711 58.0755C88.7797 59.1651 88.7697 60.2553 88.779 61.3448C88.7962 61.8621 88.8367 62.4488 89.2369 62.832C89.6987 63.2224 90.4341 63.2466 90.9271 62.8994C91.214 62.6979 91.3717 62.3631 91.434 62.0296C91.532 61.4554 91.4969 60.8713 91.5035 60.2919C91.5075 59.5536 91.5082 58.8152 91.5068 58.0769C91.7427 58.0742 91.9793 58.0749 92.2158 58.0755C92.2264 59.0997 92.2178 60.1232 92.2204 61.1473C92.237 61.7823 92.2165 62.4716 91.8249 63.0079C91.1391 63.9843 89.5609 64.0896 88.6929 63.2963C88.2589 62.9 88.0409 62.3153 88.0376 61.7385C88.031 60.5156 88.0363 59.2933 88.0349 58.0703Z" fill="white"/>
<path d="M93.1407 58.0754C93.3965 58.076 93.6522 58.0734 93.9086 58.0708C93.9086 59.9451 93.908 61.8195 93.9086 63.6945C93.6509 63.6951 93.3938 63.6951 93.1367 63.6945C93.1341 61.8214 93.1427 59.9484 93.1407 58.0754Z" fill="white"/>
<path d="M94.3685 58.0756C96.6657 58.0775 98.9622 58.0717 101.259 58.0723C101.259 58.2966 101.259 58.521 101.259 58.7459C100.819 58.7479 100.379 58.7459 99.9388 58.7466C99.9368 60.3959 99.9382 62.0453 99.9382 63.6947C99.6817 63.6953 99.426 63.6953 99.1696 63.6947C99.1682 62.0453 99.1742 60.3959 99.1669 58.7466C98.2652 58.7479 97.3634 58.7459 96.4616 58.7472C96.4603 60.3966 96.4616 62.0453 96.461 63.6947C96.2257 63.6953 95.9905 63.6953 95.756 63.6947C95.7553 62.0453 95.7566 60.3966 95.7553 58.7472C95.2928 58.7459 94.831 58.7479 94.3685 58.7459C94.3679 58.5223 94.3679 58.2986 94.3685 58.0756Z" fill="white"/>
</svg>
