<svg width="173" height="65" viewBox="0 0 173 65" fill="none" xmlns="http://www.w3.org/2000/svg">
<path d="M42.5261 52.1976C39.1973 52.0655 36.4739 51.1555 34.3443 49.4654C33.9379 49.1426 32.9695 48.1745 32.6446 47.7662C31.781 46.6814 31.1939 45.6257 30.8024 44.4543C29.5974 40.8486 30.2175 36.1171 32.5762 30.9243C34.5957 26.4787 37.7119 22.0695 43.1486 15.9627C43.9494 15.0642 46.3343 12.4362 46.3497 12.4362C46.3554 12.4362 46.2254 12.6611 46.0618 12.935C44.6482 15.3005 43.4387 18.0868 42.7798 20.4989C41.7213 24.3694 41.849 27.691 43.1537 30.2666C44.0537 32.041 45.5967 33.5779 47.3318 34.4275C50.3693 35.9144 54.8165 36.0374 60.2474 34.7874C60.6213 34.7009 79.1498 29.7871 101.422 23.8678C123.694 17.9478 141.92 13.1081 141.923 13.1121C141.929 13.1172 90.1781 35.2401 63.3134 46.7173C59.059 48.5344 57.9212 48.9934 55.9211 49.6949C50.8082 51.4887 46.2283 52.3445 42.5261 52.1976Z" fill="white"/>
</svg>
