<svg width="138" height="33" viewBox="0 0 138 33" fill="none" xmlns="http://www.w3.org/2000/svg">
<g clip-path="url(#clip0)">
<path d="M59.3527 4H68.2802C71.7498 4 75.0772 5.35102 77.5305 7.75586C79.9839 10.1607 81.3622 13.4224 81.3622 16.8233V25.5743C81.3625 26.0242 81.2725 26.4697 81.0973 26.8855C80.922 27.3013 80.6649 27.6791 80.3406 27.9975C80.0164 28.3159 79.6313 28.5685 79.2075 28.741C78.7836 28.9135 78.3293 29.0025 77.8703 29.0029H68.9985C67.273 29.004 65.5642 28.6718 63.9698 28.0252C62.3754 27.3787 60.9266 26.4304 59.7062 25.2347C58.4858 24.039 57.5178 22.6193 56.8575 21.0567C56.1972 19.4941 55.8575 17.8192 55.8579 16.1278V7.42568C55.8579 6.51713 56.2261 5.6458 56.8815 5.00336C57.5369 4.36092 58.4258 4 59.3527 4V4Z" fill="#309245"/>
<path d="M80.3037 28.023C74.7673 19.126 66.0544 12.5642 55.8579 9.61279V16.1279C55.8672 19.5408 57.2548 22.8112 59.7173 25.2239C62.1798 27.6366 65.5168 28.9954 68.9985 29.003H77.8791C78.7869 28.9993 79.6572 28.6476 80.3037 28.023V28.023Z" fill="#44A257"/>
<path d="M68.6819 12.7424C69.4398 12.7424 70.1807 12.9627 70.8108 13.3755C71.441 13.7882 71.9321 14.3748 72.2222 15.0612C72.5122 15.7475 72.5881 16.5028 72.4402 17.2314C72.2924 17.96 71.9274 18.6293 71.3915 19.1546C70.8556 19.68 70.1728 20.0377 69.4295 20.1826C68.6862 20.3276 67.9157 20.2532 67.2155 19.9689C66.5153 19.6846 65.9168 19.2031 65.4958 18.5854C65.0747 17.9677 64.85 17.2415 64.85 16.4986C64.8515 15.5029 65.2557 14.5484 65.974 13.8443C66.6923 13.1402 67.6661 12.744 68.6819 12.7424V12.7424ZM68.6819 8.71899C67.1123 8.71956 65.5782 9.17631 64.2734 10.0315C62.9686 10.8867 61.9518 12.1019 61.3516 13.5235C60.7513 14.9451 60.5946 16.5092 60.9012 18.0181C61.2077 19.527 61.9638 20.913 63.0739 22.0007C64.184 23.0884 65.5981 23.829 67.1376 24.129C68.677 24.4289 70.2727 24.2747 71.7227 23.6858C73.1728 23.0969 74.4121 22.0997 75.2841 20.8205C76.156 19.5412 76.6214 18.0372 76.6214 16.4986C76.6214 14.4353 75.7852 12.4566 74.2968 10.9976C72.8084 9.53863 70.7897 8.71899 68.6848 8.71899H68.6819Z" fill="#F1F2F2"/>
<path d="M64.8559 8.71899H63.39C63.0248 8.71899 62.6631 8.78956 62.3257 8.92666C61.9883 9.06375 61.6818 9.26469 61.4236 9.51798C61.1655 9.77128 60.9608 10.072 60.8213 10.4028C60.6818 10.7337 60.6102 11.0883 60.6106 11.4463V26.0112C61.8674 27.04 63.3092 27.8295 64.8618 28.3391V8.71899H64.8559Z" fill="#F1F2F2"/>
<path d="M68.7229 8.72192H63.7681V11.3113H68.7229V8.72192Z" fill="#F1F2F2"/>
<path d="M18.4181 9.25928H18.8285C20.2808 9.25928 21.6099 9.84651 22.8159 11.021C23.7437 11.984 24.2671 13.2544 24.2818 14.5789V14.6679C24.2818 16.4823 23.4394 17.972 21.7545 19.1368C20.8364 19.7182 19.7662 20.0267 18.6732 20.0249H18.5705C17.6719 20.0138 16.7877 19.8025 15.9846 19.407V25.3675C15.9856 25.3737 15.9851 25.3801 15.9831 25.3861C15.9811 25.3922 15.9777 25.3977 15.9731 25.4021C15.9685 25.4066 15.963 25.41 15.9568 25.4119C15.9507 25.4139 15.9441 25.4144 15.9377 25.4134H13.0469C13.0405 25.4144 13.034 25.4139 13.0278 25.4119C13.0217 25.41 13.0161 25.4066 13.0115 25.4021C13.007 25.3977 13.0035 25.3922 13.0015 25.3861C12.9995 25.3801 12.999 25.3737 13 25.3675V14.4467C13 13.1055 13.603 11.8448 14.809 10.6646C15.9837 9.72772 17.1867 9.25928 18.4181 9.25928ZM18.594 12.1332H18.4885C17.6206 12.1332 16.8886 12.5748 16.2925 13.458C16.1037 13.8283 15.9986 14.2341 15.9846 14.6478C15.9846 15.6288 16.4948 16.3884 17.5151 16.9268C17.8483 17.0693 18.207 17.1455 18.5705 17.151H18.6878C19.6651 17.151 20.4293 16.694 20.9805 15.7801C21.168 15.4462 21.2687 15.0721 21.2737 14.6909V14.5789C21.2737 13.665 20.7958 12.9321 19.84 12.3803C19.512 12.2287 19.1558 12.1446 18.7934 12.1332H18.6761C18.6729 12.1337 18.6696 12.1334 18.6666 12.1324C18.6635 12.1314 18.6607 12.1298 18.6584 12.1275C18.6561 12.1253 18.6544 12.1225 18.6534 12.1195C18.6524 12.1165 18.6521 12.1133 18.6526 12.1102L18.594 12.1332Z" fill="white"/>
<path d="M46.2414 9.25928H46.6519C48.1002 9.25928 49.4284 9.84651 50.6363 11.021C51.5641 11.984 52.0875 13.2544 52.1022 14.5789V14.6679C52.1022 16.4823 51.2598 17.972 49.5749 19.1369C48.6577 19.7179 47.5886 20.0263 46.4965 20.0249H46.4027C45.504 20.0144 44.6196 19.8031 43.8168 19.407V25.3675C43.8172 25.3736 43.8163 25.3798 43.8141 25.3855C43.8119 25.3913 43.8084 25.3966 43.804 25.4009C43.7996 25.4053 43.7942 25.4086 43.7883 25.4108C43.7824 25.413 43.7761 25.4139 43.7699 25.4134H40.8673C40.8611 25.4139 40.8548 25.413 40.8489 25.4108C40.843 25.4086 40.8376 25.4053 40.8332 25.4009C40.8287 25.3966 40.8253 25.3913 40.8231 25.3855C40.8209 25.3798 40.82 25.3736 40.8204 25.3675V14.4467C40.8204 13.1055 41.4244 11.8448 42.6323 10.6646C43.809 9.72772 45.012 9.25928 46.2414 9.25928ZM46.4173 12.1332H46.3118C45.442 12.1332 44.709 12.5748 44.1129 13.458C43.9285 13.8292 43.8285 14.2351 43.8197 14.6478C43.8197 15.6288 44.3289 16.3885 45.3472 16.9268C45.6814 17.0693 46.0412 17.1455 46.4056 17.151H46.5229C47.5002 17.151 48.2644 16.694 48.8156 15.7801C49.003 15.4462 49.1037 15.0721 49.1088 14.6909V14.5789C49.1088 13.665 48.6309 12.9321 47.6751 12.3803C47.3469 12.2293 46.9908 12.1452 46.6284 12.1332H46.5112C46.4936 12.1332 46.4877 12.1332 46.4877 12.1102L46.4173 12.1332Z" fill="white"/>
<path d="M31.8284 9.21899H32.1949C33.4654 9.21899 34.6479 9.72767 35.7425 10.745C36.6455 11.7624 37.096 12.7912 37.0941 13.8316V14.2483C37.0941 15.0147 36.7579 15.8261 36.0855 16.6825L31.8519 22.7004H36.8361C36.8683 22.7004 36.883 22.7234 36.883 22.7464V25.2381C36.883 25.2668 36.883 25.2812 36.8361 25.2812H26.7974V25.2381C30.1377 20.4847 31.8968 17.994 32.0747 17.766C33.4879 16.0205 34.1935 15.0999 34.1915 15.0041C34.3357 14.718 34.4119 14.4036 34.4143 14.0845C34.4143 13.2223 33.9775 12.5268 33.0979 12.0412C32.8103 11.8974 32.4941 11.817 32.1715 11.8055H32.0513H32.0043H31.8988C31.201 11.8055 30.5902 12.1389 30.0664 12.8056C29.7942 13.1782 29.6504 13.6262 29.6559 14.0845C29.6614 14.4583 29.7622 14.8248 29.9491 15.1507L29.9022 15.1737H27.073C26.985 15.1507 26.9264 14.7714 26.897 14.0385C26.897 12.638 27.4834 11.4223 28.6562 10.3915C29.5413 9.64934 30.6637 9.23448 31.8284 9.21899V9.21899Z" fill="white"/>
<path d="M85.6604 9.15283H88.5512C88.5835 9.15283 88.5982 9.17582 88.5982 9.19881V15.1478H88.6216C89.4388 14.7398 90.3432 14.528 91.2603 14.5299C93.1328 14.5299 94.6964 15.3307 95.9513 16.9325C96.5531 17.8088 96.8793 18.8391 96.8894 19.8954V19.9845C96.8894 21.7376 96.0588 23.2119 94.3974 24.4075C93.5294 24.955 92.5264 25.2619 91.4948 25.2955H91.014C89.7269 25.2955 88.4955 24.7954 87.3111 23.7924C86.1833 22.6429 85.6194 21.4186 85.6194 20.1196V9.19881C85.6194 9.17295 85.637 9.15283 85.6604 9.15283ZM88.6216 19.7862V19.9098C88.6221 19.9129 88.6218 19.9162 88.6208 19.9192C88.6198 19.9222 88.6181 19.9249 88.6158 19.9272C88.6136 19.9294 88.6108 19.9311 88.6077 19.9321C88.6046 19.933 88.6013 19.9333 88.5982 19.9328L88.6216 19.9788V20.0449C88.6216 20.9444 89.123 21.6715 90.1257 22.2348C90.4822 22.3715 90.86 22.4473 91.2427 22.459C92.3294 22.459 93.1523 21.9273 93.7113 20.8639C93.812 20.5868 93.8674 20.2959 93.8755 20.0018V19.8897C93.8755 18.9835 93.4132 18.2612 92.4887 17.7228C92.1112 17.5307 91.6915 17.4321 91.2661 17.4354C90.0582 17.4354 89.208 18.0303 88.7154 19.2201C88.6614 19.3996 88.6298 19.5849 88.6216 19.7719V19.7862Z" fill="white"/>
<path d="M113.774 9.15283H116.665C116.697 9.15283 116.712 9.17582 116.712 9.19881V15.1478H116.735C117.552 14.7401 118.457 14.5283 119.374 14.5299C121.248 14.5299 122.812 15.3307 124.065 16.9325C124.666 17.809 124.99 18.8395 124.997 19.8954V19.9845C124.997 21.7376 124.166 23.2119 122.505 24.4075C121.637 24.9543 120.634 25.2612 119.602 25.2955H119.133C117.849 25.2955 116.615 24.7945 115.43 23.7924C114.303 22.6429 113.739 21.4186 113.739 20.1196V9.19881C113.736 9.17295 113.75 9.15283 113.774 9.15283ZM116.735 19.7862V19.9098C116.735 19.9098 116.735 19.9328 116.712 19.9328L116.735 19.9788V20.0449C116.735 20.9444 117.236 21.6715 118.242 22.2348C118.598 22.3713 118.974 22.4471 119.356 22.459C120.447 22.459 121.27 21.9273 121.825 20.8639C121.927 20.5872 121.982 20.296 121.989 20.0018V19.8897C121.989 18.9835 121.527 18.2612 120.602 17.7228C120.225 17.5301 119.805 17.4314 119.38 17.4354C118.176 17.4354 117.325 18.0303 116.829 19.2201C116.775 19.3996 116.743 19.5849 116.735 19.7719V19.7862Z" fill="white"/>
<path d="M104.442 9.21899H104.805C106.076 9.21899 107.259 9.72767 108.356 10.745C109.257 11.7624 109.707 12.7912 109.707 13.8316V14.2483C109.707 15.0147 109.37 15.8261 108.696 16.6825L104.474 22.7004H109.458C109.49 22.7004 109.505 22.7234 109.505 22.7464V25.2381C109.505 25.2668 109.49 25.2812 109.458 25.2812H99.4106V25.2381C102.749 20.4847 104.508 17.994 104.688 17.766C106.097 16.0205 106.803 15.0999 106.805 15.0041C106.949 14.718 107.025 14.4036 107.028 14.0845C107.028 13.2089 106.589 12.5278 105.711 12.0412C105.423 11.8973 105.105 11.8169 104.782 11.8055H104.665H104.618H104.512C103.814 11.8055 103.203 12.1389 102.68 12.8056C102.407 13.1779 102.262 13.626 102.266 14.0845C102.271 14.4585 102.371 14.8253 102.559 15.1507L102.513 15.1737H99.7243C99.6393 15.1507 99.5807 14.7714 99.5484 14.0385C99.5484 12.638 100.141 11.4223 101.325 10.3915C102.196 9.66116 103.296 9.24707 104.442 9.21899V9.21899Z" fill="white"/>
</g>
<defs>
<clipPath id="clip0">
<rect width="112" height="25" fill="white" transform="translate(13 4)"/>
</clipPath>
</defs>
</svg>
