<svg width="173" height="65" viewBox="0 0 173 65" fill="none" xmlns="http://www.w3.org/2000/svg">
<g clip-path="url(#clip0)">
<path fill-rule="evenodd" clip-rule="evenodd" d="M1.02698 19.9435L3.6181 22.8107V43.7954L1.69768 46.5411L13.4591 46.5588L11.3392 44.0323L11.1191 36.475L22.4596 36.5354C25.897 35.4125 29.4306 33.0185 29.6004 28.1787C29.5462 23.4886 26.6278 20.4803 23.2394 19.8818L1.02698 19.9435ZM10.6988 21.2855V34.7668L19.3998 34.8285C21.3797 33.262 22.8805 32.0624 22.8205 28.3015C22.7921 25.2348 22.1323 22.5606 19.2197 21.2862H10.6988V21.2855Z" fill="white" stroke="white" stroke-width="1.0001" stroke-miterlimit="2.6131"/>
<path fill-rule="evenodd" clip-rule="evenodd" d="M35.0435 19.7906L37.6346 22.6584V43.6431L35.7142 46.3902L47.4749 46.4066L45.355 43.88L45.1349 36.3227H45.182L57.3327 46.4919L67.4164 46.4112L58.2132 38.6005H50.5302L47.8222 36.3372L56.4754 36.3831C59.9129 35.2603 63.4458 32.8663 63.6162 28.0265C63.5626 23.3369 60.6442 20.3281 57.2552 19.7302L35.0435 19.7906ZM44.7147 21.1326V34.6139L53.4157 34.6755C55.3961 33.1091 56.8963 31.9095 56.8363 28.1479C56.8079 25.0819 56.1482 22.407 53.2356 21.1326H44.7147V21.1326Z" fill="white" stroke="white" stroke-width="1.0001" stroke-miterlimit="2.6131"/>
<path fill-rule="evenodd" clip-rule="evenodd" d="M77.1244 19.7605H87.2656L100.466 43.7955C101.038 45.6513 102.746 45.4223 103.887 46.236H91.1058L93.0262 45.6467L92.9061 43.8572L89.6056 38.6715L78.3845 38.7332L75.9844 43.7357C75.9044 44.3047 75.284 44.7365 75.7443 45.4433L76.6448 46.2971L71.1243 46.175L73.525 45.4433L82.5849 26.7154V25.4337L78.7569 20.4233L77.1244 19.7605ZM79.0939 37.0211L83.7546 28.3632L88.607 36.9725L79.0939 37.0211Z" fill="white" stroke="white" stroke-width="1.0001" stroke-miterlimit="2.6131"/>
<path fill-rule="evenodd" clip-rule="evenodd" d="M145.7 19.813H155.841L169.042 43.848C169.614 45.7038 171.322 45.4748 172.463 46.2885H159.681L161.601 45.6979L161.481 43.9083L158.181 38.724L146.96 38.7857L144.56 43.7869C144.48 44.3572 143.86 44.789 144.319 45.4958L145.22 46.3496L139.7 46.2275L142.101 45.4958L151.161 26.7679V25.4856L147.333 20.4758L145.7 19.813ZM147.67 37.0742L152.33 28.4164L157.183 37.0243L147.67 37.0742Z" fill="white" stroke="white" stroke-width="1.0001" stroke-miterlimit="2.6131"/>
<path fill-rule="evenodd" clip-rule="evenodd" d="M107.394 19.5105L125.46 19.6083C131.277 20.945 134.979 24.4323 136.126 30.5157L136.078 35.2604C135.017 40.681 131.542 44.4209 125.412 46.3142L107.298 46.364L107.295 45.7898C110.049 45.5857 110.269 45.2773 110.276 43.6734V22.0534C110.245 20.8676 110.004 20.1293 107.346 20.048L107.394 19.5105ZM117.663 21.3605L117.646 44.7516C120.028 44.7595 122.095 44.9787 123.263 44.394C125.909 43.2082 127.138 41.3871 127.25 39.6762L127.187 25.8643C127.188 23.6547 124.744 22.0948 123.333 21.6886C122.324 21.3217 120.31 21.3066 117.663 21.3605Z" fill="white" stroke="white" stroke-width="1.0001" stroke-miterlimit="2.6131"/>
</g>
<defs>
<clipPath id="clip0">
<rect width="173" height="28" fill="white" transform="translate(0 19)"/>
</clipPath>
</defs>
</svg>
