<svg width="123" height="16" viewBox="0 0 123 16" fill="none" xmlns="http://www.w3.org/2000/svg">
<path d="M0 8.06704C0 10.2346 0.902548 12.2011 2.25637 13.6313C3.63276 15.0615 5.57323 15.9553 7.71679 15.9553C11.3947 15.9553 14.2828 13.5419 15.1854 9.98883H12.9516C12.1393 12.3575 10.1085 13.7207 7.71679 13.7207C6.20502 13.7207 4.82863 13.0726 3.83583 12.0447C2.84303 11.0168 2.21124 9.63128 2.21124 8.06704C2.21124 6.4581 2.84303 5.07263 3.83583 4.04469C4.82863 3.01676 6.20502 2.36872 7.71679 2.36872C10.0408 2.36872 11.9813 3.55307 12.8162 5.89944H15.0726C14.17 2.36872 11.327 0.134079 7.71679 0.134079C5.57323 0.134079 3.63276 1.05028 2.25637 2.4581C0.902548 3.88827 0 5.85475 0 8.06704Z" fill="white"/>
<path d="M31.9042 16C34.6118 16 37.7256 14.3464 37.7256 11.1732V0.223463H35.4241V11.1508C35.4241 12.8715 33.5513 13.743 31.9042 13.743C30.2345 13.743 28.3617 12.8939 28.3617 11.1732V0.223463H26.0602V11.1508C26.0602 14.3464 29.1289 16 31.9042 16Z" fill="white"/>
<path d="M52.1183 8.98324L57.872 15.8436H60.8279L55.8413 9.96648C58.5489 9.49721 59.9253 7.39665 59.9253 5.18436C59.9253 2.70391 58.2105 0.201117 54.7808 0.201117H49.027V15.8436H51.2834V2.48045H54.7808C56.6987 2.48045 57.6464 3.84358 57.6464 5.18436C57.6464 6.54749 56.6987 7.91061 54.7808 7.91061H52.1183V8.98324Z" fill="white"/>
<path d="M97.9502 15.9106V2.48045H102.711V0.201117H90.8878V2.48045H95.6713V15.9106H97.9502Z" fill="white"/>
<path d="M115.667 9.16201H122.819V6.88268H115.667V2.48045H122.977V0.223463H113.365V15.8436H123V13.5866H115.667V9.16201Z" fill="white"/>
<path d="M76.4723 3.59777L78.4127 9.11732L79.2927 11.2402L81.1881 15.8436H83.6249L77.2845 0H75.6148L69.2744 15.8436H71.7339C72.2303 14.5475 73.02 12.6704 73.6292 11.2402L74.4866 9.11732L76.4723 3.59777Z" fill="white"/>
</svg>
