<svg width="64" height="63" viewBox="0 0 64 63" fill="none" xmlns="http://www.w3.org/2000/svg">
<path d="M32 0C14.3269 0 0 14.4012 0 32.166C0 46.7373 9.63891 59.0457 22.8571 63V53.23C14.7844 49.6846 9.14286 41.5875 9.14286 32.166C9.14286 19.4769 19.3763 9.19029 32 9.19029C44.6236 9.19029 54.8571 19.4769 54.8571 32.166C54.8571 41.5875 49.2156 49.6846 41.1429 53.23V63C54.3611 59.0457 64 46.7373 64 32.166C64 14.4012 49.6731 0 32 0Z" fill="#15111B"/>
<path d="M32.0911 18.9754C24.8392 18.9754 18.9604 24.8542 18.9604 32.106C18.9604 38.0542 22.9156 43.0786 28.3395 44.6929V40.7046C25.027 39.2573 22.7121 35.952 22.7121 32.106C22.7121 26.9261 26.9112 22.727 32.0911 22.727C37.2709 22.727 41.4701 26.9261 41.4701 32.106C41.4701 35.952 39.1551 39.2573 35.8427 40.7046V44.6929C41.2665 43.0786 45.2217 38.0542 45.2217 32.106C45.2217 24.8542 39.3429 18.9754 32.0911 18.9754Z" fill="url(#paint0_angular)"/>
<path d="M32.0911 18.9754C24.8392 18.9754 18.9604 24.8542 18.9604 32.106C18.9604 38.0542 22.9156 43.0786 28.3395 44.6929V40.7046C25.027 39.2573 22.7121 35.952 22.7121 32.106C22.7121 26.9261 26.9112 22.727 32.0911 22.727C37.2709 22.727 41.4701 26.9261 41.4701 32.106C41.4701 35.952 39.1551 39.2573 35.8427 40.7046V44.6929C41.2665 43.0786 45.2217 38.0542 45.2217 32.106C45.2217 24.8542 39.3429 18.9754 32.0911 18.9754Z" fill="white"/>
<defs>
<radialGradient id="paint0_angular" cx="0" cy="0" r="1" gradientUnits="userSpaceOnUse" gradientTransform="translate(32.0911 31.8341) rotate(90) scale(12.8587 13.1306)">
<stop stop-color="white"/>
<stop offset="1" stop-color="white" stop-opacity="0"/>
</radialGradient>
</defs>
</svg>
