<svg width="1440" height="712" viewBox="0 0 1440 712" fill="none" xmlns="http://www.w3.org/2000/svg">
<path d="M198.397 111.068C137.251 115.113 0 126.756 0 126.756V712L102.42 707.942C102.42 707.942 164.464 703.039 198.397 705.913C207.361 706.672 246.578 704.181 307.261 698.811C330.191 696.782 360.764 695.767 408.611 691.709C434.245 689.535 468.189 676.678 515.159 684.607C537.96 688.456 564.345 669.656 612.336 683.592C632.833 689.545 669.554 682.578 723.057 686.636C763.395 689.696 822.092 695.767 822.092 695.767C822.092 695.767 895.458 699.662 929.427 701.854C938.679 702.452 965.786 702.869 1026.93 686.636C1039.91 683.191 1079.24 685.622 1132.74 677.505C1151.87 674.602 1192.36 669.389 1236.69 662.287C1255.33 659.301 1296.31 650.112 1339.11 637.385C1376.99 626.122 1440 604.457 1440 604.457V0C1440 0 1255.9 16.813 1236.69 23.5909C1190.83 39.7722 1052.08 69.0194 1026.93 72.1863C987.187 77.1914 846.873 81.0886 820.563 79.2236C777.76 76.1896 646.77 68.6241 622.166 68.099C574.777 67.0877 433.243 82.1302 409.682 84.2803C365.35 88.3256 221.485 109.54 198.397 111.068Z" fill="#0E0B11"/>
</svg>
