<svg width="1302" height="1034" viewBox="0 0 1302 1034" fill="none" xmlns="http://www.w3.org/2000/svg">
<path d="M277.105 876.476C258.633 912.992 274.124 938.831 259.679 967.386C219.077 1070.41 116.206 938.894 0 1034L1.21118e-06 111.646C1.21118e-06 111.646 261.336 -75.2029 347.369 36.5C402.512 108.095 688.21 -9.70947 882 58C1071.12 124.078 1274.37 268.95 1300.5 363C1313.1 408.353 1138.72 526.994 1120 564C1101.28 601.006 972 598.1 990 640C1000.27 663.913 976.372 702.991 954 715C930.348 727.696 825.02 729.612 818.5 742.5C790.162 798.519 651.013 811.38 633.5 846C617.437 877.753 379.384 834.362 347.369 828.539C324.561 824.392 292.071 846.89 277.105 876.476Z" fill="#001C1E"/>
</svg>
