<svg width="686" height="972" viewBox="0 0 686 972" fill="none" xmlns="http://www.w3.org/2000/svg">
<path d="M277.105 814.476C258.633 850.992 274.124 876.831 259.679 905.386C219.077 1008.41 116.206 876.894 0 972L1.21118e-06 49.6457C1.21118e-06 49.6457 238.454 -62.0573 324.488 49.6457C443.931 204.728 633.347 120.752 681.882 295.455C694.482 340.807 675.858 499.094 657.139 536.1C638.419 573.105 613.645 599.775 578.621 602.898C552.698 605.21 536.279 605.448 513.907 617.457C490.255 630.152 473.777 652.16 467.258 665.048C438.92 721.067 461.444 715.972 443.931 750.592C427.869 782.345 379.384 772.362 347.369 766.539C324.561 762.392 292.071 784.89 277.105 814.476Z" fill="#001C1E"/>
</svg>
