<svg width="133" height="26" viewBox="0 0 133 26" fill="none" xmlns="http://www.w3.org/2000/svg">
<path d="M32.8787 20.956C29.9678 20.956 27.5567 20.1062 25.6454 18.4066L28.0271 15.5714C29.5708 16.8022 31.2395 17.4176 33.0331 17.4176C34.2092 17.4176 34.7973 17.0513 34.7973 16.3187C34.7973 15.9963 34.6208 15.7326 34.268 15.5275C33.9152 15.3077 33.2242 15.0806 32.1951 14.8462C31.2542 14.6264 30.475 14.4139 29.8575 14.2088C29.2547 13.989 28.6593 13.7033 28.0712 13.3516C27.4979 12.9853 27.0715 12.5238 26.7922 11.967C26.5128 11.4103 26.3732 10.7436 26.3732 9.96703C26.3732 8.51648 26.9098 7.337 27.983 6.42857C29.0709 5.50549 30.5264 5.04396 32.3494 5.04396C34.8781 5.04396 36.9952 5.72528 38.7006 7.08791L36.5615 10.0989C35.1207 9.08791 33.6799 8.58242 32.2392 8.58242C31.7393 8.58242 31.3571 8.67766 31.0924 8.86813C30.8278 9.05861 30.6955 9.30769 30.6955 9.61538C30.6955 9.96703 30.8719 10.2454 31.2248 10.4505C31.5923 10.6557 32.3053 10.8755 33.3639 11.1099C35.3045 11.5348 36.7452 12.1062 37.6862 12.8242C38.6418 13.5275 39.1196 14.5678 39.1196 15.9451C39.1196 17.4982 38.5536 18.7216 37.4215 19.6154C36.2895 20.5092 34.7752 20.956 32.8787 20.956Z" fill="white"/>
<path d="M40.6488 20.6923V5.30769H44.927V11.0659H50.4181V5.30769H54.6963V20.6923H50.4181V14.8462H44.927V20.6923H40.6488Z" fill="white"/>
<path d="M70.5685 18.6703C68.9807 20.2234 67.0033 21 64.6363 21C62.2693 21 60.2919 20.2308 58.7042 18.6923C57.1311 17.1392 56.3445 15.2418 56.3445 13C56.3445 10.7729 57.1384 8.88278 58.7262 7.32967C60.3287 5.77656 62.3134 5 64.6804 5C67.0474 5 69.0174 5.77656 70.5905 7.32967C72.1783 8.86813 72.9722 10.7582 72.9722 13C72.9722 15.2271 72.1709 17.1172 70.5685 18.6703ZM64.6804 17.1538C65.8418 17.1538 66.7828 16.7509 67.5031 15.9451C68.2382 15.1392 68.6058 14.1575 68.6058 13C68.6058 11.8571 68.2309 10.8828 67.4811 10.0769C66.7313 9.25641 65.783 8.84615 64.6363 8.84615C63.4896 8.84615 62.5487 9.24908 61.8136 10.0549C61.0932 10.8608 60.733 11.8425 60.733 13C60.733 14.1429 61.1005 15.1245 61.8356 15.9451C62.5854 16.7509 63.5337 17.1538 64.6804 17.1538Z" fill="white"/>
<path d="M74.6494 20.6923V5.30769H81.9488C84.1982 5.30769 85.8742 5.85714 86.9768 6.95604C87.8883 7.86447 88.344 9.08059 88.344 10.6044C88.344 12.8608 87.2855 14.4359 85.1685 15.3297L88.8513 20.6923H83.9115L80.8021 16.033H78.9276V20.6923H74.6494ZM78.9276 12.6923H81.7503C82.4707 12.6923 83.0294 12.5311 83.4263 12.2088C83.838 11.8718 84.0438 11.4103 84.0438 10.8242C84.0438 10.2234 83.838 9.76923 83.4263 9.46154C83.0294 9.15385 82.4634 9 81.7283 9H78.9276V12.6923Z" fill="white"/>
<path d="M93.7194 20.6923V9.04396H89.0883V5.30769H102.629V9.04396H97.9976V20.6923H93.7194Z" fill="white"/>
<path d="M103.955 20.6923V5.30769H116.371V8.93407H108.189V11.2637H115.599V14.6264H108.189V17.0659H116.481V20.6923H103.955Z" fill="white"/>
<path d="M116.988 20.6923L122.281 12.8681L117.209 5.30769H122.126L124.861 9.63736L127.617 5.30769H132.425L127.353 12.8242L132.645 20.6923H127.728L124.773 16.0549L121.796 20.6923H116.988Z" fill="white"/>
<path d="M12.2913 21.6589L18.3818 15.5685L18.597 15.3338L15.53 12.533C15.7538 12.7374 15.7324 13.0331 15.7075 13.1445C15.6811 13.2627 15.622 13.375 15.53 13.467L10.1898 18.8072C9.93193 19.0651 9.51376 19.0651 9.25585 18.8072L3.91569 13.467L0.898318 10.6083C-0.352303 12.0351 -0.297106 14.2075 1.06391 15.5685L7.15435 21.6589C8.57289 23.0775 10.8728 23.0775 12.2913 21.6589Z" fill="url(#paint0_linear)"/>
<path d="M0.898315 10.6083L3.91569 13.467C3.86213 13.412 3.71462 13.2355 3.72256 12.9794C3.7276 12.8173 3.79197 12.6567 3.91568 12.533L9.25584 7.19285C9.51375 6.93493 9.93192 6.93493 10.1898 7.19285L15.53 12.533L18.597 15.3338C19.7963 13.9067 19.7245 11.7743 18.3818 10.4315L12.2913 4.34107C10.8728 2.92252 8.57288 2.92253 7.15434 4.34107L1.0639 10.4315L0.898315 10.6083Z" fill="url(#paint1_linear)"/>
<defs>
<linearGradient id="paint0_linear" x1="18.2879" y1="16.6118" x2="-0.204336" y2="16.1165" gradientUnits="userSpaceOnUse">
<stop stop-color="#0B2FAA"/>
<stop offset="1" stop-color="#6FF3FA"/>
</linearGradient>
<linearGradient id="paint1_linear" x1="0.786319" y1="11.6585" x2="19.2786" y2="11.6606" gradientUnits="userSpaceOnUse">
<stop stop-color="#0B2FAA"/>
<stop offset="1" stop-color="#6FF3FA"/>
</linearGradient>
</defs>
</svg>
