<svg width="121" height="27" viewBox="0 0 121 27" fill="none" xmlns="http://www.w3.org/2000/svg">
<g clip-path="url(#clip0)">
<path d="M12.7994 8.64412C12.7144 8.64412 12.6719 8.64412 12.5868 8.64412C12.5443 8.64412 12.4592 8.64412 12.4167 8.64412C11.0134 8.77325 9.78015 9.33284 8.80207 10.3229C7.95157 11.1838 7.44127 12.2169 7.22864 13.4221C7.14359 14.0248 7.10107 14.6705 7.22864 15.2731C7.27117 15.8327 7.48379 16.3923 7.73894 16.8658C8.03662 17.4684 8.37682 17.9849 8.84459 18.4154C9.09974 18.7167 9.39742 18.9319 9.78015 19.1472C10.0778 19.3194 10.3755 19.5346 10.6732 19.6207C10.7582 19.6637 10.8858 19.7068 10.9708 19.7498C11.6938 20.0081 12.4167 20.0942 13.1822 20.0511C14.5855 19.965 15.7762 19.4054 16.7543 18.4154C16.9244 18.2432 17.137 18.071 17.222 17.8558C17.4772 17.5115 17.6898 17.1671 17.9024 16.7797C18.2001 16.2631 18.3277 15.6605 18.4127 15.0579C18.4553 14.7135 18.4978 14.4122 18.4553 14.0678C18.4127 13.8096 18.4127 13.5513 18.3702 13.25C18.3277 12.7334 18.1576 12.2599 17.9024 11.8295C17.8599 11.7003 17.8174 11.6142 17.7323 11.4851C17.7323 11.4421 17.7323 11.399 17.6473 11.356C17.6473 11.2699 17.6048 11.2268 17.5622 11.1838C17.2646 10.7533 16.9244 10.3229 16.5416 9.97852C15.9463 9.46198 15.3084 9.07457 14.543 8.85935C14.2028 8.73021 13.8626 8.68716 13.5224 8.64412H13.4798C13.3523 8.60107 13.1822 8.60107 13.0546 8.60107C12.9695 8.60107 12.8845 8.60107 12.7994 8.64412Z" fill="white"/>
<path d="M12.7144 1.54165C12.5018 1.54165 12.2891 1.49861 12.0765 1.54165C11.2685 1.54165 10.5031 1.67079 9.73763 1.88602C8.88713 2.0582 8.03663 2.35951 7.27117 2.74692C6.76087 3.00519 6.25057 3.26346 5.82532 3.56478C5.7828 3.56478 5.74027 3.60783 5.74027 3.60783C5.6127 3.65087 5.52765 3.73696 5.4426 3.82305C5.40007 3.82305 5.40007 3.8661 5.35755 3.8661C3.82664 4.94223 2.63594 6.27664 1.70039 7.86931C0.764837 9.46199 0.254537 11.1838 0.0419112 13.0347C-0.000613874 13.5943 -0.000613874 14.1109 0.0419112 14.6705C0.0419112 14.7135 0.0419112 14.7566 0.0419112 14.7566C-0.000613874 14.9718 0.0419112 15.187 0.0844363 15.4022C0.297062 17.4684 0.934938 19.4055 2.04059 21.1703C2.42332 21.7299 2.80604 22.3325 3.27382 22.806C3.31634 22.8491 3.31634 22.8921 3.35887 22.9352C4.08179 23.71 4.88977 24.3987 5.74027 24.9583C6.33562 25.3457 6.93097 25.6901 7.56885 25.9483C7.90905 26.0775 8.24925 26.2497 8.58945 26.3357C8.63198 26.3357 8.6745 26.3788 8.71703 26.3788C10.2054 26.8523 11.6938 27.0675 13.2672 26.9814C13.7775 26.9384 14.3303 26.8953 14.8406 26.7662C14.9682 26.7662 15.0958 26.7231 15.2234 26.6801C15.3084 26.6801 15.3935 26.6801 15.4785 26.6371C16.1164 26.5079 16.7117 26.2927 17.3071 26.0775C17.945 25.8192 18.5828 25.5179 19.1357 25.1305C19.731 24.7861 20.2413 24.3987 20.7516 23.9683C21.2194 23.5808 21.6872 23.1504 22.0699 22.6769C22.155 22.5908 22.24 22.5047 22.2825 22.4186C22.4101 22.3325 22.4952 22.2034 22.5802 22.0743C22.6653 22.0312 22.7078 21.9451 22.7078 21.9021C22.7503 21.859 22.7503 21.859 22.7928 21.816C23.0055 21.5577 23.1756 21.2564 23.3457 20.9981C23.8134 20.2233 24.1962 19.4485 24.4938 18.5876C24.5789 18.3724 24.6639 18.2002 24.7065 17.985C24.9616 17.2962 25.0892 16.5645 25.1742 15.8327C25.1742 15.7036 25.1317 15.6605 25.0041 15.6605C24.1111 15.5744 23.2606 15.4453 22.3676 15.4022C21.8998 15.3592 21.4745 15.2731 21.0068 15.2731C20.6666 15.187 20.624 15.187 20.5815 15.4883C20.5815 15.5744 20.5815 15.6605 20.539 15.7896C20.539 15.8327 20.4965 15.8327 20.539 15.8757C20.4965 16.091 20.4539 16.3062 20.4114 16.5214C20.2413 17.081 20.0287 17.5975 19.8161 18.071C19.5609 18.5015 19.3058 18.975 18.9656 19.3624C18.1151 20.4385 17.0519 21.2564 15.7762 21.816C15.2659 22.0312 14.7556 22.1603 14.2028 22.3325C14.1602 22.2895 14.1177 22.3756 14.0752 22.3756C13.9051 22.3325 13.735 22.4186 13.5224 22.4186C13.4373 22.4186 13.3948 22.4186 13.3097 22.4186C13.2247 22.4186 13.1396 22.4186 13.0121 22.4186C11.6087 22.5047 10.2905 22.2034 9.05723 21.6008C8.75955 21.4286 8.46188 21.2564 8.1642 21.0842C8.07915 21.0412 7.9941 20.9551 7.90905 20.9551C7.86653 20.912 7.86653 20.912 7.824 20.869C7.39875 20.5677 7.01602 20.1803 6.6333 19.7929C6.6333 19.7068 6.54825 19.6637 6.50572 19.5776C5.31502 18.1141 4.67714 16.4784 4.59209 14.5844C4.59209 14.0678 4.63462 13.5082 4.67714 12.9917C4.67714 12.9487 4.71967 12.9487 4.71967 12.9056C4.9323 11.6143 5.4426 10.4951 6.25057 9.41894C6.50572 9.11762 6.76087 8.81631 7.01602 8.51499C7.18612 8.34281 7.35622 8.21367 7.56885 8.04149C8.88713 6.96536 10.418 6.36273 12.119 6.23359C12.7144 6.19054 13.3523 6.23359 13.9476 6.31968C14.0327 6.31968 14.1177 6.40577 14.1602 6.27664C14.2028 6.06141 14.2453 5.80314 14.2878 5.58791C14.3303 5.50182 14.2878 5.41573 14.2878 5.32964C14.4154 5.11441 14.3729 4.85614 14.4154 4.64091C14.543 4.59787 14.5004 4.51178 14.5004 4.42569C14.6705 3.60783 14.7981 2.78997 14.9682 2.01515C14.9682 1.97211 15.0533 1.88602 14.9257 1.84297C14.8832 1.84297 14.8832 1.84297 14.8406 1.84297C14.628 1.75688 14.4154 1.75688 14.2453 1.75688L14.2028 1.71383C13.82 1.67079 13.4373 1.62774 13.0546 1.62774C13.0121 1.62774 12.9695 1.62774 12.927 1.62774C12.7994 1.54165 12.7569 1.54165 12.7144 1.54165Z" fill="white"/>
<path d="M18.3277 3.00519C18.03 3.60782 17.7323 4.2535 17.3921 4.85614C17.222 5.11441 17.0945 5.37268 16.9669 5.674C16.7968 6.01836 16.6267 6.31968 16.4566 6.66404C16.244 7.09449 16.244 7.09449 16.6692 7.30972C17.3921 7.78322 18.03 8.29976 18.5828 8.94544C18.6254 9.03153 18.7104 9.11762 18.7529 9.16067C19.1357 9.63416 19.4759 10.1507 19.731 10.7103C20.0287 11.3129 20.2413 11.9586 20.3689 12.6473C20.3689 12.7334 20.3689 12.8195 20.4965 12.8195C20.9642 12.7334 21.432 12.6904 21.8998 12.5182H21.9423C22.1124 12.5612 22.24 12.4752 22.3676 12.4321C23.0905 12.303 23.8559 12.1738 24.5789 12.0017C24.6214 12.0017 24.6214 12.0017 24.6639 12.0017C24.9191 11.9586 24.9191 11.9586 24.834 11.7434C24.7915 11.399 24.7065 11.0977 24.5789 10.7533C24.4513 10.2798 24.2812 9.7633 24.0686 9.33285C23.8559 8.73021 23.5583 8.17062 23.2181 7.65408C23.2181 7.61104 23.2181 7.61104 23.1755 7.56799C22.9204 7.09449 22.6227 6.70708 22.2825 6.27663C21.9848 5.88922 21.6446 5.45877 21.2619 5.15745C21.2194 5.07136 21.1343 4.98527 21.0918 4.94223C20.8367 4.727 20.5815 4.51177 20.3689 4.29655C19.7735 3.78 19.0931 3.3926 18.4127 3.00519C18.3702 3.00519 18.3277 2.96214 18.3277 2.96214C18.3702 2.96214 18.3277 2.96214 18.3277 3.00519Z" fill="white"/>
<path d="M35.1105 11.1585H32.2141V9.66595H39.5866V11.1585H36.6903V18.8344H35.1105V11.1585Z" fill="white"/>
<path d="M41.2717 9.66595H45.3266C46.4852 9.66595 47.3804 9.98578 47.9597 10.5721C48.4336 11.0519 48.6969 11.7448 48.6969 12.5444C48.6969 14.037 47.8017 14.9431 46.5378 15.3163L48.9602 18.7811H47.0644L44.8527 15.5828H42.8516V18.7811H41.2717V9.66595V9.66595ZM45.1686 14.1969C46.3272 14.1969 47.0118 13.6105 47.0118 12.651C47.0118 11.6915 46.3272 11.1052 45.116 11.1052H42.7989V14.1969H45.1686Z" fill="white"/>
<path d="M53.8577 9.61266H55.3321L59.3344 18.8344H57.6492L56.754 16.5956H52.4885L51.5406 18.8344H49.9081L53.8577 9.61266ZM56.1221 15.2097L54.5422 11.5316L52.9624 15.2097H56.1221Z" fill="white"/>
<path d="M60.8615 9.66595H64.2318C67.0755 9.66595 69.0239 11.6382 69.0239 14.2502C69.0239 16.8088 67.0755 18.8344 64.2318 18.8344H60.8615V9.66595ZM64.2318 17.3952C66.1276 17.3952 67.3914 16.1158 67.3914 14.3035C67.3914 12.4911 66.1276 11.1585 64.2318 11.1585H62.4413V17.3952H64.2318Z" fill="white"/>
<path d="M70.9724 9.66595H77.7129V11.1052H72.6049V13.5039H77.1337V14.9431H72.6049V17.3952H77.8183V18.8344H71.025V9.66595H70.9724Z" fill="white"/>
<path d="M79.6614 9.66595H83.7163C84.8748 9.66595 85.77 9.98578 86.3493 10.5721C86.8232 11.0519 87.0865 11.7448 87.0865 12.5444C87.0865 14.037 86.1913 14.9431 84.9275 15.3163L87.3498 18.7811H85.4541L83.2423 15.5828H81.2412V18.7811H79.6614V9.66595ZM83.6109 14.1969C84.7695 14.1969 85.4541 13.6105 85.4541 12.651C85.4541 11.6915 84.7695 11.1052 83.5583 11.1052H81.2412V14.1969H83.6109Z" fill="white"/>
<path d="M92.5106 14.2502C92.5106 11.6382 94.459 9.45274 97.25 9.45274C100.041 9.45274 101.99 11.5849 101.99 14.1969C101.99 16.7555 100.041 18.941 97.25 18.941C94.459 18.9943 92.5106 16.8621 92.5106 14.2502ZM100.304 14.2502C100.304 12.4378 99.0405 10.9453 97.1974 10.9453C95.4069 10.9453 94.1431 12.3845 94.1431 14.1969C94.1431 15.9559 95.4069 17.4485 97.25 17.4485C99.0932 17.5018 100.304 16.0626 100.304 14.2502Z" fill="white"/>
<path d="M103.938 9.66595H105.412L110.257 16.0092V9.66595H111.837V18.8344H110.521L105.518 12.3312V18.8344H103.938V9.66595Z" fill="white"/>
<path d="M114.154 9.66595H120.895V11.1052H115.787V13.5039H120.315V14.9431H115.787V17.3952H121V18.8344H114.207V9.66595H114.154Z" fill="white"/>
</g>
<defs>
<clipPath id="clip0">
<rect width="121" height="27" fill="white"/>
</clipPath>
</defs>
</svg>
