<svg width="138" height="33" viewBox="0 0 138 33" fill="none" xmlns="http://www.w3.org/2000/svg">
<path fill-rule="evenodd" clip-rule="evenodd" d="M58.3214 13.9347V25.7645H54.878V13.9347C54.878 13.0373 55.6339 12.2214 56.6417 12.2214C57.5655 12.2214 58.3214 12.9557 58.3214 13.9347ZM83.2655 19.972H72.0952C72.2632 20.9511 72.6832 21.6853 73.355 22.2565C74.027 22.8275 74.9508 23.0723 76.0426 23.0723C77.3024 23.0723 78.4783 22.6644 79.4021 21.7669L82.3416 23.0723C81.5858 24.0513 80.7459 24.8671 79.738 25.3566C78.7302 25.8462 77.4704 26.0909 76.1266 26.0909C73.9429 26.0909 72.1793 25.4383 70.8355 24.0513C69.4917 22.7459 68.8198 21.0326 68.8198 19.0746C68.8198 17.035 69.4917 15.3217 70.8355 13.9347C72.0952 12.5478 73.859 11.8951 75.8747 11.8951C78.0583 11.8951 79.8221 12.5478 81.2498 13.9347C82.5936 15.3217 83.2655 17.1165 83.2655 19.3194V19.972ZM79.8221 17.2797C79.5701 16.5455 79.1501 15.9744 78.4783 15.4848C77.8063 14.9953 77.0504 14.8322 76.1266 14.8322C75.1188 14.8322 74.2789 15.0769 73.5231 15.648C73.1031 15.9744 72.5991 16.5455 72.2632 17.3613H79.8221V17.2797V17.2797ZM64.5365 7V12.2214H67.56V15.1585H64.5365V25.7645H61.093V7H64.5365ZM39.5085 7H43.0359V13.6084C43.7078 13.0373 44.3797 12.6294 45.0516 12.303C45.7234 12.0583 46.4793 11.8951 47.1513 11.8951C48.495 11.8951 49.6708 12.3846 50.5947 13.2821C51.4345 14.0979 51.7705 15.2401 51.7705 16.7902V25.7645H48.327V19.8088C48.327 18.2587 48.2431 17.1981 48.0751 16.627C47.9071 16.0559 47.6552 15.648 47.3192 15.4033C46.9832 15.1585 46.4793 14.9953 45.9754 14.9953C45.3036 14.9953 44.6316 15.2401 44.1277 15.648C43.6238 16.1375 43.2878 16.7086 43.1198 17.5245C43.0359 17.9324 43.0359 18.9115 43.0359 20.2984V25.7645H39.5924V7H39.5085ZM17 12.2214H20.3595L23.215 19.8905L26.2385 12.2214H28.3382L31.2777 19.8088L34.0493 12.2214H37.4928L32.4536 25.7645H30.2699L27.2464 18.0955L24.2229 25.7645H22.0392L17 12.2214Z" fill="white"/>
<path fill-rule="evenodd" clip-rule="evenodd" d="M56.5753 10.6364C57.6157 10.6364 58.416 9.86267 58.416 8.85686C58.416 7.85106 57.5357 7 56.5753 7C55.535 7 54.7346 7.77369 54.7346 8.7795C54.7346 9.7853 55.535 10.6364 56.5753 10.6364Z" fill="#C0AB59"/>
<path d="M107.195 7.90918H103.513V26.091H107.195V7.90918Z" fill="#C0AB59"/>
<path fill-rule="evenodd" clip-rule="evenodd" d="M110.876 7.90911H121V11.3182H117.653V26.0909H114.142V11.3182H110.876V7.90911ZM86.0978 7.83605H86.9666V7.9674L86.3726 9.1671L86.1598 9.06202L86.6564 8.06373H86.0978V7.83605V7.83605ZM87.1085 7.83605H87.9773V7.9674L87.3833 9.17586L87.1706 9.07078L87.6581 8.06373H87.1085V7.83605V7.83605ZM88.5358 7.80103L88.7486 7.90611L88.5181 8.35271C88.6333 8.35271 88.722 8.39649 88.8018 8.47531C88.8815 8.55412 88.917 8.65045 88.917 8.77304C88.917 8.88689 88.8727 8.98321 88.7929 9.06202C88.7131 9.14083 88.6156 9.18462 88.5003 9.18462C88.3851 9.18462 88.2787 9.14083 88.1989 9.06202C88.1191 8.98321 88.0837 8.88689 88.0837 8.7818C88.0837 8.73801 88.0925 8.70299 88.1014 8.6592C88.1103 8.61542 88.1457 8.55412 88.1901 8.46655L88.5358 7.80103V7.80103ZM88.5092 8.58039C88.4649 8.58039 88.4206 8.5979 88.394 8.63293C88.3585 8.66796 88.3496 8.71175 88.3496 8.75553C88.3496 8.80807 88.3674 8.85186 88.4028 8.87813C88.4383 8.91316 88.4737 8.93067 88.5181 8.93067C88.5624 8.93067 88.6067 8.91316 88.6422 8.87813C88.6777 8.8431 88.6954 8.79931 88.6954 8.74678C88.6954 8.69423 88.6777 8.65045 88.6422 8.62418C88.5979 8.5979 88.5535 8.58039 88.5092 8.58039V8.58039ZM89.8035 8.43152C89.8657 8.46655 89.9099 8.51909 89.9454 8.58039C89.9809 8.64169 89.9986 8.70299 89.9986 8.77304C89.9986 8.85186 89.9809 8.92191 89.9454 8.98321C89.9099 9.04451 89.8567 9.09705 89.7947 9.12332C89.7327 9.15835 89.6529 9.17586 89.5465 9.17586C89.4401 9.17586 89.3514 9.15835 89.2893 9.13208C89.2273 9.09705 89.1741 9.05327 89.1387 8.99197C89.1032 8.93067 89.0855 8.86061 89.0855 8.7818C89.0855 8.71175 89.1032 8.65045 89.1298 8.5979C89.1564 8.54537 89.2096 8.49282 89.2628 8.44904C89.2273 8.40525 89.1919 8.37022 89.1741 8.32644C89.1564 8.28266 89.1475 8.23887 89.1475 8.18633C89.1475 8.11628 89.1653 8.05498 89.2007 8.00243C89.2362 7.94989 89.2805 7.90611 89.3425 7.87108C89.378 7.81854 89.4489 7.80103 89.5287 7.80103C89.6085 7.80103 89.6706 7.81854 89.7327 7.84481C89.7947 7.87984 89.8391 7.92362 89.8745 7.97617C89.9099 8.03746 89.9277 8.09876 89.9277 8.16881C89.9277 8.2126 89.9189 8.25639 89.9011 8.30017C89.8833 8.33519 89.8479 8.37899 89.8035 8.43152V8.43152ZM89.5199 8.03746C89.4755 8.03746 89.4401 8.05498 89.4223 8.08125C89.3957 8.10752 89.3781 8.14255 89.3781 8.18633C89.3781 8.23011 89.3957 8.26514 89.4223 8.29141C89.4489 8.31769 89.4844 8.33519 89.5287 8.33519C89.5731 8.33519 89.6085 8.31769 89.6351 8.29141C89.6617 8.26514 89.6795 8.23011 89.6795 8.18633C89.6795 8.14255 89.6617 8.10752 89.6351 8.08125C89.5997 8.05498 89.5642 8.03746 89.5199 8.03746ZM89.5287 8.56288C89.4667 8.56288 89.4135 8.58039 89.3781 8.61542C89.3337 8.65045 89.3159 8.69423 89.3159 8.74678C89.3159 8.79931 89.3337 8.8431 89.3781 8.87813C89.4135 8.91316 89.4667 8.93067 89.5287 8.93067C89.5908 8.93067 89.644 8.91316 89.6795 8.87813C89.7149 8.8431 89.7327 8.79931 89.7327 8.74678C89.7327 8.69423 89.7149 8.65045 89.6706 8.61542C89.644 8.58039 89.5908 8.56288 89.5287 8.56288V8.56288ZM90.5571 7.80103L90.7699 7.90611L90.5394 8.35271C90.6547 8.35271 90.7433 8.39649 90.8231 8.47531C90.9029 8.55412 90.9383 8.65045 90.9383 8.77304C90.9383 8.88689 90.8941 8.98321 90.8143 9.06202C90.7345 9.14083 90.6369 9.18462 90.5217 9.18462C90.4065 9.18462 90.3001 9.14083 90.2203 9.06202C90.1405 8.98321 90.1049 8.88689 90.1049 8.7818C90.1049 8.73801 90.1139 8.70299 90.1227 8.6592C90.1315 8.61542 90.1671 8.55412 90.2113 8.46655L90.5571 7.80103V7.80103ZM90.5217 8.58039C90.4773 8.58039 90.433 8.5979 90.4065 8.63293C90.3709 8.66796 90.3621 8.71175 90.3621 8.75553C90.3621 8.80807 90.3799 8.85186 90.4153 8.87813C90.4507 8.91316 90.4862 8.93067 90.5305 8.93067C90.5749 8.93067 90.6192 8.91316 90.6547 8.87813C90.6901 8.8431 90.7079 8.79931 90.7079 8.74678C90.7079 8.69423 90.6901 8.65045 90.6547 8.62418C90.6192 8.5979 90.5749 8.58039 90.5217 8.58039V8.58039ZM91.5323 9.1671L91.3195 9.06202L91.5501 8.61542C91.4348 8.62418 91.3373 8.58039 91.2575 8.50158C91.1777 8.42277 91.1423 8.32644 91.1423 8.20384C91.1423 8.09 91.1865 7.99368 91.2663 7.91487C91.3461 7.84481 91.4437 7.80103 91.5589 7.80103C91.6742 7.80103 91.7805 7.84481 91.8603 7.92362C91.9401 8.00243 91.9756 8.09876 91.9756 8.20384C91.9756 8.24763 91.9667 8.28266 91.9579 8.32644C91.949 8.37022 91.9135 8.43152 91.8692 8.51034L91.5323 9.1671ZM91.5589 8.38774C91.6033 8.38774 91.6476 8.37022 91.6741 8.33519C91.7097 8.30017 91.7185 8.25639 91.7185 8.2126C91.7185 8.16006 91.7007 8.11628 91.6653 8.08125C91.6299 8.04622 91.5944 8.0287 91.5501 8.0287C91.5057 8.0287 91.4614 8.04622 91.4259 8.08125C91.3905 8.11628 91.3727 8.16006 91.3727 8.2126C91.3727 8.26514 91.3905 8.30893 91.4259 8.33519C91.4703 8.37022 91.5146 8.38774 91.5589 8.38774V8.38774ZM92.1529 7.83605H93.0217V7.9674L92.4277 9.17586L92.2149 9.07078L92.7026 8.06373H92.1529V7.83605ZM93.66 7.80103H93.9082V8.64169H94.0235V8.86937H93.9082V9.13208H93.66V8.86937H93.0838V8.64169L93.66 7.80103V7.80103ZM93.6689 8.64169V8.20384L93.3675 8.64169H93.6689V8.64169ZM94.5909 7.80103L94.8036 7.90611L94.5732 8.35271C94.6884 8.35271 94.777 8.39649 94.8568 8.47531C94.9366 8.55412 94.9721 8.65045 94.9721 8.77304C94.9721 8.88689 94.9278 8.98321 94.848 9.06202C94.7682 9.14083 94.6706 9.18462 94.5554 9.18462C94.4402 9.18462 94.3338 9.14083 94.254 9.06202C94.1742 8.98321 94.1388 8.88689 94.1388 8.7818C94.1388 8.73801 94.1476 8.70299 94.1565 8.6592C94.1654 8.61542 94.2008 8.55412 94.2452 8.46655L94.5909 7.80103V7.80103ZM94.5643 8.58039C94.52 8.58039 94.4756 8.5979 94.449 8.63293C94.4136 8.66796 94.4048 8.71175 94.4048 8.75553C94.4048 8.80807 94.4224 8.85186 94.4579 8.87813C94.4934 8.91316 94.5288 8.93067 94.5732 8.93067C94.6175 8.93067 94.6618 8.91316 94.6972 8.87813C94.7328 8.8431 94.7504 8.79931 94.7504 8.74678C94.7504 8.69423 94.7328 8.65045 94.6972 8.62418C94.653 8.5979 94.6086 8.58039 94.5643 8.58039V8.58039ZM95.371 7.83605H95.9916V8.06373H95.5572L95.5129 8.30017C95.5306 8.30017 95.5395 8.29141 95.5572 8.29141H95.6016C95.7168 8.29141 95.8232 8.33519 95.903 8.41401C95.9828 8.49282 96.0182 8.5979 96.0182 8.7205C96.0182 8.85186 95.9739 8.95694 95.8852 9.04451C95.7966 9.13208 95.6902 9.17586 95.566 9.17586C95.4508 9.17586 95.3534 9.14083 95.2736 9.07954C95.1938 9.01824 95.1406 8.93067 95.114 8.81683H95.38C95.3976 8.86061 95.4242 8.88689 95.4597 8.91316C95.4952 8.93067 95.5306 8.94819 95.566 8.94819C95.6192 8.94819 95.6724 8.93067 95.708 8.88689C95.7434 8.85186 95.77 8.79931 95.77 8.73801C95.77 8.67672 95.7522 8.63293 95.7168 8.58915C95.6814 8.55412 95.637 8.52785 95.5838 8.52785C95.5572 8.52785 95.5306 8.5366 95.504 8.54537C95.4774 8.56288 95.4508 8.58039 95.4242 8.60666L95.2204 8.56288L95.371 7.83605V7.83605ZM94.3782 9.97274H94.1299C94.1388 9.83263 94.1831 9.71879 94.2628 9.63998C94.3426 9.56117 94.449 9.51739 94.582 9.51739C94.6618 9.51739 94.7328 9.53489 94.7948 9.56992C94.8568 9.60495 94.9012 9.64874 94.9455 9.71879C94.981 9.78009 94.9987 9.85015 94.9987 9.91145C94.9987 9.99026 94.9721 10.0691 94.9278 10.1654C94.8834 10.253 94.8036 10.358 94.6796 10.4806L94.5288 10.6383H94.9987V10.8659H94.0944V10.7433L94.5022 10.3318C94.5998 10.2354 94.6706 10.1566 94.6972 10.0953C94.7328 10.034 94.7504 9.9815 94.7504 9.92896C94.7504 9.87641 94.7328 9.84139 94.6972 9.80636C94.6618 9.77133 94.6175 9.75382 94.5643 9.75382C94.5111 9.75382 94.4668 9.77133 94.4313 9.81512C94.4048 9.85015 94.3782 9.90269 94.3782 9.97274ZM95.575 9.51739C95.6724 9.51739 95.7522 9.54366 95.8232 9.58744C95.8942 9.63122 95.9473 9.70128 95.9828 9.7976C96.0182 9.89393 96.036 10.0253 96.036 10.2004C96.036 10.3756 96.0182 10.5069 95.9739 10.6032C95.9384 10.6996 95.8852 10.7696 95.8144 10.8134C95.7522 10.8572 95.6636 10.8835 95.566 10.8835C95.4686 10.8835 95.38 10.8572 95.3178 10.8134C95.247 10.7696 95.1938 10.6996 95.1582 10.6032C95.1228 10.5069 95.105 10.3756 95.105 10.2092C95.105 9.97274 95.1406 9.7976 95.2204 9.69252C95.3178 9.57869 95.4332 9.51739 95.575 9.51739V9.51739ZM95.5838 9.75382C95.5395 9.75382 95.504 9.76258 95.4686 9.7976C95.4332 9.82388 95.4066 9.86766 95.3888 9.93771C95.371 9.99901 95.3622 10.0953 95.3622 10.2267C95.3622 10.3931 95.38 10.5069 95.4242 10.5682C95.4597 10.6295 95.5129 10.6645 95.575 10.6645C95.637 10.6645 95.6814 10.6383 95.7168 10.577C95.7612 10.5069 95.7788 10.3843 95.7788 10.2179C95.7788 10.0516 95.7612 9.92896 95.7168 9.86766C95.699 9.78885 95.6458 9.75382 95.5838 9.75382V9.75382ZM96.1866 9.55241H97.0555V9.68377L96.4615 10.8922L96.2488 10.7871L96.7452 9.78009H96.1956V9.55241H96.1866V9.55241ZM97.1973 9.55241H98.0661V9.68377L97.4633 10.8922L97.2505 10.7871L97.747 9.78009H97.1973V9.55241ZM89.511 12.6086L89.2983 12.5035L89.5287 12.0569C89.4135 12.0569 89.3249 12.0131 89.2451 11.9343C89.1653 11.8555 89.1298 11.7592 89.1298 11.6366C89.1298 11.5227 89.1741 11.4264 89.2539 11.3476C89.3337 11.2688 89.4312 11.225 89.5465 11.225C89.6617 11.225 89.7681 11.2688 89.8479 11.3476C89.9277 11.4264 89.9631 11.5227 89.9631 11.6278C89.9631 11.6716 89.9543 11.7066 89.9454 11.7504C89.9365 11.7942 89.9011 11.8555 89.8567 11.9343L89.511 12.6086V12.6086ZM89.5465 11.8205C89.5908 11.8205 89.6351 11.8029 89.6617 11.7679C89.6971 11.7329 89.7061 11.6891 89.7061 11.6453C89.7061 11.5928 89.6883 11.549 89.6529 11.514C89.6174 11.4789 89.5819 11.4614 89.5376 11.4614C89.4933 11.4614 89.4489 11.4789 89.4135 11.514C89.3781 11.549 89.3603 11.5928 89.3603 11.6453C89.3603 11.6979 89.3781 11.7416 89.4135 11.7679C89.4578 11.8029 89.4933 11.8205 89.5465 11.8205V11.8205ZM96.9934 14.6752C97.091 14.6752 97.1707 14.7015 97.2416 14.7453C97.3126 14.7891 97.3658 14.8591 97.4012 14.9554C97.4367 15.0518 97.4544 15.1831 97.4544 15.3583C97.4544 15.5334 97.4367 15.6647 97.3924 15.7611C97.3569 15.8574 97.3037 15.9275 97.2328 15.9712C97.1707 16.015 97.0821 16.0413 96.9846 16.0413C96.887 16.0413 96.7984 16.015 96.7363 15.9712C96.6654 15.9275 96.6122 15.8574 96.5768 15.7611C96.5413 15.6647 96.5236 15.5334 96.5236 15.367C96.5236 15.1306 96.559 14.9554 96.6388 14.8503C96.7274 14.7278 96.8427 14.6752 96.9934 14.6752ZM97.0023 14.9116C96.958 14.9116 96.9225 14.9204 96.887 14.9554C96.8516 14.9817 96.825 15.0255 96.8161 15.0955C96.7984 15.1568 96.7895 15.2532 96.7895 15.3845C96.7895 15.5509 96.8072 15.6647 96.8516 15.726C96.887 15.7873 96.9402 15.8224 97.0023 15.8224C97.0644 15.8224 97.1087 15.7961 97.1441 15.7348C97.1884 15.6647 97.2062 15.5421 97.2062 15.3758C97.2062 15.2094 97.1884 15.0868 97.1441 15.0255C97.1087 14.9379 97.0644 14.9116 97.0023 14.9116V14.9116ZM87.1085 16.4178H87.9773V16.5492L87.3833 17.7577L87.1706 17.6526L87.667 16.6456H87.1174V16.4178H87.1085V16.4178ZM92.543 17.7577L92.3302 17.6526L92.5607 17.2059C92.4455 17.2059 92.3568 17.1622 92.277 17.0834C92.1972 17.0046 92.1618 16.9082 92.1618 16.7857C92.1618 16.6717 92.2061 16.5755 92.2859 16.4967C92.3657 16.4178 92.4632 16.374 92.5785 16.374C92.6937 16.374 92.8001 16.4178 92.8799 16.4967C92.9597 16.5755 92.9951 16.6717 92.9951 16.7768C92.9951 16.8207 92.9863 16.8557 92.9774 16.8995C92.9685 16.9433 92.9331 17.0046 92.8887 17.0834L92.543 17.7577V17.7577ZM92.5696 16.9783C92.6139 16.9783 92.6582 16.9607 92.6848 16.9257C92.7203 16.8907 92.7292 16.8469 92.7292 16.8031C92.7292 16.7506 92.7114 16.7068 92.676 16.6717C92.6405 16.6367 92.605 16.6193 92.5607 16.6193C92.5164 16.6193 92.4721 16.6367 92.4366 16.6717C92.4011 16.7068 92.3834 16.7506 92.3834 16.8031C92.3834 16.8557 92.4011 16.8995 92.4366 16.9257C92.4809 16.9607 92.5253 16.9783 92.5696 16.9783V16.9783ZM96.3817 16.4178H97.0023V16.6456H96.5679L96.5147 16.8819C96.5324 16.8819 96.5413 16.8732 96.559 16.8732H96.6034C96.7186 16.8732 96.825 16.917 96.9048 16.9958C96.9846 17.0746 97.02 17.1797 97.02 17.3023C97.02 17.4337 96.9757 17.5387 96.887 17.6263C96.7984 17.7138 96.692 17.7577 96.5679 17.7577C96.4526 17.7577 96.3551 17.7227 96.2754 17.6613C96.1956 17.6 96.1424 17.5125 96.1158 17.3987H96.3817C96.3994 17.4424 96.426 17.4687 96.4615 17.4949C96.497 17.5125 96.5324 17.5299 96.5679 17.5299C96.6211 17.5299 96.6742 17.5125 96.7098 17.4687C96.7452 17.4337 96.7718 17.3811 96.7718 17.3198C96.7718 17.2585 96.754 17.2147 96.7186 17.1709C96.6832 17.1359 96.6388 17.1097 96.5856 17.1097C96.559 17.1097 96.5324 17.1184 96.5058 17.1271C96.4792 17.1447 96.4526 17.1622 96.426 17.1885L96.2222 17.1447L96.3817 16.4178V16.4178ZM89.6263 18.1079H89.8745V18.9486H89.9897V19.1763H89.8745V19.439H89.6263V19.1763H89.05V18.9486L89.6263 18.1079ZM89.6263 18.9486V18.5107L89.3249 18.9486H89.6263ZM98.0218 18.5633H97.7736C97.7824 18.4232 97.8268 18.3093 97.9066 18.2306C97.9863 18.1517 98.0927 18.1079 98.2257 18.1079C98.3055 18.1079 98.3764 18.1255 98.4385 18.1605C98.5005 18.1955 98.5449 18.2393 98.5892 18.3006C98.6247 18.3618 98.6424 18.4319 98.6424 18.4932C98.6424 18.572 98.6158 18.6508 98.5715 18.7472C98.5271 18.8347 98.4473 18.9398 98.3232 19.0625L98.1725 19.22H98.6424V19.4477H97.7293V19.3251L98.1371 18.9136C98.2346 18.8172 98.3055 18.7384 98.3321 18.6771C98.3676 18.6158 98.3853 18.5633 98.3853 18.5107C98.3853 18.4582 98.3676 18.4232 98.3321 18.3881C98.2966 18.3531 98.2523 18.3356 98.1991 18.3356C98.1459 18.3356 98.1016 18.3531 98.0661 18.3969C98.0484 18.4407 98.0218 18.4932 98.0218 18.5633V18.5633ZM99.2275 18.1079C99.3251 18.1079 99.4048 18.1342 99.4757 18.178C99.5467 18.2217 99.5999 18.2918 99.6353 18.3881C99.6707 18.4845 99.6885 18.6158 99.6885 18.7909C99.6885 18.9661 99.6707 19.0975 99.6265 19.1937C99.591 19.2901 99.5378 19.3602 99.4669 19.4039C99.4048 19.4477 99.3161 19.474 99.2187 19.474C99.1211 19.474 99.0325 19.4477 98.9704 19.4039C98.8995 19.3602 98.8463 19.2901 98.8109 19.1937C98.7754 19.0975 98.7577 18.9661 98.7577 18.7997C98.7577 18.5633 98.7931 18.3881 98.8729 18.2831C98.9615 18.1692 99.0768 18.1079 99.2275 18.1079V18.1079ZM99.2275 18.3444C99.1832 18.3444 99.1477 18.3531 99.1123 18.3881C99.0768 18.4144 99.0502 18.4582 99.0325 18.5283C99.0147 18.5896 99.0059 18.6859 99.0059 18.8172C99.0059 18.9837 99.0236 19.0975 99.0679 19.1587C99.1034 19.22 99.1566 19.2551 99.2187 19.2551C99.2807 19.2551 99.3251 19.2288 99.3605 19.1675C99.4048 19.0975 99.4225 18.9748 99.4225 18.8085C99.4225 18.6421 99.4048 18.5195 99.3605 18.4582C99.3427 18.3794 99.2895 18.3444 99.2275 18.3444V18.3444ZM86.0978 19.8593H86.9666V19.9907L86.3726 21.1991L86.1598 21.094L86.6564 20.087H86.0978V19.8593V19.8593ZM87.1085 19.8593H87.9773V19.9907L87.3833 21.1991L87.1706 21.094L87.667 20.087H87.1174V19.8593H87.1085V19.8593ZM88.5358 19.8243L88.7486 19.9294L88.5181 20.3759C88.6333 20.3759 88.722 20.4197 88.8018 20.4986C88.8815 20.5774 88.917 20.6737 88.917 20.7963C88.917 20.9101 88.8727 21.0065 88.7929 21.0853C88.7131 21.1641 88.6156 21.2078 88.5003 21.2078C88.3851 21.2078 88.2787 21.1641 88.1989 21.0853C88.1191 21.0065 88.0837 20.9101 88.0837 20.805C88.0837 20.7613 88.0925 20.7263 88.1014 20.6825C88.1103 20.6387 88.1457 20.5774 88.1901 20.4898L88.5358 19.8243ZM88.5092 20.6037C88.4649 20.6037 88.4206 20.6212 88.394 20.6562C88.3585 20.6912 88.3496 20.735 88.3496 20.7787C88.3496 20.8313 88.3674 20.8751 88.4028 20.9014C88.4383 20.9364 88.4737 20.9539 88.5181 20.9539C88.5624 20.9539 88.6067 20.9364 88.6422 20.9014C88.6777 20.8664 88.6954 20.8226 88.6954 20.77C88.6954 20.7175 88.6777 20.6737 88.6422 20.6475C88.5979 20.6212 88.5535 20.6037 88.5092 20.6037V20.6037ZM89.8035 20.4547C89.8657 20.4898 89.9099 20.5424 89.9454 20.6037C89.9809 20.6649 89.9986 20.7263 89.9986 20.7963C89.9986 20.8751 89.9809 20.9452 89.9454 21.0065C89.9099 21.0677 89.8567 21.1203 89.7947 21.1466C89.7327 21.1816 89.6529 21.1991 89.5465 21.1991C89.4401 21.1991 89.3514 21.1816 89.2893 21.1554C89.2273 21.1203 89.1741 21.0766 89.1387 21.0152C89.1032 20.9539 89.0855 20.8838 89.0855 20.805C89.0855 20.735 89.1032 20.6737 89.1298 20.6212C89.1564 20.5687 89.2096 20.5161 89.2628 20.4723C89.2273 20.4285 89.1919 20.3935 89.1741 20.3497C89.1564 20.3059 89.1475 20.2621 89.1475 20.2096C89.1475 20.1396 89.1653 20.0782 89.2007 20.0257C89.2362 19.9731 89.2805 19.9294 89.3425 19.8944C89.4046 19.8593 89.4755 19.8506 89.5465 19.8506C89.6263 19.8506 89.6883 19.8681 89.7503 19.8944C89.8125 19.9294 89.8567 19.9731 89.8923 20.0257C89.9277 20.087 89.9454 20.1483 89.9454 20.2096C89.9454 20.2534 89.9365 20.2972 89.9188 20.3409C89.8833 20.3585 89.8479 20.4022 89.8035 20.4547V20.4547ZM89.5199 20.0607C89.4755 20.0607 89.4401 20.0782 89.4223 20.1045C89.3957 20.1307 89.3781 20.1658 89.3781 20.2096C89.3781 20.2534 89.3957 20.2884 89.4223 20.3147C89.4489 20.3409 89.4844 20.3585 89.5287 20.3585C89.5731 20.3585 89.6085 20.3409 89.6351 20.3147C89.6617 20.2884 89.6795 20.2534 89.6795 20.2096C89.6795 20.1658 89.6617 20.1307 89.6351 20.1045C89.5997 20.0782 89.5642 20.0607 89.5199 20.0607ZM89.5287 20.5861C89.4667 20.5861 89.4135 20.6037 89.3781 20.6387C89.3337 20.6737 89.3159 20.7175 89.3159 20.77C89.3159 20.8226 89.3337 20.8664 89.3781 20.9014C89.4135 20.9364 89.4667 20.9539 89.5287 20.9539C89.5908 20.9539 89.644 20.9364 89.6795 20.9014C89.7149 20.8664 89.7327 20.8226 89.7327 20.77C89.7327 20.7175 89.7149 20.6737 89.6706 20.6387C89.644 20.6037 89.5908 20.5861 89.5287 20.5861V20.5861ZM95.7256 19.8243L95.9384 19.9294L95.708 20.3759C95.8232 20.3759 95.9118 20.4197 95.9916 20.4986C96.0714 20.5774 96.1068 20.6737 96.1068 20.7963C96.1068 20.9101 96.0626 21.0065 95.9828 21.0853C95.903 21.1641 95.8054 21.2078 95.6902 21.2078C95.575 21.2078 95.4686 21.1641 95.3888 21.0853C95.309 21.0065 95.2736 20.9101 95.2736 20.805C95.2736 20.7613 95.2824 20.7263 95.2912 20.6825C95.3002 20.6387 95.3356 20.5774 95.38 20.4898L95.7256 19.8243V19.8243ZM95.6902 20.6037C95.6458 20.6037 95.6016 20.6212 95.575 20.6562C95.5395 20.6912 95.5306 20.735 95.5306 20.7787C95.5306 20.8313 95.5484 20.8751 95.5838 20.9014C95.6192 20.9364 95.6548 20.9539 95.699 20.9539C95.7434 20.9539 95.7878 20.9364 95.8232 20.9014C95.8586 20.8664 95.8764 20.8226 95.8764 20.77C95.8764 20.7175 95.8586 20.6737 95.8232 20.6475C95.7878 20.6212 95.7434 20.6037 95.6902 20.6037V20.6037ZM96.7008 21.1904L96.4881 21.0853L96.7186 20.6387C96.6034 20.6387 96.5147 20.5949 96.4349 20.5161C96.3551 20.4373 96.3196 20.3409 96.3196 20.2184C96.3196 20.1045 96.364 20.0082 96.4438 19.9294C96.5236 19.8506 96.621 19.8067 96.7363 19.8067C96.8516 19.8067 96.958 19.8506 97.0378 19.9294C97.1176 20.0082 97.153 20.1045 97.153 20.2096C97.153 20.2534 97.1441 20.2884 97.1353 20.3322C97.1264 20.3759 97.091 20.4373 97.0466 20.5161L96.7008 21.1904V21.1904ZM96.7274 20.411C96.7718 20.411 96.8161 20.3935 96.8427 20.3585C96.8782 20.3235 96.887 20.2797 96.887 20.2358C96.887 20.1833 96.8693 20.1396 96.8338 20.1045C96.7984 20.0695 96.7629 20.0519 96.7186 20.0519C96.6743 20.0519 96.63 20.0695 96.5945 20.1045C96.559 20.1396 96.5413 20.1833 96.5413 20.2358C96.5413 20.2884 96.559 20.3322 96.5945 20.3585C96.6388 20.3935 96.6832 20.411 96.7274 20.411V20.411ZM97.3214 19.8593H98.1903V19.9907L97.5963 21.1991L97.3835 21.094L97.88 20.087H97.3303V19.8593H97.3214ZM98.8285 19.8243H99.0768V20.6649H99.1921V20.8927H99.0768V21.1554H98.8285V20.8927H98.2523V20.6649L98.8285 19.8243ZM98.8285 20.6649V20.2271L98.5271 20.6649H98.8285ZM99.7595 19.8243L99.9722 19.9294L99.7417 20.3759C99.8569 20.3759 99.9456 20.4197 100.025 20.4986C100.105 20.5774 100.141 20.6737 100.141 20.7963C100.141 20.9101 100.096 21.0065 100.017 21.0853C99.9367 21.1641 99.8393 21.2078 99.7239 21.2078C99.6087 21.2078 99.5023 21.1641 99.4225 21.0853C99.3427 21.0065 99.3073 20.9101 99.3073 20.805C99.3073 20.7613 99.3161 20.7263 99.3251 20.6825C99.3339 20.6387 99.3693 20.5774 99.4137 20.4898L99.7595 19.8243ZM99.7329 20.6037C99.6885 20.6037 99.6441 20.6212 99.6176 20.6562C99.5821 20.6912 99.5733 20.735 99.5733 20.7787C99.5733 20.8313 99.591 20.8751 99.6265 20.9014C99.6619 20.9364 99.6973 20.9539 99.7417 20.9539C99.7861 20.9539 99.8303 20.9364 99.8658 20.9014C99.9013 20.8664 99.919 20.8226 99.919 20.77C99.919 20.7175 99.9013 20.6737 99.8658 20.6475C99.8215 20.6212 99.7771 20.6037 99.7329 20.6037V20.6037ZM86.2928 21.5757H86.9134V21.8034H86.479L86.4258 22.0397C86.4436 22.0397 86.4524 22.031 86.4702 22.031H86.5145C86.6298 22.031 86.7362 22.0748 86.8159 22.1537C86.8957 22.2325 86.9312 22.3376 86.9312 22.4601C86.9312 22.5915 86.8868 22.6966 86.7982 22.7841C86.7096 22.8717 86.6032 22.9155 86.479 22.9155C86.3638 22.9155 86.2662 22.8805 86.1864 22.8191C86.1067 22.7578 86.0535 22.6703 86.0269 22.5565H86.2928C86.3106 22.6002 86.3372 22.6265 86.3726 22.6527C86.4081 22.6703 86.4436 22.6878 86.479 22.6878C86.5322 22.6878 86.5854 22.6703 86.6209 22.6265C86.6564 22.5915 86.683 22.5389 86.683 22.4777C86.683 22.4163 86.6652 22.3726 86.6298 22.3287C86.5943 22.2937 86.55 22.2675 86.4968 22.2675C86.4702 22.2675 86.4436 22.2762 86.417 22.285C86.3904 22.3025 86.3638 22.32 86.3372 22.3463L86.1332 22.3025L86.2928 21.5757V21.5757ZM87.3212 21.996H87.073C87.0819 21.8559 87.1262 21.742 87.206 21.6632C87.2858 21.5844 87.3922 21.5407 87.5252 21.5407C87.605 21.5407 87.6759 21.5582 87.7379 21.5932C87.8 21.6282 87.8443 21.672 87.8886 21.7333C87.9241 21.7946 87.9418 21.8647 87.9418 21.9259C87.9418 22.0047 87.9152 22.0836 87.8709 22.1799C87.8266 22.2675 87.7468 22.3726 87.6227 22.4951L87.472 22.6527H87.9418V22.8805H87.0376V22.7578L87.4454 22.3463C87.5429 22.2499 87.6138 22.1711 87.6404 22.1098C87.6759 22.0486 87.6936 21.996 87.6936 21.9435C87.6936 21.8909 87.6759 21.8559 87.6404 21.8208C87.605 21.7858 87.5606 21.7683 87.5074 21.7683C87.4542 21.7683 87.4099 21.7858 87.3744 21.8297C87.339 21.8734 87.3212 21.9259 87.3212 21.996V21.996ZM88.5181 21.5407C88.6156 21.5407 88.6954 21.5669 88.7663 21.6107C88.8372 21.6545 88.8904 21.7246 88.9259 21.8208C88.9613 21.9172 88.9791 22.0486 88.9791 22.2237C88.9791 22.3988 88.9613 22.5302 88.917 22.6265C88.8815 22.7228 88.8284 22.7929 88.7575 22.8367C88.6954 22.8805 88.6067 22.9067 88.5092 22.9067C88.4117 22.9067 88.323 22.8805 88.261 22.8367C88.1901 22.7929 88.1369 22.7228 88.1014 22.6265C88.0659 22.5302 88.0482 22.3988 88.0482 22.2325C88.0482 21.996 88.0837 21.8208 88.1635 21.7157C88.2521 21.6019 88.3674 21.5407 88.5181 21.5407V21.5407ZM88.5269 21.7771C88.4826 21.7771 88.4471 21.7858 88.4117 21.8208C88.3762 21.8471 88.3496 21.8909 88.3408 21.961C88.323 22.0223 88.3142 22.1186 88.3142 22.2499C88.3142 22.4163 88.3319 22.5302 88.3762 22.5915C88.4117 22.6527 88.4649 22.6878 88.5269 22.6878C88.589 22.6878 88.6333 22.6616 88.6688 22.6002C88.7131 22.5302 88.7309 22.4076 88.7309 22.2412C88.7309 22.0748 88.7131 21.9522 88.6688 21.8909C88.6333 21.8121 88.589 21.7771 88.5269 21.7771V21.7771ZM89.5465 21.5407L89.7593 21.6457L89.5287 22.0923C89.644 22.0923 89.7327 22.1361 89.8125 22.2149C89.8923 22.2937 89.9277 22.3901 89.9277 22.5127C89.9277 22.6265 89.8833 22.7228 89.8035 22.8017C89.7237 22.8805 89.6263 22.9242 89.511 22.9242C89.3957 22.9242 89.2893 22.8805 89.2096 22.8017C89.1298 22.7228 89.0943 22.6265 89.0943 22.5214C89.0943 22.4777 89.1032 22.4426 89.1121 22.3988C89.1209 22.355 89.1564 22.2937 89.2007 22.2062L89.5465 21.5407V21.5407ZM89.5199 22.3287C89.4755 22.3287 89.4312 22.3463 89.4047 22.3813C89.3691 22.4163 89.3603 22.4601 89.3603 22.5039C89.3603 22.5565 89.3781 22.6002 89.4135 22.6265C89.4489 22.6616 89.4844 22.679 89.5287 22.679C89.5731 22.679 89.6174 22.6616 89.6529 22.6265C89.6883 22.5915 89.7061 22.5477 89.7061 22.4951C89.7061 22.4426 89.6883 22.3988 89.6529 22.3726C89.6085 22.3376 89.5642 22.3287 89.5199 22.3287V22.3287ZM95.176 22.9067L94.9632 22.8017L95.1938 22.355C95.0784 22.355 94.9898 22.3113 94.91 22.2325C94.8302 22.1537 94.7948 22.0573 94.7948 21.9347C94.7948 21.8208 94.8392 21.7246 94.9189 21.6457C94.9987 21.5669 95.0962 21.5231 95.2114 21.5231C95.3268 21.5231 95.4331 21.5669 95.5129 21.6457C95.5926 21.7246 95.6282 21.8208 95.6282 21.9259C95.6282 21.9697 95.6192 22.0047 95.6104 22.0486C95.6016 22.0923 95.5661 22.1537 95.5218 22.2325L95.176 22.9067ZM95.2026 22.1274C95.247 22.1274 95.2912 22.1098 95.3178 22.0748C95.3534 22.0397 95.3622 21.996 95.3622 21.9522C95.3622 21.8997 95.3444 21.8559 95.309 21.8208C95.2736 21.7858 95.238 21.7683 95.1938 21.7683C95.1494 21.7683 95.105 21.7858 95.0696 21.8208C95.0342 21.8559 95.0164 21.8997 95.0164 21.9522C95.0164 22.0047 95.0342 22.0486 95.0696 22.0748C95.114 22.1098 95.1582 22.1274 95.2026 22.1274V22.1274ZM95.7966 21.5757H96.6654V21.707L96.0714 22.9155L95.8586 22.8104L96.3551 21.8034H95.8054V21.5757H95.7966ZM97.0466 21.8997H96.8072C96.8161 21.8034 96.8516 21.7246 96.9136 21.672C96.9934 21.5932 97.091 21.5494 97.215 21.5494C97.3214 21.5494 97.4101 21.5844 97.4899 21.6545C97.5608 21.7246 97.5963 21.8034 97.5963 21.8997C97.5963 21.961 97.5785 22.0135 97.552 22.0573C97.5165 22.1011 97.4722 22.1448 97.4101 22.1711C97.4899 22.1974 97.552 22.2325 97.5963 22.2937C97.6406 22.355 97.6672 22.4251 97.6672 22.5039C97.6672 22.6177 97.6229 22.7228 97.5342 22.8017C97.4456 22.8805 97.3392 22.9242 97.1973 22.9242C97.0732 22.9242 96.9668 22.8892 96.887 22.8104C96.8072 22.7316 96.7629 22.6265 96.754 22.4951H97.0023C97.0112 22.5652 97.0378 22.609 97.0732 22.644C97.1087 22.679 97.153 22.6966 97.215 22.6966C97.2771 22.6966 97.3214 22.679 97.3569 22.644C97.3924 22.609 97.419 22.5652 97.419 22.5039C97.419 22.4426 97.3924 22.3988 97.3392 22.355C97.286 22.3113 97.215 22.2937 97.1176 22.2937V22.0836C97.1796 22.0748 97.2239 22.066 97.2505 22.0573C97.2771 22.0397 97.3037 22.0223 97.3214 21.996C97.3392 21.9697 97.348 21.9435 97.348 21.9172C97.348 21.8822 97.3392 21.8559 97.3126 21.8297C97.286 21.8034 97.2505 21.7946 97.215 21.7946C97.1796 21.7946 97.1441 21.8034 97.1176 21.8297C97.0732 21.8297 97.0555 21.8647 97.0466 21.8997V21.8997ZM98.0218 21.996H97.7736C97.7824 21.8559 97.8268 21.742 97.9066 21.6632C97.9863 21.5844 98.0927 21.5407 98.2257 21.5407C98.3055 21.5407 98.3764 21.5582 98.4385 21.5932C98.5005 21.6282 98.5449 21.672 98.5892 21.7333C98.6247 21.7946 98.6424 21.8647 98.6424 21.9259C98.6424 22.0047 98.6158 22.0836 98.5715 22.1799C98.5271 22.2675 98.4473 22.3726 98.3232 22.4951L98.1725 22.6527H98.6424V22.8805H97.7293V22.7578L98.1371 22.3463C98.2346 22.2499 98.3055 22.1711 98.3321 22.1098C98.3676 22.0486 98.3853 21.996 98.3853 21.9435C98.3853 21.8909 98.3676 21.8559 98.3321 21.8208C98.2966 21.7858 98.2523 21.7683 98.1991 21.7683C98.1459 21.7683 98.1016 21.7858 98.0661 21.8297C98.0484 21.8734 98.0218 21.9259 98.0218 21.996V21.996ZM99.2275 21.5407C99.3251 21.5407 99.4048 21.5669 99.4757 21.6107C99.5467 21.6545 99.5999 21.7246 99.6353 21.8208C99.6707 21.9172 99.6885 22.0486 99.6885 22.2237C99.6885 22.3988 99.6707 22.5302 99.6265 22.6265C99.591 22.7228 99.5378 22.7929 99.4669 22.8367C99.4048 22.8805 99.3161 22.9067 99.2187 22.9067C99.1211 22.9067 99.0325 22.8805 98.9704 22.8367C98.8995 22.7929 98.8463 22.7228 98.8109 22.6265C98.7754 22.5302 98.7577 22.3988 98.7577 22.2325C98.7577 21.996 98.7931 21.8208 98.8729 21.7157C98.9615 21.6019 99.0768 21.5407 99.2275 21.5407V21.5407ZM99.2275 21.7771C99.1832 21.7771 99.1477 21.7858 99.1123 21.8208C99.0768 21.8471 99.0502 21.8909 99.0325 21.961C99.0147 22.0223 99.0059 22.1186 99.0059 22.2499C99.0059 22.4163 99.0236 22.5302 99.0679 22.5915C99.1034 22.6527 99.1566 22.6878 99.2187 22.6878C99.2807 22.6878 99.3251 22.6616 99.3605 22.6002C99.4048 22.5302 99.4225 22.4076 99.4225 22.2412C99.4225 22.0748 99.4048 21.9522 99.3605 21.8909C99.3427 21.8121 99.2895 21.7771 99.2275 21.7771V21.7771ZM86.5234 23.2569L86.7362 23.362L86.5056 23.8087C86.6209 23.8087 86.7096 23.8524 86.7893 23.9312C86.8691 24.01 86.9046 24.1064 86.9046 24.2289C86.9046 24.3428 86.8602 24.4391 86.7804 24.5179C86.7006 24.5967 86.6032 24.6406 86.4879 24.6406C86.3726 24.6406 86.2662 24.5967 86.1864 24.5179C86.1067 24.4391 86.0712 24.3428 86.0712 24.2377C86.0712 24.1939 86.0801 24.1589 86.089 24.1151C86.0978 24.0713 86.1333 24.01 86.1776 23.9225L86.5234 23.2569V23.2569ZM86.4879 24.045C86.4436 24.045 86.3992 24.0626 86.3726 24.0976C86.3372 24.1327 86.3284 24.1764 86.3284 24.2202C86.3284 24.2727 86.346 24.3166 86.3815 24.3428C86.417 24.3778 86.4524 24.3954 86.4968 24.3954C86.5411 24.3954 86.5854 24.3778 86.6209 24.3428C86.6564 24.3077 86.674 24.264 86.674 24.2115C86.674 24.1589 86.6564 24.1151 86.6209 24.0888C86.5766 24.0626 86.5411 24.045 86.4879 24.045V24.045ZM87.3478 23.616H87.1085C87.1174 23.5197 87.1528 23.4408 87.2149 23.3883C87.2946 23.3095 87.3922 23.2657 87.5163 23.2657C87.6227 23.2657 87.7113 23.3007 87.7911 23.3707C87.862 23.4408 87.8975 23.5197 87.8975 23.616C87.8975 23.6773 87.8798 23.7298 87.8532 23.7736C87.8177 23.8174 87.7734 23.8612 87.7113 23.8875C87.7911 23.9137 87.8532 23.9487 87.8975 24.01C87.9418 24.0713 87.9684 24.1414 87.9684 24.2202C87.9684 24.334 87.9241 24.4391 87.8354 24.5179C87.7468 24.5967 87.6404 24.6406 87.4986 24.6406C87.3744 24.6406 87.268 24.6055 87.1883 24.5267C87.1085 24.4478 87.0642 24.3428 87.0553 24.2115H87.3035C87.3124 24.2815 87.339 24.3253 87.3744 24.3603C87.4099 24.3954 87.4542 24.4128 87.5163 24.4128C87.5784 24.4128 87.6227 24.3954 87.6581 24.3603C87.6936 24.3253 87.7202 24.2727 87.7202 24.2202C87.7202 24.1589 87.6936 24.1151 87.6404 24.0713C87.5872 24.0276 87.5163 24.01 87.4188 24.01V23.7998C87.4808 23.7911 87.5252 23.7824 87.5518 23.7736C87.5784 23.7561 87.605 23.7386 87.6227 23.7123C87.6404 23.686 87.6493 23.6597 87.6493 23.6335C87.6493 23.5985 87.6404 23.5722 87.6138 23.5459C87.5872 23.5197 87.5518 23.5109 87.5163 23.5109C87.4808 23.5109 87.4454 23.5197 87.4188 23.5459C87.3744 23.5547 87.3567 23.5809 87.3478 23.616V23.616ZM88.5358 23.2569L88.7486 23.362L88.5181 23.8087C88.6333 23.8087 88.722 23.8524 88.8018 23.9312C88.8815 24.01 88.917 24.1064 88.917 24.2289C88.917 24.3428 88.8727 24.4391 88.7929 24.5179C88.7131 24.5967 88.6156 24.6406 88.5003 24.6406C88.3851 24.6406 88.2787 24.5967 88.1989 24.5179C88.1191 24.4391 88.0837 24.3428 88.0837 24.2377C88.0837 24.1939 88.0925 24.1589 88.1014 24.1151C88.1103 24.0713 88.1457 24.01 88.1901 23.9225L88.5358 23.2569V23.2569ZM88.5092 24.045C88.4649 24.045 88.4206 24.0626 88.394 24.0976C88.3585 24.1327 88.3496 24.1764 88.3496 24.2202C88.3496 24.2727 88.3674 24.3166 88.4028 24.3428C88.4383 24.3778 88.4737 24.3954 88.5181 24.3954C88.5624 24.3954 88.6067 24.3778 88.6422 24.3428C88.6777 24.3077 88.6954 24.264 88.6954 24.2115C88.6954 24.1589 88.6777 24.1151 88.6422 24.0888C88.5979 24.0626 88.5535 24.045 88.5092 24.045V24.045ZM90.3799 23.5197L90.2025 23.686C90.0784 23.5635 89.9454 23.5021 89.7947 23.5021C89.6706 23.5021 89.5642 23.5459 89.4755 23.6335C89.3869 23.721 89.3425 23.8261 89.3425 23.9487C89.3425 24.0363 89.3603 24.1151 89.4047 24.1764C89.4401 24.2465 89.4933 24.299 89.5642 24.334C89.6351 24.3691 89.7149 24.3954 89.7947 24.3954C89.8657 24.3954 89.9365 24.3778 89.9986 24.3516C90.0607 24.3253 90.1227 24.2727 90.1937 24.2027L90.3621 24.3778C90.2645 24.4741 90.1759 24.5355 90.0873 24.5705C89.9986 24.6055 89.9011 24.623 89.7859 24.623C89.5819 24.623 89.4135 24.5617 89.2805 24.4304C89.1475 24.299 89.0855 24.1327 89.0855 23.94C89.0855 23.8087 89.1121 23.6947 89.1741 23.5897C89.2362 23.4847 89.3159 23.4058 89.4312 23.3445C89.5376 23.2832 89.6617 23.2482 89.7859 23.2482C89.8923 23.2482 89.9986 23.2745 90.0961 23.3182C90.2203 23.3707 90.3089 23.4408 90.3799 23.5197V23.5197ZM90.9649 23.2569L91.1777 23.362L90.9472 23.8087C91.0625 23.8087 91.1511 23.8524 91.2309 23.9312C91.3107 24.01 91.3461 24.1064 91.3461 24.2289C91.3461 24.3428 91.3019 24.4391 91.2221 24.5179C91.1423 24.5967 91.0447 24.6406 90.9295 24.6406C90.8143 24.6406 90.7079 24.5967 90.6281 24.5179C90.5483 24.4391 90.5128 24.3428 90.5128 24.2377C90.5128 24.1939 90.5217 24.1589 90.5305 24.1151C90.5394 24.0713 90.5749 24.01 90.6191 23.9225L90.9649 23.2569V23.2569ZM90.9295 24.045C90.8851 24.045 90.8409 24.0626 90.8143 24.0976C90.7787 24.1327 90.7699 24.1764 90.7699 24.2202C90.7699 24.2727 90.7877 24.3166 90.8231 24.3428C90.8585 24.3778 90.8941 24.3954 90.9383 24.3954C90.9827 24.3954 91.027 24.3778 91.0625 24.3428C91.0979 24.3077 91.1157 24.264 91.1157 24.2115C91.1157 24.1589 91.0979 24.1151 91.0625 24.0888C91.0181 24.0626 90.9827 24.045 90.9295 24.045V24.045ZM91.7451 23.2919H92.3657V23.5197H91.9313L91.8781 23.7561C91.8958 23.7561 91.9047 23.7473 91.9224 23.7473H91.9667C92.082 23.7473 92.1884 23.7911 92.2681 23.8699C92.3479 23.9487 92.3834 24.0538 92.3834 24.1764C92.3834 24.3077 92.3391 24.4128 92.2504 24.5004C92.1618 24.588 92.0554 24.6317 91.9313 24.6317C91.816 24.6317 91.7185 24.5967 91.6387 24.5355C91.5589 24.4741 91.5057 24.3866 91.4791 24.2727H91.7451C91.7628 24.3166 91.7894 24.3428 91.8249 24.3691C91.8603 24.3866 91.8958 24.4041 91.9313 24.4041C91.9845 24.4041 92.0377 24.3866 92.0731 24.3428C92.1086 24.3077 92.1352 24.2552 92.1352 24.1939C92.1352 24.1327 92.1175 24.0888 92.082 24.045C92.0465 24.01 92.0022 23.9837 91.949 23.9837C91.9224 23.9837 91.8958 23.9926 91.8692 24.0013C91.8426 24.0188 91.816 24.0363 91.7894 24.0626L91.5855 24.0188L91.7451 23.2919V23.2919ZM92.9774 23.2569L93.1902 23.362L92.9597 23.8087C93.0749 23.8087 93.1636 23.8524 93.2434 23.9312C93.3231 24.01 93.3586 24.1064 93.3586 24.2289C93.3586 24.3428 93.3143 24.4391 93.2345 24.5179C93.1547 24.5967 93.0572 24.6406 92.9419 24.6406C92.8267 24.6406 92.7203 24.5967 92.6405 24.5179C92.5607 24.4391 92.5253 24.3428 92.5253 24.2377C92.5253 24.1939 92.5341 24.1589 92.543 24.1151C92.5519 24.0713 92.5873 24.01 92.6316 23.9225L92.9774 23.2569V23.2569ZM92.9508 24.045C92.9065 24.045 92.8621 24.0626 92.8355 24.0976C92.8001 24.1327 92.7912 24.1764 92.7912 24.2202C92.7912 24.2727 92.8089 24.3166 92.8444 24.3428C92.8799 24.3778 92.9153 24.3954 92.9597 24.3954C93.004 24.3954 93.0483 24.3778 93.0838 24.3428C93.1192 24.3077 93.137 24.264 93.137 24.2115C93.137 24.1589 93.1192 24.1151 93.0838 24.0888C93.0394 24.0626 92.9951 24.045 92.9508 24.045V24.045ZM93.7576 23.2919H94.1388V24.5967H93.8905V23.5284H93.6157L93.7576 23.2919ZM94.5732 23.2919H95.442V23.4233L94.848 24.6317L94.6352 24.5267L95.1316 23.5197H94.582V23.2919H94.5732ZM95.7966 23.7123H95.5484C95.5572 23.5722 95.6016 23.4584 95.6814 23.3796C95.7612 23.3007 95.8676 23.2569 96.0005 23.2569C96.0803 23.2569 96.1512 23.2745 96.2132 23.3095C96.2754 23.3445 96.3196 23.3883 96.364 23.4584C96.3994 23.5197 96.4172 23.5897 96.4172 23.651C96.4172 23.7298 96.3906 23.8087 96.3462 23.9049C96.302 23.9926 96.2222 24.0976 96.098 24.2202L95.9473 24.3778H96.4172V24.6055H95.5129V24.4829L95.9207 24.0713C96.0182 23.975 96.0892 23.8962 96.1158 23.8349C96.1512 23.7736 96.169 23.721 96.169 23.6685C96.169 23.616 96.1512 23.5809 96.1158 23.5459C96.0802 23.5109 96.036 23.4934 95.9828 23.4934C95.9296 23.4934 95.8852 23.5109 95.8498 23.5547C95.8144 23.5897 95.7966 23.6422 95.7966 23.7123V23.7123ZM96.7984 23.7123H96.5502C96.559 23.5722 96.6034 23.4584 96.6832 23.3796C96.7629 23.3007 96.8693 23.2569 97.0023 23.2569C97.0821 23.2569 97.153 23.2745 97.215 23.3095C97.2771 23.3445 97.3214 23.3883 97.3658 23.4584C97.4012 23.5197 97.419 23.5897 97.419 23.651C97.419 23.7298 97.3924 23.8087 97.348 23.9049C97.3037 23.9926 97.2239 24.0976 97.0998 24.2202L96.9491 24.3778H97.419V24.6055H96.5058V24.4829L96.9136 24.0713C97.0112 23.975 97.0821 23.8962 97.1087 23.8349C97.1441 23.7736 97.1619 23.721 97.1619 23.6685C97.1619 23.616 97.1441 23.5809 97.1087 23.5459C97.0732 23.5109 97.0289 23.4934 96.9757 23.4934C96.9225 23.4934 96.8782 23.5109 96.8427 23.5547C96.825 23.5897 96.8072 23.6422 96.7984 23.7123V23.7123ZM98.0041 23.2569C98.1016 23.2569 98.1814 23.2832 98.2523 23.327C98.3232 23.3707 98.3764 23.4408 98.4119 23.5372C98.4473 23.6335 98.4651 23.7648 98.4651 23.94C98.4651 24.1151 98.4473 24.2465 98.403 24.3428C98.3676 24.4391 98.3144 24.5092 98.2435 24.5529C98.1814 24.5967 98.0927 24.623 97.9952 24.623C97.8977 24.623 97.809 24.5967 97.747 24.5529C97.676 24.5092 97.6229 24.4391 97.5874 24.3428C97.5519 24.2465 97.5342 24.1151 97.5342 23.9487C97.5342 23.7123 97.5697 23.5372 97.6495 23.4321C97.7381 23.3182 97.8534 23.2569 98.0041 23.2569V23.2569ZM98.0129 23.4934C97.9686 23.4934 97.9332 23.5021 97.8977 23.5372C97.8622 23.5635 97.8356 23.6072 97.8179 23.6773C97.8002 23.7386 97.7913 23.8349 97.7913 23.9663C97.7913 24.1327 97.809 24.2465 97.8534 24.3077C97.8888 24.3691 97.942 24.4041 98.0041 24.4041C98.0661 24.4041 98.1105 24.3778 98.1459 24.3166C98.1903 24.2465 98.208 24.1238 98.208 23.9575C98.208 23.7911 98.1903 23.6685 98.1459 23.6072C98.1193 23.5284 98.075 23.4934 98.0129 23.4934V23.4934ZM96.3994 25.4287H96.1512C96.16 25.2886 96.2044 25.1747 96.2842 25.0959C96.364 25.0171 96.4704 24.9733 96.6034 24.9733C96.6832 24.9733 96.754 24.9908 96.8161 25.0258C96.8782 25.0608 96.9225 25.1047 96.9668 25.1659C97.0023 25.2273 97.02 25.2973 97.02 25.3586C97.02 25.4374 96.9934 25.5162 96.9491 25.6126C96.9048 25.7001 96.825 25.8052 96.7008 25.9278L96.5502 26.0855H97.02V26.3131H96.1068V26.1905L96.5147 25.7789C96.6122 25.6826 96.6832 25.6038 96.7098 25.5425C96.7452 25.4812 96.7629 25.4287 96.7629 25.3761C96.7629 25.3236 96.7452 25.2886 96.7098 25.2536C96.6742 25.2185 96.63 25.201 96.5768 25.201C96.5236 25.201 96.4792 25.2185 96.4438 25.2623C96.4172 25.306 96.3994 25.3586 96.3994 25.4287V25.4287ZM86.3106 9.97269H86.0624C86.0712 9.83258 86.1156 9.71873 86.1954 9.63992C86.2752 9.56111 86.3815 9.51732 86.5145 9.51732C86.5943 9.51732 86.6652 9.53484 86.7272 9.56987C86.7893 9.60489 86.8336 9.64868 86.878 9.71873C86.9134 9.78003 86.9312 9.85009 86.9312 9.91139C86.9312 9.99019 86.9046 10.069 86.8602 10.1653C86.8159 10.2529 86.7362 10.358 86.612 10.4806L86.4702 10.6294H86.94V10.8571H86.0269V10.7345L86.4347 10.323C86.5322 10.2266 86.6032 10.1478 86.6298 10.0865C86.6652 10.0252 86.683 9.97269 86.683 9.92014C86.683 9.8676 86.6652 9.83258 86.6298 9.79755C86.5943 9.76252 86.55 9.745 86.4968 9.745C86.4436 9.745 86.3992 9.76252 86.3638 9.8063C86.3284 9.85009 86.3106 9.90263 86.3106 9.97269ZM87.5074 9.51732C87.605 9.51732 87.6847 9.54359 87.7557 9.58738C87.8266 9.63117 87.8798 9.70122 87.9152 9.79755C87.9507 9.89387 87.9684 10.0252 87.9684 10.2004C87.9684 10.3755 87.9507 10.5069 87.9064 10.6032C87.8709 10.6995 87.8177 10.7696 87.7468 10.8133C87.6847 10.8571 87.5961 10.8834 87.4986 10.8834C87.401 10.8834 87.3124 10.8571 87.2503 10.8133C87.1794 10.7696 87.1262 10.6995 87.0908 10.6032C87.0553 10.5069 87.0376 10.3755 87.0376 10.2091C87.0376 9.97269 87.073 9.79755 87.1528 9.69246C87.2415 9.57862 87.3567 9.51732 87.5074 9.51732ZM87.5163 9.75376C87.472 9.75376 87.4365 9.76252 87.401 9.79755C87.3656 9.82381 87.339 9.8676 87.3212 9.93766C87.3035 9.99896 87.2946 10.0953 87.2946 10.2266C87.2946 10.393 87.3124 10.5069 87.3567 10.5682C87.3922 10.6294 87.4454 10.6645 87.5074 10.6645C87.5695 10.6645 87.6138 10.6382 87.6493 10.5769C87.6936 10.5069 87.7113 10.3843 87.7113 10.2179C87.7113 10.0515 87.6936 9.9289 87.6493 9.8676C87.6315 9.78879 87.5784 9.75376 87.5163 9.75376V9.75376ZM88.6156 9.51732H88.8639V10.358H88.9791V10.5857H88.8639V10.8484H88.6156V10.5857H88.0393V10.358L88.6156 9.51732V9.51732ZM88.6245 10.358V9.92014L88.323 10.358H88.6245ZM89.3337 9.97269H89.0855C89.0943 9.83258 89.1387 9.71873 89.2185 9.63992C89.2983 9.56111 89.4046 9.51732 89.5376 9.51732C89.6174 9.51732 89.6883 9.53484 89.7503 9.56987C89.8125 9.60489 89.8567 9.64868 89.9011 9.71873C89.9365 9.78003 89.9543 9.85009 89.9543 9.91139C89.9543 9.99019 89.9277 10.069 89.8833 10.1653C89.8391 10.2529 89.7593 10.358 89.6351 10.4806L89.4844 10.6382H89.9543V10.8659H89.05V10.7433L89.4578 10.3317C89.5553 10.2354 89.6263 10.1566 89.6529 10.0953C89.6883 10.034 89.7061 9.98144 89.7061 9.9289C89.7061 9.87636 89.6883 9.84133 89.6529 9.8063C89.6174 9.77128 89.5731 9.75376 89.5199 9.75376C89.4667 9.75376 89.4223 9.77128 89.3869 9.81506C89.3603 9.85009 89.3337 9.90263 89.3337 9.97269V9.97269ZM90.6369 9.51732H90.8851V10.358H91.0004V10.5857H90.8851V10.8484H90.6369V10.5857H90.0607V10.358L90.6369 9.51732V9.51732ZM90.6369 10.358V9.92014L90.3355 10.358H90.6369ZM91.5323 10.8922L91.3195 10.7871L91.5501 10.3405C91.4348 10.3405 91.3461 10.2967 91.2663 10.2179C91.1865 10.1391 91.1511 10.0427 91.1511 9.92014C91.1511 9.8063 91.1955 9.70998 91.2753 9.63117C91.355 9.55235 91.4525 9.50857 91.5678 9.50857C91.6831 9.50857 91.7894 9.55235 91.8692 9.63117C91.949 9.70998 91.9845 9.8063 91.9845 9.91139C91.9845 9.95517 91.9756 9.99019 91.9667 10.034C91.9579 10.0778 91.9224 10.1391 91.8781 10.2179L91.5323 10.8922ZM91.5589 10.104C91.6033 10.104 91.6476 10.0865 91.6741 10.0515C91.7097 10.0165 91.7185 9.97269 91.7185 9.9289C91.7185 9.87636 91.7007 9.83258 91.6653 9.79755C91.6299 9.76252 91.5944 9.745 91.5501 9.745C91.5057 9.745 91.4614 9.76252 91.4259 9.79755C91.3905 9.83258 91.3727 9.87636 91.3727 9.9289C91.3727 9.98144 91.3905 10.0252 91.4259 10.0515C91.4703 10.0865 91.5146 10.104 91.5589 10.104V10.104ZM92.3479 9.55235H92.9685V9.78003H92.5341L92.4809 10.0165C92.4987 10.0165 92.5075 10.0077 92.5253 10.0077H92.5696C92.6848 10.0077 92.7912 10.0515 92.871 10.1303C92.9508 10.2091 92.9863 10.3142 92.9863 10.4368C92.9863 10.5682 92.9419 10.6732 92.8533 10.7608C92.7646 10.8484 92.6582 10.8922 92.5341 10.8922C92.4189 10.8922 92.3213 10.8571 92.2415 10.7958C92.1618 10.7345 92.1086 10.647 92.082 10.5331H92.3479C92.3657 10.5769 92.3923 10.6032 92.4277 10.6294C92.4632 10.647 92.4987 10.6645 92.5341 10.6645C92.5873 10.6645 92.6405 10.647 92.676 10.6032C92.7114 10.5682 92.738 10.5156 92.738 10.4543C92.738 10.393 92.7203 10.3492 92.6848 10.3054C92.6494 10.2704 92.605 10.2441 92.5519 10.2441C92.5253 10.2441 92.4987 10.2529 92.4721 10.2617C92.4455 10.2792 92.4189 10.2967 92.3923 10.323L92.1884 10.2792L92.3479 9.55235V9.55235ZM93.66 9.51732H93.9082V10.358H94.0235V10.5857H93.9082V10.8484H93.66V10.5857H93.0838V10.358L93.66 9.51732V9.51732ZM93.6689 10.358V9.92014L93.3675 10.358H93.6689ZM86.5234 11.2337L86.7362 11.3388L86.5056 11.7854C86.6209 11.7854 86.7096 11.8291 86.7893 11.908C86.8691 11.9868 86.9046 12.0831 86.9046 12.2057C86.9046 12.3195 86.8602 12.4159 86.7804 12.4947C86.7006 12.5735 86.6032 12.6173 86.4879 12.6173C86.3726 12.6173 86.2662 12.5735 86.1864 12.4947C86.1067 12.4159 86.0712 12.3195 86.0712 12.2145C86.0712 12.1707 86.0801 12.1356 86.089 12.0919C86.0978 12.0481 86.1333 11.9868 86.1776 11.8992L86.5234 11.2337V11.2337ZM86.4879 12.0218C86.4436 12.0218 86.3992 12.0393 86.3726 12.0743C86.3372 12.1094 86.3284 12.1532 86.3284 12.1969C86.3284 12.2495 86.346 12.2933 86.3815 12.3195C86.417 12.3546 86.4524 12.3721 86.4968 12.3721C86.5411 12.3721 86.5854 12.3546 86.6209 12.3195C86.6564 12.2845 86.674 12.2407 86.674 12.1882C86.674 12.1356 86.6564 12.0919 86.6209 12.0656C86.5766 12.0393 86.5411 12.0218 86.4879 12.0218V12.0218ZM87.7822 11.8642C87.8443 11.8992 87.8886 11.9517 87.9241 12.013C87.9596 12.0743 87.9773 12.1356 87.9773 12.2057C87.9773 12.2845 87.9596 12.3546 87.9241 12.4159C87.8886 12.4772 87.8354 12.5297 87.7734 12.556C87.7113 12.591 87.6315 12.6085 87.5252 12.6085C87.4188 12.6085 87.3301 12.591 87.268 12.5647C87.206 12.5297 87.1528 12.4859 87.1174 12.4246C87.0819 12.3633 87.0642 12.2933 87.0642 12.2145C87.0642 12.1444 87.0819 12.0831 87.1085 12.0306C87.1351 11.978 87.1883 11.9255 87.2414 11.8817C87.206 11.8379 87.1706 11.8029 87.1528 11.7591C87.1351 11.7153 87.1262 11.6715 87.1262 11.619C87.1262 11.5489 87.144 11.4876 87.1794 11.4351C87.2149 11.3825 87.2592 11.3388 87.3212 11.3037C87.3833 11.2687 87.4542 11.2599 87.5252 11.2599C87.605 11.2599 87.667 11.2775 87.7291 11.3037C87.7911 11.3388 87.8354 11.3825 87.8709 11.4351C87.9064 11.4964 87.9241 11.5577 87.9241 11.619C87.9241 11.6628 87.9152 11.7066 87.8975 11.7503C87.862 11.7679 87.8266 11.8204 87.7822 11.8642V11.8642ZM87.4986 11.4789C87.4542 11.4789 87.4276 11.4964 87.401 11.5227C87.3744 11.5489 87.3567 11.584 87.3567 11.6277C87.3567 11.6715 87.3744 11.7066 87.401 11.7328C87.4276 11.7591 87.4631 11.7766 87.5074 11.7766C87.5518 11.7766 87.5872 11.7591 87.6138 11.7328C87.6404 11.7066 87.6581 11.6715 87.6581 11.6277C87.6581 11.584 87.6404 11.5489 87.6138 11.5227C87.5872 11.4876 87.5429 11.4789 87.4986 11.4789ZM87.5163 11.9955C87.4542 11.9955 87.401 12.013 87.3656 12.0481C87.3212 12.0831 87.3035 12.1269 87.3035 12.1794C87.3035 12.232 87.3212 12.2758 87.3656 12.3108C87.401 12.3458 87.4542 12.3633 87.5163 12.3633C87.5784 12.3633 87.6315 12.3458 87.667 12.3108C87.7025 12.2758 87.7202 12.232 87.7202 12.1794C87.7202 12.1269 87.7025 12.0831 87.6581 12.0481C87.6227 12.013 87.5695 11.9955 87.5163 11.9955ZM88.5358 11.2337L88.7486 11.3388L88.5181 11.7854C88.6333 11.7854 88.722 11.8291 88.8018 11.908C88.8815 11.9868 88.917 12.0831 88.917 12.2057C88.917 12.3195 88.8727 12.4159 88.7929 12.4947C88.7131 12.5735 88.6156 12.6173 88.5003 12.6173C88.3851 12.6173 88.2787 12.5735 88.1989 12.4947C88.1191 12.4159 88.0837 12.3195 88.0837 12.2145C88.0837 12.1707 88.0925 12.1356 88.1014 12.0919C88.1103 12.0481 88.1457 11.9868 88.1901 11.8992L88.5358 11.2337ZM88.5092 12.0218C88.4649 12.0218 88.4206 12.0393 88.394 12.0743C88.3585 12.1094 88.3496 12.1532 88.3496 12.1969C88.3496 12.2495 88.3674 12.2933 88.4028 12.3195C88.4383 12.3546 88.4737 12.3721 88.5181 12.3721C88.5624 12.3721 88.6067 12.3546 88.6422 12.3195C88.6777 12.2845 88.6954 12.2407 88.6954 12.1882C88.6954 12.1356 88.6777 12.0919 88.6422 12.0656C88.5979 12.0393 88.5535 12.0218 88.5092 12.0218V12.0218ZM94.2718 11.2687H95.1406V11.4001L94.5466 12.6085L94.3338 12.5034L94.8302 11.4964H94.2718V11.2687ZM95.7788 11.2337H96.0271V12.0743H96.1424V12.302H96.0271V12.5647H95.7788V12.302H95.2026V12.0743L95.7788 11.2337ZM95.7878 12.0743V11.6365L95.4863 12.0743H95.7878ZM96.7098 11.2337L96.9225 11.3388L96.692 11.7854C96.8072 11.7854 96.8959 11.8291 96.9757 11.908C97.0555 11.9868 97.091 12.0831 97.091 12.2057C97.091 12.3195 97.0466 12.4159 96.9668 12.4947C96.887 12.5735 96.7895 12.6173 96.6742 12.6173C96.559 12.6173 96.4526 12.5735 96.3728 12.4947C96.293 12.4159 96.2576 12.3195 96.2576 12.2145C96.2576 12.1707 96.2664 12.1356 96.2754 12.0919C96.2842 12.0481 96.3196 11.9868 96.364 11.8992L96.7098 11.2337V11.2337ZM96.6832 12.0218C96.6388 12.0218 96.5945 12.0393 96.5679 12.0743C96.5324 12.1094 96.5236 12.1532 96.5236 12.1969C96.5236 12.2495 96.5413 12.2933 96.5768 12.3195C96.6122 12.3546 96.6477 12.3721 96.692 12.3721C96.7363 12.3721 96.7806 12.3546 96.8161 12.3195C96.8516 12.2845 96.8693 12.2407 96.8693 12.1882C96.8693 12.1356 96.8516 12.0919 96.8161 12.0656C96.7718 12.0393 96.7274 12.0218 96.6832 12.0218ZM97.4988 11.2687H98.1193V11.4964H97.6849L97.6317 11.7328C97.6495 11.7328 97.6583 11.7241 97.6761 11.7241H97.7204C97.8356 11.7241 97.942 11.7679 98.0218 11.8467C98.1016 11.9255 98.1371 12.0306 98.1371 12.1532C98.1371 12.2845 98.0927 12.3896 98.0041 12.4772C97.9154 12.5647 97.809 12.6085 97.6849 12.6085C97.5697 12.6085 97.4722 12.5735 97.3924 12.5122C97.3126 12.4509 97.2594 12.3633 97.2328 12.2495H97.4988C97.5165 12.2933 97.5431 12.3195 97.5785 12.3458C97.614 12.3633 97.6495 12.3808 97.6849 12.3808C97.7381 12.3808 97.7913 12.3633 97.8268 12.3195C97.8622 12.2845 97.8888 12.232 97.8888 12.1707C97.8888 12.1094 97.8711 12.0656 97.8356 12.0218C97.8002 11.9868 97.7558 11.9605 97.7027 11.9605C97.6761 11.9605 97.6495 11.9693 97.6229 11.978C97.5963 11.9955 97.5697 12.013 97.5431 12.0393L97.3392 11.9955L97.4988 11.2687V11.2687ZM98.5183 11.689H98.2701C98.2789 11.5489 98.3232 11.4351 98.403 11.3563C98.4828 11.2775 98.5892 11.2337 98.7222 11.2337C98.8019 11.2337 98.8729 11.2512 98.9349 11.2862C98.997 11.3212 99.0413 11.365 99.0857 11.4263C99.1211 11.4876 99.1389 11.5577 99.1389 11.619C99.1389 11.6978 99.1123 11.7766 99.0679 11.8729C99.0236 11.9605 98.9438 12.0656 98.8197 12.1882L98.669 12.3458H99.1389V12.5735H98.2257V12.4509L98.6335 12.0393C98.7311 11.943 98.8019 11.8642 98.8285 11.8029C98.864 11.7416 98.8817 11.689 98.8817 11.6365C98.8817 11.584 98.864 11.5489 98.8285 11.5139C98.7931 11.4789 98.7488 11.4614 98.6956 11.4614C98.6424 11.4614 98.5981 11.4789 98.5626 11.5227C98.536 11.5664 98.5183 11.619 98.5183 11.689V11.689ZM86.4968 12.95C86.5943 12.95 86.6741 12.9763 86.745 13.0201C86.8159 13.0639 86.8691 13.1339 86.9046 13.2303C86.94 13.3266 86.9578 13.4579 86.9578 13.6331C86.9578 13.8082 86.94 13.9396 86.8957 14.0359C86.8602 14.1322 86.807 14.2023 86.7362 14.2461C86.674 14.2898 86.5854 14.3161 86.4879 14.3161C86.3904 14.3161 86.3018 14.2898 86.2396 14.2461C86.1688 14.2023 86.1156 14.1322 86.0801 14.0359C86.0446 13.9396 86.0269 13.8082 86.0269 13.6418C86.0269 13.4054 86.0624 13.2303 86.1422 13.1252C86.2308 13.0113 86.355 12.95 86.4968 12.95ZM86.5056 13.1865C86.4613 13.1865 86.4258 13.1952 86.3904 13.2303C86.355 13.2565 86.3284 13.3003 86.3106 13.3704C86.3018 13.4317 86.2928 13.528 86.2928 13.6593C86.2928 13.8257 86.3106 13.9396 86.355 14.0009C86.3904 14.0622 86.4436 14.0972 86.5056 14.0972C86.5677 14.0972 86.612 14.0709 86.6475 14.0096C86.6918 13.9396 86.7096 13.817 86.7096 13.6506C86.7096 13.4842 86.6918 13.3616 86.6475 13.3003C86.6209 13.2215 86.5677 13.1865 86.5056 13.1865V13.1865ZM87.534 12.95L87.7468 13.0551L87.5163 13.5017C87.6315 13.5017 87.7202 13.5455 87.8 13.6243C87.8798 13.7031 87.9152 13.7995 87.9152 13.9221C87.9152 14.0359 87.8709 14.1322 87.7911 14.211C87.7113 14.2898 87.6138 14.3336 87.4986 14.3336C87.3833 14.3336 87.2769 14.2898 87.1971 14.211C87.1174 14.1322 87.0819 14.0359 87.0819 13.9308C87.0819 13.887 87.0908 13.852 87.0996 13.8082C87.1085 13.7644 87.144 13.7031 87.1883 13.6156L87.534 12.95V12.95ZM87.4986 13.7382C87.4542 13.7382 87.4099 13.7557 87.3833 13.7907C87.3478 13.8257 87.339 13.8695 87.339 13.9133C87.339 13.9658 87.3567 14.0096 87.3922 14.0359C87.4276 14.0709 87.4631 14.0884 87.5074 14.0884C87.5518 14.0884 87.5961 14.0709 87.6315 14.0359C87.667 14.0009 87.6847 13.9571 87.6847 13.9045C87.6847 13.852 87.667 13.8082 87.6315 13.7819C87.5872 13.7557 87.5518 13.7382 87.4986 13.7382V13.7382ZM88.5003 14.3249L88.2876 14.2198L88.5181 13.7732C88.4028 13.7732 88.3142 13.7294 88.2344 13.6506C88.1546 13.5718 88.1191 13.4755 88.1191 13.3529C88.1191 13.239 88.1635 13.1427 88.2433 13.0639C88.323 12.9851 88.4206 12.9413 88.5358 12.9413C88.6511 12.9413 88.7575 12.9851 88.8373 13.0639C88.917 13.1427 88.9525 13.239 88.9525 13.3441C88.9525 13.3879 88.9436 13.4229 88.9347 13.4667C88.9259 13.5105 88.8904 13.5718 88.8461 13.6506L88.5003 14.3249V14.3249ZM88.5358 13.5367C88.5801 13.5367 88.6245 13.5192 88.6511 13.4842C88.6865 13.4492 88.6954 13.4054 88.6954 13.3616C88.6954 13.3091 88.6777 13.2653 88.6422 13.2303C88.6067 13.1952 88.5713 13.1777 88.5269 13.1777C88.4826 13.1777 88.4383 13.1952 88.4028 13.2303C88.3674 13.2653 88.3496 13.3091 88.3496 13.3616C88.3496 13.4142 88.3674 13.4579 88.4028 13.4842C88.4471 13.5192 88.4826 13.5367 88.5358 13.5367ZM89.1298 12.9851H89.9986V13.1164L89.3957 14.3249L89.183 14.2198L89.6795 13.2127H89.1298V12.9851V12.9851ZM94.5111 13.3091H94.2718C94.2806 13.2127 94.316 13.1339 94.3782 13.0814C94.4579 13.0026 94.5554 12.9588 94.6796 12.9588C94.786 12.9588 94.8746 12.9938 94.9544 13.0639C95.0253 13.1339 95.0608 13.2127 95.0608 13.3091C95.0608 13.3704 95.043 13.4229 95.0164 13.4667C94.981 13.5105 94.9366 13.5543 94.8746 13.5805C94.9544 13.6068 95.0164 13.6418 95.0608 13.7031C95.105 13.7644 95.1316 13.8345 95.1316 13.9133C95.1316 14.0271 95.0874 14.1322 94.9987 14.211C94.91 14.2898 94.8036 14.3336 94.6618 14.3336C94.5377 14.3336 94.4313 14.2986 94.3516 14.2198C94.2718 14.141 94.2274 14.0359 94.2186 13.9045H94.4668C94.4756 13.9746 94.5022 14.0184 94.5377 14.0534C94.5732 14.0884 94.6175 14.106 94.6796 14.106C94.7416 14.106 94.786 14.0884 94.8214 14.0534C94.8568 14.0184 94.8834 13.9746 94.8834 13.9133C94.8834 13.852 94.8568 13.8082 94.8036 13.7644C94.7504 13.7206 94.6796 13.7031 94.582 13.7031V13.493C94.6441 13.4842 94.6884 13.4755 94.715 13.4667C94.7416 13.4492 94.7682 13.4317 94.786 13.4054C94.8036 13.3791 94.8126 13.3529 94.8126 13.3266C94.8126 13.2916 94.8036 13.2653 94.777 13.239C94.7504 13.2127 94.715 13.204 94.6796 13.204C94.6441 13.204 94.6086 13.2127 94.582 13.239C94.5466 13.2478 94.52 13.274 94.5111 13.3091V13.3091ZM95.4952 13.4054H95.247C95.2558 13.2653 95.3002 13.1514 95.38 13.0726C95.4597 12.9938 95.566 12.95 95.699 12.95C95.7788 12.95 95.8498 12.9675 95.9118 13.0026C95.9739 13.0376 96.0182 13.0814 96.0626 13.1427C96.098 13.204 96.1158 13.274 96.1158 13.3353C96.1158 13.4142 96.0892 13.493 96.0448 13.5893C96.0005 13.6769 95.9207 13.7819 95.7966 13.9045L95.6458 14.0622H96.1158V14.2898H95.2026V14.1672L95.6104 13.7557C95.708 13.6593 95.7788 13.5805 95.8054 13.5192C95.841 13.4579 95.8586 13.4054 95.8586 13.3529C95.8586 13.3003 95.841 13.2653 95.8054 13.2303C95.77 13.1952 95.7256 13.1777 95.6724 13.1777C95.6192 13.1777 95.575 13.1952 95.5394 13.239C95.5129 13.2828 95.4952 13.3441 95.4952 13.4054V13.4054ZM96.692 12.95C96.7895 12.95 96.8693 12.9763 96.9402 13.0201C97.0112 13.0639 97.0644 13.1339 97.0998 13.2303C97.1353 13.3266 97.153 13.4579 97.153 13.6331C97.153 13.8082 97.1353 13.9396 97.091 14.0359C97.0555 14.1322 97.0023 14.2023 96.9314 14.2461C96.8693 14.2898 96.7806 14.3161 96.6832 14.3161C96.5856 14.3161 96.497 14.2898 96.4349 14.2461C96.364 14.2023 96.3108 14.1322 96.2754 14.0359C96.2398 13.9396 96.2222 13.8082 96.2222 13.6418C96.2222 13.4054 96.2576 13.2303 96.3374 13.1252C96.426 13.0113 96.5413 12.95 96.692 12.95ZM96.7008 13.1865C96.6566 13.1865 96.6211 13.1952 96.5856 13.2303C96.5502 13.2565 96.5236 13.3003 96.5147 13.3704C96.497 13.4317 96.4881 13.528 96.4881 13.6593C96.4881 13.8257 96.5058 13.9396 96.5502 14.0009C96.5856 14.0622 96.6388 14.0972 96.7008 14.0972C96.7629 14.0972 96.8072 14.0709 96.8427 14.0096C96.887 13.9396 96.9048 13.817 96.9048 13.6506C96.9048 13.4842 96.887 13.3616 96.8427 13.3003C96.8072 13.2215 96.7629 13.1865 96.7008 13.1865V13.1865ZM97.7204 12.9501L97.9332 13.0551L97.7027 13.5017C97.8179 13.5017 97.9066 13.5455 97.9863 13.6243C98.0661 13.7032 98.1016 13.7995 98.1016 13.9221C98.1016 14.0359 98.0573 14.1322 97.9775 14.2111C97.8977 14.2899 97.8002 14.3337 97.6849 14.3337C97.5697 14.3337 97.4633 14.2899 97.3835 14.2111C97.3037 14.1322 97.2682 14.0359 97.2682 13.9308C97.2682 13.887 97.2771 13.852 97.286 13.8082C97.2948 13.7645 97.3303 13.7032 97.3746 13.6156L97.7204 12.9501V12.9501ZM97.6938 13.7382C97.6495 13.7382 97.6051 13.7557 97.5785 13.7907C97.5431 13.8258 97.5342 13.8695 97.5342 13.9133C97.5342 13.9659 97.552 14.0096 97.5874 14.0359C97.6229 14.0709 97.6583 14.0885 97.7027 14.0885C97.747 14.0885 97.7913 14.0709 97.8268 14.0359C97.8622 14.0009 97.88 13.9571 97.88 13.9046C97.88 13.852 97.8622 13.8082 97.8268 13.782C97.7824 13.7557 97.7381 13.7382 97.6938 13.7382V13.7382ZM86.3372 15.0255H86.0978C86.1067 14.9291 86.1422 14.8503 86.2042 14.7978C86.284 14.719 86.3815 14.6752 86.5056 14.6752C86.612 14.6752 86.7006 14.7102 86.7804 14.7803C86.8514 14.8503 86.8868 14.9291 86.8868 15.0255C86.8868 15.0867 86.8691 15.1393 86.8425 15.1831C86.807 15.2269 86.7628 15.2706 86.7006 15.2969C86.7804 15.3232 86.8425 15.3582 86.8868 15.4195C86.9312 15.4808 86.9578 15.5509 86.9578 15.6297C86.9578 15.7435 86.9134 15.8486 86.8248 15.9274C86.7362 16.0062 86.6298 16.05 86.4879 16.05C86.3638 16.05 86.2574 16.015 86.1776 15.9362C86.0978 15.8574 86.0535 15.7523 86.0446 15.6209H86.2928C86.3018 15.691 86.3284 15.7348 86.3638 15.7698C86.3992 15.8048 86.4436 15.8223 86.5056 15.8223C86.5677 15.8223 86.612 15.8048 86.6475 15.7698C86.683 15.7348 86.7096 15.691 86.7096 15.6297C86.7096 15.5684 86.683 15.5246 86.6298 15.4808C86.5766 15.437 86.5056 15.4195 86.4081 15.4195V15.2093C86.4702 15.2006 86.5145 15.1918 86.5411 15.1831C86.5677 15.1656 86.5943 15.148 86.612 15.1218C86.6298 15.0955 86.6386 15.0692 86.6386 15.043C86.6386 15.0079 86.6298 14.9817 86.6032 14.9554C86.5766 14.9291 86.5411 14.9204 86.5056 14.9204C86.4702 14.9204 86.4347 14.9291 86.4081 14.9554C86.3726 14.9642 86.346 14.9904 86.3372 15.0255V15.0255ZM87.534 14.6752L87.7468 14.7803L87.5163 15.2269C87.6315 15.2269 87.7202 15.2706 87.8 15.3495C87.8798 15.4283 87.9152 15.5246 87.9152 15.6472C87.9152 15.761 87.8709 15.8574 87.7911 15.9362C87.7113 16.015 87.6138 16.0588 87.4986 16.0588C87.3833 16.0588 87.2769 16.015 87.1972 15.9362C87.1174 15.8574 87.0819 15.761 87.0819 15.6559C87.0819 15.6122 87.0908 15.5771 87.0996 15.5334C87.1085 15.4896 87.144 15.4283 87.1883 15.3407L87.534 14.6752V14.6752ZM87.4986 15.4545C87.4542 15.4545 87.4099 15.4721 87.3833 15.5071C87.3478 15.5421 87.339 15.5859 87.339 15.6297C87.339 15.6822 87.3567 15.726 87.3922 15.7523C87.4276 15.7873 87.4631 15.8048 87.5074 15.8048C87.5518 15.8048 87.5961 15.7873 87.6315 15.7523C87.667 15.7172 87.6847 15.6735 87.6847 15.6209C87.6847 15.5684 87.667 15.5246 87.6315 15.4983C87.5872 15.4721 87.5518 15.4545 87.4986 15.4545ZM89.3691 14.9291L89.1919 15.0955C89.0677 14.9729 88.9347 14.9116 88.7841 14.9116C88.6599 14.9116 88.5535 14.9554 88.4649 15.043C88.3762 15.1305 88.3319 15.2356 88.3319 15.3582C88.3319 15.4458 88.3496 15.5246 88.394 15.5859C88.4294 15.6559 88.4826 15.7085 88.5535 15.7435C88.6245 15.7785 88.7043 15.8048 88.7841 15.8048C88.855 15.8048 88.9259 15.7873 88.9879 15.761C89.05 15.7348 89.1121 15.6822 89.183 15.6122L89.3515 15.7873C89.2539 15.8836 89.1653 15.9449 89.0766 15.98C88.9879 16.015 88.8904 16.0325 88.7841 16.0325C88.5801 16.0325 88.4117 15.9712 88.2787 15.8398C88.1457 15.7085 88.0837 15.5421 88.0837 15.3495C88.0837 15.2181 88.1103 15.1043 88.1723 14.9992C88.2344 14.8941 88.3142 14.8153 88.4294 14.754C88.5358 14.6927 88.6599 14.6577 88.7929 14.6577C88.8993 14.6577 89.0057 14.6839 89.1032 14.7277C89.2096 14.789 89.2983 14.8503 89.3691 14.9291V14.9291ZM89.9543 14.6752L90.1671 14.7803L89.9365 15.2269C90.0518 15.2269 90.1405 15.2706 90.2203 15.3495C90.3001 15.4283 90.3355 15.5246 90.3355 15.6472C90.3355 15.761 90.2911 15.8574 90.2113 15.9362C90.1315 16.015 90.0341 16.0588 89.9188 16.0588C89.8035 16.0588 89.6971 16.015 89.6174 15.9362C89.5376 15.8574 89.5021 15.761 89.5021 15.6559C89.5021 15.6122 89.511 15.5771 89.5199 15.5334C89.5287 15.4896 89.5642 15.4283 89.6085 15.3407L89.9543 14.6752V14.6752ZM89.9188 15.4545C89.8745 15.4545 89.8301 15.4721 89.8035 15.5071C89.7681 15.5421 89.7593 15.5859 89.7593 15.6297C89.7593 15.6822 89.7769 15.726 89.8125 15.7523C89.8479 15.7873 89.8833 15.8048 89.9277 15.8048C89.972 15.8048 90.0163 15.7873 90.0518 15.7523C90.0873 15.7172 90.1049 15.6735 90.1049 15.6209C90.1049 15.5684 90.0873 15.5246 90.0518 15.4983C90.0075 15.4721 89.972 15.4545 89.9188 15.4545V15.4545ZM90.7345 14.7014H91.355V14.9291H90.9207L90.8675 15.1656C90.8851 15.1568 90.8941 15.1568 90.9117 15.1568H90.9561C91.0713 15.1568 91.1777 15.2006 91.2575 15.2794C91.3373 15.3582 91.3727 15.4633 91.3727 15.5859C91.3727 15.7172 91.3285 15.8223 91.2397 15.9099C91.1511 15.9975 91.0447 16.0413 90.9207 16.0413C90.8053 16.0413 90.7079 16.0062 90.6281 15.9449C90.5483 15.8836 90.4951 15.7961 90.4685 15.6822H90.7345C90.7521 15.726 90.7787 15.7523 90.8143 15.7785C90.8497 15.7961 90.8851 15.8136 90.9207 15.8136C90.9738 15.8136 91.027 15.7961 91.0625 15.7523C91.0979 15.7172 91.1245 15.6647 91.1245 15.6034C91.1245 15.5421 91.1068 15.4983 91.0713 15.4545C91.0359 15.4195 90.9915 15.3932 90.9383 15.3932C90.9117 15.3932 90.8851 15.402 90.8585 15.4108C90.8319 15.4283 90.8053 15.4458 90.7787 15.4721L90.5749 15.4283L90.7345 14.7014V14.7014ZM91.9667 14.6752L92.1795 14.7803L91.949 15.2269C92.0643 15.2269 92.1529 15.2706 92.2327 15.3495C92.3125 15.4283 92.3479 15.5246 92.3479 15.6472C92.3479 15.761 92.3036 15.8574 92.2238 15.9362C92.1441 16.015 92.0465 16.0588 91.9313 16.0588C91.816 16.0588 91.7097 16.015 91.6299 15.9362C91.5501 15.8574 91.5146 15.761 91.5146 15.6559C91.5146 15.6122 91.5235 15.5771 91.5323 15.5334C91.5412 15.4896 91.5767 15.4283 91.621 15.3407L91.9667 14.6752V14.6752ZM91.9401 15.4545C91.8958 15.4545 91.8515 15.4721 91.8249 15.5071C91.7894 15.5421 91.7805 15.5859 91.7805 15.6297C91.7805 15.6822 91.7983 15.726 91.8337 15.7523C91.8692 15.7873 91.9047 15.8048 91.949 15.8048C91.9933 15.8048 92.0377 15.7873 92.0731 15.7523C92.1086 15.7172 92.1263 15.6735 92.1263 15.6209C92.1263 15.5684 92.1086 15.5246 92.0731 15.4983C92.0288 15.4721 91.9845 15.4545 91.9401 15.4545V15.4545ZM92.7469 14.7014H93.1192V16.0062H92.871V14.9379H92.5962L92.7469 14.7014ZM93.5625 14.7014H94.4313V14.8328L93.8374 16.0413L93.6246 15.9362L94.121 14.9291H93.5625V14.7014ZM94.786 15.1218H94.5377C94.5466 14.9817 94.5909 14.8678 94.6706 14.789C94.7504 14.7102 94.8568 14.6664 94.9898 14.6664C95.0696 14.6664 95.1406 14.6839 95.2026 14.719C95.2646 14.754 95.309 14.7978 95.3534 14.8591C95.3888 14.9204 95.4065 14.9904 95.4065 15.0517C95.4065 15.1305 95.38 15.2093 95.3356 15.3057C95.2912 15.3932 95.2114 15.4983 95.0874 15.6209L94.9366 15.7785H95.4065V16.0062H94.5022V15.8836L94.91 15.4721C95.0076 15.3757 95.0785 15.2969 95.105 15.2356C95.1406 15.1743 95.1582 15.1218 95.1582 15.0692C95.1582 15.0167 95.1406 14.9817 95.105 14.9466C95.0696 14.9116 95.0253 14.8941 94.9721 14.8941C94.9189 14.8941 94.8746 14.9116 94.8392 14.9554C94.8036 14.9992 94.786 15.0605 94.786 15.1218ZM95.7966 15.1218H95.5484C95.5572 14.9817 95.6016 14.8678 95.6814 14.789C95.7612 14.7102 95.8676 14.6664 96.0005 14.6664C96.0803 14.6664 96.1512 14.6839 96.2132 14.719C96.2754 14.754 96.3196 14.7978 96.364 14.8591C96.3994 14.9204 96.4172 14.9904 96.4172 15.0517C96.4172 15.1305 96.3906 15.2093 96.3462 15.3057C96.302 15.3932 96.2222 15.4983 96.098 15.6209L95.9473 15.7785H96.4172V16.0062H95.5129V15.8836L95.9207 15.4721C96.0182 15.3757 96.0892 15.2969 96.1158 15.2356C96.1512 15.1743 96.169 15.1218 96.169 15.0692C96.169 15.0167 96.1512 14.9817 96.1158 14.9466C96.0802 14.9116 96.036 14.8941 95.9828 14.8941C95.9296 14.8941 95.8852 14.9116 95.8498 14.9554C95.8144 14.9992 95.7966 15.0605 95.7966 15.1218ZM86.4968 16.3916C86.5943 16.3916 86.6741 16.4178 86.745 16.4616C86.8159 16.5054 86.8691 16.5754 86.9046 16.6717C86.94 16.7681 86.9578 16.8995 86.9578 17.0746C86.9578 17.2497 86.94 17.3811 86.8957 17.4774C86.8602 17.5737 86.807 17.6437 86.7362 17.6876C86.674 17.7314 86.5854 17.7577 86.4879 17.7577C86.3904 17.7577 86.3018 17.7314 86.2396 17.6876C86.1688 17.6437 86.1156 17.5737 86.0801 17.4774C86.0446 17.3811 86.0269 17.2497 86.0269 17.0833C86.0269 16.8469 86.0624 16.6717 86.1422 16.5667C86.2308 16.4441 86.355 16.3916 86.4968 16.3916V16.3916ZM86.5056 16.6279C86.4613 16.6279 86.4258 16.6367 86.3904 16.6717C86.355 16.698 86.3284 16.7418 86.3106 16.8118C86.2928 16.8732 86.284 16.9695 86.284 17.1008C86.284 17.2672 86.3018 17.3811 86.346 17.4424C86.3815 17.5037 86.4347 17.5387 86.4968 17.5387C86.5588 17.5387 86.6032 17.5124 86.6386 17.4511C86.683 17.3811 86.7006 17.2585 86.7006 17.0921C86.7006 16.9257 86.683 16.8031 86.6386 16.7418C86.6209 16.6542 86.5677 16.6279 86.5056 16.6279V16.6279ZM88.1191 16.4178H88.9879V16.5492L88.394 17.7577L88.1812 17.6526L88.6777 16.6455H88.1191V16.4178ZM89.5465 16.3916L89.7593 16.4967L89.5287 16.9432C89.644 16.9432 89.7327 16.987 89.8125 17.0658C89.8923 17.1447 89.9277 17.2409 89.9277 17.3636C89.9277 17.4774 89.8833 17.5737 89.8035 17.6526C89.7237 17.7314 89.6263 17.7751 89.511 17.7751C89.3957 17.7751 89.2893 17.7314 89.2096 17.6526C89.1298 17.5737 89.0943 17.4774 89.0943 17.3723C89.0943 17.3286 89.1032 17.2935 89.1121 17.2497C89.1209 17.2059 89.1564 17.1447 89.2007 17.057L89.5465 16.3916V16.3916ZM89.5199 17.1709C89.4755 17.1709 89.4312 17.1884 89.4047 17.2235C89.3691 17.2585 89.3603 17.3023 89.3603 17.346C89.3603 17.3986 89.3781 17.4424 89.4135 17.4687C89.4489 17.5037 89.4844 17.5212 89.5287 17.5212C89.5731 17.5212 89.6174 17.5037 89.6529 17.4687C89.6883 17.4336 89.7061 17.3898 89.7061 17.3373C89.7061 17.2847 89.6883 17.2409 89.6529 17.2147C89.6085 17.1884 89.5642 17.1709 89.5199 17.1709V17.1709ZM90.8053 17.022C90.8675 17.057 90.9117 17.1096 90.9472 17.1709C90.9827 17.2322 91.0004 17.2935 91.0004 17.3636C91.0004 17.4424 90.9827 17.5124 90.9472 17.5737C90.9117 17.635 90.8585 17.6876 90.7965 17.7138C90.7345 17.7488 90.6547 17.7664 90.5483 17.7664C90.4419 17.7664 90.3533 17.7488 90.2911 17.7226C90.2291 17.6876 90.1759 17.6437 90.1405 17.5825C90.105 17.5212 90.0873 17.4511 90.0873 17.3723C90.0873 17.3023 90.1049 17.2409 90.1315 17.1884C90.1581 17.1358 90.2113 17.0833 90.2645 17.0396C90.2291 16.9957 90.1937 16.9607 90.1759 16.9169C90.1581 16.8732 90.1493 16.8294 90.1493 16.7768C90.1493 16.7067 90.1671 16.6455 90.2025 16.5929C90.2379 16.5404 90.2823 16.4967 90.3443 16.4616C90.4065 16.4266 90.4773 16.4178 90.5483 16.4178C90.6281 16.4178 90.6901 16.4353 90.7521 16.4616C90.8143 16.4967 90.8585 16.5404 90.8941 16.5929C90.9295 16.6542 90.9472 16.7156 90.9472 16.7768C90.9472 16.8207 90.9383 16.8644 90.9207 16.9082C90.8851 16.9257 90.8585 16.9695 90.8053 17.022V17.022ZM90.5305 16.6279C90.4862 16.6279 90.4596 16.6455 90.433 16.6717C90.4065 16.698 90.3887 16.733 90.3887 16.7768C90.3887 16.8207 90.4065 16.8557 90.433 16.8819C90.4596 16.9082 90.4951 16.9257 90.5394 16.9257C90.5837 16.9257 90.6191 16.9082 90.6457 16.8819C90.6723 16.8557 90.6901 16.8207 90.6901 16.7768C90.6901 16.733 90.6723 16.698 90.6457 16.6717C90.6103 16.6455 90.5749 16.6279 90.5305 16.6279V16.6279ZM90.5394 17.1534C90.4773 17.1534 90.4241 17.1709 90.3887 17.2059C90.3443 17.2409 90.3267 17.2847 90.3267 17.3373C90.3267 17.3898 90.3443 17.4336 90.3887 17.4687C90.4241 17.5037 90.4773 17.5212 90.5394 17.5212C90.6015 17.5212 90.6547 17.5037 90.6901 17.4687C90.7255 17.4336 90.7433 17.3898 90.7433 17.3373C90.7433 17.2847 90.7255 17.2409 90.6813 17.2059C90.6457 17.1709 90.6015 17.1534 90.5394 17.1534V17.1534ZM91.5678 16.3916L91.7805 16.4967L91.5501 16.9432C91.6653 16.9432 91.7539 16.987 91.8337 17.0658C91.9135 17.1447 91.949 17.2409 91.949 17.3636C91.949 17.4774 91.9047 17.5737 91.8249 17.6526C91.7451 17.7314 91.6476 17.7751 91.5323 17.7751C91.4171 17.7751 91.3107 17.7314 91.2309 17.6526C91.1511 17.5737 91.1157 17.4774 91.1157 17.3723C91.1157 17.3286 91.1245 17.2935 91.1333 17.2497C91.1423 17.2059 91.1777 17.1447 91.2221 17.057L91.5678 16.3916V16.3916ZM91.5323 17.1709C91.488 17.1709 91.4437 17.1884 91.4171 17.2235C91.3816 17.2585 91.3727 17.3023 91.3727 17.346C91.3727 17.3986 91.3905 17.4424 91.4259 17.4687C91.4614 17.5037 91.4969 17.5212 91.5412 17.5212C91.5855 17.5212 91.6299 17.5037 91.6653 17.4687C91.7007 17.4336 91.7185 17.3898 91.7185 17.3373C91.7185 17.2847 91.7007 17.2409 91.6653 17.2147C91.621 17.1884 91.5855 17.1709 91.5323 17.1709V17.1709ZM93.1636 16.4178H94.0324V16.5492L93.4384 17.7577L93.2256 17.6526L93.7221 16.6455H93.1724V16.4178H93.1636ZM94.6706 16.3916H94.9189V17.2322H95.0342V17.4598H94.9189V17.7226H94.6706V17.4598H94.0944V17.2322L94.6706 16.3916ZM94.6706 17.2322V16.7944L94.3692 17.2322H94.6706ZM95.6016 16.3916L95.8144 16.4967L95.5838 16.9432C95.699 16.9432 95.7878 16.987 95.8676 17.0658C95.9473 17.1447 95.9828 17.2409 95.9828 17.3636C95.9828 17.4774 95.9384 17.5737 95.8586 17.6526C95.7788 17.7314 95.6814 17.7751 95.566 17.7751C95.4508 17.7751 95.3444 17.7314 95.2646 17.6526C95.1848 17.5737 95.1494 17.4774 95.1494 17.3723C95.1494 17.3286 95.1582 17.2935 95.1672 17.2497C95.176 17.2059 95.2114 17.1447 95.2558 17.057L95.6016 16.3916V16.3916ZM95.566 17.1709C95.5218 17.1709 95.4774 17.1884 95.4508 17.2235C95.4154 17.2585 95.4065 17.3023 95.4065 17.346C95.4065 17.3986 95.4242 17.4424 95.4597 17.4687C95.4952 17.5037 95.5306 17.5212 95.575 17.5212C95.6192 17.5212 95.6636 17.5037 95.699 17.4687C95.7346 17.4336 95.7522 17.3898 95.7522 17.3373C95.7522 17.2847 95.7346 17.2409 95.699 17.2147C95.6636 17.1884 95.6192 17.1709 95.566 17.1709ZM97.4101 16.8469H97.1619C97.1707 16.7067 97.215 16.5929 97.2948 16.5141C97.3746 16.4353 97.481 16.3916 97.614 16.3916C97.6938 16.3916 97.7647 16.409 97.8268 16.4441C97.8888 16.4791 97.9332 16.5229 97.9775 16.5842C98.0129 16.6455 98.0307 16.7156 98.0307 16.7768C98.0307 16.8557 98.0041 16.9345 97.9598 17.0307C97.9154 17.1184 97.8356 17.2235 97.7115 17.346L97.5608 17.5037H98.0307V17.7314H97.1176V17.6087L97.5254 17.1972C97.6229 17.1008 97.6938 17.022 97.7204 16.9607C97.7559 16.8995 97.7736 16.8469 97.7736 16.7944C97.7736 16.7418 97.7559 16.7067 97.7204 16.6717C97.6849 16.6367 97.6406 16.6192 97.5874 16.6192C97.5342 16.6192 97.4899 16.6367 97.4544 16.6805C97.4278 16.7243 97.4101 16.7768 97.4101 16.8469V16.8469ZM86.4968 18.1079C86.5943 18.1079 86.6741 18.1342 86.745 18.1779C86.8159 18.2217 86.8691 18.2917 86.9046 18.3881C86.94 18.4845 86.9578 18.6157 86.9578 18.7909C86.9578 18.9661 86.94 19.0974 86.8957 19.1937C86.8602 19.2901 86.807 19.3601 86.7362 19.4039C86.674 19.4477 86.5854 19.4739 86.4879 19.4739C86.3904 19.4739 86.3018 19.4477 86.2396 19.4039C86.1688 19.3601 86.1156 19.2901 86.0801 19.1937C86.0446 19.0974 86.0269 18.9661 86.0269 18.7997C86.0269 18.5633 86.0624 18.3881 86.1422 18.283C86.2308 18.1692 86.355 18.1079 86.4968 18.1079V18.1079ZM86.5056 18.3443C86.4613 18.3443 86.4258 18.3531 86.3904 18.3881C86.355 18.4144 86.3284 18.4582 86.3106 18.5282C86.2928 18.5896 86.284 18.6858 86.284 18.8172C86.284 18.9836 86.3018 19.0974 86.346 19.1587C86.3815 19.22 86.4347 19.255 86.4968 19.255C86.5588 19.255 86.6032 19.2287 86.6386 19.1675C86.683 19.0974 86.7006 18.9748 86.7006 18.8085C86.7006 18.642 86.683 18.5195 86.6386 18.4582C86.6209 18.3794 86.5677 18.3443 86.5056 18.3443V18.3443ZM87.605 18.1079H87.8532V18.9486H87.9773V19.1762H87.862V19.4389H87.6138V19.1762H87.0376V18.9486L87.605 18.1079ZM87.6138 18.9486V18.5107L87.3124 18.9486H87.6138ZM88.323 18.5633H88.0748C88.0837 18.4231 88.128 18.3093 88.2078 18.2305C88.2876 18.1517 88.394 18.1079 88.5269 18.1079C88.6067 18.1079 88.6777 18.1254 88.7397 18.1605C88.8018 18.1955 88.8461 18.2392 88.8904 18.3006C88.9259 18.3618 88.9436 18.4319 88.9436 18.4932C88.9436 18.572 88.917 18.6508 88.8727 18.7471C88.8284 18.8347 88.7486 18.9398 88.6245 19.0624L88.4737 19.22H88.9436V19.4477H88.0482V19.3251L88.456 18.9136C88.5535 18.8172 88.6245 18.7384 88.6511 18.6771C88.6865 18.6157 88.7043 18.5633 88.7043 18.5107C88.7043 18.4582 88.6865 18.4231 88.6511 18.3881C88.6156 18.3531 88.5713 18.3356 88.5181 18.3356C88.4649 18.3356 88.4206 18.3531 88.3851 18.3968C88.3496 18.4407 88.3319 18.4932 88.323 18.5633ZM95.176 19.4739L94.9632 19.3689L95.1938 18.9223C95.0785 18.9223 94.9898 18.8785 94.91 18.7997C94.8302 18.7208 94.7948 18.6246 94.7948 18.5019C94.7948 18.3881 94.8392 18.2917 94.9189 18.2129C94.9987 18.1342 95.0962 18.0904 95.2114 18.0904C95.3268 18.0904 95.4331 18.1342 95.5129 18.2129C95.5926 18.2917 95.6282 18.3881 95.6282 18.4932C95.6282 18.537 95.6192 18.572 95.6104 18.6157C95.6016 18.6596 95.5661 18.7208 95.5218 18.7997L95.176 19.4739V19.4739ZM95.2026 18.6946C95.247 18.6946 95.2912 18.6771 95.3178 18.642C95.3534 18.607 95.3622 18.5633 95.3622 18.5195C95.3622 18.4669 95.3444 18.4231 95.309 18.3881C95.2736 18.3531 95.238 18.3356 95.1938 18.3356C95.1494 18.3356 95.105 18.3531 95.0696 18.3881C95.0342 18.4231 95.0164 18.4669 95.0164 18.5195C95.0164 18.572 95.0342 18.6158 95.0696 18.642C95.114 18.6771 95.1582 18.6946 95.2026 18.6946V18.6946ZM95.9916 18.1429H96.6122V18.3706H96.1778L96.1246 18.607C96.1424 18.607 96.1512 18.5983 96.169 18.5983H96.2132C96.3285 18.5983 96.4349 18.642 96.5147 18.7208C96.5945 18.7997 96.63 18.9047 96.63 19.0274C96.63 19.1587 96.5856 19.2638 96.497 19.3514C96.4083 19.4389 96.302 19.4827 96.1778 19.4827C96.0626 19.4827 95.965 19.4477 95.8852 19.3864C95.8054 19.3251 95.7522 19.2376 95.7256 19.1237H95.9916C96.0094 19.1675 96.036 19.1937 96.0714 19.22C96.1069 19.2376 96.1424 19.255 96.1778 19.255C96.231 19.255 96.2842 19.2376 96.3196 19.1937C96.3551 19.1587 96.3817 19.1062 96.3817 19.0448C96.3817 18.9836 96.364 18.9398 96.3285 18.896C96.293 18.861 96.2488 18.8347 96.1956 18.8347C96.169 18.8347 96.1424 18.8435 96.1158 18.8522C96.0892 18.8697 96.0626 18.8873 96.036 18.9136L95.832 18.8697L95.9916 18.1429V18.1429ZM97.3037 18.1079H97.552V18.9486H97.6672V19.1762H97.552V19.4389H97.3037V19.1762H96.7274V18.9486L97.3037 18.1079ZM97.3126 18.9486V18.5107L97.0112 18.9486H97.3126ZM86.0978 25.0084H86.9666V25.1397L86.3726 26.3482L86.1598 26.2431L86.6564 25.236H86.0978V25.0084V25.0084ZM87.1085 25.0084H87.9773V25.1397L87.3833 26.3482L87.1706 26.2431L87.667 25.236H87.1174V25.0084H87.1085V25.0084ZM88.5358 24.9733L88.7486 25.0784L88.5181 25.525C88.6333 25.525 88.722 25.5688 88.8018 25.6476C88.8815 25.7264 88.917 25.8227 88.917 25.9454C88.917 26.0592 88.8727 26.1555 88.7929 26.2343C88.7131 26.3131 88.6156 26.3569 88.5003 26.3569C88.3851 26.3569 88.2787 26.3131 88.1989 26.2343C88.1191 26.1555 88.0837 26.0592 88.0837 25.9541C88.0837 25.9103 88.0925 25.8753 88.1014 25.8315C88.1103 25.7877 88.1457 25.7264 88.1901 25.6388L88.5358 24.9733ZM88.5092 25.7615C88.4649 25.7615 88.4206 25.7789 88.394 25.814C88.3585 25.849 88.3496 25.8928 88.3496 25.9366C88.3496 25.9891 88.3674 26.0329 88.4028 26.0592C88.4383 26.0942 88.4737 26.1117 88.5181 26.1117C88.5624 26.1117 88.6067 26.0942 88.6422 26.0592C88.6777 26.0241 88.6954 25.9804 88.6954 25.9278C88.6954 25.8753 88.6777 25.8315 88.6422 25.8052C88.5979 25.7789 88.5535 25.7615 88.5092 25.7615V25.7615ZM89.8035 25.6038C89.8657 25.6388 89.9099 25.6914 89.9454 25.7527C89.9809 25.814 89.9986 25.8753 89.9986 25.9454C89.9986 26.0241 89.9809 26.0942 89.9454 26.1555C89.9099 26.2168 89.8567 26.2694 89.7947 26.2957C89.7327 26.3307 89.6529 26.3482 89.5465 26.3482C89.4401 26.3482 89.3514 26.3307 89.2893 26.3044C89.2273 26.2694 89.1741 26.2256 89.1387 26.1643C89.1032 26.1029 89.0855 26.0329 89.0855 25.9541C89.0855 25.884 89.1032 25.8227 89.1298 25.7702C89.1564 25.7177 89.2096 25.6651 89.2628 25.6213C89.2273 25.5776 89.1919 25.5426 89.1741 25.4987C89.1564 25.4549 89.1475 25.4112 89.1475 25.3587C89.1475 25.2886 89.1653 25.2273 89.2007 25.1747C89.2362 25.1222 89.2805 25.0784 89.3425 25.0434C89.4046 25.0084 89.4755 24.9996 89.5465 24.9996C89.6263 24.9996 89.6883 25.0171 89.7503 25.0434C89.8125 25.0784 89.8567 25.1222 89.8923 25.1747C89.9277 25.236 89.9454 25.2973 89.9454 25.3587C89.9454 25.4024 89.9365 25.4462 89.9188 25.49C89.8833 25.5163 89.8479 25.56 89.8035 25.6038V25.6038ZM89.5199 25.2185C89.4755 25.2185 89.4401 25.236 89.4223 25.2623C89.3957 25.2886 89.3781 25.3236 89.3781 25.3674C89.3781 25.4112 89.3957 25.4462 89.4223 25.4725C89.4489 25.4987 89.4844 25.5163 89.5287 25.5163C89.5731 25.5163 89.6085 25.4987 89.6351 25.4725C89.6617 25.4462 89.6795 25.4112 89.6795 25.3674C89.6795 25.3236 89.6617 25.2886 89.6351 25.2623C89.5997 25.2273 89.5642 25.2185 89.5199 25.2185ZM89.5287 25.7352C89.4667 25.7352 89.4135 25.7527 89.3781 25.7877C89.3337 25.8227 89.3159 25.8666 89.3159 25.9191C89.3159 25.9717 89.3337 26.0154 89.3781 26.0504C89.4135 26.0855 89.4667 26.1029 89.5287 26.1029C89.5908 26.1029 89.644 26.0855 89.6795 26.0504C89.7149 26.0154 89.7327 25.9717 89.7327 25.9191C89.7327 25.8666 89.7149 25.8227 89.6706 25.7877C89.644 25.7615 89.5908 25.7352 89.5287 25.7352V25.7352ZM90.5571 24.9733L90.7699 25.0784L90.5394 25.525C90.6547 25.525 90.7433 25.5688 90.8231 25.6476C90.9029 25.7264 90.9383 25.8227 90.9383 25.9454C90.9383 26.0592 90.8941 26.1555 90.8143 26.2343C90.7345 26.3131 90.6369 26.3569 90.5217 26.3569C90.4065 26.3569 90.3001 26.3131 90.2203 26.2343C90.1405 26.1555 90.1049 26.0592 90.1049 25.9541C90.1049 25.9103 90.1139 25.8753 90.1227 25.8315C90.1315 25.7877 90.1671 25.7264 90.2113 25.6388L90.5571 24.9733V24.9733ZM90.5217 25.7615C90.4773 25.7615 90.433 25.7789 90.4065 25.814C90.3709 25.849 90.3621 25.8928 90.3621 25.9366C90.3621 25.9891 90.3799 26.0329 90.4153 26.0592C90.4507 26.0942 90.4862 26.1117 90.5305 26.1117C90.5749 26.1117 90.6192 26.0942 90.6547 26.0592C90.6901 26.0241 90.7079 25.9804 90.7079 25.9278C90.7079 25.8753 90.6901 25.8315 90.6547 25.8052C90.6192 25.7789 90.5749 25.7615 90.5217 25.7615V25.7615ZM91.5323 26.3482L91.3195 26.2431L91.5501 25.7965C91.4348 25.7965 91.3461 25.7527 91.2663 25.6738C91.1865 25.595 91.1511 25.4987 91.1511 25.3761C91.1511 25.2623 91.1955 25.166 91.2753 25.0872C91.355 25.0084 91.4525 24.9646 91.5678 24.9646C91.6831 24.9646 91.7894 25.0084 91.8692 25.0872C91.949 25.166 91.9845 25.2623 91.9845 25.3674C91.9845 25.4112 91.9756 25.4462 91.9667 25.49C91.9579 25.5337 91.9224 25.595 91.8781 25.6738L91.5323 26.3482V26.3482ZM91.5589 25.56C91.6033 25.56 91.6476 25.5426 91.6741 25.5075C91.7097 25.4725 91.7185 25.4287 91.7185 25.3849C91.7185 25.3324 91.7007 25.2886 91.6653 25.2536C91.6299 25.2185 91.5944 25.201 91.5501 25.201C91.5057 25.201 91.4614 25.2185 91.4259 25.2536C91.3905 25.2886 91.3727 25.3324 91.3727 25.3849C91.3727 25.4375 91.3905 25.4812 91.4259 25.5075C91.4703 25.5426 91.5146 25.56 91.5589 25.56V25.56ZM92.1529 25.0084H93.0217V25.1397L92.4277 26.3482L92.2149 26.2431L92.7114 25.236H92.1618V25.0084H92.1529ZM93.66 24.9733H93.9082V25.814H94.0235V26.0417H93.9082V26.3044H93.66V26.0417H93.0838V25.814L93.66 24.9733ZM93.6689 25.814V25.3761L93.3675 25.814H93.6689ZM94.5909 24.9733L94.8036 25.0784L94.5732 25.525C94.6884 25.525 94.777 25.5688 94.8568 25.6476C94.9366 25.7264 94.9721 25.8227 94.9721 25.9454C94.9721 26.0592 94.9278 26.1555 94.848 26.2343C94.7682 26.3131 94.6706 26.3569 94.5554 26.3569C94.4402 26.3569 94.3338 26.3131 94.254 26.2343C94.1742 26.1555 94.1388 26.0592 94.1388 25.9541C94.1388 25.9103 94.1476 25.8753 94.1565 25.8315C94.1654 25.7877 94.2008 25.7264 94.2452 25.6388L94.5909 24.9733V24.9733ZM94.5643 25.7615C94.52 25.7615 94.4756 25.7789 94.449 25.814C94.4136 25.849 94.4048 25.8928 94.4048 25.9366C94.4048 25.9891 94.4224 26.0329 94.4579 26.0592C94.4934 26.0942 94.5288 26.1117 94.5732 26.1117C94.6175 26.1117 94.6618 26.0942 94.6972 26.0592C94.7328 26.0241 94.7504 25.9804 94.7504 25.9278C94.7504 25.8753 94.7328 25.8315 94.6972 25.8052C94.653 25.7789 94.6086 25.7615 94.5643 25.7615V25.7615ZM95.371 25.0084H95.9916V25.236H95.5572L95.504 25.4725C95.5218 25.4725 95.5306 25.4637 95.5484 25.4637H95.5926C95.708 25.4637 95.8144 25.5075 95.8942 25.5863C95.9739 25.6651 96.0094 25.7702 96.0094 25.8928C96.0094 26.0241 95.965 26.1292 95.8764 26.2168C95.7878 26.3044 95.6814 26.3482 95.5572 26.3482C95.442 26.3482 95.3444 26.3131 95.2646 26.2518C95.1848 26.1906 95.1316 26.1029 95.105 25.9891H95.371C95.3888 26.0329 95.4154 26.0592 95.4508 26.0855C95.4863 26.1029 95.5218 26.1205 95.5572 26.1205C95.6104 26.1205 95.6636 26.1029 95.699 26.0592C95.7346 26.0241 95.7612 25.9717 95.7612 25.9103C95.7612 25.849 95.7434 25.8052 95.708 25.7615C95.6724 25.7264 95.6282 25.7001 95.575 25.7001C95.5484 25.7001 95.5218 25.7089 95.4952 25.7177C95.4686 25.7352 95.442 25.7527 95.4154 25.7789L95.2114 25.7352L95.371 25.0084V25.0084Z" fill="#C0AB59"/>
</svg>
