<svg width="49" height="48" viewBox="0 0 49 48" fill="none" xmlns="http://www.w3.org/2000/svg">
<path d="M32.7169 35.36L30.1969 33.02C28.1969 34.58 25.8569 35.36 23.1769 35.36C21.6569 35.36 20.2869 35.12 19.0669 34.64C17.8469 34.14 16.8869 33.45 16.1869 32.57C15.5069 31.69 15.1669 30.7 15.1669 29.6C15.1669 28.3 15.5269 27.16 16.2469 26.18C16.9869 25.18 18.1669 24.23 19.7869 23.33C19.0269 22.55 18.4769 21.81 18.1369 21.11C17.7969 20.39 17.6269 19.65 17.6269 18.89C17.6269 17.87 17.8969 16.97 18.4369 16.19C18.9769 15.41 19.7369 14.81 20.7169 14.39C21.7169 13.95 22.8669 13.73 24.1669 13.73C25.9869 13.73 27.4469 14.17 28.5469 15.05C29.6469 15.91 30.1969 17.08 30.1969 18.56C30.1969 19.64 29.8669 20.6 29.2069 21.44C28.5669 22.28 27.5269 23.09 26.0869 23.87L29.9269 27.44C30.3869 26.48 30.7369 25.39 30.9769 24.17L34.7269 25.34C34.3269 27.2 33.6869 28.79 32.8069 30.11L35.2669 32.39L32.7169 35.36ZM24.1669 16.91C23.4669 16.91 22.9069 17.09 22.4869 17.45C22.0869 17.81 21.8869 18.27 21.8869 18.83C21.8869 19.25 21.9969 19.65 22.2169 20.03C22.4369 20.39 22.8669 20.88 23.5069 21.5C24.5269 20.96 25.2369 20.48 25.6369 20.06C26.0369 19.62 26.2369 19.15 26.2369 18.65C26.2369 18.13 26.0569 17.71 25.6969 17.39C25.3369 17.07 24.8269 16.91 24.1669 16.91ZM23.5069 31.7C24.9669 31.7 26.2769 31.29 27.4369 30.47L22.3669 25.73C21.4269 26.27 20.7569 26.8 20.3569 27.32C19.9569 27.84 19.7569 28.43 19.7569 29.09C19.7569 29.87 20.0969 30.5 20.7769 30.98C21.4569 31.46 22.3669 31.7 23.5069 31.7Z" fill="white"/>
</svg>
