<svg width="173" height="65" viewBox="0 0 173 65" fill="none" xmlns="http://www.w3.org/2000/svg">
<path d="M131.871 52.7276L117.055 11.0275L117.045 11H116.753L113.702 19.5693L108.147 35.1696L108.134 35.1573C106.209 33.4209 103.493 32.3354 100.073 31.9312L99.0298 31.8211L100.065 31.6854C105.705 30.6492 109.497 27.0075 109.497 22.6199C109.497 16.6031 103.961 12.4034 96.0317 12.4034H79.5332V12.708H84.3273V43.7977L72.6841 11.0275L72.6739 11H72.3815L69.3306 19.5693L57.563 52.6203L57.4906 52.6289C57.2895 52.6542 57.0906 52.6744 56.8938 52.6896C56.5977 52.7133 56.3035 52.7276 56.0083 52.7276H44.1183L66.7196 12.708L66.8876 12.4072H39.2453V24.7871H39.5386C39.5906 18.757 43.0258 12.708 50.6156 12.708H59.7721L37 53.0274H67.6784V41.1665H67.3851C67.3452 46.4223 64.4307 51.4143 58.093 52.5416L57.8916 52.5767L62.7182 39.0145H76.2391L81.1111 52.7276H76.305V53.0274H95.1685V52.7276H90.3419V32.0422H95.9111C101.579 32.0422 104.829 34.6307 104.829 39.1416V42.8109C104.829 43.2151 104.856 43.8063 104.886 44.3006V44.3187L101.892 52.7257H97.9818V53.0255H106.077V52.7257H102.208L104.934 45.0702C104.94 45.1442 104.942 45.1888 104.942 45.1888L105.017 45.8786L105.09 46.335C105.545 49.1579 106.601 51.2331 108.228 52.5027L108.462 52.6763C109.698 53.555 111.234 54 113.031 54C115.409 54 116.996 53.3937 118.305 51.9666L118.134 51.8015C116.927 52.9401 115.914 53.4013 114.646 53.4013C112.484 53.4013 111.352 50.7207 111.352 48.0771V42.9362C111.364 41.6605 111.168 40.3918 110.774 39.1815L110.72 39.0221V39.0164H120.61L125.482 52.7295H120.676V53.0293H137V52.7295L131.871 52.7276ZM62.8259 38.7146L69.4865 20.0076L76.1323 38.7146H62.8259ZM90.3447 31.7414V12.708H94.5958C100.274 12.708 103.272 16.159 103.272 22.6844C103.272 29.6244 101.552 31.7414 95.9111 31.7414H90.3447ZM110.605 38.7146L110.576 38.6406C110.137 37.5464 109.497 36.548 108.691 35.6991L108.413 35.4145L108.383 35.386L113.854 20.0076L120.5 38.7146H110.605Z" fill="white"/>
</svg>
