<svg width="173" height="65" viewBox="0 0 173 65" fill="none" xmlns="http://www.w3.org/2000/svg">
<path d="M26 46.48V41.8L41.4 23.88H26.48V18.48H49.32V23.16L33.92 41.08H49.32V46.48H26Z" fill="white"/>
<path d="M79.7941 42.76C76.9674 45.56 73.4207 46.96 69.1541 46.96C64.8874 46.96 61.3407 45.56 58.5141 42.76C55.7141 39.96 54.3141 36.5333 54.3141 32.48C54.3141 28.4533 55.7274 25.04 58.5541 22.24C61.4074 19.4133 64.9674 18 69.2341 18C73.5007 18 77.0341 19.4 79.8341 22.2C82.6607 25 84.0741 28.4267 84.0741 32.48C84.0741 36.5067 82.6474 39.9333 79.7941 42.76ZM63.1541 38.72C64.7541 40.4267 66.7807 41.28 69.2341 41.28C71.6874 41.28 73.7007 40.44 75.2741 38.76C76.8474 37.0533 77.6341 34.96 77.6341 32.48C77.6341 30.0267 76.8341 27.9467 75.2341 26.24C73.6341 24.5333 71.6074 23.68 69.1541 23.68C66.7007 23.68 64.6874 24.5333 63.1141 26.24C61.5407 27.92 60.7541 30 60.7541 32.48C60.7541 34.9333 61.5541 37.0133 63.1541 38.72Z" fill="white"/>
<path d="M89.0922 46.48V41.8L104.492 23.88H89.5722V18.48H112.412V23.16L97.0122 41.08H112.412V46.48H89.0922Z" fill="white"/>
<path d="M142.886 42.76C140.06 45.56 136.513 46.96 132.246 46.96C127.98 46.96 124.433 45.56 121.606 42.76C118.806 39.96 117.406 36.5333 117.406 32.48C117.406 28.4533 118.82 25.04 121.646 22.24C124.5 19.4133 128.06 18 132.326 18C136.593 18 140.126 19.4 142.926 22.2C145.753 25 147.166 28.4267 147.166 32.48C147.166 36.5067 145.74 39.9333 142.886 42.76ZM126.246 38.72C127.846 40.4267 129.873 41.28 132.326 41.28C134.78 41.28 136.793 40.44 138.366 38.76C139.94 37.0533 140.726 34.96 140.726 32.48C140.726 30.0267 139.926 27.9467 138.326 26.24C136.726 24.5333 134.7 23.68 132.246 23.68C129.793 23.68 127.78 24.5333 126.206 26.24C124.633 27.92 123.846 30 123.846 32.48C123.846 34.9333 124.646 37.0133 126.246 38.72Z" fill="white"/>
</svg>
