<svg width="48" height="48" viewBox="0 0 48 48" fill="none" xmlns="http://www.w3.org/2000/svg">
<g clip-path="url(#clip0)">
<path d="M47.588 19.778L40.0569 12.2465C39.7932 11.9824 39.4354 11.8345 39.0626 11.8345H32.9377V11.7341C32.9377 8.88245 30.6174 6.5625 27.7657 6.5625H5.172C2.31995 6.5625 0 8.88245 0 11.7341V30.5629C0 33.4146 2.31995 35.7341 5.172 35.7341H6.16626C6.81995 38.9528 9.67126 41.3833 13.0796 41.3833C16.4879 41.3833 19.3396 38.9528 19.9933 35.7341H28.0067C28.6604 38.9528 31.5117 41.3833 34.9204 41.3833C38.3287 41.3833 41.1804 38.9528 41.8337 35.7341H46.5938C47.3705 35.7341 48 35.1046 48 34.3279V20.7722C48 20.399 47.8521 20.0416 47.588 19.778ZM13.0796 38.5708C10.7406 38.5708 8.83777 36.6672 8.83777 34.3279C8.83777 31.9889 10.7406 30.0857 13.0796 30.0857C15.4189 30.0857 17.3218 31.9889 17.3218 34.3279C17.3218 36.6672 15.4189 38.5708 13.0796 38.5708ZM34.9204 38.5708C32.5814 38.5708 30.6782 36.6672 30.6782 34.3279C30.6782 31.9889 32.5814 30.0857 34.9204 30.0857C37.2594 30.0857 39.1626 31.9889 39.1626 34.3279C39.1626 36.6672 37.2598 38.5708 34.9204 38.5708ZM32.9377 19.366V14.647H38.48L43.199 19.366H32.9377Z" fill="#2DE58D"/>
</g>
<defs>
<clipPath id="clip0">
<rect width="48" height="48" fill="white"/>
</clipPath>
</defs>
</svg>
