<svg width="48" height="48" viewBox="0 0 48 48" fill="none" xmlns="http://www.w3.org/2000/svg">
<g clip-path="url(#clip0)">
<path d="M15.8709 25.4062H32.7458C33.5233 25.4062 34.152 24.777 34.152 23.9999V7.03122C34.152 6.25413 33.5233 5.62498 32.7458 5.62498H28.5271V4.21873C28.5271 1.89257 26.6345 0 24.3083 0C21.9822 0 20.0896 1.89257 20.0896 4.21873V5.62498H15.8709C15.0938 5.62498 14.4646 6.25413 14.4646 7.03122V23.9999C14.4646 24.777 15.0938 25.4062 15.8709 25.4062ZM22.9021 4.21873C22.9021 3.44274 23.5338 2.81249 24.3083 2.81249C25.0829 2.81249 25.7146 3.44274 25.7146 4.21873V5.62498H22.9021V4.21873Z" fill="#2DE58D"/>
<path d="M44.7952 23.2719C44.5425 22.8519 44.0837 22.5937 43.5922 22.5937C41.1144 22.5937 38.8414 23.9688 37.6911 26.1635L33.3775 34.3959C32.6444 35.7911 31.2132 36.6561 29.6396 36.6561H20.0896C19.3125 36.6561 18.6834 36.027 18.6834 35.2499C18.6834 34.4728 19.3125 33.8436 20.0896 33.8436H29.6393C30.1641 33.8436 30.642 33.5554 30.8866 33.0896C31.1301 32.6245 31.8658 31.2201 32.4983 30.0131C32.6975 29.633 32.6836 29.1763 32.4613 28.809C32.2386 28.4421 31.8406 28.2187 31.4114 28.2187H16.7937C14.9151 28.2187 13.1518 28.9507 11.8224 30.2786L3.50583 38.5952C2.95651 39.1445 2.95651 40.0344 3.50583 40.5837L10.5371 47.5879C10.8117 47.8625 11.1717 48.0002 11.5313 48.0002C11.8909 48.0002 12.2509 47.8625 12.5256 47.5879L17.8594 42.2811H29.6393C33.3116 42.2811 36.654 40.2596 38.3598 37.0062L44.8362 24.6536C45.0669 24.2182 45.0505 23.6938 44.7952 23.2719Z" fill="#2DE58D"/>
</g>
<defs>
<clipPath id="clip0">
<rect width="48" height="48" fill="white"/>
</clipPath>
</defs>
</svg>
