<svg width="48" height="48" viewBox="0 0 48 48" fill="none" xmlns="http://www.w3.org/2000/svg">
<path d="M7.28174 34.6853V37.9091C7.28174 38.6898 7.91455 39.3226 8.69531 39.3226H39.3047C40.0854 39.3226 40.7183 38.6898 40.7183 37.9091V34.6853H7.28174Z" fill="#2DE58D"/>
<path d="M48 16.7172C48 14.1987 45.951 12.1498 43.4326 12.1498C40.9142 12.1498 38.8656 14.1987 38.8656 16.7172C38.8656 17.9279 39.3398 19.0294 40.1118 19.8475C38.7389 21.3834 36.7452 22.3528 34.5282 22.3528C30.9393 22.3528 27.9335 19.8157 27.2062 16.4414C28.0459 15.6127 28.5674 14.4624 28.5674 13.1924C28.5674 10.674 26.5184 8.625 24 8.625C21.4816 8.625 19.4326 10.674 19.4326 13.1924C19.4326 14.4624 19.9545 15.6127 20.7938 16.4414C20.0665 19.8157 17.0607 22.3528 13.4718 22.3528C11.2548 22.3528 9.26111 21.3834 7.88818 19.8475C8.66016 19.0294 9.13477 17.9279 9.13477 16.7172C9.13477 14.1987 7.08582 12.1498 4.56738 12.1498C2.04895 12.1498 0 14.1987 0 16.7172C0 18.8998 1.53918 20.7286 3.58887 21.1776C3.99426 24.5233 4.77759 28.5996 6.29004 31.8582H41.71C43.2224 28.5996 44.0057 24.5233 44.4111 21.1776C46.4608 20.7283 48 18.8998 48 16.7172Z" fill="#2DE58D"/>
</svg>
