<svg width="48" height="48" viewBox="0 0 48 48" fill="none" xmlns="http://www.w3.org/2000/svg">
<path d="M0 18V42C0 43.6567 1.34308 45 3 45H12V15H3C1.34308 15 0 16.3431 0 18Z" fill="#2DE58D"/>
<path d="M42.46 17.9994H33.5977C32.8228 17.9994 32.4346 17.4823 32.3042 17.2596C32.1738 17.0384 31.9102 16.4481 32.2852 15.7713L35.4097 10.1449C36.0952 8.91293 36.1655 7.4642 35.6045 6.17074C35.0435 4.87582 33.936 3.93685 32.5664 3.59554L30.3633 3.04476C29.8271 2.90999 29.2588 3.08138 28.8852 3.49593L16.9233 16.785C15.6826 18.1663 15 19.9476 15 21.8021V37.4993C15 41.6346 18.3647 44.9993 22.5 44.9993L37.4224 44.9979C40.7915 44.9979 43.7666 42.7288 44.6558 39.4813L47.8579 24.7859C47.9516 24.3773 48 23.9583 48 23.5394C48 20.4852 45.5141 17.9993 42.4599 17.9993L42.46 17.9994Z" fill="#2DE58D"/>
</svg>
