<svg width="48" height="48" viewBox="0 0 48 48" fill="none" xmlns="http://www.w3.org/2000/svg">
<path d="M37.8001 6.20038C36.3337 4.73355 34.5668 4 32.501 4H7.50015C5.43432 4 3.66748 4.73355 2.20038 6.20038C0.733551 7.66748 0 9.43422 0 11.5002V36.5007C0 38.5665 0.733551 40.3334 2.20038 41.8005C3.66748 43.2676 5.43432 44.0011 7.50015 44.0011H32.5007C34.5666 44.0011 36.3334 43.2676 37.7999 41.8005C39.267 40.3334 40.0005 38.5666 40.0005 36.5007V11.5002C40.0004 9.43422 39.2669 7.66721 37.8001 6.20038ZM33.3342 25.6671C33.3342 26.1185 33.169 26.5096 32.8397 26.839C32.5094 27.1686 32.1186 27.3341 31.6672 27.3341H23.3344V35.6673C23.3344 36.1186 23.1686 36.5094 22.8389 36.8391C22.5096 37.1693 22.1185 37.3342 21.667 37.3342H18.3338C17.8824 37.3342 17.4918 37.1693 17.1619 36.8391C16.832 36.5095 16.667 36.1187 16.667 35.6673V27.3341H8.3334C7.88207 27.3341 7.49158 27.1687 7.16156 26.839C6.83182 26.5097 6.66682 26.1185 6.66682 25.6671V22.3335C6.66682 21.8822 6.83182 21.4915 7.16156 21.1616C7.49149 20.8317 7.88198 20.6667 8.3334 20.6667H16.6671V12.3334C16.6671 11.882 16.8321 11.4912 17.162 11.1616C17.4918 10.8315 17.8824 10.6664 18.3339 10.6664H21.6671C22.1185 10.6664 22.5096 10.8315 22.839 11.1616C23.1686 11.4912 23.3344 11.882 23.3344 12.3334V20.6668H31.6673C32.1186 20.6668 32.5094 20.8318 32.8398 21.1617C33.1693 21.4915 33.3343 21.8822 33.3343 22.3336V25.6671H33.3342Z" fill="#2DE58D"/>
</svg>
