<svg width="48" height="48" viewBox="0 0 48 48" fill="none" xmlns="http://www.w3.org/2000/svg">
<path d="M46.2482 33.4014H43.3869V27.7178C43.3869 26.7503 42.6027 25.966 41.635 25.966H25.7518V19.2701H35.854C36.8217 19.2701 37.6058 18.4857 37.6058 17.5182V3.62042C37.6058 2.65294 36.8217 1.86859 35.854 1.86859H12.146C11.1783 1.86859 10.3942 2.65294 10.3942 3.62042V17.5182C10.3942 18.4857 11.1783 19.2701 12.146 19.2701H22.2482V25.966H6.36496C5.39726 25.966 4.61314 26.7503 4.61314 27.7178V33.4014H1.75182C0.784117 33.4014 0 34.1858 0 35.1533V44.3795C0 45.347 0.784117 46.1314 1.75182 46.1314H10.9781C11.9458 46.1314 12.7299 45.347 12.7299 44.3795V35.1533C12.7299 34.1858 11.9458 33.4014 10.9781 33.4014H8.11679V29.4696H22.2482V33.4014H19.3869C18.4192 33.4014 17.635 34.1858 17.635 35.1533V44.3795C17.635 45.347 18.4192 46.1314 19.3869 46.1314H28.6131C29.5808 46.1314 30.365 45.347 30.365 44.3795V35.1533C30.365 34.1858 29.5808 33.4014 28.6131 33.4014H25.7518V29.4696H39.8832V33.4014H37.0219C36.0542 33.4014 35.2701 34.1858 35.2701 35.1533V44.3795C35.2701 45.347 36.0542 46.1314 37.0219 46.1314H46.2482C47.2159 46.1314 48 45.347 48 44.3795V35.1533C48 34.1858 47.2159 33.4014 46.2482 33.4014Z" fill="#2DE58D"/>
</svg>
