<svg width="48" height="48" viewBox="0 0 48 48" fill="none" xmlns="http://www.w3.org/2000/svg">
<g clip-path="url(#clip0)">
<path d="M17.6216 21.9295C18.7298 21.9295 19.6281 21.0312 19.6281 19.9231C19.6281 18.8149 18.7298 17.9166 17.6216 17.9166C16.5135 17.9166 15.6152 18.8149 15.6152 19.9231C15.6152 21.0312 16.5135 21.9295 17.6216 21.9295Z" fill="#2DE58D"/>
<path d="M30.3685 30.0734C31.4766 30.0734 32.3749 29.1751 32.3749 28.0669C32.3749 26.9588 31.4766 26.0605 30.3685 26.0605C29.2603 26.0605 28.362 26.9588 28.362 28.0669C28.362 29.1751 29.2603 30.0734 30.3685 30.0734Z" fill="#2DE58D"/>
<path d="M46.9118 26.6506L46.184 25.6572C45.3971 24.5753 45.3775 23.1098 46.1545 22.0082L46.8626 21.005C47.9445 19.4707 47.4429 17.3364 45.7807 16.4413L44.6988 15.861C43.5186 15.2316 42.8694 13.9136 43.0956 12.5858L43.3022 11.376C43.6169 9.52695 42.2301 7.81557 40.3515 7.73689L39.1221 7.68771C37.7845 7.6287 36.6239 6.72383 36.2501 5.43537L35.9059 4.25511C35.3846 2.44538 33.3978 1.511 31.6668 2.2585L30.5357 2.74044C29.3062 3.27156 27.8702 2.95682 26.9752 1.9536L26.1589 1.0389C24.9098 -0.357748 22.7164 -0.347912 21.4772 1.07824L20.6706 2.00278C19.7854 3.01584 18.3593 3.35024 17.12 2.8388L15.9791 2.36669C14.2382 1.6487 12.2711 2.62242 11.7695 4.43215L11.4449 5.62225C11.0908 6.92054 9.94993 7.84508 8.6123 7.91393L7.38286 7.98277C5.50427 8.09097 4.14697 9.82202 4.49121 11.6711L4.71743 12.8809C4.96332 14.1988 4.33384 15.5266 3.16342 16.1758L2.09134 16.7757C0.448813 17.6904 -0.0232922 19.8346 1.08812 21.3492L1.81595 22.3426C2.60279 23.4245 2.62246 24.89 1.84546 25.9916L1.1373 26.9948C0.055392 28.5292 0.557004 30.6635 2.21921 31.5585L3.30111 32.1388C4.48138 32.7683 5.13052 34.0862 4.9043 35.414L4.69776 36.6238C4.38302 38.4729 5.76983 40.1843 7.64841 40.263L8.87785 40.3121C10.2155 40.3711 11.3761 41.276 11.7498 42.5645L12.0941 43.7447C12.6154 45.5545 14.6021 46.4888 16.3332 45.7413L17.4643 45.2594C18.6937 44.7283 20.1297 45.043 21.0247 46.0462L21.8411 46.9609C23.1 48.3576 25.2933 48.3478 26.5228 46.9216L27.3293 45.9971C28.2145 44.984 29.6406 44.6496 30.8799 45.161L32.0208 45.6332C33.7617 46.3511 35.7288 45.3774 36.2304 43.5677L36.555 42.3776C36.9091 41.0793 38.05 40.1548 39.3876 40.0859L40.6171 40.0171C42.4957 39.9089 43.853 38.1778 43.5087 36.3287L43.2825 35.119C43.0366 33.801 43.6661 32.4732 44.8365 31.8241L45.9086 31.2241C47.5511 30.3192 48.0232 28.1751 46.9118 26.6506ZM12.7727 19.9231C12.7727 17.2478 14.9365 15.084 17.6118 15.084C20.2871 15.084 22.4509 17.2478 22.4509 19.9231C22.4509 22.5984 20.2871 24.7622 17.6118 24.7622C14.9365 24.7622 12.7727 22.5885 12.7727 19.9231ZM18.5462 32.4044C18.1331 32.906 17.3856 32.9748 16.884 32.5617C16.3824 32.1487 16.3135 31.4011 16.7266 30.8995L29.4243 15.6053C29.8374 15.1037 30.5849 15.0348 31.0865 15.4479C31.5881 15.861 31.6569 16.6085 31.2438 17.1101L18.5462 32.4044ZM30.3685 32.906C27.6932 32.906 25.5294 30.7422 25.5294 28.0669C25.5294 25.3916 27.6932 23.2278 30.3685 23.2278C33.0437 23.2278 35.2075 25.3916 35.2075 28.0669C35.2075 30.7422 33.0437 32.906 30.3685 32.906Z" fill="#2DE58D"/>
</g>
<defs>
<clipPath id="clip0">
<rect width="48" height="48" fill="white"/>
</clipPath>
</defs>
</svg>
