<svg xmlns="http://www.w3.org/2000/svg" xmlns:xlink="http://www.w3.org/1999/xlink"><symbol viewBox="0 0 14 14" id="icon-alert" xmlns="http://www.w3.org/2000/svg"><path d="M13.5 7a6.5 6.5 0 1 1-13 0 6.5 6.5 0 0 1 13 0z"/><path fill-rule="evenodd" clip-rule="evenodd" d="M7.5 3h-1v5h1V3zm0 7h-1v1h1v-1z"/></symbol><symbol viewBox="0 0 6 10" id="icon-angle-def" xmlns="http://www.w3.org/2000/svg"><path d="M.293 1.354L1 .646 5.354 5 1 9.354l-.707-.708L3.939 5 .293 1.354z"/></symbol><symbol viewBox="0 0 6 3" id="icon-angle-down" xmlns="http://www.w3.org/2000/svg"><path fill-rule="evenodd" clip-rule="evenodd" d="M0 0h6L3 3 0 0z"/></symbol><symbol viewBox="0 0 6 3" id="icon-angle-top" xmlns="http://www.w3.org/2000/svg"><path fill-rule="evenodd" clip-rule="evenodd" d="M0 3h6L3 0 0 3z"/></symbol><symbol viewBox="0 0 17 16" id="icon-recycle" xmlns="http://www.w3.org/2000/svg"><path fill-rule="evenodd" clip-rule="evenodd" d="M8 16a8 8 0 1 1 7.418-11h-2.22a6 6 0 1 0 .72 4h2.02A8.001 8.001 0 0 1 8 16z"/><path d="M11 5h4V1"/></symbol><symbol viewBox="0 0 20 18" id="icon-rocket" xmlns="http://www.w3.org/2000/svg"><path fill-rule="evenodd" clip-rule="evenodd" d="M14.667 10.999C18.829 7.465 19.766 4.394 20 .045c-4.163-.244-7.18.408-10.979 4.349C7.252 4.177 5.431 4.72 4 6.052l2.367 2.772C5.223 9.912 5.12 11.787 6.16 13.01a2.82 2.82 0 0 0 2.238.979 2.686 2.686 0 0 0 1.769-.761L12.533 16c1.431-1.305 2.134-3.153 2.134-5.001zm1.17-7.04c.677.816.625 2.039-.156 2.773a1.963 1.963 0 0 1-1.17.489c-.573.027-1.093-.218-1.483-.653-.677-.815-.625-2.038.156-2.772a1.84 1.84 0 0 1 1.17-.49c.573-.026 1.093.218 1.483.653z"/><path d="M0 18l.137-.437c.027-.11.791-2.705 1.774-3.716.546-.546 1.202-.847 1.802-.847.383 0 .683.11.929.355.628.629.41 1.83-.492 2.732-1.065 1.066-3.604 1.75-3.713 1.804L0 18z"/></symbol><symbol viewBox="0 0 16 17" id="icon-star" xmlns="http://www.w3.org/2000/svg"><path clip-rule="evenodd" d="M8 13.667L3.333 16l.968-5.02L1 7.444l4.714-.812L8 2l2.286 4.632L15 7.444l-3.301 3.535.968 5.021L8 13.667z"/></symbol><symbol viewBox="0 0 18 18" id="icon-trash" xmlns="http://www.w3.org/2000/svg"><path d="M3 3h12v13a1 1 0 0 1-1 1H4a1 1 0 0 1-1-1V3z"/><path d="M5 1a1 1 0 0 1 1-1h6a1 1 0 0 1 1 1v1H5V1zM0 2h18v2H0zm6 4h2v8H6zm4 0h2v8h-2z"/></symbol></svg>