<?xml version="1.0" encoding="utf-8"?><svg width="16" height="16" fill="none" xmlns="http://www.w3.org/2000/svg" viewBox="0 0 16 16"><path d="M13.93 10.567l-.33-2.854A5.626 5.626 0 0 0 9.71 2.42v-.712A1.71 1.71 0 0 0 8 0c-.942 0-1.709.767-1.709 1.709v.712a5.627 5.627 0 0 0-3.89 5.292l-.33 2.853a1.857 1.857 0 0 0-.713 1.47v.112c0 1.394 1.364 1.394 1.878 1.394h1.886C5.34 14.934 6.495 16 7.887 16c1.392 0 2.547-1.066 2.766-2.458h2.11c.514 0 1.879 0 1.879-1.394v-.112a1.86 1.86 0 0 0-.712-1.47zm-6.042 4.03c-.542 0-1.014-.337-1.247-.83h2.494c-.234.493-.705.83-1.247.83zm5.351-2.482a3.253 3.253 0 0 1-.475.024H3.236c-.221 0-.38-.008-.475-.024v-.08c0-.217.141-.362.272-.425l.349-.167.417-3.608.005-.08a4.212 4.212 0 0 1 3.333-4.108l.558-.116V1.709a.306.306 0 0 1 .612 0V3.53l.558.117a4.212 4.212 0 0 1 3.332 4.107l.423 3.689.348.168a.472.472 0 0 1 .272.425v.08h-.001z" fill="#fff"/></svg>