<svg width="20" height="20" viewBox="0 0 20 20" fill="none" xmlns="http://www.w3.org/2000/svg">
<g clip-path="url(#clip0)">
<path d="M10.0077 3.61921e-06C4.48445 -0.00464482 0.00456051 4.46907 -8.79335e-05 9.99227C-0.00473638 15.5155 4.46898 19.9954 9.99219 20C15.5147 19.9954 19.9914 15.5225 19.9999 10C19.9999 4.47989 15.5278 0.00465206 10.0077 3.61921e-06ZM9.99219 18.3359C5.38847 18.3359 1.65628 14.6037 1.65628 10C1.65628 5.39629 5.38847 1.66411 9.99219 1.66411C14.5943 1.66875 18.3234 5.39785 18.3281 10C18.3281 14.6037 14.5959 18.3359 9.99219 18.3359Z" fill="white"/>
<path d="M12.6935 9.51242C13.3623 9.13546 13.7237 8.38086 13.5991 7.62386C13.4443 6.45515 12.0511 6.01394 10.952 5.92109V4.16414H9.86842V5.90562H9.14088V4.16414H8.05729V5.90562H5.87459V7.02793H6.68729C7.05108 7.02793 7.22909 7.13628 7.22909 7.43039V12.2524C7.22909 12.6548 7.02784 12.7787 6.81112 12.7787H5.98295V13.9242H8.08823V15.7044H9.17955V13.9242H9.90709V15.7044H10.9675V13.9242H11.1997C13.4288 13.9242 14.1718 12.8329 14.1718 11.3468C14.154 10.4706 13.5464 9.71675 12.6935 9.51242ZM9.14084 7.09757H9.91483C10.4566 7.09757 11.5247 7.19046 11.5247 8.07281C11.5619 8.64867 11.1447 9.15332 10.5727 9.22605H9.14084V7.09757ZM10.3405 12.6703V12.6626H9.14084V10.3406H10.534C10.8591 10.3406 12.082 10.4489 12.082 11.3158C12.082 12.1827 11.5015 12.6703 10.3405 12.6703Z" fill="white"/>
</g>
<defs>
<clipPath id="clip0">
<rect width="20" height="20" fill="white"/>
</clipPath>
</defs>
</svg>
