<?xml version="1.0" encoding="utf-8"?><svg width="39" height="39" fill="none" xmlns="http://www.w3.org/2000/svg" viewBox="0 0 39 39"><path d="M29.132 11.928H9.869c-.617 0-1.12.498-1.12 1.115v3.799c0 .617.503 1.115 1.12 1.115h19.263c.615 0 1.117-.498 1.117-1.115v-3.798c0-.618-.503-1.116-1.117-1.116zm-18.368 2.645a.688.688 0 1 1 0-1.376.688.688 0 0 1 0 1.376zm16.547 1.986h-4.866v-1.616h4.866v1.616zm1.821 2.011H9.869c-.617 0-1.12.5-1.12 1.117v3.798c0 .617.503 1.116 1.12 1.116h19.263c.615 0 1.117-.5 1.117-1.116v-3.798c0-.617-.503-1.116-1.117-1.116zm-18.368 2.647a.69.69 0 1 1 .002-1.376.69.69 0 0 1-.002 1.376zm16.547 1.986h-4.866v-1.617h4.866v1.617zm1.821 2.011H9.869c-.617 0-1.12.5-1.12 1.116v3.798c0 .617.503 1.116 1.12 1.116h19.263c.615 0 1.117-.5 1.117-1.116V26.33c0-.617-.503-1.116-1.117-1.116zM10.764 27.86a.687.687 0 1 1 0-1.377.687.687 0 1 1 0 1.377zm16.547 1.985h-4.866v-1.617h4.866v1.617zm-4.484 5.032h-2.053V31.89h-2.547v2.987h-2.055v.787H8.986v2.548h7.186V39h6.655v-.788h7.185v-2.548h-7.185v-.787z" fill="#fff"/><path d="M30.87 5.801a.963.963 0 0 1-.693-.386c-1.544-2.085-4.02-3.372-6.656-3.372-.165 0-.33.005-.495.015a.958.958 0 0 1-.637-.192A9.237 9.237 0 0 0 16.806 0a9.278 9.278 0 0 0-8.394 5.31.963.963 0 0 1-.737.542c-4.019.565-7.12 4.026-7.12 8.197 0 3.977 2.819 7.306 6.564 8.098v-2.46c0-.306.057-.599.151-.874a5.023 5.023 0 0 1-3.455-4.763 5.022 5.022 0 0 1 5.017-5.017c.14 0 .277.012.414.023a1.631 1.631 0 0 0 1.713-1.229 6.023 6.023 0 0 1 5.847-4.565 6 6 0 0 1 4.215 1.72c.388.378.94.54 1.471.429.339-.07.685-.107 1.03-.107a4.981 4.981 0 0 1 4.512 2.841c.298.617.949.984 1.63.913a5.022 5.022 0 0 1 5.52 4.99 5.023 5.023 0 0 1-3.455 4.765c.094.275.15.567.15.874v2.459c3.746-.792 6.567-4.12 6.567-8.097 0-4.327-3.34-7.89-7.576-8.248z" fill="#fff"/></svg>