<?xml version="1.0" encoding="utf-8"?><svg width="201" height="59" fill="none" xmlns="http://www.w3.org/2000/svg" viewBox="0 0 201 59"><path d="M76.282 17.674c0 2.245.914 4.281 2.286 5.762a7.586 7.586 0 0 0 5.534 2.407c3.726 0 6.653-2.5 7.568-6.179h-2.264c-.823 2.453-2.88 3.865-5.305 3.865-1.531 0-2.926-.671-3.932-1.736a5.964 5.964 0 0 1-1.647-4.12c0-1.666.64-3.1 1.647-4.165 1.006-1.065 2.4-1.736 3.933-1.736 2.355 0 4.32 1.227 5.167 3.657h2.286c-.914-3.657-3.795-5.971-7.454-5.971-2.172 0-4.138.949-5.533 2.407a8.545 8.545 0 0 0-2.286 5.809zm32.329 8.216c2.744 0 5.9-1.713 5.9-5V9.55h-2.333v11.317c0 1.782-1.897 2.685-3.567 2.685-1.692 0-3.589-.88-3.589-2.661V9.55h-2.332v11.316c0 3.31 3.109 5.023 5.921 5.023zm20.484-7.267l5.831 7.105h2.995l-5.053-6.087c2.744-.486 4.138-2.662 4.138-4.953 0-2.569-1.737-5.16-5.213-5.16h-5.83v16.2h2.286v-13.84h3.544c1.944 0 2.904 1.412 2.904 2.8 0 1.412-.96 2.824-2.904 2.824h-2.698v1.11zm46.443 7.174v-13.91h4.825v-2.36h-11.981v2.36h4.847v13.91h2.309zm17.953-6.989h7.248v-2.36h-7.248v-4.56h7.408V9.55h-9.74v16.178h9.763V23.39h-7.431v-4.582zm-39.717-5.763l1.966 5.716.892 2.2 1.921 4.767h2.469l-6.425-16.41h-1.692l-6.425 16.41h2.492c.503-1.343 1.304-3.287 1.921-4.768l.869-2.199 2.012-5.716z" fill="#fff"/><circle cx="29.122" cy="29.122" r="29.122" fill="#16151B"/><path d="M29.053 4.972c-6.617 0-12.62 2.744-16.986 6.86C7.7 16.017 4.972 21.916 4.972 28.433c0 10.752 6.81 19.283 16.976 22.363.624.19 1.238-.288 1.238-.94v-4.792c0-.428-.273-.806-.672-.959-6.816-2.615-10.72-8.628-10.72-15.671 0-4.597 1.978-8.781 5.116-11.8 3.138-3.018 7.368-4.94 12.143-4.94 4.912 0 9.142 1.922 12.28 4.94 3.138 3.019 5.116 7.203 5.116 11.8 0 6.844-3.393 12.595-10.117 15.255a1.034 1.034 0 0 0-.661.955v4.867c0 .652.616 1.13 1.24.94 10.059-3.074 16.36-11.468 16.36-22.018 0-6.517-2.797-12.416-7.095-16.6-4.366-4.117-10.369-6.861-17.123-6.861z" fill="#fff"/><path d="M79.001 48.397v5.187h-1.747v-13.25h4.887c1.45 0 2.585.37 3.404 1.11.825.74 1.237 1.72 1.237 2.94 0 1.285-.403 2.277-1.21 2.975-.8.692-1.95 1.038-3.45 1.038h-3.12zm0-1.43h3.14c.934 0 1.65-.218 2.148-.654.497-.443.746-1.08.746-1.912 0-.788-.249-1.42-.746-1.893-.498-.473-1.18-.719-2.048-.737h-3.24v5.197zm11.576 6.617h-1.683V39.605h1.683v13.979zm8.783 0c-.098-.194-.177-.54-.237-1.038-.783.813-1.717 1.22-2.803 1.22-.971 0-1.769-.273-2.394-.82-.618-.551-.928-1.249-.928-2.092 0-1.026.388-1.82 1.165-2.385.782-.57 1.88-.855 3.294-.855h1.638v-.774c0-.588-.176-1.055-.528-1.401-.351-.352-.87-.528-1.556-.528-.6 0-1.104.152-1.51.455-.407.303-.61.67-.61 1.101h-1.693c0-.491.173-.965.519-1.42.352-.46.825-.825 1.42-1.091a4.79 4.79 0 0 1 1.975-.401c1.134 0 2.023.285 2.666.855.643.565.977 1.344 1.001 2.34v4.531c0 .904.115 1.623.346 2.157v.146h-1.766zM96.564 52.3a2.96 2.96 0 0 0 1.502-.41c.473-.273.816-.628 1.028-1.065v-2.02h-1.32c-2.062 0-3.093.604-3.093 1.811 0 .528.176.94.528 1.238.351.297.803.446 1.355.446zm9.138-10.947v2.384h1.839v1.301h-1.839v6.107c0 .394.082.691.246.892.164.194.443.29.837.29.194 0 .461-.035.801-.108v1.365a4.88 4.88 0 0 1-1.292.182c-.752 0-1.32-.228-1.702-.683-.382-.455-.573-1.1-.573-1.938v-6.107h-1.793v-1.301h1.793v-2.384h1.683zm4.642 12.231v-8.546h-1.557v-1.301h1.557v-1.01c0-1.056.282-1.872.846-2.448.564-.577 1.362-.865 2.393-.865.389 0 .774.052 1.156.155l-.091 1.365a4.83 4.83 0 0 0-.91-.082c-.546 0-.968.161-1.265.483-.297.315-.446.77-.446 1.365v1.037h2.102v1.301h-2.102v8.546h-1.683zm5.205-5.014c0-.965.188-1.833.564-2.603.383-.77.91-1.365 1.584-1.784.679-.419 1.453-.628 2.32-.628 1.341 0 2.424.464 3.249 1.392.832.929 1.247 2.163 1.247 3.704v.119c0 .958-.185 1.82-.555 2.584a4.15 4.15 0 0 1-1.574 1.775c-.68.425-1.463.637-2.348.637-1.335 0-2.418-.464-3.249-1.393-.825-.928-1.238-2.156-1.238-3.685v-.119zm1.693.2c0 1.092.252 1.968.755 2.63.51.661 1.189.992 2.039.992.855 0 1.535-.334 2.038-1.001.504-.674.756-1.614.756-2.822 0-1.08-.258-1.953-.774-2.62-.51-.674-1.189-1.01-2.039-1.01-.831 0-1.501.33-2.011.991-.509.662-.764 1.608-.764 2.84zm14.142-3.522a5.055 5.055 0 0 0-.828-.064c-1.104 0-1.854.47-2.248 1.41v6.99h-1.684v-9.847h1.639l.027 1.138c.552-.88 1.335-1.32 2.348-1.32.327 0 .576.042.746.127v1.566zm3.14-1.511l.045 1.092c.722-.85 1.696-1.274 2.921-1.274 1.378 0 2.315.528 2.812 1.584a3.747 3.747 0 0 1 1.275-1.147c.527-.291 1.149-.437 1.865-.437 2.16 0 3.258 1.144 3.295 3.43v6.599h-1.684v-6.498c0-.704-.161-1.228-.482-1.574-.322-.352-.862-.528-1.62-.528-.625 0-1.144.188-1.556.564-.413.37-.653.87-.719 1.502v6.534h-1.693V47.13c0-1.431-.701-2.147-2.102-2.147-1.104 0-1.86.47-2.266 1.41v7.19h-1.684v-9.847h1.593z" fill="#786A83"/></svg>