<?xml version="1.0" encoding="utf-8"?><svg width="47" height="44" fill="none" xmlns="http://www.w3.org/2000/svg" viewBox="0 0 47 44"><path d="M2.89 11.431h8.98V8.546H2.89V2.971h9.178V.113H0v19.779h12.096v-2.858H2.89v-5.602zm14.384-.226l7.224 8.687h3.71l-6.26-7.442c3.4-.594 5.128-3.254 5.128-6.055 0-3.141-2.154-6.31-6.46-6.31h-7.223v19.807h2.833V2.972h4.39c2.409 0 3.598 1.725 3.598 3.423 0 1.726-1.19 3.452-3.597 3.452h-3.343v1.358zm10.661-1.16c0 2.745 1.133 5.235 2.833 7.046a9.457 9.457 0 0 0 6.855 2.942c4.618 0 8.244-3.056 9.377-7.555h-2.804c-1.02 3-3.57 4.726-6.573 4.726-1.898 0-3.626-.82-4.872-2.122-1.247-1.302-2.04-3.056-2.04-5.037 0-2.037.793-3.792 2.04-5.093 1.246-1.302 2.974-2.122 4.872-2.122 2.918 0 5.354 1.5 6.403 4.47h2.832C45.725 2.83 42.156 0 37.623 0c-2.69 0-5.127 1.16-6.855 2.943-1.7 1.81-2.833 4.3-2.833 7.102zM11.417 30.673c.34-2.207 1.615-3.792 4.051-3.792 4.618 0 5.383 4.697 2.267 6.932h.028l-9.32 7.923v2.207h13.909V41.2h-9.093c2.86-2.377 3.597-2.886 6.402-5.207 5.354-3.735 3.314-11.969-4.193-11.969-4.136 0-6.402 2.886-6.912 6.423l2.861.227z" fill="#fff"/><path d="M30.688 27.702c3.03 0 4.532 3.395 4.532 6.79 0 3.396-1.501 6.763-4.532 6.763-3.06 0-4.533-3.367-4.533-6.762 0-3.396 1.473-6.791 4.533-6.791zm0 16.298c4.816 0 7.252-4.754 7.252-9.507 0-4.754-2.436-9.536-7.252-9.536-4.845 0-7.252 4.782-7.252 9.536 0 4.753 2.407 9.507 7.252 9.507z" fill="#fff"/></svg>