<svg width="20" height="20" viewBox="0 0 20 20" fill="none" xmlns="http://www.w3.org/2000/svg">
<path d="M13.8527 2.29642L11.8539 2.29321C9.60841 2.29321 8.15724 3.78206 8.15724 6.08646V7.83539H6.14757C5.97391 7.83539 5.83328 7.97618 5.83328 8.14984V10.6839C5.83328 10.8575 5.97407 10.9981 6.14757 10.9981H8.15724V17.3923C8.15724 17.5659 8.29786 17.7065 8.47152 17.7065H11.0936C11.2672 17.7065 11.4079 17.5658 11.4079 17.3923V10.9981H13.7576C13.9313 10.9981 14.0719 10.8575 14.0719 10.6839L14.0729 8.14984C14.0729 8.06646 14.0397 7.9866 13.9808 7.9276C13.922 7.86859 13.8418 7.83539 13.7584 7.83539H11.4079V6.3528C11.4079 5.6402 11.5777 5.27845 12.5059 5.27845L13.8524 5.27797C14.0259 5.27797 14.1665 5.13718 14.1665 4.96368V2.61071C14.1665 2.43737 14.0261 2.29674 13.8527 2.29642Z" fill="white"/>
</svg>
