<?xml version="1.0" encoding="utf-8"?><svg width="26" height="26" fill="none" xmlns="http://www.w3.org/2000/svg" viewBox="0 0 26 26"><path d="M8.8 26c-2.89-9.524 3.217-13.001 3.217-13.001-.427 5.082 2.461 9.04 2.461 9.04 1.062-.32 3.09-1.818 3.09-1.818 0 1.819-1.07 5.776-1.07 5.776s3.744-2.895 4.923-7.704c1.178-4.81-2.242-9.638-2.242-9.638a12.896 12.896 0 0 1-3.202 9.31c.113-.13.208-.275.28-.432.406-.81 1.057-2.918.676-7.796C16.396 2.887 10.19 0 10.19 0c.535 4.173-1.07 5.134-4.826 13.055C1.608 20.974 8.801 26 8.801 26z" fill="#2DE58D"/></svg>