<?xml version="1.0" encoding="utf-8"?><svg width="119" height="35" fill="none" xmlns="http://www.w3.org/2000/svg" viewBox="0 0 119 35"><path d="M45.18 18.057a5.04 5.04 0 0 0 1.354 3.413 4.493 4.493 0 0 0 3.277 1.425c2.207 0 3.94-1.48 4.482-3.66h-1.34c-.488 1.453-1.707 2.29-3.142 2.29-.907 0-1.734-.398-2.33-1.028a3.532 3.532 0 0 1-.974-2.44c0-.987.379-1.837.975-2.468a3.207 3.207 0 0 1 2.329-1.028c1.395 0 2.56.727 3.06 2.166h1.354c-.541-2.166-2.248-3.536-4.414-3.536-1.287 0-2.451.562-3.277 1.425a5.061 5.061 0 0 0-1.355 3.44zm19.147 4.866c1.625 0 3.494-1.015 3.494-2.961v-6.716H66.44v6.702c0 1.056-1.124 1.59-2.113 1.59-1.002 0-2.126-.52-2.126-1.576v-6.716H60.82v6.702c0 1.96 1.842 2.975 3.507 2.975zm12.133-4.304l3.452 4.208h1.774l-2.992-3.605c1.625-.288 2.45-1.577 2.45-2.934 0-1.521-1.029-3.056-3.087-3.056h-3.453v9.595h1.354V14.63h2.1c1.15 0 1.719.836 1.719 1.658 0 .837-.569 1.673-1.72 1.673H76.46v.658zm27.506 4.249V14.63h2.857v-1.398h-7.096v1.398h2.871v8.238h1.368zm10.633-4.14h4.293V17.33h-4.293v-2.7h4.388v-1.385h-5.769v9.582H119v-1.385h-4.401v-2.714zm-23.523-3.413l1.164 3.386.528 1.302 1.138 2.824h1.462l-3.805-9.719h-1.002l-3.805 9.719h1.476c.298-.795.772-1.947 1.137-2.824l.515-1.302 1.192-3.386z" fill="#fff"/><circle cx="17.248" cy="17.248" r="17.248" fill="#16151B"/><path d="M17.208 2.945c-3.92 0-7.475 1.625-10.061 4.063a13.593 13.593 0 0 0-4.202 9.832c0 6.19 3.812 11.138 9.556 13.085.617.21 1.232-.269 1.232-.92v-2.023a1.06 1.06 0 0 0-.67-.968c-3.869-1.602-6.078-5.097-6.078-9.174 0-2.722 1.172-5.2 3.03-6.988 1.86-1.788 4.364-2.925 7.193-2.925 2.909 0 5.414 1.137 7.272 2.925 1.859 1.788 3.03 4.266 3.03 6.988 0 3.963-1.92 7.306-5.724 8.926a1.06 1.06 0 0 0-.66.963v2.07c0 .653.617 1.131 1.234.92 5.666-1.94 9.191-6.807 9.191-12.879 0-3.86-1.656-7.354-4.202-9.832-2.586-2.438-6.141-4.063-10.141-4.063z" fill="#fff"/></svg>