<?xml version="1.0" encoding="utf-8"?><svg width="20" height="20" fill="none" xmlns="http://www.w3.org/2000/svg" viewBox="0 0 20 20"><path d="M10 0C4.477 0 0 4.477 0 10s4.477 10 10 10 10-4.477 10-10S15.522 0 10 0zm2.801 17.618c-.057-.782-.122-1.752-.126-2.144-.024-.302-.057-1.068-.784-1.557 2.888-.242 4.262-1.838 4.36-3.948.083-1.2-.394-2.257-1.242-3.11a17.09 17.09 0 0 0-.087-2.467c-.65-.188-2.17.614-2.594.957-.895-.347-3.086-.469-4.417 0-.944-.663-2.018-1.073-2.603-.959-.541 1.198-.194 2.33-.088 2.466-.696.636-1.668 1.42-1.404 3.06.423 2.405 2.116 3.703 4.84 4.02-.58.12-.679.553-.727.74-1.83.756-2.353-.465-2.585-.783-.768-.951-1.457-.675-1.5-.66-.041.014-.072.074-.068.103.039.205.457.413.478.43.567.423.777 1.186.906 1.403.813 1.337 2.703.783 2.721.794.001.117-.013 1.1-.024 1.866C4.41 16.89 1.875 13.744 1.875 10A8.125 8.125 0 0 1 10 1.875 8.125 8.125 0 0 1 18.125 10c0 3.502-2.219 6.476-5.324 7.618z" fill="#fff"/></svg>