<?xml version="1.0" encoding="utf-8"?><svg width="20" height="20" fill="none" xmlns="http://www.w3.org/2000/svg" viewBox="0 0 20 20"><path d="M14.48 0H5.52A5.525 5.525 0 0 0 0 5.52v8.96A5.525 5.525 0 0 0 5.52 20h8.96A5.526 5.526 0 0 0 20 14.48V5.52A5.525 5.525 0 0 0 14.48 0zm3.745 14.48a3.75 3.75 0 0 1-3.744 3.745H5.519a3.749 3.749 0 0 1-3.745-3.744V5.519A3.749 3.749 0 0 1 5.52 1.774h8.961a3.75 3.75 0 0 1 3.745 3.745v8.962z" fill="#fff"/><path d="M10 4.847A5.16 5.16 0 0 0 4.846 10 5.16 5.16 0 0 0 10 15.153 5.16 5.16 0 0 0 15.153 10 5.16 5.16 0 0 0 10 4.847zm0 8.532A3.383 3.383 0 0 1 6.62 10 3.383 3.383 0 0 1 10 6.621 3.383 3.383 0 0 1 13.379 10a3.383 3.383 0 0 1-3.38 3.379zm5.37-10.037a1.306 1.306 0 0 0-1.302 1.301 1.309 1.309 0 0 0 1.302 1.302c.343 0 .678-.14.92-.381a1.307 1.307 0 0 0 0-1.84 1.307 1.307 0 0 0-.92-.382z" fill="#fff"/></svg>