<svg width="29" height="29" viewBox="0 0 29 29" fill="none" xmlns="http://www.w3.org/2000/svg">
<g clip-path="url(#clip0)">
<path d="M9.472 4.61103C9.56731 4.514 9.681 4.43694 9.80642 4.38433C9.93184 4.33172 10.0665 4.30463 10.2025 4.30463C10.3385 4.30463 10.4732 4.33172 10.5986 4.38433C10.724 4.43694 10.8377 4.514 10.933 4.61103C11.123 4.80391 11.2295 5.06379 11.2295 5.33453C11.2295 5.60527 11.123 5.86515 10.933 6.05803L3.523 13.468H27.977C28.1116 13.4676 28.245 13.4939 28.3694 13.5453C28.4938 13.5967 28.6069 13.6722 28.702 13.7675C28.7971 13.8628 28.8724 13.9759 28.9235 14.1005C28.9747 14.225 29.0007 14.3584 29 14.493C29.0009 14.6283 28.9752 14.7624 28.9243 14.8877C28.8734 15.013 28.7983 15.1271 28.7033 15.2234C28.6083 15.3197 28.4953 15.3963 28.3706 15.449C28.246 15.5016 28.1123 15.5291 27.977 15.53H3.523L10.933 22.927C11.123 23.1229 11.2292 23.3851 11.2292 23.658C11.2292 23.9309 11.123 24.1931 10.933 24.389C10.8377 24.4861 10.724 24.5631 10.5986 24.6157C10.4732 24.6683 10.3385 24.6954 10.2025 24.6954C10.0665 24.6954 9.93184 24.6683 9.80642 24.6157C9.681 24.5631 9.56731 24.4861 9.472 24.389L0.307 15.224C0.210016 15.1301 0.132898 15.0177 0.0802321 14.8934C0.027566 14.7691 0.000426292 14.6355 0.000426292 14.5005C0.000426292 14.3655 0.027566 14.2319 0.0802321 14.1076C0.132898 13.9834 0.210016 13.8709 0.307 13.777L9.472 4.61103V4.61103Z" fill="#2DE58D"/>
</g>
<defs>
<clipPath id="clip0">
<rect width="29" height="29" fill="white"/>
</clipPath>
</defs>
</svg>
