<?xml version="1.0" encoding="utf-8"?><svg width="26" height="26" fill="none" xmlns="http://www.w3.org/2000/svg" viewBox="0 0 26 26"><g clip-path="url(#ananclip0)" fill="#2DE58D"><path d="M4.244 8.493H.85a.85.85 0 0 0-.849.85v15.279c0 .468.38.848.849.848h3.395a.85.85 0 0 0 .85-.848V9.342a.85.85 0 0 0-.85-.849zm19.636 0c-.136-.023-6.537 0-6.537 0l.894-2.439c.617-1.684.218-4.256-1.494-5.171-.557-.298-1.336-.447-1.964-.29-.36.091-.676.33-.865.65-.217.366-.194.795-.272 1.202-.195 1.033-.683 2.016-1.44 2.753-1.317 1.285-5.411 4.993-5.411 4.993v13.582h14.147c1.91 0 3.16-2.131 2.219-3.796 1.122-.72 1.506-2.233.848-3.396 1.123-.718 1.507-2.232.85-3.395 1.936-1.24 1.288-4.31-.974-4.693z"/></g><defs><clipPath id="ananclip0"><path fill="#fff" d="M0 0h26v26H0z"/></clipPath></defs></svg>