<?xml version="1.0" encoding="utf-8"?><svg width="16" height="16" fill="none" xmlns="http://www.w3.org/2000/svg" viewBox="0 0 16 16"><path d="M4.189 15.27c0 .29-.236.526-.527.526h-2.24a.526.526 0 0 1-.527-.527V5.874c0-.29.235-.526.526-.526h2.241c.291 0 .527.236.527.527v9.394zM2.542 4.462a2.13 2.13 0 1 1 0-4.258 2.13 2.13 0 0 1 0 4.258zm13.359 10.85a.484.484 0 0 1-.484.484h-2.405a.484.484 0 0 1-.484-.484v-4.407c0-.657.193-2.88-1.718-2.88-1.482 0-1.783 1.521-1.843 2.204v5.083a.484.484 0 0 1-.484.484H6.157a.484.484 0 0 1-.484-.484v-9.48c0-.267.216-.484.484-.484h2.326c.267 0 .484.217.484.484v.82c.55-.825 1.366-1.462 3.105-1.462 3.83 0 3.83 3.558 3.829 5.541v4.581z" fill="#fff"/></svg>