<?xml version="1.0" encoding="utf-8"?><svg width="24" height="24" fill="none" xmlns="http://www.w3.org/2000/svg" viewBox="0 0 24 24"><path d="M7.427 20.723a.632.632 0 0 1-.632.632h-2.69a.632.632 0 0 1-.631-.632V9.45a.63.63 0 0 1 .631-.631h2.69c.349 0 .632.282.632.631v11.274zM5.45 7.755a2.555 2.555 0 1 1 0-5.11 2.555 2.555 0 0 1 0 5.11zm16.031 13.019c0 .32-.26.581-.58.581h-2.886a.581.581 0 0 1-.582-.58v-5.289c0-.789.232-3.457-2.061-3.457-1.779 0-2.14 1.826-2.212 2.646v6.1c0 .32-.26.58-.58.58H9.787a.58.58 0 0 1-.58-.58V9.398a.58.58 0 0 1 .58-.581h2.791a.58.58 0 0 1 .581.58v.984c.66-.99 1.64-1.754 3.727-1.754 4.595 0 4.594 4.27 4.594 6.65v5.496z" fill="#FFD788"/></svg>