<svg width="24" height="24" viewBox="0 0 24 24" fill="none" xmlns="http://www.w3.org/2000/svg">
<path d="M7.427 20.723C7.427 20.8906 7.36041 21.0514 7.24189 21.1699C7.12337 21.2884 6.96261 21.355 6.795 21.355H4.105C3.93755 21.3548 3.77706 21.2881 3.65875 21.1696C3.54044 21.0511 3.474 20.8905 3.474 20.723V9.45002C3.47386 9.36712 3.4901 9.28501 3.52176 9.20839C3.55342 9.13177 3.5999 9.06216 3.65852 9.00354C3.71714 8.94492 3.78675 8.89845 3.86337 8.86678C3.93998 8.83512 4.0221 8.81889 4.105 8.81902H6.795C7.144 8.81902 7.427 9.10102 7.427 9.45002V20.724V20.723ZM5.45 7.75502C4.77237 7.75502 4.12249 7.48583 3.64334 7.00668C3.16418 6.52752 2.895 5.87765 2.895 5.20002C2.895 4.52239 3.16418 3.87252 3.64334 3.39336C4.12249 2.91421 4.77237 2.64502 5.45 2.64502C6.12762 2.64502 6.7775 2.91421 7.25665 3.39336C7.73581 3.87252 8.005 4.52239 8.005 5.20002C8.005 5.87765 7.73581 6.52752 7.25665 7.00668C6.7775 7.48583 6.12762 7.75502 5.45 7.75502ZM21.481 20.774C21.481 21.094 21.221 21.355 20.901 21.355H18.015C17.9387 21.3552 17.8631 21.3403 17.7926 21.3112C17.722 21.2821 17.6579 21.2394 17.6039 21.1856C17.5498 21.1317 17.5069 21.0677 17.4776 20.9973C17.4483 20.9268 17.4331 20.8513 17.433 20.775V15.486C17.433 14.697 17.665 12.029 15.372 12.029C13.593 12.029 13.232 13.855 13.16 14.675V20.775C13.16 21.095 12.9 21.355 12.58 21.355H9.787C9.63317 21.355 9.48565 21.2939 9.37687 21.1851C9.2681 21.0764 9.207 20.9288 9.207 20.775V9.39802C9.20686 9.32177 9.22177 9.24624 9.25086 9.17576C9.27995 9.10527 9.32265 9.04121 9.37652 8.98725C9.43039 8.93329 9.49438 8.89047 9.56481 8.86126C9.63524 8.83205 9.71075 8.81702 9.787 8.81702H12.578C12.6542 8.81689 12.7298 8.83179 12.8003 8.86088C12.8707 8.88997 12.9348 8.93267 12.9888 8.98654C13.0427 9.04042 13.0855 9.1044 13.1148 9.17483C13.144 9.24527 13.159 9.32077 13.159 9.39702V10.381C13.819 9.39102 14.799 8.62702 16.886 8.62702C21.481 8.62702 21.48 12.897 21.48 15.277V20.773L21.481 20.774Z" fill="#2DE58D"/>
</svg>
