<svg width="20" height="20" viewBox="0 0 20 20" fill="none" xmlns="http://www.w3.org/2000/svg">
<path d="M6.18885 17.2693C6.18885 17.5601 5.95314 17.7958 5.66236 17.7958H3.4212C3.13042 17.7958 2.89471 17.5601 2.89471 17.2693V7.8745C2.89471 7.58372 3.13042 7.34801 3.4212 7.34801H5.66236C5.95314 7.34801 6.18885 7.58372 6.18885 7.8745V17.2693Z" fill="white"/>
<path d="M4.54178 6.46241C3.36592 6.46241 2.41267 5.50916 2.41267 4.3333C2.41267 3.15743 3.36592 2.20419 4.54178 2.20419C5.71764 2.20419 6.67089 3.15743 6.67089 4.3333C6.67089 5.50916 5.7177 6.46241 4.54178 6.46241Z" fill="white"/>
<path d="M17.901 17.3117C17.901 17.5791 17.6843 17.7958 17.417 17.7958H15.012C14.7447 17.7958 14.528 17.5791 14.528 17.3117V12.905C14.528 12.2476 14.7208 10.0243 12.81 10.0243C11.3279 10.0243 11.0272 11.5461 10.9669 12.2291V17.3117C10.9669 17.5791 10.7502 17.7958 10.4828 17.7958H8.15681C7.88948 17.7958 7.67272 17.5791 7.67272 17.3117V7.83209C7.67272 7.56476 7.88948 7.34801 8.15681 7.34801H10.4828C10.7501 7.34801 10.9669 7.56476 10.9669 7.83209V8.65173C11.5164 7.82696 12.3332 7.19037 14.0722 7.19037C17.9014 7.19037 17.9012 10.7476 17.901 12.7313V12.7648V17.3117Z" fill="white"/>
</svg>
