<?xml version="1.0" encoding="utf-8"?><svg width="33" height="33" fill="none" xmlns="http://www.w3.org/2000/svg" viewBox="0 0 33 33"><path d="M24.75 14.438V8.25c0-4.548-3.7-8.25-8.25-8.25-4.549 0-8.25 3.702-8.25 8.25v6.188a4.125 4.125 0 0 0-4.125 4.124v10.313A4.125 4.125 0 0 0 8.25 33h16.5a4.125 4.125 0 0 0 4.125-4.125V18.562a4.125 4.125 0 0 0-4.125-4.124zm-7.219 9.996v3.41a1.03 1.03 0 1 1-2.062 0v-3.41c-.605-.359-1.031-.991-1.031-1.746a2.062 2.062 0 1 1 4.124 0c0 .755-.426 1.387-1.03 1.746zm3.094-9.996h-8.25V8.25A4.128 4.128 0 0 1 16.5 4.125a4.129 4.129 0 0 1 4.125 4.125v6.188z" fill="#fff"/></svg>