<svg width="173" height="50" viewBox="0 0 173 50" fill="none" xmlns="http://www.w3.org/2000/svg">
<path d="M53.3081 25.1895C53.3081 27.3697 54.1864 29.3476 55.5038 30.7861C56.8432 32.2246 58.7315 33.1237 60.8174 33.1237C64.3963 33.1237 67.2068 30.6962 68.0851 27.1225H65.9114C65.1209 29.505 63.1448 30.876 60.8174 30.876C59.3463 30.876 58.0069 30.2242 57.0408 29.1903C56.0747 28.1564 55.4599 26.7629 55.4599 25.1895C55.4599 23.5712 56.0747 22.1777 57.0408 21.1438C58.0069 20.1099 59.3463 19.4581 60.8174 19.4581C63.0789 19.4581 64.9672 20.6493 65.7796 23.0093H67.9753C67.097 19.4581 64.3305 17.2105 60.8174 17.2105C58.7315 17.2105 56.8432 18.132 55.5038 19.548C54.1864 20.9865 53.3081 22.9644 53.3081 25.1895Z" fill="white"/>
<path d="M84.3542 33.1686C86.9891 33.1686 90.0191 31.5054 90.0191 28.3137V17.3004H87.7795V28.2913C87.7795 30.0219 85.9571 30.8985 84.3542 30.8985C82.7294 30.8985 80.907 30.0444 80.907 28.3137V17.3004H78.6674V28.2913C78.6674 31.5054 81.6536 33.1686 84.3542 33.1686Z" fill="white"/>
<path d="M104.025 26.1111L109.624 33.0113H112.5L107.648 27.1C110.282 26.628 111.622 24.5152 111.622 22.2901C111.622 19.7952 109.953 17.2779 106.616 17.2779H101.017V33.0113H103.212V19.5705H106.616C108.482 19.5705 109.404 20.9415 109.404 22.2901C109.404 23.6611 108.482 25.0322 106.616 25.0322H104.025V26.1111Z" fill="white"/>
<path d="M148.624 33.0787V19.5705H153.257V17.2779H141.751V19.5705H146.406V33.0787H148.624Z" fill="white"/>
<path d="M165.864 26.2909H172.824V23.9983H165.864V19.5705H172.978V17.3004H163.624V33.0113H173V30.7412H165.864V26.2909Z" fill="white"/>
<path d="M127.724 20.6943L129.612 26.2459L130.468 28.3812L132.313 33.0113H134.684L128.514 17.0756H126.889L120.719 33.0113H123.113C123.596 31.7077 124.364 29.8196 124.957 28.3812L125.791 26.2459L127.724 20.6943Z" fill="white"/>
<path fill-rule="evenodd" clip-rule="evenodd" d="M21.1221 4.00002C32.7875 4.00001 42.2442 13.4567 42.2442 25.1221C42.2442 36.7875 32.7875 46.2442 21.1221 46.2442C9.45668 46.2442 -7.11948e-06 36.7875 -7.62939e-06 25.1221C-8.13931e-06 13.4567 9.45668 4.00002 21.1221 4.00002ZM9.58873 36.4588C6.87707 33.5566 5.06929 29.5661 5.06929 25.1675C5.06929 20.6781 6.87707 16.6876 9.58873 13.7854C12.3456 10.9285 16.2323 9.06932 20.5258 9.06932C27.3303 9.06932 32.7742 13.0848 34.8991 19.5287C35.1043 20.151 34.6233 20.7688 33.968 20.7688H31.4525C31.0255 20.7688 30.6484 20.4966 30.4849 20.1021C28.6941 15.7831 24.9583 13.604 20.5258 13.604C17.4978 13.604 14.7409 14.9191 12.7523 17.005C10.7638 19.091 9.49834 21.9025 9.49834 25.1675C9.49834 28.3417 10.7638 31.1532 12.7523 33.2392C14.7409 35.3252 17.4978 36.6402 20.5258 36.6402C25.0867 36.6402 28.9922 34.133 30.7602 29.7445C30.9214 29.3445 31.3011 29.0673 31.7323 29.0673H34.196C34.8506 29.0673 35.3315 29.684 35.1282 30.3062C32.9963 36.8327 27.4623 41.1749 20.5258 41.1749C16.2323 41.1749 12.3456 39.361 9.58873 36.4588Z" fill="white"/>
<path fill-rule="evenodd" clip-rule="evenodd" d="M42.2442 25.1221C42.2442 13.4567 32.7875 4.00001 21.1221 4.00002C9.45668 4.00002 -8.13931e-06 13.4567 -7.62939e-06 25.1221C-7.11948e-06 36.7875 9.45668 46.2442 21.1221 46.2442C32.7875 46.2442 42.2442 36.7875 42.2442 25.1221ZM9.58873 36.4588C6.87707 33.5566 5.06929 29.5661 5.06929 25.1675C5.06929 20.6781 6.87707 16.6876 9.58873 13.7854C12.3456 10.9285 16.2323 9.06932 20.5258 9.06932C27.3303 9.06932 32.7742 13.0848 34.8991 19.5287C35.1043 20.151 34.6233 20.7688 33.968 20.7688H31.4525C31.0255 20.7688 30.6484 20.4966 30.4849 20.1021C28.6941 15.7831 24.9583 13.604 20.5258 13.604C17.4978 13.604 14.7409 14.9191 12.7523 17.005C10.7638 19.091 9.49834 21.9025 9.49834 25.1675C9.49834 28.3417 10.7638 31.1532 12.7523 33.2392C14.7409 35.3252 17.4978 36.6402 20.5258 36.6402C25.0867 36.6402 28.9922 34.133 30.7602 29.7445C30.9214 29.3445 31.3011 29.0673 31.7323 29.0673H34.196C34.8506 29.0673 35.3315 29.684 35.1282 30.3062C32.9963 36.8327 27.4623 41.1749 20.5258 41.1749C16.2323 41.1749 12.3456 39.361 9.58873 36.4588Z" fill="white"/>
</svg>
