<?xml version="1.0" encoding="utf-8"?><svg width="173" height="50" fill="none" xmlns="http://www.w3.org/2000/svg" viewBox="0 0 173 50"><path d="M65.486 26.172c0 1.927.785 3.676 1.962 4.947a6.512 6.512 0 0 0 4.75 2.067c3.2 0 5.713-2.146 6.498-5.305h-1.944c-.706 2.106-2.473 3.318-4.553 3.318-1.316 0-2.513-.576-3.376-1.49a5.12 5.12 0 0 1-1.414-3.537c0-1.43.55-2.662 1.413-3.576.864-.914 2.061-1.49 3.377-1.49 2.021 0 3.71 1.053 4.436 3.14h1.962c-.785-3.14-3.258-5.127-6.398-5.127-1.865 0-3.553.815-4.75 2.067a7.335 7.335 0 0 0-1.963 4.986zm27.754 7.053c2.355 0 5.064-1.47 5.064-4.291v-9.735h-2.002v9.715c0 1.53-1.63 2.305-3.062 2.305-1.453 0-3.082-.755-3.082-2.285v-9.735h-2.002v9.715c0 2.841 2.67 4.311 5.084 4.311zm17.584-6.238l5.006 6.1h2.571l-4.338-5.226c2.355-.417 3.553-2.285 3.553-4.252 0-2.205-1.492-4.43-4.476-4.43h-5.005v13.907h1.963v-11.88h3.042c1.669 0 2.493 1.211 2.493 2.403 0 1.212-.824 2.424-2.493 2.424h-2.316v.954zm39.87 6.159v-11.94h4.142v-2.027h-10.285v2.026h4.161v11.941h1.982zm15.412-6h6.223v-2.027h-6.223v-3.914h6.36V19.2h-8.362v13.887h8.382V31.08h-6.38v-3.934zm-34.096-4.947l1.688 4.907.766 1.888 1.649 4.092h2.119L132.717 19h-1.453l-5.515 14.086h2.139c.432-1.152 1.119-2.82 1.649-4.092l.746-1.888 1.727-4.907z" fill="#fff"/><circle cx="25" cy="25" r="25" fill="#16151B"/><path d="M24.941 4.268c-5.68 0-10.834 2.356-14.582 5.89a19.702 19.702 0 0 0-6.09 14.251c0 9.168 5.768 16.456 14.399 19.145.622.194 1.237-.284 1.237-.936v-3.83c0-.428-.274-.806-.672-.962-5.793-2.264-9.108-7.403-9.108-13.417 0-3.945 1.698-7.538 4.392-10.13 2.694-2.59 6.325-4.24 10.424-4.24 4.217 0 7.848 1.65 10.542 4.24 2.694 2.592 4.392 6.184 4.392 10.13 0 5.845-2.881 10.76-8.591 13.06a1.04 1.04 0 0 0-.662.956v3.897c0 .652.617 1.13 1.239.934 8.534-2.681 13.87-9.852 13.87-18.847 0-5.594-2.4-10.66-6.09-14.251-3.748-3.534-8.902-5.89-14.7-5.89z" fill="#fff"/></svg>