<svg width="20" height="20" viewBox="0 0 20 20" fill="none" xmlns="http://www.w3.org/2000/svg">
<path d="M19.6483 17.3465L18.2248 15.9398C18.0543 15.8211 17.9683 15.6089 18.0058 15.3998V3.90671C17.9702 3.69215 18.055 3.47521 18.2248 3.34672L19.6419 1.71341V1.66675H14.5984L10.798 11.4066L6.48234 1.66675H1.32931V1.71341L2.76572 3.64005C3.01383 3.96188 3.13366 4.36972 3.10067 4.78003V13.1132C3.15941 13.6156 3.07664 14.1249 2.86234 14.5798L0.833334 17.3465V17.3931H6.21825V17.3465L4.18924 14.5865C3.97334 14.1298 3.89054 13.6178 3.95092 13.1132V5.57334C4.02177 5.76667 4.05398 5.78667 4.16348 6.07334L9.20701 17.5731H9.26498L14.1346 5.07335C14.0702 5.51334 14.0702 6.02665 14.0702 6.40665V6.40666V15.3998C14.1055 15.6028 14.0315 15.8096 13.8769 15.9398L12.4276 17.3465V17.3931H19.6483V17.3465Z" fill="white"/>
</svg>
