<?xml version="1.0" encoding="utf-8"?><svg width="16" height="16" fill="none" xmlns="http://www.w3.org/2000/svg" viewBox="0 0 16 16"><path d="M14.101 1.924H1.899C.852 1.924 0 2.742 0 3.748v8.505c0 1.005.852 1.823 1.9 1.823h12.2c1.047 0 1.899-.818 1.899-1.824V3.748c0-1.006-.852-1.824-1.899-1.824zm0 10.542H1.899c-.154 0-.289-.1-.289-.213v-7.38L7.13 9.53a.629.629 0 0 0 .405.148h.932a.63.63 0 0 0 .405-.148l5.519-4.659v7.38c0 .114-.135.214-.289.214zM8 8.081L2.632 3.534h10.736L8 8.08z" fill="#fff"/></svg>