<?xml version="1.0" encoding="utf-8"?><svg width="19" height="19" fill="none" xmlns="http://www.w3.org/2000/svg" viewBox="0 0 19 19"><circle cx="9.5" cy="9.5" r="9.5" fill="#16151B"/><path d="M9.478 1.622c-2.159 0-4.117.895-5.541 2.238a7.487 7.487 0 0 0-2.315 5.416c0 3.163 1.808 5.738 4.596 6.95.662.287 1.346-.244 1.346-.966 0-.474-.307-.886-.732-1.096-1.905-.943-2.984-2.774-2.984-4.888 0-1.5.645-2.865 1.669-3.85a5.682 5.682 0 0 1 3.96-1.61 5.71 5.71 0 0 1 4.007 1.61c1.023.985 1.669 2.35 1.669 3.85 0 2.05-.934 3.801-2.787 4.745-.424.216-.73.63-.73 1.105 0 .733.696 1.272 1.365.974 2.717-1.208 4.377-3.732 4.377-6.824 0-2.126-.912-4.051-2.314-5.416a8.14 8.14 0 0 0-5.586-2.238z" fill="#fff"/></svg>