<svg width="20" height="20" viewBox="0 0 20 20" fill="none" xmlns="http://www.w3.org/2000/svg">
<path d="M19.5 10C19.5 15.2469 15.2469 19.5 10 19.5C4.75314 19.5 0.5 15.2469 0.5 10C0.5 4.75314 4.75314 0.5 10 0.5C15.2469 0.5 19.5 4.75314 19.5 10Z" stroke="white"/>
<path fill-rule="evenodd" clip-rule="evenodd" d="M11.3335 10H8.5V7H11.3335C11.7313 7 12.1129 7.15804 12.3942 7.43934C12.6755 7.72064 12.8335 8.10218 12.8335 8.5C12.8335 8.89782 12.6755 9.27936 12.3942 9.56066C12.1129 9.84196 11.7313 10 11.3335 10ZM11.3335 5H6.5V15H8.5V12H11.3335C12.2618 12 13.152 11.6313 13.8084 10.9749C14.4648 10.3185 14.8335 9.42826 14.8335 8.5C14.8335 7.57174 14.4648 6.6815 13.8084 6.02513C13.152 5.36875 12.2618 5 11.3335 5Z" fill="white"/>
</svg>
