<?xml version="1.0" encoding="utf-8"?><svg width="26" height="26" fill="none" xmlns="http://www.w3.org/2000/svg" viewBox="0 0 26 26"><g clip-path="url(#auauclip0)" fill="#2DE58D"><path d="M4.547 3.124a12.936 12.936 0 0 1 6.47-2.973 12.993 12.993 0 0 1 11.86 4.396c4.668 5.455 4.03 13.661-1.424 18.33a12.938 12.938 0 0 1-6.469 2.973 12.992 12.992 0 0 1-11.86-4.396C-1.544 15.999-.907 7.793 4.547 3.124zm-2.52 13.648l3.974-1.37a7.425 7.425 0 0 1-.002-4.799L2.03 9.237c-.313.917-.514 1.88-.59 2.871-.125 1.606.08 3.186.587 4.664zm-.223-7.646zm2.453-3.735L7.42 8.14a7.364 7.364 0 0 1 4.156-2.4l-.796-4.1a11.543 11.543 0 0 0-6.522 3.751zm12.688-3.287a11.443 11.443 0 0 0-1.728-.473L14.42 5.74a7.366 7.366 0 0 1 4.156 2.398l3.167-2.754a11.568 11.568 0 0 0-4.797-3.28zm7.027 7.125L20 10.6a7.424 7.424 0 0 1 0 4.798l3.973 1.367c.312-.916.511-1.877.588-2.867a11.55 11.55 0 0 0-.59-4.669zM21.75 20.615l-3.17-2.753a7.364 7.364 0 0 1-4.156 2.4l.802 4.122a11.572 11.572 0 0 0 5.315-2.573c.435-.372.839-.772 1.209-1.196zM9.057 23.91c.562.202 1.139.36 1.724.474l.8-4.122a7.365 7.365 0 0 1-4.157-2.398l-3.168 2.755a11.59 11.59 0 0 0 4.801 3.29z"/><path d="M17.812 5.393a.702.702 0 1 1 0-1.403.702.702 0 0 1 0 1.403zm4.789 8.321a.702.702 0 1 1 0-1.403.702.702 0 0 1 0 1.403zm-4.811 8.309a.702.702 0 1 1 0-1.404.702.702 0 0 1 0 1.404zm-9.602-.013a.702.702 0 1 1 0-1.403.702.702 0 0 1 0 1.403zM3.4 13.689a.702.702 0 1 1 0-1.404.702.702 0 0 1 0 1.404zM8.21 5.38a.702.702 0 1 1 0-1.403.702.702 0 0 1 0 1.403z"/></g><defs><clipPath id="auauclip0"><path fill="#fff" transform="matrix(-1 0 0 1 26 0)" d="M0 0h26v26H0z"/></clipPath></defs></svg>