<?xml version="1.0" encoding="utf-8"?><svg width="24" height="24" fill="none" xmlns="http://www.w3.org/2000/svg" viewBox="0 0 24 24"><path d="M12 11c2.209 0 4-1.794 4-4.006a4.001 4.001 0 0 0-8 0C8 9.194 9.791 11 12 11zm0-6.955a2.956 2.956 0 0 1 2.945 2.949A2.956 2.956 0 0 1 12 9.944a2.956 2.956 0 0 1-2.945-2.95A2.956 2.956 0 0 1 12 4.044z" stroke="#1B1711"/><path d="M12 4.045a2.956 2.956 0 0 1 2.945 2.949A2.956 2.956 0 0 1 12 9.944a2.956 2.956 0 0 1-2.945-2.95A2.956 2.956 0 0 1 12 4.044zm8.252 16.123l-.071-.563c-.34-2.674-2.528-4.773-5.225-4.773H9.044c-2.698 0-4.886 2.115-5.225 4.773l-.072.563h16.505zm.113.332H3.634c-.056 0-.135-.048-.135-.166 0-3.245 2.516-5.834 5.544-5.834h5.912c3.04 0 5.544 2.603 5.544 5.834 0 .118-.079.166-.136.166zm-5.41-4.668c1.965 0 3.638 1.402 4.127 3.336H4.918c.491-1.924 2.164-3.336 4.126-3.336h5.912z" stroke="#1B1711"/></svg>