<?xml version="1.0" encoding="utf-8"?><svg width="20" height="20" fill="none" xmlns="http://www.w3.org/2000/svg" viewBox="0 0 20 20"><g clip-path="url(#axaxclip0)"><path d="M14.3 10.744c.051.132.074.268.074.404 0 .272-.094.537-.252.753-.156.214-.377.38-.638.453l-.005.001-.003.001a1.146 1.146 0 0 1-.371.061c-.291 0-.577-.104-.805-.283a1.21 1.21 0 0 1-.452-.737v-.003c0-.001 0-.002-.002-.003h.001a1.105 1.105 0 0 1-.025-.234c0-.262.089-.514.237-.723a1.242 1.242 0 0 1 .599-.456l.002-.002a1.23 1.23 0 0 1 .426-.076c.261 0 .518.08.736.224.214.143.388.352.475.611l.002.005c0 .002 0 .003.002.004h-.002zm-.8 3.222a.637.637 0 0 0-.346-.107.542.542 0 0 0-.3.091 5.82 5.82 0 0 1-2.955.817 5.077 5.077 0 0 1-2.24-.506l-.004-.002-.004-.001c-.105-.043-.225-.134-.355-.221a1.291 1.291 0 0 0-.213-.118.557.557 0 0 0-.48-.003l-.013.005a.558.558 0 0 0-.277.232.664.664 0 0 0-.017.66c.05.093.128.175.23.23.996.672 2.17.976 3.348.975a7.31 7.31 0 0 0 3.081-.693l.005-.003.005-.003c.125-.074.292-.14.449-.238a.993.993 0 0 0 .219-.18.683.683 0 0 0 .147-.274.555.555 0 0 0-.04-.388.667.667 0 0 0-.24-.273zM6.504 12.35l.006.001c.127.047.258.07.388.07.324 0 .638-.133.877-.349.237-.217.4-.523.4-.873v-.03l.001-.05c0-.346-.16-.654-.396-.872a1.305 1.305 0 0 0-.875-.351c-.087 0-.176.01-.262.03h-.005c-.43.09-.808.41-.947.85v.002c-.04.12-.06.244-.06.367 0 .269.09.531.243.747a1.2 1.2 0 0 0 .625.456c.002 0 .003 0 .005.002zm13.492-3.14v.002a2.47 2.47 0 0 1-.412 1.48c-.242.37-.577.681-.962.892.024.193.039.388.039.582a4.822 4.822 0 0 1-.99 2.898c-1.162 1.545-2.945 2.456-4.745 2.915l-.002.001c-.96.233-1.95.353-2.94.353-1.475 0-2.95-.267-4.325-.818v-.001h-.002c-1.426-.588-2.785-1.523-3.618-2.892a4.712 4.712 0 0 1-.695-2.448c0-.195.014-.39.04-.583a2.794 2.794 0 0 1-.942-.87A2.56 2.56 0 0 1 0 9.413v-.007c0-.667.29-1.299.74-1.764.45-.466 1.065-.77 1.724-.77h.027a2.726 2.726 0 0 1 1.187.167l.002.001.002.001c.269.113.536.25.775.44.077-.041.161-.087.255-.123 1.445-.855 3.124-1.185 4.76-1.28.014-.81.114-1.66.51-2.402.328-.617.9-1.097 1.58-1.264l.003-.001h.004c.259-.05.52-.074.78-.074.691 0 1.374.164 2.014.42.283-.427.687-.76 1.16-.948l.005-.002.005-.002c.278-.087.572-.137.867-.137.31 0 .625.056.918.188v-.001h.001l.006.003c.42.162.777.462 1.03.834a2.305 2.305 0 0 1 .387 1.539v.002l-.001.004a2.235 2.235 0 0 1-.778 1.491c-.43.374-.986.6-1.557.6a2.09 2.09 0 0 1-.276-.017 2.314 2.314 0 0 1-1.483-.725 2.239 2.239 0 0 1-.64-1.538c0-.029.002-.058.003-.086-.532-.237-1.096-.433-1.657-.433-.082 0-.163.005-.244.013-.42.04-.812.305-1 .686v.002c-.288.56-.345 1.213-.354 1.863 1.61.105 3.23.491 4.652 1.308h.002l.02.012c.027.016.077.043.122.067.098-.079.201-.16.32-.23.43-.287.94-.43 1.45-.43.227 0 .454.029.674.085h.001l.01.003.008.001c.52.133.99.432 1.344.834.354.404.592.914.639 1.468v.001h-.001zm-4.744-5.27c0 .022 0 .044.002.067v.004c.01.28.143.54.344.732.201.193.47.312.74.313h.008c.02.002.04.002.059.002.274 0 .546-.118.75-.31a1.08 1.08 0 0 0 .351-.737v-.003a1.088 1.088 0 0 0-.346-.836 1.142 1.142 0 0 0-.777-.331.9.9 0 0 0-.269.04h-.006a1.191 1.191 0 0 0-.604.394 1.05 1.05 0 0 0-.252.665zM3.362 8.257c-.215-.1-.438-.172-.658-.17-.036 0-.074.001-.11.005h-.006l-.005.001a1.373 1.373 0 0 0-.874.367c-.24.22-.398.518-.41.845v.006a1.13 1.13 0 0 0 .164.653c.077.133.179.253.294.358.37-.808.947-1.494 1.605-2.065zm14.032 3.955c0-.72-.26-1.444-.681-2.027-.84-1.168-2.142-1.93-3.497-2.355l-.009-.003a10.886 10.886 0 0 0-3.202-.48 10.94 10.94 0 0 0-3.22.482c-1.354.43-2.66 1.186-3.498 2.358a3.514 3.514 0 0 0-.673 2.035c0 .267.034.533.104.792.153.582.451 1.101.837 1.553.386.453.86.84 1.357 1.155.11.069.221.134.334.197 1.446.807 3.11 1.161 4.764 1.161.28 0 .56-.01.838-.03 1.665-.137 3.336-.629 4.687-1.633.431-.319.83-.703 1.145-1.141.316-.438.548-.928.65-1.46l.001-.001a2.9 2.9 0 0 0 .063-.603zm1.313-2.868c0-.175-.04-.35-.128-.512l-.002-.002v-.002a1.251 1.251 0 0 0-.524-.548 1.518 1.518 0 0 0-.741-.189c-.236 0-.47.053-.678.157.661.574 1.241 1.264 1.616 2.076.12-.105.223-.233.3-.376.1-.187.157-.397.157-.604z" fill="#fff"/></g><defs><clipPath id="axaxclip0"><path fill="#fff" d="M0 0h20v20H0z"/></clipPath></defs></svg>