<?xml version="1.0" encoding="utf-8"?><svg width="26" height="26" fill="none" xmlns="http://www.w3.org/2000/svg" viewBox="0 0 26 26"><g clip-path="url(#ayayclip0)" fill="#FFD788"><path d="M24.348 10.765H21.9v4.058a3.69 3.69 0 0 1-3.687 3.687h-5.941v1.508c0 .91.741 1.652 1.652 1.652h5.259l2.507 3.04a.78.78 0 0 0 1.358-.308l.684-2.732h.615c.91 0 1.652-.741 1.652-1.652v-7.601c0-.911-.741-1.652-1.652-1.652z"/><path d="M18.214.965H2.126A2.129 2.129 0 0 0 0 3.09v11.732c0 1.173.954 2.127 2.126 2.127H3.69l1.134 4.537a.78.78 0 0 0 1.359.308l3.997-4.845h8.034a2.129 2.129 0 0 0 2.126-2.127V3.091A2.129 2.129 0 0 0 18.214.965zm-3.462 7.453l-1.725 1.681.407 2.374a.78.78 0 0 1-1.132.822l-2.132-1.12-2.132 1.12a.78.78 0 0 1-1.132-.822l.407-2.374L5.59 8.418a.78.78 0 0 1 .432-1.33l2.384-.347L9.47 4.58a.78.78 0 0 1 1.399 0l1.066 2.16 2.383.346a.78.78 0 0 1 .433 1.33z"/><path d="M10.718 7.799l-.548-1.11-.548 1.11a.78.78 0 0 1-.587.427l-1.225.178.886.864a.78.78 0 0 1 .224.69l-.209 1.22 1.096-.575a.78.78 0 0 1 .726 0l1.096.576-.21-1.22a.78.78 0 0 1 .225-.69l.886-.865-1.225-.178a.78.78 0 0 1-.587-.427z"/></g><defs><clipPath id="ayayclip0"><path fill="#fff" d="M0 0h26v26H0z"/></clipPath></defs></svg>