<svg width="8" height="11" viewBox="0 0 8 11" fill="none" xmlns="http://www.w3.org/2000/svg">
<g clip-path="url(#clip0)">
<path d="M7.46 4.61902C7.42541 4.69532 7.36958 4.76004 7.29917 4.80544C7.22877 4.85084 7.14677 4.875 7.063 4.87502H5.313V10.563C5.31274 10.679 5.26647 10.7902 5.18436 10.8721C5.10225 10.954 4.99099 11 4.875 11H3.125C3.00901 10.9998 2.89786 10.9535 2.81593 10.8714C2.73401 10.7893 2.688 10.678 2.688 10.562V4.87502H0.938001C0.854089 4.87485 0.771991 4.85059 0.701473 4.80511C0.630956 4.75962 0.574986 4.69485 0.540224 4.61847C0.505461 4.5421 0.493368 4.45735 0.505384 4.3743C0.517399 4.29125 0.553017 4.21341 0.608001 4.15002L3.672 0.650019C3.71293 0.602956 3.76348 0.565221 3.82023 0.539362C3.87699 0.513503 3.93863 0.500122 4.001 0.500122C4.06337 0.500122 4.12501 0.513503 4.18177 0.539362C4.23853 0.565221 4.28907 0.602956 4.33 0.650019L7.393 4.15002C7.506 4.27802 7.533 4.46202 7.462 4.61902H7.46Z" fill="#2DE58D"/>
</g>
<defs>
<clipPath id="clip0">
<rect width="8" height="11" fill="white"/>
</clipPath>
</defs>
</svg>
