<?xml version="1.0" encoding="utf-8"?><svg width="25" height="24" fill="none" xmlns="http://www.w3.org/2000/svg" viewBox="0 0 25 24"><path d="M22 6.894a7.184 7.184 0 0 1-2.126.638A3.97 3.97 0 0 0 21.497 5.3c-.713.466-1.5.794-2.34.978C18.48 5.488 17.515 5 16.462 5c-2.043 0-3.688 1.814-3.688 4.038 0 .32.025.628.085.92-3.068-.163-5.782-1.772-7.606-4.222a4.36 4.36 0 0 0-.505 2.04c0 1.399.658 2.638 1.64 3.356a3.408 3.408 0 0 1-1.668-.498v.045c0 1.962 1.28 3.591 2.957 3.966-.3.09-.628.133-.968.133-.236 0-.475-.014-.699-.069.479 1.6 1.835 2.775 3.449 2.813-1.256 1.074-2.85 1.722-4.576 1.722-.303 0-.593-.015-.883-.056A9.752 9.752 0 0 0 9.661 21c6.79 0 10.503-6.154 10.503-11.488 0-.178-.006-.35-.014-.522A7.782 7.782 0 0 0 22 6.894z" fill="#FFD788"/></svg>