<?xml version="1.0" encoding="utf-8"?><svg width="20" height="20" fill="none" xmlns="http://www.w3.org/2000/svg" viewBox="0 0 20 20"><g clip-path="url(#bhbhclip0)"><path d="M20 3.8a8.194 8.194 0 0 1-2.356.645 4.12 4.12 0 0 0 1.804-2.268 8.272 8.272 0 0 1-2.608.996 4.103 4.103 0 0 0-6.991 3.74 11.648 11.648 0 0 1-8.456-4.286A4.072 4.072 0 0 0 .84 4.689a4.1 4.1 0 0 0 1.824 3.415 4.103 4.103 0 0 1-1.858-.515v.05a4.107 4.107 0 0 0 3.29 4.024 4.155 4.155 0 0 1-1.08.144c-.266 0-.522-.027-.773-.077a4.105 4.105 0 0 0 3.832 2.85A8.232 8.232 0 0 1 .98 16.333a8.73 8.73 0 0 1-.98-.056 11.598 11.598 0 0 0 6.289 1.846c7.547 0 11.673-6.251 11.673-11.673l-.014-.531A8.193 8.193 0 0 0 20 3.799z" fill="#fff"/></g><defs><clipPath id="bhbhclip0"><path fill="#fff" d="M0 0h20v20H0z"/></clipPath></defs></svg>