<svg width="25" height="24" viewBox="0 0 25 24" fill="none" xmlns="http://www.w3.org/2000/svg">
<path d="M22 6.894C21.3287 7.21552 20.6114 7.43076 19.874 7.532C20.6645 7.00602 21.2403 6.21415 21.497 5.3C20.784 5.766 19.997 6.094 19.157 6.278C18.48 5.488 17.515 5 16.462 5C14.419 5 12.774 6.814 12.774 9.038C12.774 9.358 12.799 9.666 12.859 9.958C9.791 9.795 7.077 8.186 5.253 5.736C4.92085 6.36465 4.74748 7.065 4.748 7.776C4.748 9.175 5.406 10.414 6.388 11.132C5.79826 11.1132 5.22352 10.9416 4.72 10.634V10.679C4.72 12.641 6 14.27 7.677 14.645C7.377 14.735 7.049 14.778 6.709 14.778C6.473 14.778 6.234 14.764 6.01 14.709C6.489 16.309 7.845 17.484 9.459 17.522C8.203 18.596 6.609 19.244 4.883 19.244C4.58 19.244 4.29 19.229 4 19.188C5.65247 20.3664 7.63142 20.9998 9.661 21C16.451 21 20.164 14.846 20.164 9.512C20.164 9.334 20.158 9.162 20.15 8.99C20.8881 8.40874 21.5149 7.69861 22 6.894V6.894Z" fill="#2DE58D"/>
</svg>
