<svg width="17" height="17" viewBox="0 0 17 17" fill="none" xmlns="http://www.w3.org/2000/svg">
<path d="M3.91 0.513977C3.21139 0.515299 2.54178 0.793476 2.04788 1.28756C1.55398 1.78165 1.27606 2.45136 1.275 3.14998C1.27579 3.84876 1.5536 4.51873 2.04753 5.01304C2.54146 5.50734 3.21122 5.78565 3.91 5.78698C4.60913 5.78618 5.2794 5.5081 5.77377 5.01374C6.26813 4.51938 6.54621 3.84911 6.547 3.14998C6.54594 2.45119 6.26788 1.78133 5.77377 1.28721C5.27965 0.793095 4.60979 0.515035 3.911 0.513977H3.91ZM3.91 4.77098C3.48994 4.75622 3.09201 4.57897 2.80006 4.27659C2.50811 3.97421 2.34495 3.5703 2.34495 3.14998C2.34495 2.72966 2.50811 2.32575 2.80006 2.02336C3.09201 1.72098 3.48994 1.54373 3.91 1.52898C4.804 1.52898 5.531 2.25698 5.531 3.14998C5.531 4.04398 4.804 4.77098 3.911 4.77098H3.91ZM7.735 7.24798C7.68831 7.17908 7.62541 7.12271 7.55182 7.08383C7.47824 7.04494 7.39623 7.02474 7.313 7.02498H0.508002C0.424999 7.02506 0.343282 7.04549 0.269999 7.08446C0.196716 7.12344 0.134099 7.17977 0.0876261 7.24855C0.0411529 7.31732 0.0122391 7.39643 0.00341381 7.47896C-0.00541143 7.5615 0.00612078 7.64493 0.0370017 7.72198L3.44 16.168C3.47793 16.2618 3.54302 16.3422 3.62694 16.3988C3.71086 16.4554 3.80978 16.4857 3.911 16.4857C4.01223 16.4857 4.11114 16.4554 4.19506 16.3988C4.27898 16.3422 4.34408 16.2618 4.382 16.168L7.785 7.72198C7.81607 7.64491 7.82776 7.56139 7.81904 7.47875C7.81033 7.39611 7.78147 7.31687 7.735 7.24798V7.24798ZM3.91 14.62L1.26 8.04098H6.56L3.91 14.619V14.62ZM13.09 0.513977C12.391 0.514771 11.7209 0.792714 11.2266 1.28686C10.7323 1.781 10.4541 2.45102 10.453 3.14998C10.4538 3.84894 10.7317 4.51906 11.2259 5.01339C11.72 5.50772 12.39 5.78592 13.089 5.78698C13.7881 5.78618 14.4584 5.5081 14.9528 5.01374C15.4471 4.51938 15.7252 3.84911 15.726 3.14998C15.7249 2.45102 15.4467 1.781 14.9524 1.28686C14.4581 0.792714 13.788 0.514771 13.089 0.513977H13.09ZM13.09 4.77098C12.6603 4.77071 12.2483 4.59998 11.9444 4.29626C11.6405 3.99254 11.4695 3.58064 11.469 3.15098C11.469 2.25698 12.196 1.52898 13.089 1.52898C13.983 1.52898 14.71 2.25698 14.71 3.14998C14.71 4.04398 13.983 4.77098 13.09 4.77098V4.77098ZM16.963 15.789L13.56 7.34298C13.5221 7.24913 13.457 7.16874 13.3731 7.11214C13.2891 7.05554 13.1902 7.0253 13.089 7.0253C12.9878 7.0253 12.8889 7.05554 12.8049 7.11214C12.721 7.16874 12.6559 7.24913 12.618 7.34298L9.215 15.789C9.18412 15.866 9.17259 15.9495 9.18141 16.032C9.19024 16.1145 9.21915 16.1936 9.26563 16.2624C9.3121 16.3312 9.37472 16.3875 9.448 16.4265C9.52128 16.4655 9.603 16.4859 9.686 16.486H16.492C16.575 16.4859 16.6567 16.4655 16.73 16.4265C16.8033 16.3875 16.8659 16.3312 16.9124 16.2624C16.9589 16.1936 16.9878 16.1145 16.9966 16.032C17.0054 15.9495 16.9939 15.866 16.963 15.789V15.789ZM10.439 15.47L13.089 8.89198L15.739 15.471H10.439V15.47Z" fill="#2DE58D"/>
</svg>
