<?xml version="1.0" encoding="utf-8"?><svg width="17" height="17" fill="none" xmlns="http://www.w3.org/2000/svg" viewBox="0 0 17 17"><g clip-path="url(#bibiclip0)" fill="#FFD788"><path d="M3.91.514A2.64 2.64 0 0 0 1.275 3.15 2.64 2.64 0 0 0 3.91 5.787 2.64 2.64 0 0 0 6.547 3.15 2.64 2.64 0 0 0 3.911.514zm0 4.257a1.622 1.622 0 0 1 0-3.242c.894 0 1.621.728 1.621 1.621 0 .894-.727 1.621-1.62 1.621zm3.825 2.477a.508.508 0 0 0-.422-.223H.508a.508.508 0 0 0-.471.697l3.403 8.446a.508.508 0 0 0 .942 0l3.403-8.446a.508.508 0 0 0-.05-.474zM3.91 14.62L1.26 8.041h5.3l-2.65 6.578zM13.09.514a2.64 2.64 0 0 0-2.637 2.636 2.64 2.64 0 0 0 2.636 2.637 2.64 2.64 0 0 0 2.637-2.637A2.64 2.64 0 0 0 13.089.514zm0 4.257a1.622 1.622 0 0 1-1.621-1.62c0-.894.727-1.622 1.62-1.622.894 0 1.621.728 1.621 1.621 0 .894-.727 1.621-1.62 1.621zm3.873 11.018L13.56 7.343a.508.508 0 0 0-.942 0l-3.403 8.446a.508.508 0 0 0 .471.697h6.806a.508.508 0 0 0 .471-.697zm-6.524-.319l2.65-6.578 2.65 6.579h-5.3z"/></g><defs><clipPath id="bibiclip0"><path fill="#fff" d="M0 0h17v17H0z"/></clipPath></defs></svg>