<svg width="24" height="24" viewBox="0 0 24 24" fill="none" xmlns="http://www.w3.org/2000/svg">
<g clip-path="url(#clip0)">
<path d="M16.522 10.313C16.5221 10.1898 16.498 10.0678 16.4509 9.95389C16.4038 9.84002 16.3347 9.73657 16.2476 9.64944C16.1604 9.56231 16.057 9.49323 15.9431 9.44613C15.8293 9.39904 15.7072 9.37487 15.584 9.375H5.928C5.67936 9.375 5.4409 9.47377 5.26509 9.64959C5.08927 9.8254 4.9905 10.0639 4.9905 10.3125C4.9905 10.5611 5.08927 10.7996 5.26509 10.9754C5.4409 11.1512 5.67936 11.25 5.928 11.25H15.584C16.102 11.25 16.522 10.83 16.522 10.312V10.313ZM5.928 13.125C5.67936 13.125 5.4409 13.2238 5.26509 13.3996C5.08927 13.5754 4.9905 13.8139 4.9905 14.0625C4.9905 14.3111 5.08927 14.5496 5.26509 14.7254C5.4409 14.9012 5.67936 15 5.928 15H11.793C12.0416 15 12.2801 14.9012 12.4559 14.7254C12.6317 14.5496 12.7305 14.3111 12.7305 14.0625C12.7305 13.8139 12.6317 13.5754 12.4559 13.3996C12.2801 13.2238 12.0416 13.125 11.793 13.125H5.928Z" fill="#2DE58D"/>
<path d="M8.131 22.125H4.996C4.49871 22.1247 4.02185 21.9271 3.67012 21.5756C3.31838 21.224 3.12053 20.7473 3.12 20.25V3.75C3.12 2.716 3.96 1.875 4.995 1.875H16.521C17.555 1.875 18.396 2.716 18.396 3.75V9.516C18.396 9.76464 18.4948 10.0031 18.6706 10.1789C18.8464 10.3547 19.0849 10.4535 19.3335 10.4535C19.5821 10.4535 19.8206 10.3547 19.9964 10.1789C20.1722 10.0031 20.271 9.76464 20.271 9.516V3.75C20.2699 2.75594 19.8747 1.80288 19.1718 1.09987C18.469 0.396868 17.5161 0.00132344 16.522 0L4.996 0C4.00177 0.00105883 3.04855 0.396487 2.34552 1.09952C1.64249 1.80255 1.24706 2.75576 1.246 3.75V20.25C1.24706 21.2442 1.64249 22.1974 2.34552 22.9005C3.04855 23.6035 4.00177 23.9989 4.996 24H8.13C8.37864 24 8.6171 23.9012 8.79291 23.7254C8.96873 23.5496 9.0675 23.3111 9.0675 23.0625C9.0675 22.8139 8.96873 22.5754 8.79291 22.3996C8.6171 22.2238 8.37864 22.125 8.13 22.125H8.131Z" fill="#2DE58D"/>
<path d="M21.932 13.574C21.4044 13.0472 20.6893 12.7512 19.9437 12.751C19.1981 12.7508 18.4829 13.0464 17.955 13.573L12.808 18.709C12.6988 18.8177 12.6181 18.9517 12.573 19.099L11.453 22.789C11.4038 22.9497 11.3987 23.1206 11.4383 23.2839C11.4779 23.4472 11.5606 23.5969 11.6779 23.7172C11.7952 23.8375 11.9427 23.9241 12.1049 23.9679C12.2671 24.0117 12.4381 24.011 12.6 23.966L16.384 22.918C16.5397 22.8749 16.6817 22.7922 16.796 22.678L21.932 17.551C22.4584 17.0231 22.7541 16.308 22.7541 15.5625C22.7541 14.817 22.4584 14.1019 21.932 13.574V13.574ZM15.822 21C15.7063 21.1156 15.5626 21.1993 15.405 21.243L15.365 21.254C15.1678 21.3086 14.9581 21.2963 14.7687 21.2191C14.5792 21.1419 14.4206 21.0042 14.3177 20.8274C14.2148 20.6505 14.1733 20.4446 14.1998 20.2418C14.2263 20.0389 14.3192 19.8505 14.464 19.706L17.109 17.066C17.196 16.978 17.2995 16.9081 17.4136 16.8603C17.5277 16.8125 17.6502 16.7877 17.7739 16.7874C17.8976 16.7872 18.0202 16.8113 18.1345 16.8586C18.2489 16.9059 18.3527 16.9753 18.4401 17.0629C18.5275 17.1505 18.5967 17.2545 18.6437 17.369C18.6907 17.4834 18.7146 17.606 18.7141 17.7297C18.7135 17.8534 18.6885 17.9758 18.6404 18.0898C18.5923 18.2038 18.5222 18.3072 18.434 18.394L15.822 21ZM20.607 16.225C20.507 16.325 20.344 16.325 20.244 16.225L19.28 15.261C19.18 15.161 19.18 14.999 19.28 14.9C19.4587 14.7394 19.6921 14.6535 19.9323 14.6598C20.1725 14.6661 20.4011 14.7642 20.5711 14.934C20.7411 15.1037 20.8395 15.3322 20.8462 15.5723C20.8529 15.8125 20.7673 16.0461 20.607 16.225V16.225ZM15.584 5.625H5.928C5.67936 5.625 5.4409 5.72377 5.26509 5.89959C5.08927 6.0754 4.9905 6.31386 4.9905 6.5625C4.9905 6.81114 5.08927 7.0496 5.26509 7.22541C5.4409 7.40123 5.67936 7.5 5.928 7.5H15.584C15.8326 7.5 16.0711 7.40123 16.2469 7.22541C16.4227 7.0496 16.5215 6.81114 16.5215 6.5625C16.5215 6.31386 16.4227 6.0754 16.2469 5.89959C16.0711 5.72377 15.8326 5.625 15.584 5.625V5.625Z" fill="#2DE58D"/>
</g>
<defs>
<clipPath id="clip0">
<rect width="24" height="24" fill="white"/>
</clipPath>
</defs>
</svg>
