<svg width="24" height="24" viewBox="0 0 24 24" fill="none" xmlns="http://www.w3.org/2000/svg">
<path d="M16.5217 10.3125C16.5217 9.79472 16.102 9.375 15.5842 9.375H5.92798C5.4102 9.375 4.99048 9.79472 4.99048 10.3125C4.99048 10.8303 5.4102 11.25 5.92798 11.25H15.5842C16.102 11.25 16.5217 10.8303 16.5217 10.3125Z" fill="#FFD788"/>
<path d="M5.92798 13.125C5.4102 13.125 4.99048 13.5447 4.99048 14.0625C4.99048 14.5803 5.4102 15 5.92798 15H11.7925C12.3103 15 12.73 14.5803 12.73 14.0625C12.73 13.5447 12.3103 13.125 11.7925 13.125H5.92798Z" fill="#FFD788"/>
<path d="M8.13103 22.125H4.99561C3.96173 22.125 3.12061 21.2839 3.12061 20.25V3.75C3.12061 2.71613 3.96173 1.875 4.99561 1.875H16.5217C17.5555 1.875 18.3967 2.71613 18.3967 3.75V9.51562C18.3967 10.0334 18.8164 10.4531 19.3342 10.4531C19.8519 10.4531 20.2717 10.0334 20.2717 9.51562V3.75C20.2717 1.68225 18.5894 0 16.5217 0H4.99561C2.92786 0 1.24561 1.68225 1.24561 3.75V20.25C1.24561 22.3177 2.92786 24 4.99561 24H8.13103C8.64881 24 9.06853 23.5803 9.06853 23.0625C9.06853 22.5447 8.64881 22.125 8.13103 22.125Z" fill="#FFD788"/>
<path d="M21.9321 13.5737C20.8355 12.4771 19.0513 12.477 17.9554 13.5729L12.8084 18.7085C12.6991 18.8176 12.6184 18.9519 12.5735 19.0997L11.4526 22.7899C11.3532 23.1171 11.4398 23.4724 11.6786 23.7171C11.8575 23.9004 12.1005 24 12.3497 24C12.4331 24 12.5173 23.9888 12.5999 23.9659L16.3839 22.9177C16.5396 22.8746 16.6816 22.7919 16.7959 22.6778L21.9322 17.5512C23.0288 16.4546 23.0288 14.6703 21.9321 13.5737ZM15.8224 21.0003C15.7067 21.1159 15.563 21.1995 15.4053 21.2432L15.3655 21.2542C14.6616 21.4492 14.0194 20.791 14.2317 20.0922C14.276 19.9462 14.3558 19.8134 14.4638 19.7056L17.1091 17.0662C17.4754 16.7006 18.0686 16.701 18.4345 17.0669C18.801 17.4334 18.8007 18.0276 18.4339 18.3937L15.8224 21.0003ZM20.607 16.2248C20.5067 16.3249 20.3442 16.3249 20.2439 16.2246L19.2804 15.2611C19.1805 15.1612 19.1806 14.9993 19.2805 14.8996C19.6461 14.534 20.2408 14.534 20.6064 14.8996C20.9719 15.2651 20.9719 15.8598 20.607 16.2248Z" fill="#FFD788"/>
<path d="M15.5842 5.625H5.92798C5.4102 5.625 4.99048 6.04472 4.99048 6.5625C4.99048 7.08028 5.4102 7.5 5.92798 7.5H15.5842C16.102 7.5 16.5217 7.08028 16.5217 6.5625C16.5217 6.04472 16.102 5.625 15.5842 5.625Z" fill="#FFD788"/>
</svg>
