<?xml version="1.0" encoding="utf-8"?><svg width="24" height="24" fill="none" xmlns="http://www.w3.org/2000/svg" viewBox="0 0 24 24"><path d="M16.522 10.313a.937.937 0 0 0-.938-.938H5.928a.937.937 0 1 0 0 1.875h9.656c.518 0 .938-.42.938-.938zM5.928 13.125a.937.937 0 1 0 0 1.875h5.865a.937.937 0 1 0 0-1.875H5.928z" fill="#1B1711"/><path d="M8.131 22.125H4.996A1.877 1.877 0 0 1 3.12 20.25V3.75c0-1.034.84-1.875 1.875-1.875h11.526c1.034 0 1.875.841 1.875 1.875v5.766a.937.937 0 1 0 1.875 0V3.75A3.754 3.754 0 0 0 16.522 0H4.996a3.754 3.754 0 0 0-3.75 3.75v16.5A3.754 3.754 0 0 0 4.996 24H8.13a.937.937 0 1 0 0-1.875z" fill="#1B1711"/><path d="M21.932 13.574a2.815 2.815 0 0 0-3.977-.001l-5.147 5.136a.938.938 0 0 0-.235.39l-1.12 3.69a.937.937 0 0 0 1.147 1.177l3.784-1.048a.937.937 0 0 0 .412-.24l5.136-5.127a2.816 2.816 0 0 0 0-3.977zM15.822 21a.948.948 0 0 1-.417.243l-.04.011a.926.926 0 0 1-.901-1.548l2.645-2.64a.938.938 0 1 1 1.325 1.328L15.822 21zm4.785-4.775c-.1.1-.263.1-.363 0l-.964-.964c-.1-.1-.1-.262 0-.361a.939.939 0 0 1 1.327 1.325zm-5.023-10.6H5.928a.937.937 0 1 0 0 1.875h9.656a.937.937 0 1 0 0-1.875z" fill="#1B1711"/></svg>