<?xml version="1.0" encoding="utf-8"?><svg width="20" height="20" fill="none" xmlns="http://www.w3.org/2000/svg" viewBox="0 0 20 20"><path d="M17.98 10.335a2.039 2.039 0 0 0-.642-1.105 2.043 2.043 0 0 0-1.144-.525c-1.369-.148-3.434-.223-6.194-.223s-4.822.075-6.183.223a2.025 2.025 0 0 0-1.15.525 2.12 2.12 0 0 0-.647 1.105c-.194.863-.29 2.165-.29 3.906 0 1.77.096 3.073.29 3.907.097.438.31.807.642 1.104.33.298.712.469 1.143.514C5.175 19.922 7.24 20 10 20c2.76 0 4.825-.078 6.194-.234a1.953 1.953 0 0 0 1.139-.514 2.12 2.12 0 0 0 .647-1.104c.193-.864.29-2.166.29-3.907 0-1.77-.097-3.073-.29-3.906zM6.45 11.462H5.258v6.35H4.14v-6.35H2.969v-1.049H6.45v1.05zm3.014 6.35h-.993v-.602c-.402.454-.781.68-1.139.68-.342 0-.558-.137-.647-.412-.06-.179-.09-.45-.09-.815v-4.364h.994v4.063c0 .238.004.368.011.39.023.156.1.235.235.235.2 0 .413-.157.636-.47V12.3h.993v5.514zm3.795-1.651c0 .543-.034.915-.1 1.116-.127.409-.39.614-.793.614-.357 0-.703-.205-1.038-.614v.536h-.993v-7.4h.993v2.422c.32-.402.666-.603 1.038-.603.402 0 .666.209.793.625.066.194.1.562.1 1.105v2.199zm3.772-.915h-1.997v.97c0 .514.17.77.513.77.245 0 .394-.133.446-.401.015-.075.023-.302.023-.681h1.015v.145c0 .365-.007.58-.022.648-.022.2-.1.401-.235.602-.267.394-.67.592-1.205.592-.513 0-.915-.19-1.205-.57-.216-.275-.324-.706-.324-1.294v-1.931c0-.588.104-1.02.312-1.295.29-.38.689-.569 1.195-.569.498 0 .893.19 1.183.57.201.274.301.706.301 1.294v1.15z" fill="#fff"/><path d="M11.83 13.136c-.171 0-.338.082-.502.246v3.36c.164.163.33.244.502.244.29 0 .436-.249.436-.747v-2.355c0-.499-.146-.748-.436-.748zm3.706 0c-.335 0-.503.253-.503.759v.513h1.005v-.513c0-.506-.168-.759-.502-.759zM5.804 4.453v3.025H6.92V4.453L8.27 0H7.132l-.76 2.935L5.58 0H4.397c.209.625.45 1.32.726 2.087.35 1.027.576 1.816.68 2.366zm3.962 3.103c.513 0 .907-.19 1.183-.57.208-.275.312-.714.312-1.316V3.717c0-.596-.104-1.03-.312-1.306-.276-.38-.67-.57-1.183-.57-.499 0-.89.19-1.172.57-.209.275-.313.71-.313 1.306V5.67c0 .595.104 1.034.313 1.317.282.38.673.569 1.172.569zm-.48-4.04c0-.514.16-.77.48-.77.32 0 .48.256.48.77v2.343c0 .521-.16.782-.48.782-.32 0-.48-.26-.48-.782V3.516zm3.549 4.04c.372 0 .755-.23 1.15-.692v.614H15v-5.57h-1.016v4.253c-.223.32-.435.48-.636.48-.134 0-.212-.082-.235-.246a2.91 2.91 0 0 1-.01-.39V1.907h-1.016v4.398c0 .38.03.658.089.837.097.275.316.413.659.413z" fill="#fff"/></svg>