<?xml version="1.0" encoding="utf-8"?><svg xmlns="http://www.w3.org/2000/svg" xmlns:xlink="http://www.w3.org/1999/xlink"><defs><svg fill="none" viewBox="0 0 47 44" id="ERC20" xmlns="http://www.w3.org/2000/svg"><path d="M2.89 11.431h8.98V8.546H2.89V2.971h9.178V.113H0v19.779h12.096v-2.858H2.89v-5.602zm14.384-.226l7.224 8.687h3.71l-6.26-7.442c3.4-.594 5.128-3.254 5.128-6.055 0-3.141-2.154-6.31-6.46-6.31h-7.223v19.807h2.833V2.972h4.39c2.409 0 3.598 1.725 3.598 3.423 0 1.726-1.19 3.452-3.597 3.452h-3.343v1.358zm10.661-1.16c0 2.745 1.133 5.235 2.833 7.046a9.457 9.457 0 0 0 6.855 2.942c4.618 0 8.244-3.056 9.377-7.555h-2.804c-1.02 3-3.57 4.726-6.573 4.726-1.898 0-3.626-.82-4.872-2.122-1.247-1.302-2.04-3.056-2.04-5.037 0-2.037.793-3.792 2.04-5.093 1.246-1.302 2.974-2.122 4.872-2.122 2.918 0 5.354 1.5 6.403 4.47h2.832C45.725 2.83 42.156 0 37.623 0c-2.69 0-5.127 1.16-6.855 2.943-1.7 1.81-2.833 4.3-2.833 7.102zM11.417 30.673c.34-2.207 1.615-3.792 4.051-3.792 4.618 0 5.383 4.697 2.267 6.932h.028l-9.32 7.923v2.207h13.909V41.2h-9.093c2.86-2.377 3.597-2.886 6.402-5.207 5.354-3.735 3.314-11.969-4.193-11.969-4.136 0-6.402 2.886-6.912 6.423l2.861.227z" fill="#fff"/><path d="M30.688 27.702c3.03 0 4.532 3.395 4.532 6.79 0 3.396-1.501 6.763-4.532 6.763-3.06 0-4.533-3.367-4.533-6.762 0-3.396 1.473-6.791 4.533-6.791zm0 16.298c4.816 0 7.252-4.754 7.252-9.507 0-4.754-2.436-9.536-7.252-9.536-4.845 0-7.252 4.782-7.252 9.536 0 4.753 2.407 9.507 7.252 9.507z" fill="#fff"/></svg><svg fill="none" viewBox="0 0 13 13" id="about-close" xmlns="http://www.w3.org/2000/svg"><circle cx="2.257" cy="10.743" r="1.5" transform="rotate(-45 2.257 10.743)" fill="#fff"/><circle cx="6.5" cy="6.5" r="1.5" transform="rotate(-45 6.5 6.5)" fill="#fff"/><circle cx="10.742" cy="2.257" r="1.5" transform="rotate(-45 10.742 2.257)" fill="#fff"/><circle cx="2.257" cy="2.257" r="1.5" transform="rotate(45 2.257 2.257)" fill="#fff"/><circle cx="10.742" cy="10.743" r="1.5" transform="rotate(45 10.742 10.743)" fill="#fff"/></svg><svg fill="none" viewBox="0 0 15 3" id="about-open" xmlns="http://www.w3.org/2000/svg"><circle cx="1.5" cy="1.5" r="1.5" fill="#fff"/><circle cx="7.5" cy="1.5" r="1.5" fill="#fff"/><circle cx="13.5" cy="1.5" r="1.5" fill="#fff"/></svg><svg fill="none" viewBox="0 0 14 21" id="arrow-header-bottom" xmlns="http://www.w3.org/2000/svg"><path d="M13.921 12.763a.873.873 0 0 0-.796-.513h-3.5V.875A.875.875 0 0 0 8.75 0h-3.5a.875.875 0 0 0-.875.875V12.25h-3.5a.876.876 0 0 0-.658 1.45l6.125 7a.872.872 0 0 0 1.316 0l6.125-7a.873.873 0 0 0 .138-.937z" fill="#fff"/></svg><svg fill="none" viewBox="0 0 16 16" id="bell" xmlns="http://www.w3.org/2000/svg"><path d="M13.93 10.567l-.33-2.854A5.626 5.626 0 0 0 9.71 2.42v-.712A1.71 1.71 0 0 0 8 0c-.942 0-1.709.767-1.709 1.709v.712a5.627 5.627 0 0 0-3.89 5.292l-.33 2.853a1.857 1.857 0 0 0-.713 1.47v.112c0 1.394 1.364 1.394 1.878 1.394h1.886C5.34 14.934 6.495 16 7.887 16c1.392 0 2.547-1.066 2.766-2.458h2.11c.514 0 1.879 0 1.879-1.394v-.112a1.86 1.86 0 0 0-.712-1.47zm-6.042 4.03c-.542 0-1.014-.337-1.247-.83h2.494c-.234.493-.705.83-1.247.83zm5.351-2.482a3.253 3.253 0 0 1-.475.024H3.236c-.221 0-.38-.008-.475-.024v-.08c0-.217.141-.362.272-.425l.349-.167.417-3.608.005-.08a4.212 4.212 0 0 1 3.333-4.108l.558-.116V1.709a.306.306 0 0 1 .612 0V3.53l.558.117a4.212 4.212 0 0 1 3.332 4.107l.423 3.689.348.168a.472.472 0 0 1 .272.425v.08h-.001z" fill="#fff"/></svg><svg fill="none" viewBox="0 0 39 39" id="cloud-server" xmlns="http://www.w3.org/2000/svg"><path d="M29.132 11.928H9.869c-.617 0-1.12.498-1.12 1.115v3.799c0 .617.503 1.115 1.12 1.115h19.263c.615 0 1.117-.498 1.117-1.115v-3.798c0-.618-.503-1.116-1.117-1.116zm-18.368 2.645a.688.688 0 1 1 0-1.376.688.688 0 0 1 0 1.376zm16.547 1.986h-4.866v-1.616h4.866v1.616zm1.821 2.011H9.869c-.617 0-1.12.5-1.12 1.117v3.798c0 .617.503 1.116 1.12 1.116h19.263c.615 0 1.117-.5 1.117-1.116v-3.798c0-.617-.503-1.116-1.117-1.116zm-18.368 2.647a.69.69 0 1 1 .002-1.376.69.69 0 0 1-.002 1.376zm16.547 1.986h-4.866v-1.617h4.866v1.617zm1.821 2.011H9.869c-.617 0-1.12.5-1.12 1.116v3.798c0 .617.503 1.116 1.12 1.116h19.263c.615 0 1.117-.5 1.117-1.116V26.33c0-.617-.503-1.116-1.117-1.116zM10.764 27.86a.687.687 0 1 1 0-1.377.687.687 0 1 1 0 1.377zm16.547 1.985h-4.866v-1.617h4.866v1.617zm-4.484 5.032h-2.053V31.89h-2.547v2.987h-2.055v.787H8.986v2.548h7.186V39h6.655v-.788h7.185v-2.548h-7.185v-.787z" fill="#fff"/><path d="M30.87 5.801a.963.963 0 0 1-.693-.386c-1.544-2.085-4.02-3.372-6.656-3.372-.165 0-.33.005-.495.015a.958.958 0 0 1-.637-.192A9.237 9.237 0 0 0 16.806 0a9.278 9.278 0 0 0-8.394 5.31.963.963 0 0 1-.737.542c-4.019.565-7.12 4.026-7.12 8.197 0 3.977 2.819 7.306 6.564 8.098v-2.46c0-.306.057-.599.151-.874a5.023 5.023 0 0 1-3.455-4.763 5.022 5.022 0 0 1 5.017-5.017c.14 0 .277.012.414.023a1.631 1.631 0 0 0 1.713-1.229 6.023 6.023 0 0 1 5.847-4.565 6 6 0 0 1 4.215 1.72c.388.378.94.54 1.471.429.339-.07.685-.107 1.03-.107a4.981 4.981 0 0 1 4.512 2.841c.298.617.949.984 1.63.913a5.022 5.022 0 0 1 5.52 4.99 5.023 5.023 0 0 1-3.455 4.765c.094.275.15.567.15.874v2.459c3.746-.792 6.567-4.12 6.567-8.097 0-4.327-3.34-7.89-7.576-8.248z" fill="#fff"/></svg><svg fill="none" viewBox="0 0 201 59" id="curate-platform" xmlns="http://www.w3.org/2000/svg"><path d="M76.282 17.674c0 2.245.914 4.281 2.286 5.762a7.586 7.586 0 0 0 5.534 2.407c3.726 0 6.653-2.5 7.568-6.179h-2.264c-.823 2.453-2.88 3.865-5.305 3.865-1.531 0-2.926-.671-3.932-1.736a5.964 5.964 0 0 1-1.647-4.12c0-1.666.64-3.1 1.647-4.165 1.006-1.065 2.4-1.736 3.933-1.736 2.355 0 4.32 1.227 5.167 3.657h2.286c-.914-3.657-3.795-5.971-7.454-5.971-2.172 0-4.138.949-5.533 2.407a8.545 8.545 0 0 0-2.286 5.809zm32.329 8.216c2.744 0 5.9-1.713 5.9-5V9.55h-2.333v11.317c0 1.782-1.897 2.685-3.567 2.685-1.692 0-3.589-.88-3.589-2.661V9.55h-2.332v11.316c0 3.31 3.109 5.023 5.921 5.023zm20.484-7.267l5.831 7.105h2.995l-5.053-6.087c2.744-.486 4.138-2.662 4.138-4.953 0-2.569-1.737-5.16-5.213-5.16h-5.83v16.2h2.286v-13.84h3.544c1.944 0 2.904 1.412 2.904 2.8 0 1.412-.96 2.824-2.904 2.824h-2.698v1.11zm46.443 7.174v-13.91h4.825v-2.36h-11.981v2.36h4.847v13.91h2.309zm17.953-6.989h7.248v-2.36h-7.248v-4.56h7.408V9.55h-9.74v16.178h9.763V23.39h-7.431v-4.582zm-39.717-5.763l1.966 5.716.892 2.2 1.921 4.767h2.469l-6.425-16.41h-1.692l-6.425 16.41h2.492c.503-1.343 1.304-3.287 1.921-4.768l.869-2.199 2.012-5.716z" fill="#fff"/><circle cx="29.122" cy="29.122" r="29.122" fill="#16151B"/><path d="M29.053 4.972c-6.617 0-12.62 2.744-16.986 6.86C7.7 16.017 4.972 21.916 4.972 28.433c0 10.752 6.81 19.283 16.976 22.363.624.19 1.238-.288 1.238-.94v-4.792c0-.428-.273-.806-.672-.959-6.816-2.615-10.72-8.628-10.72-15.671 0-4.597 1.978-8.781 5.116-11.8 3.138-3.018 7.368-4.94 12.143-4.94 4.912 0 9.142 1.922 12.28 4.94 3.138 3.019 5.116 7.203 5.116 11.8 0 6.844-3.393 12.595-10.117 15.255a1.034 1.034 0 0 0-.661.955v4.867c0 .652.616 1.13 1.24.94 10.059-3.074 16.36-11.468 16.36-22.018 0-6.517-2.797-12.416-7.095-16.6-4.366-4.117-10.369-6.861-17.123-6.861z" fill="#fff"/><path d="M79.001 48.397v5.187h-1.747v-13.25h4.887c1.45 0 2.585.37 3.404 1.11.825.74 1.237 1.72 1.237 2.94 0 1.285-.403 2.277-1.21 2.975-.8.692-1.95 1.038-3.45 1.038h-3.12zm0-1.43h3.14c.934 0 1.65-.218 2.148-.654.497-.443.746-1.08.746-1.912 0-.788-.249-1.42-.746-1.893-.498-.473-1.18-.719-2.048-.737h-3.24v5.197zm11.576 6.617h-1.683V39.605h1.683v13.979zm8.783 0c-.098-.194-.177-.54-.237-1.038-.783.813-1.717 1.22-2.803 1.22-.971 0-1.769-.273-2.394-.82-.618-.551-.928-1.249-.928-2.092 0-1.026.388-1.82 1.165-2.385.782-.57 1.88-.855 3.294-.855h1.638v-.774c0-.588-.176-1.055-.528-1.401-.351-.352-.87-.528-1.556-.528-.6 0-1.104.152-1.51.455-.407.303-.61.67-.61 1.101h-1.693c0-.491.173-.965.519-1.42.352-.46.825-.825 1.42-1.091a4.79 4.79 0 0 1 1.975-.401c1.134 0 2.023.285 2.666.855.643.565.977 1.344 1.001 2.34v4.531c0 .904.115 1.623.346 2.157v.146h-1.766zM96.564 52.3a2.96 2.96 0 0 0 1.502-.41c.473-.273.816-.628 1.028-1.065v-2.02h-1.32c-2.062 0-3.093.604-3.093 1.811 0 .528.176.94.528 1.238.351.297.803.446 1.355.446zm9.138-10.947v2.384h1.839v1.301h-1.839v6.107c0 .394.082.691.246.892.164.194.443.29.837.29.194 0 .461-.035.801-.108v1.365a4.88 4.88 0 0 1-1.292.182c-.752 0-1.32-.228-1.702-.683-.382-.455-.573-1.1-.573-1.938v-6.107h-1.793v-1.301h1.793v-2.384h1.683zm4.642 12.231v-8.546h-1.557v-1.301h1.557v-1.01c0-1.056.282-1.872.846-2.448.564-.577 1.362-.865 2.393-.865.389 0 .774.052 1.156.155l-.091 1.365a4.83 4.83 0 0 0-.91-.082c-.546 0-.968.161-1.265.483-.297.315-.446.77-.446 1.365v1.037h2.102v1.301h-2.102v8.546h-1.683zm5.205-5.014c0-.965.188-1.833.564-2.603.383-.77.91-1.365 1.584-1.784.679-.419 1.453-.628 2.32-.628 1.341 0 2.424.464 3.249 1.392.832.929 1.247 2.163 1.247 3.704v.119c0 .958-.185 1.82-.555 2.584a4.15 4.15 0 0 1-1.574 1.775c-.68.425-1.463.637-2.348.637-1.335 0-2.418-.464-3.249-1.393-.825-.928-1.238-2.156-1.238-3.685v-.119zm1.693.2c0 1.092.252 1.968.755 2.63.51.661 1.189.992 2.039.992.855 0 1.535-.334 2.038-1.001.504-.674.756-1.614.756-2.822 0-1.08-.258-1.953-.774-2.62-.51-.674-1.189-1.01-2.039-1.01-.831 0-1.501.33-2.011.991-.509.662-.764 1.608-.764 2.84zm14.142-3.522a5.055 5.055 0 0 0-.828-.064c-1.104 0-1.854.47-2.248 1.41v6.99h-1.684v-9.847h1.639l.027 1.138c.552-.88 1.335-1.32 2.348-1.32.327 0 .576.042.746.127v1.566zm3.14-1.511l.045 1.092c.722-.85 1.696-1.274 2.921-1.274 1.378 0 2.315.528 2.812 1.584a3.747 3.747 0 0 1 1.275-1.147c.527-.291 1.149-.437 1.865-.437 2.16 0 3.258 1.144 3.295 3.43v6.599h-1.684v-6.498c0-.704-.161-1.228-.482-1.574-.322-.352-.862-.528-1.62-.528-.625 0-1.144.188-1.556.564-.413.37-.653.87-.719 1.502v6.534h-1.693V47.13c0-1.431-.701-2.147-2.102-2.147-1.104 0-1.86.47-2.266 1.41v7.19h-1.684v-9.847h1.593z" fill="#786A83"/></svg><svg fill="none" viewBox="0 0 7 5" id="drop-angle" xmlns="http://www.w3.org/2000/svg"><path d="M3.5 5L6.531.5H.47L3.5 5z" fill="#fff" fill-opacity=".29"/></svg><svg fill="none" viewBox="0 0 26 26" id="fire" xmlns="http://www.w3.org/2000/svg"><path d="M8.8 26c-2.89-9.524 3.217-13.001 3.217-13.001-.427 5.082 2.461 9.04 2.461 9.04 1.062-.32 3.09-1.818 3.09-1.818 0 1.819-1.07 5.776-1.07 5.776s3.744-2.895 4.923-7.704c1.178-4.81-2.242-9.638-2.242-9.638a12.896 12.896 0 0 1-3.202 9.31c.113-.13.208-.275.28-.432.406-.81 1.057-2.918.676-7.796C16.396 2.887 10.19 0 10.19 0c.535 4.173-1.07 5.134-4.826 13.055C1.608 20.974 8.801 26 8.801 26z" fill="#FFD788"/></svg><svg fill="none" viewBox="0 0 119 35" id="footer-logo" xmlns="http://www.w3.org/2000/svg"><path d="M45.18 18.057a5.04 5.04 0 0 0 1.354 3.413 4.493 4.493 0 0 0 3.277 1.425c2.207 0 3.94-1.48 4.482-3.66h-1.34c-.488 1.453-1.707 2.29-3.142 2.29-.907 0-1.734-.398-2.33-1.028a3.532 3.532 0 0 1-.974-2.44c0-.987.379-1.837.975-2.468a3.207 3.207 0 0 1 2.329-1.028c1.395 0 2.56.727 3.06 2.166h1.354c-.541-2.166-2.248-3.536-4.414-3.536-1.287 0-2.451.562-3.277 1.425a5.061 5.061 0 0 0-1.355 3.44zm19.147 4.866c1.625 0 3.494-1.015 3.494-2.961v-6.716H66.44v6.702c0 1.056-1.124 1.59-2.113 1.59-1.002 0-2.126-.52-2.126-1.576v-6.716H60.82v6.702c0 1.96 1.842 2.975 3.507 2.975zm12.133-4.304l3.452 4.208h1.774l-2.992-3.605c1.625-.288 2.45-1.577 2.45-2.934 0-1.521-1.029-3.056-3.087-3.056h-3.453v9.595h1.354V14.63h2.1c1.15 0 1.719.836 1.719 1.658 0 .837-.569 1.673-1.72 1.673H76.46v.658zm27.506 4.249V14.63h2.857v-1.398h-7.096v1.398h2.871v8.238h1.368zm10.633-4.14h4.293V17.33h-4.293v-2.7h4.388v-1.385h-5.769v9.582H119v-1.385h-4.401v-2.714zm-23.523-3.413l1.164 3.386.528 1.302 1.138 2.824h1.462l-3.805-9.719h-1.002l-3.805 9.719h1.476c.298-.795.772-1.947 1.137-2.824l.515-1.302 1.192-3.386z" fill="#fff"/><circle cx="17.248" cy="17.248" r="17.248" fill="#16151B"/><path d="M17.208 2.945c-3.92 0-7.475 1.625-10.061 4.063a13.593 13.593 0 0 0-4.202 9.832c0 6.19 3.812 11.138 9.556 13.085.617.21 1.232-.269 1.232-.92v-2.023a1.06 1.06 0 0 0-.67-.968c-3.869-1.602-6.078-5.097-6.078-9.174 0-2.722 1.172-5.2 3.03-6.988 1.86-1.788 4.364-2.925 7.193-2.925 2.909 0 5.414 1.137 7.272 2.925 1.859 1.788 3.03 4.266 3.03 6.988 0 3.963-1.92 7.306-5.724 8.926a1.06 1.06 0 0 0-.66.963v2.07c0 .653.617 1.131 1.234.92 5.666-1.94 9.191-6.807 9.191-12.879 0-3.86-1.656-7.354-4.202-9.832-2.586-2.438-6.141-4.063-10.141-4.063z" fill="#fff"/></svg><svg fill="none" viewBox="0 0 20 20" id="github" xmlns="http://www.w3.org/2000/svg"><path d="M10 0C4.477 0 0 4.477 0 10s4.477 10 10 10 10-4.477 10-10S15.522 0 10 0zm2.801 17.618c-.057-.782-.122-1.752-.126-2.144-.024-.302-.057-1.068-.784-1.557 2.888-.242 4.262-1.838 4.36-3.948.083-1.2-.394-2.257-1.242-3.11a17.09 17.09 0 0 0-.087-2.467c-.65-.188-2.17.614-2.594.957-.895-.347-3.086-.469-4.417 0-.944-.663-2.018-1.073-2.603-.959-.541 1.198-.194 2.33-.088 2.466-.696.636-1.668 1.42-1.404 3.06.423 2.405 2.116 3.703 4.84 4.02-.58.12-.679.553-.727.74-1.83.756-2.353-.465-2.585-.783-.768-.951-1.457-.675-1.5-.66-.041.014-.072.074-.068.103.039.205.457.413.478.43.567.423.777 1.186.906 1.403.813 1.337 2.703.783 2.721.794.001.117-.013 1.1-.024 1.866C4.41 16.89 1.875 13.744 1.875 10A8.125 8.125 0 0 1 10 1.875 8.125 8.125 0 0 1 18.125 10c0 3.502-2.219 6.476-5.324 7.618z" fill="#fff"/></svg><svg fill="none" viewBox="0 0 20 20" id="instagram" xmlns="http://www.w3.org/2000/svg"><path d="M14.48 0H5.52A5.525 5.525 0 0 0 0 5.52v8.96A5.525 5.525 0 0 0 5.52 20h8.96A5.526 5.526 0 0 0 20 14.48V5.52A5.525 5.525 0 0 0 14.48 0zm3.745 14.48a3.75 3.75 0 0 1-3.744 3.745H5.519a3.749 3.749 0 0 1-3.745-3.744V5.519A3.749 3.749 0 0 1 5.52 1.774h8.961a3.75 3.75 0 0 1 3.745 3.745v8.962z" fill="#fff"/><path d="M10 4.847A5.16 5.16 0 0 0 4.846 10 5.16 5.16 0 0 0 10 15.153 5.16 5.16 0 0 0 15.153 10 5.16 5.16 0 0 0 10 4.847zm0 8.532A3.383 3.383 0 0 1 6.62 10 3.383 3.383 0 0 1 10 6.621 3.383 3.383 0 0 1 13.379 10a3.383 3.383 0 0 1-3.38 3.379zm5.37-10.037a1.306 1.306 0 0 0-1.302 1.301 1.309 1.309 0 0 0 1.302 1.302c.343 0 .678-.14.92-.381a1.307 1.307 0 0 0 0-1.84 1.307 1.307 0 0 0-.92-.382z" fill="#fff"/></svg><svg fill="none" viewBox="0 0 29 29" id="leftt-arrow" xmlns="http://www.w3.org/2000/svg"><path d="M9.472 4.611a1.024 1.024 0 0 1 1.461 0 1.031 1.031 0 0 1 0 1.447l-7.41 7.41h24.454A1.02 1.02 0 0 1 29 14.493a1.03 1.03 0 0 1-1.023 1.037H3.523l7.41 7.397a1.05 1.05 0 0 1 0 1.462 1.024 1.024 0 0 1-1.461 0L.307 15.224a1.007 1.007 0 0 1 0-1.447l9.165-9.166z" fill="#FFD788"/></svg><svg fill="none" viewBox="0 0 26 26" id="like" xmlns="http://www.w3.org/2000/svg"><g clip-path="url(#ananclip0)" fill="#FFD788"><path d="M4.244 8.493H.85a.85.85 0 0 0-.849.85v15.279c0 .468.38.848.849.848h3.395a.85.85 0 0 0 .85-.848V9.342a.85.85 0 0 0-.85-.849zm19.636 0c-.136-.023-6.537 0-6.537 0l.894-2.439c.617-1.684.218-4.256-1.494-5.171-.557-.298-1.336-.447-1.964-.29-.36.091-.676.33-.865.65-.217.366-.194.795-.272 1.202-.195 1.033-.683 2.016-1.44 2.753-1.317 1.285-5.411 4.993-5.411 4.993v13.582h14.147c1.91 0 3.16-2.131 2.219-3.796 1.122-.72 1.506-2.233.848-3.396 1.123-.718 1.507-2.232.85-3.395 1.936-1.24 1.288-4.31-.974-4.693z"/></g><defs><clipPath id="ananclip0"><path fill="#fff" d="M0 0h26v26H0z"/></clipPath></defs></svg><svg fill="none" viewBox="0 0 24 24" id="linkedin" xmlns="http://www.w3.org/2000/svg"><path d="M7.427 20.723a.632.632 0 0 1-.632.632h-2.69a.632.632 0 0 1-.631-.632V9.45a.63.63 0 0 1 .631-.631h2.69c.349 0 .632.282.632.631v11.274zM5.45 7.755a2.555 2.555 0 1 1 0-5.11 2.555 2.555 0 0 1 0 5.11zm16.031 13.019c0 .32-.26.581-.58.581h-2.886a.581.581 0 0 1-.582-.58v-5.289c0-.789.232-3.457-2.061-3.457-1.779 0-2.14 1.826-2.212 2.646v6.1c0 .32-.26.58-.58.58H9.787a.58.58 0 0 1-.58-.58V9.398a.58.58 0 0 1 .58-.581h2.791a.58.58 0 0 1 .581.58v.984c.66-.99 1.64-1.754 3.727-1.754 4.595 0 4.594 4.27 4.594 6.65v5.496z" fill="#FFD788"/></svg><svg fill="none" viewBox="0 0 16 16" id="linkedin-footer" xmlns="http://www.w3.org/2000/svg"><path d="M4.189 15.27c0 .29-.236.526-.527.526h-2.24a.526.526 0 0 1-.527-.527V5.874c0-.29.235-.526.526-.526h2.241c.291 0 .527.236.527.527v9.394zM2.542 4.462a2.13 2.13 0 1 1 0-4.258 2.13 2.13 0 0 1 0 4.258zm13.359 10.85a.484.484 0 0 1-.484.484h-2.405a.484.484 0 0 1-.484-.484v-4.407c0-.657.193-2.88-1.718-2.88-1.482 0-1.783 1.521-1.843 2.204v5.083a.484.484 0 0 1-.484.484H6.157a.484.484 0 0 1-.484-.484v-9.48c0-.267.216-.484.484-.484h2.326c.267 0 .484.217.484.484v.82c.55-.825 1.366-1.462 3.105-1.462 3.83 0 3.83 3.558 3.829 5.541v4.581z" fill="#fff"/></svg><svg fill="none" viewBox="0 0 33 33" id="lock" xmlns="http://www.w3.org/2000/svg"><path d="M24.75 14.438V8.25c0-4.548-3.7-8.25-8.25-8.25-4.549 0-8.25 3.702-8.25 8.25v6.188a4.125 4.125 0 0 0-4.125 4.124v10.313A4.125 4.125 0 0 0 8.25 33h16.5a4.125 4.125 0 0 0 4.125-4.125V18.562a4.125 4.125 0 0 0-4.125-4.124zm-7.219 9.996v3.41a1.03 1.03 0 1 1-2.062 0v-3.41c-.605-.359-1.031-.991-1.031-1.746a2.062 2.062 0 1 1 4.124 0c0 .755-.426 1.387-1.03 1.746zm3.094-9.996h-8.25V8.25A4.128 4.128 0 0 1 16.5 4.125a4.129 4.129 0 0 1 4.125 4.125v6.188z" fill="#fff"/></svg><svg fill="none" viewBox="0 0 173 50" id="main-logo" xmlns="http://www.w3.org/2000/svg"><path d="M65.486 26.172c0 1.927.785 3.676 1.962 4.947a6.512 6.512 0 0 0 4.75 2.067c3.2 0 5.713-2.146 6.498-5.305h-1.944c-.706 2.106-2.473 3.318-4.553 3.318-1.316 0-2.513-.576-3.376-1.49a5.12 5.12 0 0 1-1.414-3.537c0-1.43.55-2.662 1.413-3.576.864-.914 2.061-1.49 3.377-1.49 2.021 0 3.71 1.053 4.436 3.14h1.962c-.785-3.14-3.258-5.127-6.398-5.127-1.865 0-3.553.815-4.75 2.067a7.335 7.335 0 0 0-1.963 4.986zm27.754 7.053c2.355 0 5.064-1.47 5.064-4.291v-9.735h-2.002v9.715c0 1.53-1.63 2.305-3.062 2.305-1.453 0-3.082-.755-3.082-2.285v-9.735h-2.002v9.715c0 2.841 2.67 4.311 5.084 4.311zm17.584-6.238l5.006 6.1h2.571l-4.338-5.226c2.355-.417 3.553-2.285 3.553-4.252 0-2.205-1.492-4.43-4.476-4.43h-5.005v13.907h1.963v-11.88h3.042c1.669 0 2.493 1.211 2.493 2.403 0 1.212-.824 2.424-2.493 2.424h-2.316v.954zm39.87 6.159v-11.94h4.142v-2.027h-10.285v2.026h4.161v11.941h1.982zm15.412-6h6.223v-2.027h-6.223v-3.914h6.36V19.2h-8.362v13.887h8.382V31.08h-6.38v-3.934zm-34.096-4.947l1.688 4.907.766 1.888 1.649 4.092h2.119L132.717 19h-1.453l-5.515 14.086h2.139c.432-1.152 1.119-2.82 1.649-4.092l.746-1.888 1.727-4.907z" fill="#fff"/><circle cx="25" cy="25" r="25" fill="#16151B"/><path d="M24.941 4.268c-5.68 0-10.834 2.356-14.582 5.89a19.702 19.702 0 0 0-6.09 14.251c0 9.168 5.768 16.456 14.399 19.145.622.194 1.237-.284 1.237-.936v-3.83c0-.428-.274-.806-.672-.962-5.793-2.264-9.108-7.403-9.108-13.417 0-3.945 1.698-7.538 4.392-10.13 2.694-2.59 6.325-4.24 10.424-4.24 4.217 0 7.848 1.65 10.542 4.24 2.694 2.592 4.392 6.184 4.392 10.13 0 5.845-2.881 10.76-8.591 13.06a1.04 1.04 0 0 0-.662.956v3.897c0 .652.617 1.13 1.239.934 8.534-2.681 13.87-9.852 13.87-18.847 0-5.594-2.4-10.66-6.09-14.251-3.748-3.534-8.902-5.89-14.7-5.89z" fill="#fff"/></svg><svg fill="none" viewBox="0 0 16 16" id="message" xmlns="http://www.w3.org/2000/svg"><path d="M14.101 1.924H1.899C.852 1.924 0 2.742 0 3.748v8.505c0 1.005.852 1.823 1.9 1.823h12.2c1.047 0 1.899-.818 1.899-1.824V3.748c0-1.006-.852-1.824-1.899-1.824zm0 10.542H1.899c-.154 0-.289-.1-.289-.213v-7.38L7.13 9.53a.629.629 0 0 0 .405.148h.932a.63.63 0 0 0 .405-.148l5.519-4.659v7.38c0 .114-.135.214-.289.214zM8 8.081L2.632 3.534h10.736L8 8.08z" fill="#fff"/></svg><svg fill="none" viewBox="0 0 19 19" id="mini-logo" xmlns="http://www.w3.org/2000/svg"><circle cx="9.5" cy="9.5" r="9.5" fill="#16151B"/><path d="M9.478 1.622c-2.159 0-4.117.895-5.541 2.238a7.487 7.487 0 0 0-2.315 5.416c0 3.163 1.808 5.738 4.596 6.95.662.287 1.346-.244 1.346-.966 0-.474-.307-.886-.732-1.096-1.905-.943-2.984-2.774-2.984-4.888 0-1.5.645-2.865 1.669-3.85a5.682 5.682 0 0 1 3.96-1.61 5.71 5.71 0 0 1 4.007 1.61c1.023.985 1.669 2.35 1.669 3.85 0 2.05-.934 3.801-2.787 4.745-.424.216-.73.63-.73 1.105 0 .733.696 1.272 1.365.974 2.717-1.208 4.377-3.732 4.377-6.824 0-2.126-.912-4.051-2.314-5.416a8.14 8.14 0 0 0-5.586-2.238z" fill="#fff"/></svg><svg fill="none" viewBox="0 0 26 26" id="poker-piece" xmlns="http://www.w3.org/2000/svg"><g clip-path="url(#auauclip0)" fill="#FFD788"><path d="M4.547 3.124a12.936 12.936 0 0 1 6.47-2.973 12.993 12.993 0 0 1 11.86 4.396c4.668 5.455 4.03 13.661-1.424 18.33a12.938 12.938 0 0 1-6.469 2.973 12.992 12.992 0 0 1-11.86-4.396C-1.544 15.999-.907 7.793 4.547 3.124zm-2.52 13.648l3.974-1.37a7.425 7.425 0 0 1-.002-4.799L2.03 9.237c-.313.917-.514 1.88-.59 2.871-.125 1.606.08 3.186.587 4.664zm-.223-7.646zm2.453-3.735L7.42 8.14a7.364 7.364 0 0 1 4.156-2.4l-.796-4.1a11.543 11.543 0 0 0-6.522 3.751zm12.688-3.287a11.443 11.443 0 0 0-1.728-.473L14.42 5.74a7.366 7.366 0 0 1 4.156 2.398l3.167-2.754a11.568 11.568 0 0 0-4.797-3.28zm7.027 7.125L20 10.6a7.424 7.424 0 0 1 0 4.798l3.973 1.367c.312-.916.511-1.877.588-2.867a11.55 11.55 0 0 0-.59-4.669zM21.75 20.615l-3.17-2.753a7.364 7.364 0 0 1-4.156 2.4l.802 4.122a11.572 11.572 0 0 0 5.315-2.573c.435-.372.839-.772 1.209-1.196zM9.057 23.91c.562.202 1.139.36 1.724.474l.8-4.122a7.365 7.365 0 0 1-4.157-2.398l-3.168 2.755a11.59 11.59 0 0 0 4.801 3.29z"/><path d="M17.812 5.393a.702.702 0 1 1 0-1.403.702.702 0 0 1 0 1.403zm4.789 8.321a.702.702 0 1 1 0-1.403.702.702 0 0 1 0 1.403zm-4.811 8.309a.702.702 0 1 1 0-1.404.702.702 0 0 1 0 1.404zm-9.602-.013a.702.702 0 1 1 0-1.403.702.702 0 0 1 0 1.403zM3.4 13.689a.702.702 0 1 1 0-1.404.702.702 0 0 1 0 1.404zM8.21 5.38a.702.702 0 1 1 0-1.403.702.702 0 0 1 0 1.403z"/></g><defs><clipPath id="auauclip0"><path fill="#fff" transform="matrix(-1 0 0 1 26 0)" d="M0 0h26v26H0z"/></clipPath></defs></svg><svg fill="none" viewBox="0 0 24 24" id="profile" xmlns="http://www.w3.org/2000/svg"><path d="M12 11c2.209 0 4-1.794 4-4.006a4.001 4.001 0 0 0-8 0C8 9.194 9.791 11 12 11zm0-6.955a2.956 2.956 0 0 1 2.945 2.949A2.956 2.956 0 0 1 12 9.944a2.956 2.956 0 0 1-2.945-2.95A2.956 2.956 0 0 1 12 4.044z" stroke="#1B1711"/><path d="M12 4.045a2.956 2.956 0 0 1 2.945 2.949A2.956 2.956 0 0 1 12 9.944a2.956 2.956 0 0 1-2.945-2.95A2.956 2.956 0 0 1 12 4.044zm8.252 16.123l-.071-.563c-.34-2.674-2.528-4.773-5.225-4.773H9.044c-2.698 0-4.886 2.115-5.225 4.773l-.072.563h16.505zm.113.332H3.634c-.056 0-.135-.048-.135-.166 0-3.245 2.516-5.834 5.544-5.834h5.912c3.04 0 5.544 2.603 5.544 5.834 0 .118-.079.166-.136.166zm-5.41-4.668c1.965 0 3.638 1.402 4.127 3.336H4.918c.491-1.924 2.164-3.336 4.126-3.336h5.912z" stroke="#1B1711"/></svg><svg fill="none" viewBox="0 0 24 24" id="profile-yellow" xmlns="http://www.w3.org/2000/svg"><path d="M12 11c2.209 0 4-1.794 4-4.006a4.001 4.001 0 0 0-8 0C8 9.194 9.791 11 12 11zm0-6.955a2.956 2.956 0 0 1 2.945 2.949A2.956 2.956 0 0 1 12 9.944a2.956 2.956 0 0 1-2.945-2.95A2.956 2.956 0 0 1 12 4.044z" stroke="#FFD788"/><path d="M12 4.045a2.956 2.956 0 0 1 2.945 2.949A2.956 2.956 0 0 1 12 9.944a2.956 2.956 0 0 1-2.945-2.95A2.956 2.956 0 0 1 12 4.044zm8.252 16.123l-.071-.563c-.34-2.674-2.528-4.773-5.225-4.773H9.044c-2.698 0-4.886 2.115-5.225 4.773l-.072.563h16.505zm.113.332H3.634c-.056 0-.135-.048-.135-.166 0-3.245 2.516-5.834 5.544-5.834h5.912c3.04 0 5.544 2.603 5.544 5.834 0 .118-.079.166-.136.166zm-5.41-4.668c1.965 0 3.638 1.402 4.127 3.336H4.918c.491-1.924 2.164-3.336 4.126-3.336h5.912z" stroke="#FFD788"/></svg><svg fill="none" viewBox="0 0 20 20" id="reddit" xmlns="http://www.w3.org/2000/svg"><g clip-path="url(#axaxclip0)"><path d="M14.3 10.744c.051.132.074.268.074.404 0 .272-.094.537-.252.753-.156.214-.377.38-.638.453l-.005.001-.003.001a1.146 1.146 0 0 1-.371.061c-.291 0-.577-.104-.805-.283a1.21 1.21 0 0 1-.452-.737v-.003c0-.001 0-.002-.002-.003h.001a1.105 1.105 0 0 1-.025-.234c0-.262.089-.514.237-.723a1.242 1.242 0 0 1 .599-.456l.002-.002a1.23 1.23 0 0 1 .426-.076c.261 0 .518.08.736.224.214.143.388.352.475.611l.002.005c0 .002 0 .003.002.004h-.002zm-.8 3.222a.637.637 0 0 0-.346-.107.542.542 0 0 0-.3.091 5.82 5.82 0 0 1-2.955.817 5.077 5.077 0 0 1-2.24-.506l-.004-.002-.004-.001c-.105-.043-.225-.134-.355-.221a1.291 1.291 0 0 0-.213-.118.557.557 0 0 0-.48-.003l-.013.005a.558.558 0 0 0-.277.232.664.664 0 0 0-.017.66c.05.093.128.175.23.23.996.672 2.17.976 3.348.975a7.31 7.31 0 0 0 3.081-.693l.005-.003.005-.003c.125-.074.292-.14.449-.238a.993.993 0 0 0 .219-.18.683.683 0 0 0 .147-.274.555.555 0 0 0-.04-.388.667.667 0 0 0-.24-.273zM6.504 12.35l.006.001c.127.047.258.07.388.07.324 0 .638-.133.877-.349.237-.217.4-.523.4-.873v-.03l.001-.05c0-.346-.16-.654-.396-.872a1.305 1.305 0 0 0-.875-.351c-.087 0-.176.01-.262.03h-.005c-.43.09-.808.41-.947.85v.002c-.04.12-.06.244-.06.367 0 .269.09.531.243.747a1.2 1.2 0 0 0 .625.456c.002 0 .003 0 .005.002zm13.492-3.14v.002a2.47 2.47 0 0 1-.412 1.48c-.242.37-.577.681-.962.892.024.193.039.388.039.582a4.822 4.822 0 0 1-.99 2.898c-1.162 1.545-2.945 2.456-4.745 2.915l-.002.001c-.96.233-1.95.353-2.94.353-1.475 0-2.95-.267-4.325-.818v-.001h-.002c-1.426-.588-2.785-1.523-3.618-2.892a4.712 4.712 0 0 1-.695-2.448c0-.195.014-.39.04-.583a2.794 2.794 0 0 1-.942-.87A2.56 2.56 0 0 1 0 9.413v-.007c0-.667.29-1.299.74-1.764.45-.466 1.065-.77 1.724-.77h.027a2.726 2.726 0 0 1 1.187.167l.002.001.002.001c.269.113.536.25.775.44.077-.041.161-.087.255-.123 1.445-.855 3.124-1.185 4.76-1.28.014-.81.114-1.66.51-2.402.328-.617.9-1.097 1.58-1.264l.003-.001h.004c.259-.05.52-.074.78-.074.691 0 1.374.164 2.014.42.283-.427.687-.76 1.16-.948l.005-.002.005-.002c.278-.087.572-.137.867-.137.31 0 .625.056.918.188v-.001h.001l.006.003c.42.162.777.462 1.03.834a2.305 2.305 0 0 1 .387 1.539v.002l-.001.004a2.235 2.235 0 0 1-.778 1.491c-.43.374-.986.6-1.557.6a2.09 2.09 0 0 1-.276-.017 2.314 2.314 0 0 1-1.483-.725 2.239 2.239 0 0 1-.64-1.538c0-.029.002-.058.003-.086-.532-.237-1.096-.433-1.657-.433-.082 0-.163.005-.244.013-.42.04-.812.305-1 .686v.002c-.288.56-.345 1.213-.354 1.863 1.61.105 3.23.491 4.652 1.308h.002l.02.012c.027.016.077.043.122.067.098-.079.201-.16.32-.23.43-.287.94-.43 1.45-.43.227 0 .454.029.674.085h.001l.01.003.008.001c.52.133.99.432 1.344.834.354.404.592.914.639 1.468v.001h-.001zm-4.744-5.27c0 .022 0 .044.002.067v.004c.01.28.143.54.344.732.201.193.47.312.74.313h.008c.02.002.04.002.059.002.274 0 .546-.118.75-.31a1.08 1.08 0 0 0 .351-.737v-.003a1.088 1.088 0 0 0-.346-.836 1.142 1.142 0 0 0-.777-.331.9.9 0 0 0-.269.04h-.006a1.191 1.191 0 0 0-.604.394 1.05 1.05 0 0 0-.252.665zM3.362 8.257c-.215-.1-.438-.172-.658-.17-.036 0-.074.001-.11.005h-.006l-.005.001a1.373 1.373 0 0 0-.874.367c-.24.22-.398.518-.41.845v.006a1.13 1.13 0 0 0 .164.653c.077.133.179.253.294.358.37-.808.947-1.494 1.605-2.065zm14.032 3.955c0-.72-.26-1.444-.681-2.027-.84-1.168-2.142-1.93-3.497-2.355l-.009-.003a10.886 10.886 0 0 0-3.202-.48 10.94 10.94 0 0 0-3.22.482c-1.354.43-2.66 1.186-3.498 2.358a3.514 3.514 0 0 0-.673 2.035c0 .267.034.533.104.792.153.582.451 1.101.837 1.553.386.453.86.84 1.357 1.155.11.069.221.134.334.197 1.446.807 3.11 1.161 4.764 1.161.28 0 .56-.01.838-.03 1.665-.137 3.336-.629 4.687-1.633.431-.319.83-.703 1.145-1.141.316-.438.548-.928.65-1.46l.001-.001a2.9 2.9 0 0 0 .063-.603zm1.313-2.868c0-.175-.04-.35-.128-.512l-.002-.002v-.002a1.251 1.251 0 0 0-.524-.548 1.518 1.518 0 0 0-.741-.189c-.236 0-.47.053-.678.157.661.574 1.241 1.264 1.616 2.076.12-.105.223-.233.3-.376.1-.187.157-.397.157-.604z" fill="#fff"/></g><defs><clipPath id="axaxclip0"><path fill="#fff" d="M0 0h20v20H0z"/></clipPath></defs></svg><svg fill="none" viewBox="0 0 26 26" id="review" xmlns="http://www.w3.org/2000/svg"><g clip-path="url(#ayayclip0)" fill="#FFD788"><path d="M24.348 10.765H21.9v4.058a3.69 3.69 0 0 1-3.687 3.687h-5.941v1.508c0 .91.741 1.652 1.652 1.652h5.259l2.507 3.04a.78.78 0 0 0 1.358-.308l.684-2.732h.615c.91 0 1.652-.741 1.652-1.652v-7.601c0-.911-.741-1.652-1.652-1.652z"/><path d="M18.214.965H2.126A2.129 2.129 0 0 0 0 3.09v11.732c0 1.173.954 2.127 2.126 2.127H3.69l1.134 4.537a.78.78 0 0 0 1.359.308l3.997-4.845h8.034a2.129 2.129 0 0 0 2.126-2.127V3.091A2.129 2.129 0 0 0 18.214.965zm-3.462 7.453l-1.725 1.681.407 2.374a.78.78 0 0 1-1.132.822l-2.132-1.12-2.132 1.12a.78.78 0 0 1-1.132-.822l.407-2.374L5.59 8.418a.78.78 0 0 1 .432-1.33l2.384-.347L9.47 4.58a.78.78 0 0 1 1.399 0l1.066 2.16 2.383.346a.78.78 0 0 1 .433 1.33z"/><path d="M10.718 7.799l-.548-1.11-.548 1.11a.78.78 0 0 1-.587.427l-1.225.178.886.864a.78.78 0 0 1 .224.69l-.209 1.22 1.096-.575a.78.78 0 0 1 .726 0l1.096.576-.21-1.22a.78.78 0 0 1 .225-.69l.886-.865-1.225-.178a.78.78 0 0 1-.587-.427z"/></g><defs><clipPath id="ayayclip0"><path fill="#fff" d="M0 0h26v26H0z"/></clipPath></defs></svg><svg fill="none" viewBox="0 0 16 14" id="roadmap-done" xmlns="http://www.w3.org/2000/svg"><path d="M.185 7.615A.665.665 0 0 1 0 7.185c0-.123.062-.308.185-.431l.861-.862a.595.595 0 0 1 .862 0l.061.062 3.385 3.63a.297.297 0 0 0 .43 0l8.247-8.553h.061a.595.595 0 0 1 .862 0l.861.861a.595.595 0 0 1 0 .862L5.97 12.969a.559.559 0 0 1-.43.185.559.559 0 0 1-.431-.185L.308 7.8l-.123-.185z" fill="#332C3D"/></svg><svg fill="none" viewBox="0 0 5 5" id="roadmap-next" xmlns="http://www.w3.org/2000/svg"><circle cx="2.5" cy="2.5" r="2.5" fill="#F88"/></svg><svg fill="none" viewBox="0 0 5 5" id="roadmap-now" xmlns="http://www.w3.org/2000/svg"><circle cx="2.5" cy="2.5" r="2.5" fill="#FFD788"/></svg><svg fill="none" viewBox="0 0 9 11" id="roadmap-triangle" xmlns="http://www.w3.org/2000/svg"><path d="M9 5.5L.75 10.263V.737L9 5.5z" fill="#FFD788"/></svg><svg fill="none" viewBox="0 0 16 16" id="search" xmlns="http://www.w3.org/2000/svg"><path d="M15.489 14.573l-3.808-3.96a6.44 6.44 0 0 0 1.515-4.153A6.467 6.467 0 0 0 6.736 0a6.467 6.467 0 0 0-6.46 6.46 6.467 6.467 0 0 0 6.46 6.46 6.39 6.39 0 0 0 3.701-1.169l3.837 3.99c.16.167.376.259.608.259a.844.844 0 0 0 .607-1.427zM6.736 1.685a4.78 4.78 0 0 1 4.775 4.775 4.78 4.78 0 0 1-4.775 4.775A4.78 4.78 0 0 1 1.962 6.46a4.78 4.78 0 0 1 4.774-4.775z" fill="#fff"/></svg><svg fill="none" viewBox="0 0 20 20" id="telegram" xmlns="http://www.w3.org/2000/svg"><path d="M19.365 1.455L.615 9.425l4.916 1.95 1.75 6.578 3.221-3.122 5.242 3.62 3.621-16.996zM7.535 12.22l-.188 1.715-.727-2.732 12.745-9.747L7.535 12.22z" fill="#fff"/></svg><svg fill="none" viewBox="0 0 8 11" id="totop" xmlns="http://www.w3.org/2000/svg"><path d="M7.46 4.619a.436.436 0 0 1-.397.256h-1.75v5.688a.438.438 0 0 1-.438.437h-1.75a.438.438 0 0 1-.437-.438V4.875H.938a.438.438 0 0 1-.33-.725L3.672.65a.436.436 0 0 1 .658 0l3.063 3.5c.113.128.14.312.069.469z" fill="#FFD788"/></svg><svg fill="none" viewBox="0 0 25 24" id="twitter" xmlns="http://www.w3.org/2000/svg"><path d="M22 6.894a7.184 7.184 0 0 1-2.126.638A3.97 3.97 0 0 0 21.497 5.3c-.713.466-1.5.794-2.34.978C18.48 5.488 17.515 5 16.462 5c-2.043 0-3.688 1.814-3.688 4.038 0 .32.025.628.085.92-3.068-.163-5.782-1.772-7.606-4.222a4.36 4.36 0 0 0-.505 2.04c0 1.399.658 2.638 1.64 3.356a3.408 3.408 0 0 1-1.668-.498v.045c0 1.962 1.28 3.591 2.957 3.966-.3.09-.628.133-.968.133-.236 0-.475-.014-.699-.069.479 1.6 1.835 2.775 3.449 2.813-1.256 1.074-2.85 1.722-4.576 1.722-.303 0-.593-.015-.883-.056A9.752 9.752 0 0 0 9.661 21c6.79 0 10.503-6.154 10.503-11.488 0-.178-.006-.35-.014-.522A7.782 7.782 0 0 0 22 6.894z" fill="#FFD788"/></svg><svg fill="none" viewBox="0 0 20 20" id="twitter-footer" xmlns="http://www.w3.org/2000/svg"><g clip-path="url(#bhbhclip0)"><path d="M20 3.8a8.194 8.194 0 0 1-2.356.645 4.12 4.12 0 0 0 1.804-2.268 8.272 8.272 0 0 1-2.608.996 4.103 4.103 0 0 0-6.991 3.74 11.648 11.648 0 0 1-8.456-4.286A4.072 4.072 0 0 0 .84 4.689a4.1 4.1 0 0 0 1.824 3.415 4.103 4.103 0 0 1-1.858-.515v.05a4.107 4.107 0 0 0 3.29 4.024 4.155 4.155 0 0 1-1.08.144c-.266 0-.522-.027-.773-.077a4.105 4.105 0 0 0 3.832 2.85A8.232 8.232 0 0 1 .98 16.333a8.73 8.73 0 0 1-.98-.056 11.598 11.598 0 0 0 6.289 1.846c7.547 0 11.673-6.251 11.673-11.673l-.014-.531A8.193 8.193 0 0 0 20 3.799z" fill="#fff"/></g><defs><clipPath id="bhbhclip0"><path fill="#fff" d="M0 0h20v20H0z"/></clipPath></defs></svg><svg fill="none" viewBox="0 0 17 17" id="unisex" xmlns="http://www.w3.org/2000/svg"><g clip-path="url(#bibiclip0)" fill="#FFD788"><path d="M3.91.514A2.64 2.64 0 0 0 1.275 3.15 2.64 2.64 0 0 0 3.91 5.787 2.64 2.64 0 0 0 6.547 3.15 2.64 2.64 0 0 0 3.911.514zm0 4.257a1.622 1.622 0 0 1 0-3.242c.894 0 1.621.728 1.621 1.621 0 .894-.727 1.621-1.62 1.621zm3.825 2.477a.508.508 0 0 0-.422-.223H.508a.508.508 0 0 0-.471.697l3.403 8.446a.508.508 0 0 0 .942 0l3.403-8.446a.508.508 0 0 0-.05-.474zM3.91 14.62L1.26 8.041h5.3l-2.65 6.578zM13.09.514a2.64 2.64 0 0 0-2.637 2.636 2.64 2.64 0 0 0 2.636 2.637 2.64 2.64 0 0 0 2.637-2.637A2.64 2.64 0 0 0 13.089.514zm0 4.257a1.622 1.622 0 0 1-1.621-1.62c0-.894.727-1.622 1.62-1.622.894 0 1.621.728 1.621 1.621 0 .894-.727 1.621-1.62 1.621zm3.873 11.018L13.56 7.343a.508.508 0 0 0-.942 0l-3.403 8.446a.508.508 0 0 0 .471.697h6.806a.508.508 0 0 0 .471-.697zm-6.524-.319l2.65-6.578 2.65 6.579h-5.3z"/></g><defs><clipPath id="bibiclip0"><path fill="#fff" d="M0 0h17v17H0z"/></clipPath></defs></svg><svg fill="none" viewBox="0 0 26 26" id="upload" xmlns="http://www.w3.org/2000/svg"><path d="M8.412 19.882h9.176v-9.176h6.118L13 0 2.294 10.706h6.118v9.176zm15.294 3.059H2.294V26h21.412v-3.059z" fill="#FFD788"/></svg><svg fill="none" viewBox="0 0 24 24" id="writing" xmlns="http://www.w3.org/2000/svg"><path d="M16.522 10.313a.937.937 0 0 0-.938-.938H5.928a.937.937 0 1 0 0 1.875h9.656c.518 0 .938-.42.938-.938zM5.928 13.125a.937.937 0 1 0 0 1.875h5.865a.937.937 0 1 0 0-1.875H5.928z" fill="#FFD788"/><path d="M8.131 22.125H4.996A1.877 1.877 0 0 1 3.12 20.25V3.75c0-1.034.84-1.875 1.875-1.875h11.526c1.034 0 1.875.841 1.875 1.875v5.766a.937.937 0 1 0 1.875 0V3.75A3.754 3.754 0 0 0 16.522 0H4.996a3.754 3.754 0 0 0-3.75 3.75v16.5A3.754 3.754 0 0 0 4.996 24H8.13a.937.937 0 1 0 0-1.875z" fill="#FFD788"/><path d="M21.932 13.574a2.815 2.815 0 0 0-3.977-.001l-5.147 5.136a.938.938 0 0 0-.235.39l-1.12 3.69a.937.937 0 0 0 1.147 1.177l3.784-1.048a.937.937 0 0 0 .412-.24l5.136-5.127a2.816 2.816 0 0 0 0-3.977zM15.822 21a.948.948 0 0 1-.417.243l-.04.011a.926.926 0 0 1-.901-1.548l2.645-2.64a.938.938 0 1 1 1.325 1.328L15.822 21zm4.785-4.775c-.1.1-.263.1-.363 0l-.964-.964c-.1-.1-.1-.262 0-.361a.939.939 0 0 1 1.327 1.325zm-5.023-10.6H5.928a.937.937 0 1 0 0 1.875h9.656a.937.937 0 1 0 0-1.875z" fill="#FFD788"/></svg><svg fill="none" viewBox="0 0 20 20" id="youtube" xmlns="http://www.w3.org/2000/svg"><path d="M17.98 10.335a2.039 2.039 0 0 0-.642-1.105 2.043 2.043 0 0 0-1.144-.525c-1.369-.148-3.434-.223-6.194-.223s-4.822.075-6.183.223a2.025 2.025 0 0 0-1.15.525 2.12 2.12 0 0 0-.647 1.105c-.194.863-.29 2.165-.29 3.906 0 1.77.096 3.073.29 3.907.097.438.31.807.642 1.104.33.298.712.469 1.143.514C5.175 19.922 7.24 20 10 20c2.76 0 4.825-.078 6.194-.234a1.953 1.953 0 0 0 1.139-.514 2.12 2.12 0 0 0 .647-1.104c.193-.864.29-2.166.29-3.907 0-1.77-.097-3.073-.29-3.906zM6.45 11.462H5.258v6.35H4.14v-6.35H2.969v-1.049H6.45v1.05zm3.014 6.35h-.993v-.602c-.402.454-.781.68-1.139.68-.342 0-.558-.137-.647-.412-.06-.179-.09-.45-.09-.815v-4.364h.994v4.063c0 .238.004.368.011.39.023.156.1.235.235.235.2 0 .413-.157.636-.47V12.3h.993v5.514zm3.795-1.651c0 .543-.034.915-.1 1.116-.127.409-.39.614-.793.614-.357 0-.703-.205-1.038-.614v.536h-.993v-7.4h.993v2.422c.32-.402.666-.603 1.038-.603.402 0 .666.209.793.625.066.194.1.562.1 1.105v2.199zm3.772-.915h-1.997v.97c0 .514.17.77.513.77.245 0 .394-.133.446-.401.015-.075.023-.302.023-.681h1.015v.145c0 .365-.007.58-.022.648-.022.2-.1.401-.235.602-.267.394-.67.592-1.205.592-.513 0-.915-.19-1.205-.57-.216-.275-.324-.706-.324-1.294v-1.931c0-.588.104-1.02.312-1.295.29-.38.689-.569 1.195-.569.498 0 .893.19 1.183.57.201.274.301.706.301 1.294v1.15z" fill="#fff"/><path d="M11.83 13.136c-.171 0-.338.082-.502.246v3.36c.164.163.33.244.502.244.29 0 .436-.249.436-.747v-2.355c0-.499-.146-.748-.436-.748zm3.706 0c-.335 0-.503.253-.503.759v.513h1.005v-.513c0-.506-.168-.759-.502-.759zM5.804 4.453v3.025H6.92V4.453L8.27 0H7.132l-.76 2.935L5.58 0H4.397c.209.625.45 1.32.726 2.087.35 1.027.576 1.816.68 2.366zm3.962 3.103c.513 0 .907-.19 1.183-.57.208-.275.312-.714.312-1.316V3.717c0-.596-.104-1.03-.312-1.306-.276-.38-.67-.57-1.183-.57-.499 0-.89.19-1.172.57-.209.275-.313.71-.313 1.306V5.67c0 .595.104 1.034.313 1.317.282.38.673.569 1.172.569zm-.48-4.04c0-.514.16-.77.48-.77.32 0 .48.256.48.77v2.343c0 .521-.16.782-.48.782-.32 0-.48-.26-.48-.782V3.516zm3.549 4.04c.372 0 .755-.23 1.15-.692v.614H15v-5.57h-1.016v4.253c-.223.32-.435.48-.636.48-.134 0-.212-.082-.235-.246a2.91 2.91 0 0 1-.01-.39V1.907h-1.016v4.398c0 .38.03.658.089.837.097.275.316.413.659.413z" fill="#fff"/></svg></defs></svg>