<svg width="24" height="24" viewBox="0 0 24 24" fill="none" xmlns="http://www.w3.org/2000/svg">
<g clip-path="url(#clip0)">
<path d="M18.0518 17.9517L12 23.9794L8.99801 20.9894C12.2352 20.7988 15.3608 19.7505 18.0518 17.9517ZM23.7887 11.7613L23.0472 11.0267L12 0.0197754L0.948837 11.0267L0 11.9718L0.342857 12.2656C0.729568 12.5872 1.12824 12.893 1.53887 13.1789C5.90831 16.2443 11.3262 17.1695 16.3296 15.9505C18.3708 15.4581 20.3083 14.6123 22.0585 13.4529C22.493 13.167 22.9156 12.8573 23.3302 12.5317C23.5575 12.349 23.7807 12.1624 24 11.9718L23.7887 11.7613ZM14.9143 14.5289C11.6173 12.5118 7.82193 11.4516 3.95482 11.4675C8.99402 9.2796 15.1774 8.98179 20.8465 12.2299C19.0405 13.3735 17.0233 14.1557 14.9143 14.5289Z" fill="white"/>
</g>
<defs>
<clipPath id="clip0">
<rect width="24" height="24" fill="white"/>
</clipPath>
</defs>
</svg>
