<svg width="113" height="35" viewBox="0 0 113 35" fill="none" xmlns="http://www.w3.org/2000/svg">
<path d="M0 34.0893H33.9V0H0V34.0893ZM1.13 1.13631H32.6893V32.8718H1.13V1.13631Z" fill="white"/>
<path d="M6.78003 11.9312H5.65002V22.158H6.78003V11.9312Z" fill="white"/>
<path d="M13.7217 21.1029C11.4617 21.1029 9.60525 19.2361 9.60525 17.0447C9.60525 14.7721 11.4617 12.9864 13.7217 12.9864C14.8517 12.9864 15.9817 13.4734 16.7081 14.2851L17.4346 13.4734C16.466 12.5806 15.0938 12.0125 13.7217 12.0125C10.7353 12.0125 8.39453 14.2851 8.39453 17.1259C8.39453 20.0478 10.7353 22.3204 13.641 22.3204C15.0131 22.3204 16.3853 21.7523 17.4346 20.7783L16.7081 19.9666C15.901 20.616 14.8517 21.1029 13.7217 21.1029Z" fill="white"/>
<path d="M22.9227 11.9312C19.9363 11.9312 17.5956 14.2038 17.5956 17.0445C17.5956 19.8853 19.9363 22.2391 22.9227 22.2391C25.9091 22.2391 28.2498 19.9665 28.2498 17.0445C28.2498 14.1226 25.9091 11.9312 22.9227 11.9312ZM22.9227 21.1028C20.6627 21.1028 18.8063 19.236 18.8063 17.0445C18.8063 14.7719 20.6627 12.9863 22.9227 12.9863C25.1827 12.9863 27.0391 14.7719 27.0391 17.0445C27.1198 19.3172 25.1827 21.1028 22.9227 21.1028Z" fill="white"/>
<path d="M46.8144 12.3372C45.0387 12.3372 43.6666 13.0676 42.698 14.2851V7.30493H38.0973V26.7034H42.698V24.8366C43.6666 26.1352 45.1194 26.7845 46.8951 26.7845C50.7694 26.7845 53.3523 23.9438 53.3523 19.642C53.3523 15.2591 50.7694 12.3372 46.8144 12.3372ZM45.6844 23.0509C43.9087 23.0509 42.698 21.6711 42.698 19.5608C42.698 17.4506 43.9087 16.0708 45.6844 16.0708C47.5409 16.0708 48.7516 17.5317 48.7516 19.5608C48.7516 21.6711 47.4601 23.0509 45.6844 23.0509Z" fill="white"/>
<path d="M61.4236 12.337C57.065 12.337 54.0786 15.259 54.0786 19.6419C54.0786 23.9436 56.9036 26.7844 61.5043 26.7844C64.0872 26.7844 66.1858 25.8916 67.6386 24.2683L65.2172 21.8333C64.2486 22.8073 63.1186 23.2943 61.9079 23.2943C60.2936 23.2943 59.1636 22.4015 58.6793 20.7782H68.4458C68.7686 15.6648 66.3472 12.337 61.4236 12.337ZM58.5986 18.3432C58.9215 16.7199 59.89 15.6648 61.4236 15.6648C62.9572 15.6648 64.0065 16.8011 64.0065 18.3432H58.5986Z" fill="white"/>
<path d="M78.5348 12.337C76.517 12.337 74.9027 13.2299 73.8534 14.8531V12.5805H69.2527V26.7032H73.8534V19.2361C74.0148 17.6128 75.0641 16.5576 76.5977 16.5576C78.0505 16.5576 79.0191 17.5316 79.0191 19.1549V26.7032H83.6198V17.7751C83.6198 14.4473 81.5212 12.337 78.5348 12.337Z" fill="white"/>
<path d="M91.7725 23.0508C90.0775 23.0508 88.9475 21.671 88.9475 19.6419C88.9475 17.6128 90.0775 16.233 91.7725 16.233C92.9833 16.233 93.8711 16.8011 94.5168 17.6939L97.8261 15.746C96.6154 13.6357 94.3554 12.4182 91.5304 12.4182C87.1718 12.4182 84.2661 15.3401 84.2661 19.7231C84.2661 24.0248 87.1718 26.8656 91.4497 26.8656C94.4361 26.8656 96.6961 25.6481 97.8261 23.4566L94.4361 21.5087C93.9518 22.5638 92.9833 23.0508 91.7725 23.0508Z" fill="white"/>
<path d="M107.915 12.3372C105.897 12.3372 104.283 13.23 103.234 14.8533V7.30493H98.6331V26.7034H103.234V19.7232C103.234 17.8564 104.283 16.5577 105.978 16.5577C107.431 16.5577 108.4 17.5317 108.4 19.155V26.7034H113V17.7752C113 14.4475 110.982 12.3372 107.915 12.3372Z" fill="white"/>
</svg>
