<svg width="131" height="26" viewBox="0 0 131 26" fill="none" xmlns="http://www.w3.org/2000/svg">
<path d="M4.61456 25.9851H0V5.81152H4.61456V25.9851Z" fill="white"/>
<path d="M15.9945 25.9458C14.704 25.9458 13.4526 25.7099 12.2012 25.2183C10.9889 24.7267 9.85483 23.9992 8.89672 23.0161C7.95817 22.0723 7.2347 20.9516 6.72632 19.7325C6.23749 18.5134 5.96375 17.2157 5.96375 15.8787C5.96375 14.5023 6.23749 13.2046 6.72632 11.9855C7.21515 10.7664 7.93862 9.70467 8.89672 8.74122C9.87438 7.7581 10.9889 7.03059 12.2403 6.53903C13.4917 6.04747 14.7431 5.81152 16.0336 5.81152C17.3242 5.81152 18.5756 6.04747 19.7879 6.53903C21.0002 7.03059 22.1342 7.7581 23.0923 8.74122L19.827 12.0248C19.299 11.494 18.6929 11.1007 18.0085 10.8451C17.3242 10.5698 16.6398 10.4715 15.9554 10.4715C15.2711 10.4715 14.5867 10.5895 13.9023 10.8451C13.218 11.1204 12.6509 11.494 12.123 12.0248C11.6342 12.5557 11.204 13.1653 10.9498 13.8141C10.6761 14.463 10.5392 15.1905 10.5392 15.918C10.5392 16.6455 10.6956 17.3337 10.9498 17.9825C11.2236 18.6314 11.6342 19.2409 12.123 19.7325C12.6509 20.2634 13.2571 20.6566 13.9023 20.9122C14.5867 21.1875 15.232 21.2858 15.9554 21.2858C16.6398 21.2858 17.3242 21.1678 18.0085 20.9122C18.6929 20.637 19.299 20.2634 19.827 19.7325L23.0923 23.0161C22.1147 23.9992 21.0002 24.7267 19.7879 25.2183C18.5756 25.7099 17.285 25.9458 15.9945 25.9458Z" fill="white"/>
<path d="M67.3211 7.34521C69.296 7.34521 70.8407 7.91542 72.0921 9.09517C73.3044 10.2749 73.9105 12.0249 73.9105 14.4237V23.5667H72.2876V14.2664C72.2094 12.5164 71.7597 11.1794 70.9189 10.2159C70.0781 9.29179 68.7485 8.83956 66.9691 8.83956C65.9524 8.83956 64.9943 9.0755 64.1339 9.52774C63.254 9.97997 62.4328 10.7468 61.6311 11.8479C61.8658 12.5754 61.9635 13.4406 61.9635 14.4827V23.547H60.3797V14.404C60.3797 10.7468 58.6004 8.91821 55.0417 8.91821C52.9495 8.91821 51.3266 9.80301 50.0752 11.5136V23.5667H48.4523V7.95475H49.7819L50.0947 9.5474C51.5808 8.09239 53.321 7.4042 55.2568 7.4042C57.8769 7.4042 59.8127 8.46597 61.0641 10.5698C61.9831 9.50808 62.8825 8.70192 63.8015 8.17104C64.701 7.60083 65.8937 7.34521 67.3211 7.34521Z" fill="white"/>
<path d="M76.4528 19.0839C76.3746 18.1401 76.5702 17.2553 76.9417 16.4884C77.3132 15.7216 77.8607 15.1514 78.4864 14.6992C79.1316 14.2469 79.8942 13.9323 80.7155 13.716C81.5367 13.4998 82.4166 13.4014 83.3356 13.4408C84.6652 13.4801 85.8384 13.7554 86.8161 14.2862C87.7937 14.8171 88.6345 15.3873 89.2407 16.1148V15.466C89.2407 13.2638 88.791 11.6122 87.9111 10.5504C87.0312 9.48862 85.682 8.99706 83.8244 8.99706C82.7294 8.99706 81.654 9.23301 80.6764 9.64592C79.6596 10.0588 78.8579 10.6684 78.2126 11.4352L77.3327 10.0588C78.1344 9.21335 79.073 8.56449 80.2462 8.11226C81.3803 7.66002 82.5926 7.42407 83.8049 7.42407C86.1122 7.42407 87.8524 8.07293 89.0647 9.33132C90.2379 10.5897 90.8441 12.5756 90.8441 15.2694V23.6652H89.5144L89.2016 22.0726C88.5954 22.6034 87.7546 23.095 86.6205 23.5276C85.4865 23.9405 84.3915 24.1764 83.316 24.2158C81.263 24.2551 79.6009 23.8815 78.3886 22.9967C77.2545 22.0922 76.5311 20.7945 76.4528 19.0839ZM89.2798 20.6372V18.1204C88.9083 17.3536 88.1457 16.6261 87.0507 15.9772C85.9557 15.3284 84.7434 14.9548 83.4529 14.8761C82.7686 14.8368 82.1233 14.8761 81.478 15.0334C80.8328 15.1514 80.2657 15.3677 79.7378 15.6823C79.2099 15.9969 78.7992 16.4491 78.4864 17.0193C78.1735 17.5895 78.0758 18.2777 78.1149 19.0445C78.1931 20.2243 78.6819 21.1484 79.6596 21.758C80.6372 22.3675 81.8495 22.6821 83.3747 22.7018C84.4697 22.7018 85.5451 22.5445 86.5619 22.1709C87.5787 21.8169 88.4781 21.2861 89.2798 20.6372Z" fill="white"/>
<path d="M101.598 7.44362L101.266 9.03627C101.109 9.03627 100.894 8.99695 100.581 8.99695C98.1568 8.99695 96.3774 9.84243 95.1651 11.5137V23.5668H93.5422V7.95484H94.8328L95.1651 9.5475C96.6512 8.09248 98.5478 7.4043 100.777 7.4043C100.953 7.4043 101.227 7.4043 101.598 7.44362Z" fill="white"/>
<path d="M105.646 0.0112305V23.5668H104.023V0.0112305H105.646ZM116.263 7.95484L108.637 15.7411L116.556 23.5471H114.288L106.525 15.7411L114.034 7.95484H116.263Z" fill="white"/>
<path d="M130.223 8.97738L129.422 10.3537C128.933 9.94084 128.248 9.54759 127.29 9.21333C126.352 8.87907 125.394 8.68245 124.455 8.68245C123.36 8.68245 122.48 8.91839 121.835 9.37063C121.19 9.82286 120.818 10.4717 120.779 11.2779C120.701 12.2217 121.112 12.9492 121.913 13.4211C122.637 13.834 123.614 14.1486 124.866 14.4042C126.489 14.7385 127.779 15.0924 128.659 15.466C129.637 15.8789 130.282 16.4884 130.673 17.3732C131.005 18.2187 131.084 19.1625 130.908 20.2243C130.634 21.5613 129.813 22.5444 128.483 23.154C127.505 23.6062 126.293 23.8421 124.846 23.8421C123.634 23.8421 122.422 23.6062 121.209 23.154C119.997 22.7017 119.039 22.1708 118.335 21.5613L119.137 20.1849L119.293 20.3422C119.782 20.8338 120.584 21.286 121.639 21.7186C122.734 22.1315 123.81 22.3281 124.866 22.3281C126.117 22.3675 127.134 22.1708 127.897 21.7579C128.698 21.345 129.187 20.7355 129.343 19.9293C129.617 18.553 129.148 17.6092 127.897 17.039C127.056 16.6654 125.961 16.3508 124.592 16.0952C122.93 15.7609 121.757 15.3283 121.033 14.9547C119.586 14.1093 118.941 12.9295 119.058 11.4155C119.176 9.99983 119.782 8.89873 120.955 8.1319C121.835 7.52236 123.008 7.24709 124.396 7.24709C126.684 7.14878 128.581 7.75831 130.223 8.97738Z" fill="white"/>
<path d="M33.3189 5.61499C27.7853 5.61499 23.2686 10.157 23.2686 15.7215C23.2686 21.2859 27.7853 25.8279 33.3189 25.8279C38.8524 25.8279 43.3692 21.2859 43.3692 15.7215C43.3692 10.157 38.8524 5.61499 33.3189 5.61499ZM38.0507 17.0585L38.9306 22.21C38.9306 22.2494 38.9306 22.328 38.9306 22.4067C38.9306 22.564 38.8915 22.6819 38.8133 22.7803C38.7351 22.8982 38.6178 22.9376 38.5005 22.9376C38.3831 22.9376 38.2267 22.8982 38.0898 22.8196L33.4949 20.4208L28.8999 22.8589C28.7434 22.9376 28.587 22.9769 28.4892 22.9769C28.3328 22.9769 28.2155 22.9376 28.1568 22.8196C28.0786 22.7016 28.0395 22.5836 28.0395 22.446C28.0395 22.4067 28.0395 22.328 28.0786 22.2494L28.9585 17.0585L25.2434 13.4013C25.0479 13.2047 24.9697 13.067 24.9697 12.9097C24.9697 12.6345 25.1652 12.4968 25.5367 12.4575L30.6988 11.6907L33.006 7.01102C33.1233 6.73575 33.3189 6.59811 33.4949 6.59811C33.6904 6.59811 33.8664 6.75541 33.9837 7.01102L36.291 11.6907L41.453 12.4575C41.8245 12.5362 42.02 12.6934 42.02 12.9097C42.02 13.067 41.9418 13.2243 41.7463 13.4013L38.0507 17.0585Z" fill="white"/>
</svg>
