<svg width="27" height="26" viewBox="0 0 27 26" fill="none" xmlns="http://www.w3.org/2000/svg">
<path d="M10.4958 14.5854C10.1306 14.0498 9.91314 13.4325 9.8618 12.7936V12.2091C9.93324 11.3193 10.3257 10.4798 10.974 9.84428C11.6923 9.14019 12.6661 8.74397 13.6819 8.74245C14.4398 8.74245 15.1807 8.96274 15.8108 9.37548C16.441 9.78821 16.9321 10.3748 17.2222 11.0612C17.5122 11.7475 17.5881 12.5028 17.4402 13.2314C17.2924 13.96 16.9274 14.6293 16.3915 15.1546C15.8556 15.68 15.1728 16.0377 14.4295 16.1826C13.6862 16.3276 12.9157 16.2532 12.2155 15.9689C11.5153 15.6846 10.9168 15.2031 10.4958 14.5854Z" fill="white"/>
<path d="M22.5305 3.75586C20.0772 1.35102 16.7498 0 13.2802 0H4.35269C3.42582 0 2.53691 0.360919 1.88151 1.00336C1.22611 1.6458 0.85791 2.51713 0.85791 3.42568V12.1278C0.857526 13.8192 1.1972 15.4941 1.85751 17.0567C2.51782 18.6193 3.48583 20.039 4.7062 21.2347C4.99522 21.5179 5.29705 21.7872 5.6106 22.0419V7.44632C5.61021 7.0883 5.68182 6.73371 5.82133 6.40283C5.96083 6.07196 6.1655 5.77128 6.42363 5.51798C6.68176 5.26469 6.98829 5.06375 7.3257 4.92666C7.6631 4.78956 8.02476 4.71899 8.39 4.71899H9.8618V4.72192H13.467C13.5386 4.72 13.6102 4.71902 13.6819 4.71899H13.6848C15.7897 4.71899 17.8084 5.53863 19.2968 6.9976C20.7852 8.45656 21.6214 10.4353 21.6214 12.4986C21.6214 14.0372 21.156 15.5412 20.284 16.8205C19.4121 18.0997 18.1728 19.0969 16.7227 19.6858C15.2727 20.2747 13.677 20.4289 12.1376 20.129C11.3367 19.9729 10.5697 19.6976 9.8618 19.3162V24.3504C11.1942 24.7829 12.5908 25.0038 13.9985 25.0029H22.8703C23.3293 25.0025 23.7836 24.9135 24.2075 24.741C24.6313 24.5685 25.0164 24.3159 25.3406 23.9975C25.6649 23.6791 25.922 23.3013 26.0973 22.8855C26.2725 22.4697 26.3625 22.0242 26.3622 21.5743V12.8233C26.3622 9.42236 24.9839 6.1607 22.5305 3.75586Z" fill="white"/>
<path fill-rule="evenodd" clip-rule="evenodd" d="M9.8618 12.7936C9.91314 13.4325 10.1306 14.0498 10.4958 14.5854C10.9168 15.2031 11.5153 15.6846 12.2155 15.9689C12.9157 16.2532 13.6862 16.3276 14.4295 16.1826C15.1728 16.0377 15.8556 15.68 16.3915 15.1546C16.9274 14.6293 17.2924 13.96 17.4402 13.2314C17.5881 12.5028 17.5122 11.7475 17.2222 11.0612C16.9321 10.3748 16.441 9.78821 15.8108 9.37548C15.1807 8.96274 14.4398 8.74245 13.6819 8.74245C12.6661 8.74397 11.6923 9.14019 10.974 9.84428C10.3257 10.4798 9.93324 11.3193 9.8618 12.2091V12.7936Z" fill="white"/>
</svg>
