<svg width="24" height="24" viewBox="0 0 24 24" fill="none" xmlns="http://www.w3.org/2000/svg">
<path d="M12 11C14.2086 11 16 9.20583 16 6.99386C16 4.7819 14.2086 3 12 3C9.79142 3 8 4.79417 8 6.99386C8 9.19356 9.7914 11 12 11ZM12 4.04455C13.6196 4.04455 14.9448 5.37173 14.9448 6.99386C14.9448 8.616 13.6196 9.94315 12 9.94315C10.3804 9.94315 9.0552 8.61597 9.0552 6.99384C9.0552 5.3717 10.3804 4.04455 12 4.04455Z" stroke="#1B1711"/>
<path d="M12 4.04455C13.6196 4.04455 14.9448 5.37173 14.9448 6.99386C14.9448 8.616 13.6196 9.94315 12 9.94315C10.3804 9.94315 9.0552 8.61597 9.0552 6.99384C9.0552 5.3717 10.3804 4.04455 12 4.04455Z" stroke="#1B1711"/>
<path d="M20.2522 20.1682L20.1808 19.6053C19.8415 16.9306 17.6527 14.832 14.9557 14.832H9.04434C6.34608 14.832 4.15849 16.9474 3.81929 19.6049L3.74739 20.1682H4.31527H19.6847H20.2522ZM20.3645 20.5001H3.63546C3.57873 20.5001 3.5 20.4521 3.5 20.3342C3.5 17.0888 6.01639 14.5001 9.04434 14.5001H14.9557C17.9969 14.5001 20.5 17.1027 20.5 20.3342C20.5 20.4521 20.4213 20.5001 20.3645 20.5001ZM14.9557 15.832C16.92 15.832 18.5931 17.2341 19.0823 19.1682H4.9185C5.40906 17.2443 7.08233 15.832 9.04434 15.832H14.9557Z" stroke="#1B1711"/>
</svg>
