<svg width="65" height="65" viewBox="0 0 65 65" fill="none" xmlns="http://www.w3.org/2000/svg">
<g clip-path="url(#clip0)">
<path d="M26.4539 40.536L24.0652 39.7419C23.2795 39.4801 22.7496 38.7447 22.75 37.9165C22.75 36.7198 23.72 35.7498 24.9167 35.7498C26.1134 35.7498 27.0833 36.7198 27.0833 37.9165H29.25C29.2426 35.9466 27.9075 34.2295 26 33.737V31.4165H23.8334V33.737C21.926 34.2295 20.5908 35.9466 20.5834 37.9165C20.582 39.6773 21.7087 41.2409 23.3794 41.797L25.7682 42.591C26.5539 42.8528 27.0838 43.5882 27.0833 44.4164C27.0833 45.6131 26.1134 46.5831 24.9167 46.5831C23.72 46.5831 22.75 45.6131 22.75 44.4164H20.5834C20.5908 46.3863 21.926 48.1034 23.8334 48.5959V50.9164H26V48.5959C27.9075 48.1034 29.2426 46.3863 29.25 44.4164C29.2514 42.6556 28.1247 41.092 26.4539 40.536Z" fill="#2DE58D"/>
<path d="M63.9174 23.8332H42.0168C39.7275 21.012 36.8495 18.7248 33.5842 17.1318V12.4583L37.4841 9.53329C37.7569 9.32868 37.9175 9.00761 37.9175 8.66663V1.08333C37.9175 0.48506 37.4324 0 36.8342 0H32.5008C32.2135 0 31.938 0.114291 31.7349 0.317415L30.3342 1.71816L28.9334 0.317415C28.7303 0.114291 28.4549 0 28.1675 0H21.6676C21.3802 0 21.1048 0.114291 20.9016 0.317415L19.5009 1.71816L18.1001 0.317415C17.897 0.114291 17.6216 0 17.3342 0H13.0009C12.4027 0 11.9176 0.48506 11.9176 1.08333V8.66663C11.9176 9.00761 12.0782 9.32868 12.3509 9.53329L16.2509 12.4583V17.1426C8.05011 21.1108 0.000976562 31.7697 0.000976562 45.4402C0.000976562 57.8703 9.08252 64.9997 24.9175 64.9997C27.4879 65.0089 30.0536 64.7812 32.5821 64.3194C32.7463 64.7292 33.1427 64.9982 33.5842 64.9997H63.9174C64.5156 64.9997 65.0007 64.5147 65.0007 63.9164V24.9166C65.0007 24.3183 64.5156 23.8332 63.9174 23.8332ZM14.0842 8.12497V2.16666H16.8857L18.735 4.0159C19.158 4.4388 19.8438 4.4388 20.2668 4.0159L22.116 2.16666H27.719L29.5683 4.0159C29.9913 4.4388 30.6771 4.4388 31.1001 4.0159L32.9493 2.16666H35.7508V8.12497L32.1401 10.8333H17.695L14.0842 8.12497ZM31.4175 12.9999V16.2499H18.4176V12.9999H31.4175ZM32.5008 50.3455C27.4317 54.5429 19.9197 53.8363 15.7222 48.7671C11.5249 43.698 12.2315 36.186 17.3007 31.9885C21.7097 28.3377 28.0917 28.3377 32.5007 31.9885V50.3455H32.5008ZM32.5008 24.9166V29.3116C25.9539 25.1124 17.2423 27.0155 13.043 33.5625C8.84378 40.1094 10.7469 48.821 17.2939 53.0203C21.9273 55.9923 27.8676 55.9923 32.501 53.0203V62.1311C30.0017 62.6091 27.4621 62.8442 24.9177 62.8331C18.0775 62.8331 2.16777 61.1387 2.16777 45.4402C2.16777 35.076 8.37957 22.1801 18.7795 18.4166H31.0634C34.1279 19.5798 36.8832 21.4333 39.1158 23.8332H33.5843C32.9859 23.8332 32.5008 24.3183 32.5008 24.9166ZM62.834 62.8331H34.6675V34.6665H62.834V62.8331ZM62.834 32.4999H34.6675V25.9999H62.834V32.4999Z" fill="#2DE58D"/>
<path d="M42.2499 36.8333H37.9166C37.3183 36.8333 36.8333 37.3183 36.8333 37.9166V42.2499C36.8333 42.8482 37.3183 43.3332 37.9166 43.3332H42.2499C42.8482 43.3332 43.3332 42.8482 43.3332 42.2499V37.9166C43.3332 37.3183 42.8482 36.8333 42.2499 36.8333ZM41.1666 41.1666H38.9999V38.9999H41.1666V41.1666Z" fill="#2DE58D"/>
<path d="M50.9166 36.8333H46.5833C45.9851 36.8333 45.5 37.3183 45.5 37.9166V42.2499C45.5 42.8482 45.9851 43.3332 46.5833 43.3332H50.9166C51.5149 43.3332 52 42.8482 52 42.2499V37.9166C52 37.3183 51.5149 36.8333 50.9166 36.8333ZM49.8333 41.1666H47.6667V38.9999H49.8333V41.1666Z" fill="#2DE58D"/>
<path d="M59.5833 36.8333H55.25C54.6517 36.8333 54.1666 37.3183 54.1666 37.9166V42.2499C54.1666 42.8482 54.6517 43.3332 55.25 43.3332H59.5833C60.1815 43.3332 60.6666 42.8482 60.6666 42.2499V37.9166C60.6666 37.3183 60.1815 36.8333 59.5833 36.8333ZM58.4999 41.1666H56.3333V38.9999H58.4999V41.1666Z" fill="#2DE58D"/>
<path d="M42.2499 45.4998H37.9166C37.3183 45.4998 36.8333 45.9848 36.8333 46.5831V50.9164C36.8333 51.5147 37.3183 51.9997 37.9166 51.9997H42.2499C42.8482 51.9997 43.3332 51.5147 43.3332 50.9164V46.5831C43.3332 45.9848 42.8482 45.4998 42.2499 45.4998ZM41.1666 49.8331H38.9999V47.6664H41.1666V49.8331Z" fill="#2DE58D"/>
<path d="M50.9166 45.4998H46.5833C45.9851 45.4998 45.5 45.9848 45.5 46.5831V50.9164C45.5 51.5147 45.9851 51.9997 46.5833 51.9997H50.9166C51.5149 51.9997 52 51.5147 52 50.9164V46.5831C52 45.9848 51.5149 45.4998 50.9166 45.4998ZM49.8333 49.8331H47.6667V47.6664H49.8333V49.8331Z" fill="#2DE58D"/>
<path d="M42.2499 54.1665H37.9166C37.3183 54.1665 36.8333 54.6516 36.8333 55.2498V59.5831C36.8333 60.1814 37.3183 60.6665 37.9166 60.6665H42.2499C42.8482 60.6665 43.3332 60.1814 43.3332 59.5831V55.2498C43.3332 54.6516 42.8482 54.1665 42.2499 54.1665ZM41.1666 58.4998H38.9999V56.3332H41.1666V58.4998Z" fill="#2DE58D"/>
<path d="M50.9166 54.1665H46.5833C45.9851 54.1665 45.5 54.6516 45.5 55.2498V59.5831C45.5 60.1814 45.9851 60.6665 46.5833 60.6665H50.9166C51.5149 60.6665 52 60.1814 52 59.5831V55.2498C52 54.6516 51.5149 54.1665 50.9166 54.1665ZM49.8333 58.4998H47.6667V56.3332H49.8333V58.4998Z" fill="#2DE58D"/>
<path d="M59.5833 45.4998H55.25C54.6517 45.4998 54.1666 45.9848 54.1666 46.5831V59.583C54.1666 60.1813 54.6517 60.6664 55.25 60.6664H59.5833C60.1815 60.6664 60.6666 60.1813 60.6666 59.583V46.5831C60.6666 45.9848 60.1815 45.4998 59.5833 45.4998ZM58.4999 58.4997H56.3333V47.6664H58.4999V58.4997Z" fill="#2DE58D"/>
<path d="M60.6665 28.1665H58.4999V30.3332H60.6665V28.1665Z" fill="#2DE58D"/>
<path d="M56.3333 28.1665H54.1666V30.3332H56.3333V28.1665Z" fill="#2DE58D"/>
<path d="M51.9999 28.1665H49.8333V30.3332H51.9999V28.1665Z" fill="#2DE58D"/>
</g>
<defs>
<clipPath id="clip0">
<rect width="65" height="65" fill="white"/>
</clipPath>
</defs>
</svg>
