<svg width="69" height="69" viewBox="0 0 69 69" fill="none" xmlns="http://www.w3.org/2000/svg">
<path d="M30.7848 37.5762L20.6198 65.5218C20.4154 66.0833 20.6421 66.7067 21.1563 67.0071C21.3498 67.1212 21.5647 67.175 21.7777 67.175C22.1276 67.175 22.4719 67.0248 22.7128 66.7471L22.7138 66.746L50.9526 33.7804L30.7848 37.5762ZM30.7848 37.5762L18.6463 34.1133C18.6462 34.1132 18.6461 34.1132 18.646 34.1132C18.2443 33.9997 17.9268 33.6894 17.8037 33.2905L17.8033 33.2891L17.8033 33.2891C17.683 32.8914 17.7684 32.4555 18.0402 32.1343C18.0402 32.1343 18.0402 32.1343 18.0402 32.1343L43.1858 2.26195L30.7848 37.5762ZM44.7086 1.96847L44.7086 1.96848C45.2208 2.24179 45.475 2.83984 45.312 3.39798C45.312 3.39802 45.312 3.39807 45.312 3.39811L38.1314 28.3065L50.3534 31.7939C50.3536 31.7939 50.3538 31.794 50.354 31.794C50.7582 31.9076 51.0758 32.2205 51.1967 32.6218M44.7086 1.96847L50.9529 33.78C51.226 33.4624 51.3199 33.0242 51.1967 32.6218M44.7086 1.96847L44.7069 1.9676M44.7086 1.96847L44.7069 1.9676M51.1967 32.6218C51.1968 32.622 51.1968 32.6222 51.1969 32.6224L50.9575 32.6944L51.1965 32.6211C51.1966 32.6213 51.1966 32.6215 51.1967 32.6218ZM44.7069 1.9676C44.1974 1.70058 43.5621 1.81409 43.186 2.26173L44.7069 1.9676ZM33.4915 36.1884L33.4926 36.1906C33.6473 36.4952 33.67 36.8502 33.5515 37.1716C33.5515 37.1717 33.5514 37.1719 33.5514 37.172L25.2519 59.9891L47.8314 33.6311L36.2694 30.335C36.2694 30.335 36.2693 30.335 36.2692 30.335C35.9531 30.246 35.6875 30.0339 35.5279 29.7492C35.367 29.462 35.3305 29.1239 35.4214 28.8093L41.3405 8.28071L21.1494 32.2653L32.7311 35.5665L33.4915 36.1884ZM33.4915 36.1884C33.3347 35.8872 33.062 35.6604 32.7314 35.5666L33.4915 36.1884Z" fill="#FFD788" stroke="#FFD788" stroke-width="0.5"/>
</svg>
