<svg width="69" height="69" viewBox="0 0 69 69" fill="none" xmlns="http://www.w3.org/2000/svg">
<path fill-rule="evenodd" clip-rule="evenodd" d="M30.7848 37.5762L20.6198 65.5218C20.4154 66.0833 20.6421 66.7067 21.1563 67.0071C21.3498 67.1212 21.5647 67.175 21.7777 67.175C22.1276 67.175 22.4719 67.0248 22.7128 66.7471L22.7138 66.746L50.9526 33.7804C51.2257 33.4628 51.3199 33.0242 51.1967 32.6218C51.0758 32.2205 50.7576 31.9075 50.3534 31.7939L38.1314 28.3065L45.312 3.39799C45.475 2.83985 45.2208 2.24179 44.7086 1.96848L44.7069 1.96761L43.1858 2.26196L18.0402 32.1343C17.7684 32.4555 17.683 32.8914 17.8033 33.2891L17.8037 33.2905C17.9268 33.6894 18.2446 33.9998 18.6463 34.1133L30.7848 37.5762ZM33.4926 36.1906L33.4915 36.1884L32.7311 35.5665L21.1494 32.2653L41.3405 8.28072L35.4214 28.8093C35.3305 29.1239 35.367 29.462 35.5279 29.7492C35.6875 30.0339 35.9533 30.246 36.2694 30.335L47.8314 33.6311L25.2519 59.9891L33.5515 37.1716C33.67 36.8502 33.6473 36.4952 33.4926 36.1906Z" fill="#2DE58D"/>
</svg>
