<svg width="18" height="12" viewBox="0 0 18 12" fill="none" xmlns="http://www.w3.org/2000/svg">
<path d="M17.6896 11.7827H0.310359C0.138972 11.7827 0 11.6439 0 11.4726V0.310086C0 0.13885 0.138972 0 0.310359 0H17.6896C17.861 0 18 0.13885 18 0.310086V11.4726C18 11.6439 17.861 11.7827 17.6896 11.7827Z" fill="#FF4B55"/>
<path d="M2.98842 1.84244L3.2843 2.72879L4.21945 2.73603C4.34053 2.73694 4.39073 2.89135 4.29332 2.96318L3.54104 3.51819L3.8231 4.40904C3.85959 4.52439 3.72818 4.61976 3.62967 4.54944L2.86889 4.00608L2.10811 4.5494C2.00961 4.61976 1.87819 4.52432 1.91468 4.40901L2.19674 3.51816L1.44447 2.96318C1.34705 2.89131 1.39726 2.73694 1.51833 2.73603L2.45349 2.72879L2.74936 1.84244C2.78768 1.72765 2.95014 1.72765 2.98842 1.84244Z" fill="#FFE15A"/>
<path d="M6.38414 2.06085L6.59631 2.34993L6.93869 2.24294C6.98303 2.2291 7.01948 2.27961 6.99234 2.31723L6.78274 2.6081L6.99037 2.90037C7.01727 2.9382 6.98046 2.98847 6.93623 2.97431L6.59455 2.86504L6.38048 3.15268C6.35278 3.18991 6.29354 3.17045 6.29337 3.12409L6.29179 2.76563L5.95183 2.65109C5.90784 2.63623 5.90802 2.57399 5.95214 2.55945L6.29281 2.44719L6.29681 2.08877C6.29731 2.04244 6.35668 2.02344 6.38414 2.06085Z" fill="#FFE15A"/>
<path d="M5.09251 1.1992L5.44917 1.23791L5.60133 0.913318C5.62105 0.871308 5.68293 0.878509 5.69242 0.923926L5.76575 1.27476L6.12175 1.31901C6.16784 1.32474 6.18011 1.38579 6.13978 1.40886L5.82847 1.58695L5.89636 1.9389C5.90515 1.9845 5.85083 2.01499 5.81641 1.98383L5.55067 1.74305L5.23665 1.91628C5.19601 1.93873 5.15013 1.89651 5.16919 1.85418L5.31625 1.52724L5.05426 1.28234C5.02037 1.2508 5.04635 1.19421 5.09251 1.1992Z" fill="#FFE15A"/>
<path d="M5.65634 4.67291L5.44418 4.96199L5.10179 4.855C5.05746 4.84116 5.021 4.89167 5.04814 4.92929L5.25774 5.22016L5.05011 5.51244C5.02321 5.55027 5.06002 5.60054 5.10425 5.58638L5.44593 5.47711L5.66 5.76475C5.6877 5.80198 5.74694 5.78252 5.74712 5.73615L5.7487 5.3777L6.08866 5.26316C6.13267 5.2483 6.13246 5.18606 6.08834 5.17152L5.74768 5.05926L5.74367 4.70084C5.74311 4.65454 5.6838 4.63547 5.65634 4.67291Z" fill="#FFE15A"/>
<path d="M6.94789 3.86326L6.59124 3.90197L6.43908 3.57738C6.41936 3.53537 6.35748 3.54257 6.34799 3.58799L6.27462 3.93882L5.91863 3.98308C5.87254 3.9888 5.86027 4.04985 5.90059 4.07293L6.2119 4.25101L6.14401 4.60297C6.13522 4.64856 6.18954 4.67905 6.22396 4.64789L6.4897 4.40711L6.80372 4.58035C6.84436 4.60279 6.89024 4.56057 6.87118 4.51825L6.72413 4.1913L6.98611 3.94641C7.02011 3.91486 6.99413 3.85828 6.94789 3.86326Z" fill="#FFE15A"/>
</svg>
