<svg width="18" height="12" viewBox="0 0 18 12" fill="none" xmlns="http://www.w3.org/2000/svg">
<path d="M17.6896 11.7827H0.310359C0.138972 11.7827 0 11.6439 0 11.4726V0.310086C0 0.13885 0.138972 0 0.310359 0H17.6896C17.861 0 18 0.13885 18 0.310086V11.4726C18 11.6439 17.861 11.7827 17.6896 11.7827Z" fill="#F8F8F8"/>
<path d="M17.6896 6H0.310359C0.138972 6 0 5.92932 0 5.84209V0.157902C0 0.0707054 0.138972 0 0.310359 0H17.6896C17.861 0 18 0.0707054 18 0.157902V5.84209C18 5.92932 17.861 6 17.6896 6Z" fill="#B32933"/>
</svg>
