<svg width="18" height="12" viewBox="0 0 18 12" fill="none" xmlns="http://www.w3.org/2000/svg">
<path d="M17.6896 11.7827H0.310359C0.138972 11.7827 0 11.6439 0 11.4726V0.310086C0 0.13885 0.138972 0 0.310359 0H17.6896C17.861 0 18 0.13885 18 0.310086V11.4726C18 11.6439 17.861 11.7827 17.6896 11.7827Z" fill="white"/>
<path fill-rule="evenodd" clip-rule="evenodd" d="M12 6.00102C12 7.65577 10.6575 9 8.99897 9C7.34045 9 6 7.65577 6 6.00102C6 4.34627 7.34251 3 9.00103 3C10.6596 3 12 4.34627 12 6.00102Z" fill="#C70000"/>
<path d="M3 2.79296L3.37382 3.11187L4.95406 1.31706L4.57835 1L3 2.79296Z" fill="black"/>
<path d="M5.09566 1.43943L3.51731 3.23239L3.89113 3.5513L5.47137 1.75464L5.09566 1.43943Z" fill="black"/>
<path d="M4.04594 3.68294L5.62429 1.88628L6 2.20519L4.41976 4L4.04594 3.68294Z" fill="black"/>
<path fill-rule="evenodd" clip-rule="evenodd" d="M6.03953 5.71316C6.1348 6.418 6.27356 7.20284 7.45198 7.28285C7.89311 7.30761 8.7526 7.1876 9.04669 6.07892C9.43604 5.01595 10.6 4.71116 11.3932 5.28645C11.8467 5.55696 11.971 5.98557 12 6.30942C11.9648 7.33809 11.3186 8.23342 10.4923 8.63346C9.5396 9.15352 8.22241 9.16495 7.06884 8.37629C6.54901 7.92863 5.82207 7.09997 6.03953 5.71316Z" fill="#3D5897"/>
<path d="M14.0565 1.7195L13.431 1L13.0529 1.31501L13.6812 2.03766L14.0565 1.7195Z" fill="black"/>
<path d="M14.3331 2.03773L13.9638 2.36274L14.6219 3.11983L15 2.80482L14.3331 2.03773Z" fill="black"/>
<path d="M13.0098 2.60681L12.3781 1.88017L12 2.19518L12.6426 2.93442L12.6369 2.91964H12.6407L13.0098 2.60681Z" fill="black"/>
<path d="M12.9336 3.26913L13.303 2.94412L13.9471 3.68499L13.569 4L12.9336 3.26913Z" fill="black"/>
<path d="M14.4781 3.24028L12.9091 1.43545L12.5348 1.74861L14.1019 3.55529L14.4781 3.24028Z" fill="black"/>
<path d="M13.8518 8.96829L14.4723 8L14.0915 7.58481L13.4761 8.54511L13.8518 8.96829Z" fill="black"/>
<path d="M13.5623 9.42014L13.1799 9.00735L12.5374 10.0101L12.9182 10.4253L13.5623 9.42014Z" fill="black"/>
<path d="M13.0232 8.83807L12.3808 9.84051L12 9.42532L12.6408 8.42528L13.0232 8.83807Z" fill="black"/>
<path d="M12.9448 7.95084L12.9607 7.96454L13.3221 8.37158L13.9349 7.41519L13.5541 7L12.9448 7.95084Z" fill="black"/>
<path d="M13.7077 9.57716L14.0912 9.99118L13.4439 11L13.0612 10.5848L13.7077 9.57716Z" fill="black"/>
<path d="M14.3717 9.55393L13.9949 9.12949L14.6173 8.15949L15 8.57468L14.3717 9.55393Z" fill="black"/>
<path d="M4.53816 8.54507L3.9093 7.58096L3.53123 8.00123L4.16266 8.96929L4.53816 8.54507Z" fill="black"/>
<path d="M4.82381 8.98301L4.45465 9.41694L5.10023 10.4067L5.4783 9.9864L4.82381 8.98301Z" fill="black"/>
<path fill-rule="evenodd" clip-rule="evenodd" d="M4.431 7L6 9.40544L5.62193 9.82571L4.05293 7.42027L4.431 7ZM3.37807 8.17429L4.94707 10.5797L4.569 11L3 8.59456L3.37807 8.17429Z" fill="black"/>
</svg>
