<svg width="18" height="12" viewBox="0 0 18 12" fill="none" xmlns="http://www.w3.org/2000/svg">
<path d="M17.6896 11.7827H0.310359C0.138972 11.7827 0 11.6439 0 11.4726V0.310086C0 0.13885 0.138972 0 0.310359 0H17.6896C17.861 0 18 0.13885 18 0.310086V11.4726C18 11.6439 17.861 11.7827 17.6896 11.7827Z" fill="#F5F5F5"/>
<path d="M18 0.906407H0V0.310086C0 0.13885 0.138972 0 0.310359 0H17.6896C17.861 0 18 0.13885 18 0.310086L18 0.906407Z" fill="#FF4B55"/>
<path d="M18 3.62549H0V4.53186H18V3.62549Z" fill="#FF4B55"/>
<path d="M18 1.81274H0V2.71912H18V1.81274Z" fill="#FF4B55"/>
<path d="M18 6.34464H0.310359C0.138972 6.34464 0 6.20579 0 6.03455V5.43823H18V6.34464Z" fill="#FF4B55"/>
<path d="M18 9.06396H0V9.97034H18V9.06396Z" fill="#FF4B55"/>
<path d="M17.6896 11.7828H0.310359C0.138972 11.7828 0 11.644 0 11.4728V10.8765H18V11.4728C18 11.644 17.861 11.7828 17.6896 11.7828Z" fill="#FF4B55"/>
<path d="M18 7.25098H0V8.15735H18V7.25098Z" fill="#FF4B55"/>
<path d="M8.06894 0.000976562H0.310359C0.138972 0.000976562 0 0.139791 0 0.311027V6.03539C0 6.20662 0.138972 6.34548 0.310359 6.34548H8.06898C8.24036 6.34548 8.37934 6.20662 8.37934 6.03539V0.311027C8.3793 0.139791 8.24033 0.000976562 8.06894 0.000976562Z" fill="#41479B"/>
<path d="M0.871395 0.711641L0.94009 0.917475L1.15725 0.919126C1.18537 0.919372 1.19701 0.955199 1.17441 0.971884L0.999715 1.10079L1.06525 1.30765C1.07375 1.33441 1.0432 1.35661 1.02032 1.34024L0.843656 1.21411L0.666997 1.34028C0.64411 1.35661 0.61363 1.33445 0.622067 1.30768L0.687598 1.10083L0.512907 0.971919C0.490302 0.955199 0.501938 0.919407 0.530063 0.919161L0.747223 0.91751L0.815918 0.711676C0.824778 0.684981 0.862465 0.684981 0.871395 0.711641Z" fill="#F5F5F5"/>
<path d="M0.871395 1.78828L0.94009 1.99411L1.15725 1.99576C1.18537 1.99601 1.19701 2.03183 1.17441 2.04852L0.999715 2.17743L1.06525 2.38428C1.07375 2.41105 1.0432 2.43324 1.02032 2.41688L0.843656 2.29074L0.666997 2.41691C0.64411 2.43324 0.61363 2.41108 0.622067 2.38432L0.687598 2.17746L0.512907 2.04855C0.490302 2.03183 0.501938 1.99604 0.530063 1.9958L0.747223 1.99414L0.815918 1.78831C0.824778 1.76165 0.862465 1.76165 0.871395 1.78828Z" fill="#F5F5F5"/>
<path d="M0.871395 2.86518L0.94009 3.07101L1.15725 3.07266C1.18537 3.07291 1.19701 3.10874 1.17441 3.12542L0.999715 3.25433L1.06525 3.46118C1.07375 3.48795 1.0432 3.51015 1.02032 3.49378L0.843656 3.36765L0.666997 3.49382C0.64411 3.51015 0.61363 3.48799 0.622067 3.46122L0.687598 3.25437L0.512907 3.12546C0.490302 3.10874 0.501938 3.07295 0.530063 3.0727L0.747223 3.07105L0.815918 2.86521C0.824778 2.83855 0.862465 2.83855 0.871395 2.86518Z" fill="#F5F5F5"/>
<path d="M0.871395 3.94187L0.94009 4.1477L1.15725 4.14935C1.18537 4.1496 1.19701 4.18542 1.17441 4.20211L0.999715 4.33102L1.06525 4.53787C1.07375 4.56464 1.0432 4.58684 1.02032 4.57047L0.843656 4.44433L0.666997 4.5705C0.64411 4.58684 0.61363 4.56467 0.622067 4.53791L0.687598 4.33105L0.512907 4.20214C0.490302 4.18542 0.501938 4.14963 0.530063 4.14939L0.747223 4.14773L0.815918 3.9419C0.824778 3.91521 0.862465 3.91521 0.871395 3.94187Z" fill="#F5F5F5"/>
<path d="M0.871395 5.01855L0.94009 5.22439L1.15725 5.22604C1.18537 5.22628 1.19701 5.26211 1.17441 5.27879L0.999715 5.4077L1.06525 5.61456C1.07375 5.64132 1.0432 5.66352 1.02032 5.64715L0.843656 5.52102L0.666997 5.64719C0.64411 5.66352 0.61363 5.64136 0.622067 5.61459L0.687598 5.40774L0.512907 5.27883C0.490302 5.26211 0.501938 5.22632 0.530063 5.22607L0.747223 5.22442L0.815918 5.01859C0.824778 4.99186 0.862465 4.99186 0.871395 5.01855Z" fill="#F5F5F5"/>
<path d="M1.70782 1.2397L1.77652 1.44553L1.99368 1.44718C2.0218 1.44743 2.03344 1.48325 2.01083 1.49994L1.83614 1.62885L1.90167 1.8357C1.91018 1.86247 1.87963 1.88467 1.85674 1.8683L1.68008 1.74213L1.50342 1.8683C1.48054 1.88463 1.45006 1.86247 1.45849 1.8357L1.52402 1.62885L1.34933 1.49994C1.32673 1.48322 1.33836 1.44743 1.36649 1.44718L1.58365 1.44553L1.65234 1.2397C1.66117 1.21307 1.69893 1.21307 1.70782 1.2397Z" fill="#F5F5F5"/>
<path d="M1.70782 2.31638L1.77652 2.52222L1.99368 2.52387C2.0218 2.52411 2.03344 2.55994 2.01083 2.57662L1.83614 2.70553L1.90167 2.91239C1.91018 2.93915 1.87963 2.96135 1.85674 2.94498L1.68008 2.81881L1.50342 2.94498C1.48054 2.96132 1.45006 2.93919 1.45849 2.91239L1.52402 2.70553L1.34933 2.57662C1.32673 2.55991 1.33836 2.52411 1.36649 2.52387L1.58365 2.52222L1.65234 2.31638C1.66117 2.28972 1.69893 2.28972 1.70782 2.31638Z" fill="#F5F5F5"/>
<path d="M1.70782 3.39304L1.77652 3.59888L1.99368 3.60053C2.0218 3.60077 2.03344 3.6366 2.01083 3.65328L1.83614 3.78219L1.90167 3.98905C1.91018 4.01581 1.87963 4.03801 1.85674 4.02164L1.68008 3.89547L1.50342 4.02164C1.48054 4.03798 1.45006 4.01581 1.45849 3.98905L1.52402 3.78219L1.34933 3.65328C1.32673 3.63657 1.33836 3.60077 1.36649 3.60053L1.58365 3.59888L1.65234 3.39304C1.66117 3.36638 1.69893 3.36638 1.70782 3.39304Z" fill="#F5F5F5"/>
<path d="M1.70782 4.46968L1.77652 4.67551L1.99368 4.67716C2.0218 4.67741 2.03344 4.71323 2.01083 4.72992L1.83614 4.85883L1.90167 5.06568C1.91018 5.09245 1.87963 5.11465 1.85674 5.09828L1.68008 4.97211L1.50342 5.09828C1.48054 5.11461 1.45006 5.09245 1.45849 5.06568L1.52402 4.85883L1.34933 4.72992C1.32673 4.7132 1.33836 4.67741 1.36649 4.67716L1.58365 4.67551L1.65234 4.46968C1.66117 4.44305 1.69893 4.44305 1.70782 4.46968Z" fill="#F5F5F5"/>
<path d="M2.54425 0.711645L2.61294 0.917479L2.8301 0.91913C2.85823 0.919376 2.86986 0.955204 2.84726 0.971888L2.67257 1.1008L2.7381 1.30765C2.74661 1.33442 2.71605 1.35662 2.69317 1.34025L2.51651 1.21408L2.33985 1.34025C2.31696 1.35658 2.28648 1.33442 2.29492 1.30765L2.36045 1.1008L2.18576 0.971888C2.16315 0.955169 2.17479 0.919376 2.20291 0.91913L2.42007 0.917479L2.48877 0.711645C2.49763 0.684985 2.53535 0.684985 2.54425 0.711645Z" fill="#F5F5F5"/>
<path d="M2.54425 1.78828L2.61294 1.99411L2.8301 1.99576C2.85823 1.99601 2.86986 2.03184 2.84726 2.04852L2.67257 2.17743L2.7381 2.38428C2.74661 2.41105 2.71605 2.43325 2.69317 2.41688L2.51651 2.29071L2.33985 2.41688C2.31696 2.43321 2.28648 2.41105 2.29492 2.38428L2.36045 2.17743L2.18576 2.04852C2.16315 2.0318 2.17479 1.99601 2.20291 1.99576L2.42007 1.99411L2.48877 1.78828C2.49763 1.76165 2.53535 1.76165 2.54425 1.78828Z" fill="#F5F5F5"/>
<path d="M2.54425 2.86518L2.61294 3.07102L2.8301 3.07267C2.85823 3.07291 2.86986 3.10874 2.84726 3.12543L2.67257 3.25434L2.7381 3.46119C2.74661 3.48795 2.71605 3.51015 2.69317 3.49379L2.51651 3.36762L2.33985 3.49379C2.31696 3.51012 2.28648 3.48795 2.29492 3.46119L2.36045 3.25434L2.18576 3.12543C2.16315 3.10871 2.17479 3.07291 2.20291 3.07267L2.42007 3.07102L2.48877 2.86518C2.49763 2.83856 2.53535 2.83856 2.54425 2.86518Z" fill="#F5F5F5"/>
<path d="M2.54425 3.94187L2.61294 4.1477L2.8301 4.14935C2.85823 4.1496 2.86986 4.18543 2.84726 4.20211L2.67257 4.33102L2.7381 4.53787C2.74661 4.56464 2.71605 4.58684 2.69317 4.57047L2.51651 4.4443L2.33985 4.57047C2.31696 4.5868 2.28648 4.56464 2.29492 4.53787L2.36045 4.33102L2.18576 4.20211C2.16315 4.18539 2.17479 4.1496 2.20291 4.14935L2.42007 4.1477L2.48877 3.94187C2.49763 3.91521 2.53535 3.91521 2.54425 3.94187Z" fill="#F5F5F5"/>
<path d="M2.54425 5.01856L2.61294 5.22439L2.8301 5.22604C2.85823 5.22629 2.86986 5.26211 2.84726 5.2788L2.67257 5.40771L2.7381 5.61456C2.74661 5.64133 2.71605 5.66353 2.69317 5.64716L2.51651 5.52099L2.33985 5.64716C2.31696 5.66349 2.28648 5.64133 2.29492 5.61456L2.36045 5.40771L2.18576 5.2788C2.16315 5.26208 2.17479 5.22629 2.20291 5.22604L2.42007 5.22439L2.48877 5.01856C2.49763 4.99186 2.53535 4.99186 2.54425 5.01856Z" fill="#F5F5F5"/>
<path d="M3.38092 1.2397L3.44961 1.44553L3.66677 1.44718C3.6949 1.44743 3.70653 1.48325 3.68393 1.49994L3.50924 1.62885L3.57477 1.8357C3.58328 1.86247 3.55272 1.88467 3.52984 1.8683L3.35318 1.74213L3.17652 1.8683C3.15363 1.88463 3.12315 1.86247 3.13159 1.8357L3.19712 1.62885L3.02243 1.49994C2.99982 1.48322 3.01146 1.44743 3.03958 1.44718L3.25674 1.44553L3.32544 1.2397C3.33426 1.21307 3.37202 1.21307 3.38092 1.2397Z" fill="#F5F5F5"/>
<path d="M3.38092 2.31638L3.44961 2.52222L3.66677 2.52387C3.6949 2.52411 3.70653 2.55994 3.68393 2.57662L3.50924 2.70553L3.57477 2.91239C3.58328 2.93915 3.55272 2.96135 3.52984 2.94498L3.35318 2.81881L3.17652 2.94498C3.15363 2.96132 3.12315 2.93919 3.13159 2.91239L3.19712 2.70553L3.02243 2.57662C2.99982 2.55991 3.01146 2.52411 3.03958 2.52387L3.25674 2.52222L3.32544 2.31638C3.33426 2.28972 3.37202 2.28972 3.38092 2.31638Z" fill="#F5F5F5"/>
<path d="M3.38092 3.39304L3.44961 3.59888L3.66677 3.60053C3.6949 3.60077 3.70653 3.6366 3.68393 3.65328L3.50924 3.78219L3.57477 3.98905C3.58328 4.01581 3.55272 4.03801 3.52984 4.02164L3.35318 3.89547L3.17652 4.02164C3.15363 4.03798 3.12315 4.01581 3.13159 3.98905L3.19712 3.78219L3.02243 3.65328C2.99982 3.63657 3.01146 3.60077 3.03958 3.60053L3.25674 3.59888L3.32544 3.39304C3.33426 3.36638 3.37202 3.36638 3.38092 3.39304Z" fill="#F5F5F5"/>
<path d="M3.38092 4.46968L3.44961 4.67551L3.66677 4.67716C3.6949 4.67741 3.70653 4.71323 3.68393 4.72992L3.50924 4.85883L3.57477 5.06568C3.58328 5.09245 3.55272 5.11465 3.52984 5.09828L3.35318 4.97211L3.17652 5.09828C3.15363 5.11461 3.12315 5.09245 3.13159 5.06568L3.19712 4.85883L3.02243 4.72992C2.99982 4.7132 3.01146 4.67741 3.03958 4.67716L3.25674 4.67551L3.32544 4.46968C3.33426 4.44305 3.37202 4.44305 3.38092 4.46968Z" fill="#F5F5F5"/>
<path d="M4.21738 0.711645L4.28607 0.917479L4.50323 0.91913C4.53136 0.919376 4.54299 0.955204 4.52039 0.971888L4.3457 1.1008L4.41123 1.30765C4.41974 1.33442 4.38919 1.35662 4.3663 1.34025L4.1896 1.21408L4.01294 1.34025C3.99006 1.35658 3.95958 1.33442 3.96801 1.30765L4.03355 1.1008L3.85885 0.971888C3.83625 0.955169 3.84789 0.919376 3.87601 0.91913L4.09317 0.917479L4.16187 0.711645C4.17076 0.684985 4.20848 0.684985 4.21738 0.711645Z" fill="#F5F5F5"/>
<path d="M4.21738 1.78828L4.28607 1.99411L4.50323 1.99576C4.53136 1.99601 4.54299 2.03184 4.52039 2.04852L4.3457 2.17743L4.41123 2.38428C4.41974 2.41105 4.38919 2.43325 4.3663 2.41688L4.1896 2.29071L4.01294 2.41688C3.99006 2.43321 3.95958 2.41105 3.96801 2.38428L4.03355 2.17743L3.85885 2.04852C3.83625 2.0318 3.84789 1.99601 3.87601 1.99576L4.09317 1.99411L4.16187 1.78828C4.17076 1.76165 4.20848 1.76165 4.21738 1.78828Z" fill="#F5F5F5"/>
<path d="M4.21738 2.86518L4.28607 3.07102L4.50323 3.07267C4.53136 3.07291 4.54299 3.10874 4.52039 3.12543L4.3457 3.25434L4.41123 3.46119C4.41974 3.48795 4.38919 3.51015 4.3663 3.49379L4.1896 3.36762L4.01294 3.49379C3.99006 3.51012 3.95958 3.48795 3.96801 3.46119L4.03355 3.25434L3.85885 3.12543C3.83625 3.10871 3.84789 3.07291 3.87601 3.07267L4.09317 3.07102L4.16187 2.86518C4.17076 2.83856 4.20848 2.83856 4.21738 2.86518Z" fill="#F5F5F5"/>
<path d="M4.21738 3.94187L4.28607 4.1477L4.50323 4.14935C4.53136 4.1496 4.54299 4.18543 4.52039 4.20211L4.3457 4.33102L4.41123 4.53787C4.41974 4.56464 4.38919 4.58684 4.3663 4.57047L4.1896 4.4443L4.01294 4.57047C3.99006 4.5868 3.95958 4.56464 3.96801 4.53787L4.03355 4.33102L3.85885 4.20211C3.83625 4.18539 3.84789 4.1496 3.87601 4.14935L4.09317 4.1477L4.16187 3.94187C4.17076 3.91521 4.20848 3.91521 4.21738 3.94187Z" fill="#F5F5F5"/>
<path d="M4.21738 5.01856L4.28607 5.22439L4.50323 5.22604C4.53136 5.22629 4.54299 5.26211 4.52039 5.2788L4.3457 5.40771L4.41123 5.61456C4.41974 5.64133 4.38919 5.66353 4.3663 5.64716L4.1896 5.52099L4.01294 5.64716C3.99006 5.66349 3.95958 5.64133 3.96801 5.61456L4.03355 5.40771L3.85885 5.2788C3.83625 5.26208 3.84789 5.22629 3.87601 5.22604L4.09317 5.22439L4.16187 5.01856C4.17076 4.99186 4.20848 4.99186 4.21738 5.01856Z" fill="#F5F5F5"/>
<path d="M5.05377 1.2397L5.12246 1.44553L5.33962 1.44718C5.36775 1.44743 5.37938 1.48325 5.35678 1.49994L5.18209 1.62885L5.24762 1.8357C5.25613 1.86247 5.22558 1.88467 5.20269 1.8683L5.02603 1.74213L4.84937 1.8683C4.82648 1.88463 4.796 1.86247 4.80444 1.8357L4.86997 1.62885L4.69528 1.49994C4.67267 1.48322 4.68431 1.44743 4.71244 1.44718L4.9296 1.44553L4.99829 1.2397C5.00719 1.21307 5.04487 1.21307 5.05377 1.2397Z" fill="#F5F5F5"/>
<path d="M5.05377 2.31638L5.12246 2.52222L5.33962 2.52387C5.36775 2.52411 5.37938 2.55994 5.35678 2.57662L5.18209 2.70553L5.24762 2.91239C5.25613 2.93915 5.22558 2.96135 5.20269 2.94498L5.02603 2.81881L4.84937 2.94498C4.82648 2.96132 4.796 2.93919 4.80444 2.91239L4.86997 2.70553L4.69528 2.57662C4.67267 2.55991 4.68431 2.52411 4.71244 2.52387L4.9296 2.52222L4.99829 2.31638C5.00719 2.28972 5.04487 2.28972 5.05377 2.31638Z" fill="#F5F5F5"/>
<path d="M5.05377 3.39304L5.12246 3.59888L5.33962 3.60053C5.36775 3.60077 5.37938 3.6366 5.35678 3.65328L5.18209 3.78219L5.24762 3.98905C5.25613 4.01581 5.22558 4.03801 5.20269 4.02164L5.02603 3.89547L4.84937 4.02164C4.82648 4.03798 4.796 4.01581 4.80444 3.98905L4.86997 3.78219L4.69528 3.65328C4.67267 3.63657 4.68431 3.60077 4.71244 3.60053L4.9296 3.59888L4.99829 3.39304C5.00719 3.36638 5.04487 3.36638 5.05377 3.39304Z" fill="#F5F5F5"/>
<path d="M5.05377 4.46968L5.12246 4.67551L5.33962 4.67716C5.36775 4.67741 5.37938 4.71323 5.35678 4.72992L5.18209 4.85883L5.24762 5.06568C5.25613 5.09245 5.22558 5.11465 5.20269 5.09828L5.02603 4.97211L4.84937 5.09828C4.82648 5.11461 4.796 5.09245 4.80444 5.06568L4.86997 4.85883L4.69528 4.72992C4.67267 4.7132 4.68431 4.67741 4.71244 4.67716L4.9296 4.67551L4.99829 4.46968C5.00719 4.44305 5.04487 4.44305 5.05377 4.46968Z" fill="#F5F5F5"/>
<path d="M5.89019 0.711645L5.95889 0.917479L6.17605 0.91913C6.20417 0.919376 6.21581 0.955204 6.1932 0.971888L6.01851 1.1008L6.08404 1.30765C6.09255 1.33442 6.062 1.35662 6.03912 1.34025L5.86246 1.21408L5.6858 1.34025C5.66291 1.35658 5.63243 1.33442 5.64087 1.30765L5.7064 1.1008L5.53171 0.971888C5.5091 0.955169 5.52074 0.919376 5.54886 0.91913L5.76602 0.917479L5.83472 0.711645C5.84354 0.684985 5.8813 0.684985 5.89019 0.711645Z" fill="#F5F5F5"/>
<path d="M5.89019 1.78828L5.95889 1.99411L6.17605 1.99576C6.20417 1.99601 6.21581 2.03184 6.1932 2.04852L6.01851 2.17743L6.08404 2.38428C6.09255 2.41105 6.062 2.43325 6.03912 2.41688L5.86246 2.29071L5.6858 2.41688C5.66291 2.43321 5.63243 2.41105 5.64087 2.38428L5.7064 2.17743L5.53171 2.04852C5.5091 2.0318 5.52074 1.99601 5.54886 1.99576L5.76602 1.99411L5.83472 1.78828C5.84354 1.76165 5.8813 1.76165 5.89019 1.78828Z" fill="#F5F5F5"/>
<path d="M5.89019 2.86518L5.95889 3.07102L6.17605 3.07267C6.20417 3.07291 6.21581 3.10874 6.1932 3.12543L6.01851 3.25434L6.08404 3.46119C6.09255 3.48795 6.062 3.51015 6.03912 3.49379L5.86246 3.36762L5.6858 3.49379C5.66291 3.51012 5.63243 3.48795 5.64087 3.46119L5.7064 3.25434L5.53171 3.12543C5.5091 3.10871 5.52074 3.07291 5.54886 3.07267L5.76602 3.07102L5.83472 2.86518C5.84354 2.83856 5.8813 2.83856 5.89019 2.86518Z" fill="#F5F5F5"/>
<path d="M5.89019 3.94187L5.95889 4.1477L6.17605 4.14935C6.20417 4.1496 6.21581 4.18543 6.1932 4.20211L6.01851 4.33102L6.08404 4.53787C6.09255 4.56464 6.062 4.58684 6.03912 4.57047L5.86246 4.4443L5.6858 4.57047C5.66291 4.5868 5.63243 4.56464 5.64087 4.53787L5.7064 4.33102L5.53171 4.20211C5.5091 4.18539 5.52074 4.1496 5.54886 4.14935L5.76602 4.1477L5.83472 3.94187C5.84354 3.91521 5.8813 3.91521 5.89019 3.94187Z" fill="#F5F5F5"/>
<path d="M5.89019 5.01856L5.95889 5.22439L6.17605 5.22604C6.20417 5.22629 6.21581 5.26211 6.1932 5.2788L6.01851 5.40771L6.08404 5.61456C6.09255 5.64133 6.062 5.66353 6.03912 5.64716L5.86246 5.52099L5.6858 5.64716C5.66291 5.66349 5.63243 5.64133 5.64087 5.61456L5.7064 5.40771L5.53171 5.2788C5.5091 5.26208 5.52074 5.22629 5.54886 5.22604L5.76602 5.22439L5.83472 5.01856C5.84354 4.99186 5.8813 4.99186 5.89019 5.01856Z" fill="#F5F5F5"/>
<path d="M6.72686 1.2397L6.79556 1.44553L7.01272 1.44718C7.04084 1.44743 7.05248 1.48325 7.02987 1.49994L6.85518 1.62885L6.92071 1.8357C6.92922 1.86247 6.89867 1.88467 6.87579 1.8683L6.69912 1.74213L6.52247 1.8683C6.49958 1.88463 6.4691 1.86247 6.47754 1.8357L6.54307 1.62885L6.36838 1.49994C6.34577 1.48322 6.35741 1.44743 6.38553 1.44718L6.60269 1.44553L6.67139 1.2397C6.68025 1.21307 6.718 1.21307 6.72686 1.2397Z" fill="#F5F5F5"/>
<path d="M6.72686 2.31638L6.79556 2.52222L7.01272 2.52387C7.04084 2.52411 7.05248 2.55994 7.02987 2.57662L6.85518 2.70553L6.92071 2.91239C6.92922 2.93915 6.89867 2.96135 6.87579 2.94498L6.69912 2.81881L6.52247 2.94498C6.49958 2.96132 6.4691 2.93919 6.47754 2.91239L6.54307 2.70553L6.36838 2.57662C6.34577 2.55991 6.35741 2.52411 6.38553 2.52387L6.60269 2.52222L6.67139 2.31638C6.68025 2.28972 6.718 2.28972 6.72686 2.31638Z" fill="#F5F5F5"/>
<path d="M6.72686 3.39304L6.79556 3.59888L7.01272 3.60053C7.04084 3.60077 7.05248 3.6366 7.02987 3.65328L6.85518 3.78219L6.92071 3.98905C6.92922 4.01581 6.89867 4.03801 6.87579 4.02164L6.69912 3.89547L6.52247 4.02164C6.49958 4.03798 6.4691 4.01581 6.47754 3.98905L6.54307 3.78219L6.36838 3.65328C6.34577 3.63657 6.35741 3.60077 6.38553 3.60053L6.60269 3.59888L6.67139 3.39304C6.68025 3.36638 6.718 3.36638 6.72686 3.39304Z" fill="#F5F5F5"/>
<path d="M6.72686 4.46968L6.79556 4.67551L7.01272 4.67716C7.04084 4.67741 7.05248 4.71323 7.02987 4.72992L6.85518 4.85883L6.92071 5.06568C6.92922 5.09245 6.89867 5.11465 6.87579 5.09828L6.69912 4.97211L6.52247 5.09828C6.49958 5.11461 6.4691 5.09245 6.47754 5.06568L6.54307 4.85883L6.36838 4.72992C6.34577 4.7132 6.35741 4.67741 6.38553 4.67716L6.60269 4.67551L6.67139 4.46968C6.68025 4.44305 6.718 4.44305 6.72686 4.46968Z" fill="#F5F5F5"/>
<path d="M7.56329 0.711645L7.63198 0.917479L7.84914 0.91913C7.87727 0.919376 7.88891 0.955204 7.8663 0.971888L7.69161 1.1008L7.75714 1.30765C7.76565 1.33442 7.7351 1.35662 7.71221 1.34025L7.53555 1.21408L7.35889 1.34025C7.336 1.35658 7.30552 1.33442 7.31396 1.30765L7.37949 1.1008L7.2048 0.971888C7.1822 0.955169 7.19383 0.919376 7.22196 0.91913L7.43912 0.917479L7.50781 0.711645C7.51667 0.684985 7.55436 0.684985 7.56329 0.711645Z" fill="#F5F5F5"/>
<path d="M7.56329 1.78828L7.63198 1.99411L7.84914 1.99576C7.87727 1.99601 7.88891 2.03184 7.8663 2.04852L7.69161 2.17743L7.75714 2.38428C7.76565 2.41105 7.7351 2.43325 7.71221 2.41688L7.53555 2.29071L7.35889 2.41688C7.336 2.43321 7.30552 2.41105 7.31396 2.38428L7.37949 2.17743L7.2048 2.04852C7.1822 2.0318 7.19383 1.99601 7.22196 1.99576L7.43912 1.99411L7.50781 1.78828C7.51667 1.76165 7.55436 1.76165 7.56329 1.78828Z" fill="#F5F5F5"/>
<path d="M7.56329 2.86518L7.63198 3.07102L7.84914 3.07267C7.87727 3.07291 7.88891 3.10874 7.8663 3.12543L7.69161 3.25434L7.75714 3.46119C7.76565 3.48795 7.7351 3.51015 7.71221 3.49379L7.53555 3.36762L7.35889 3.49379C7.336 3.51012 7.30552 3.48795 7.31396 3.46119L7.37949 3.25434L7.2048 3.12543C7.1822 3.10871 7.19383 3.07291 7.22196 3.07267L7.43912 3.07102L7.50781 2.86518C7.51667 2.83856 7.55436 2.83856 7.56329 2.86518Z" fill="#F5F5F5"/>
<path d="M7.56329 3.94187L7.63198 4.1477L7.84914 4.14935C7.87727 4.1496 7.88891 4.18543 7.8663 4.20211L7.69161 4.33102L7.75714 4.53787C7.76565 4.56464 7.7351 4.58684 7.71221 4.57047L7.53555 4.4443L7.35889 4.57047C7.336 4.5868 7.30552 4.56464 7.31396 4.53787L7.37949 4.33102L7.2048 4.20211C7.1822 4.18539 7.19383 4.1496 7.22196 4.14935L7.43912 4.1477L7.50781 3.94187C7.51667 3.91521 7.55436 3.91521 7.56329 3.94187Z" fill="#F5F5F5"/>
<path d="M7.56329 5.01856L7.63198 5.22439L7.84914 5.22604C7.87727 5.22629 7.88891 5.26211 7.8663 5.2788L7.69161 5.40771L7.75714 5.61456C7.76565 5.64133 7.7351 5.66353 7.71221 5.64716L7.53555 5.52099L7.35889 5.64716C7.336 5.66349 7.30552 5.64133 7.31396 5.61456L7.37949 5.40771L7.2048 5.2788C7.1822 5.26208 7.19383 5.22629 7.22196 5.22604L7.43912 5.22439L7.50781 5.01856C7.51667 4.99186 7.55436 4.99186 7.56329 5.01856Z" fill="#F5F5F5"/>
</svg>
